<svg xmlns="http://www.w3.org/2000/svg" width="169" height="64" fill="none" viewBox="0 0 169 64">
  <g clip-path="url(#a)">
    <path fill="#DF00A6" fill-rule="evenodd" d="M37.494 29.863c1.504.049 2.699.534 3.894 1.078 3.92 1.788 5.232 4.563 2.545 7.29-4.177 4.227-13.907 6.995-21.452 5.718-1.67-.282-3.933-.53-5.591-1.904-1.542-1.278-1.478-2.798-.771-4.204.72-1.442 2.108-2.77 3.213-3.623 4.833-3.722 14.511-7.105 23.264-5.322.18.035.36-.024.412-.132.051-.107-.039-.222-.206-.256-9.01-1.836-18.997 1.62-23.971 5.45-1.375 1.065-3.175 2.84-3.689 4.678-.347 1.256-.103 2.54 1.234 3.656 1.76 1.464 4.164 1.751 5.938 2.05 7.79 1.32 17.853-1.528 22.159-5.895 2.892-2.93 1.504-5.915-2.712-7.837-1.285-.591-2.596-1.102-4.229-1.155-.18-.006-.334.08-.334.193-.013.113.129.209.296.215Z" clip-rule="evenodd"/>
    <path fill="#580DD9" fill-rule="evenodd" d="M119.667 29.342c2.547.319 4.519 1.088 6.484 1.927 6.442 2.753 8.338 6.193 3.454 8.88-7.595 4.164-24.441 5.67-37.097 2.877-2.804-.617-6.614-1.299-9.266-3.179-2.466-1.748-2.177-3.495-.81-5 1.394-1.543 3.908-2.837 5.886-3.631 8.647-3.466 25.479-5.693 40.127-2.103.301.071.614.034.714-.081.1-.115-.039-.264-.319-.333-15.077-3.695-32.442-1.437-41.342 2.129-2.461.991-5.727 2.733-6.818 4.77-.739 1.393-.477 2.921 1.66 4.447 2.815 2.001 6.861 2.752 9.837 3.408 13.066 2.885 30.489 1.344 38.318-2.96 5.258-2.887 3.256-6.583-3.672-9.543-2.112-.908-4.277-1.727-7.042-2.073-.305-.038-.577.035-.59.165-.035.128.193.264.476.3Z" clip-rule="evenodd"/>
    <path fill="#DF00A6" d="M11.024 51.77a1.61 1.61 0 0 1-.12-.07l-.15-.13a.698.698 0 0 1-.1-.14c-.02-.033-.02-.093 0-.18.026-.087.053-.13.08-.13.02.013.053-.01.1-.07a4.67 4.67 0 0 0 .14-.19.493.493 0 0 0 .07-.13.09.09 0 0 1 .05-.06c.033-.02.063-.04.09-.06a.914.914 0 0 1 .13-.16c.06-.06.106-.11.14-.15.053-.067.15-.167.29-.3.14-.133.276-.27.41-.41.14-.153.263-.287.37-.4.106-.12.163-.203.17-.25l.03-.03a.466.466 0 0 1 .09-.07.98.98 0 0 0 .13-.1c.06-.047.11-.09.15-.13a.824.824 0 0 1 .11-.22c.066-.1.133-.183.2-.25a2.43 2.43 0 0 0 .15-.26 1.9 1.9 0 0 0 .09-.22c.02-.073.02-.117 0-.13-.02-.02-.104-.053-.25-.1a1.368 1.368 0 0 0-.53-.06c-.187.007-.397.093-.63.26-.094.02-.18.047-.26.08a.361.361 0 0 1-.19.04.28.28 0 0 1-.09-.09 1.025 1.025 0 0 0-.11-.13l-.1-.21.31-.17a3.12 3.12 0 0 1 .74-.36c.226-.067.433-.07.62-.01.073 0 .14.01.2.03l.09.02c.053-.007.12.023.2.09.08.06.156.137.23.23.08.093.14.187.18.28.106.16.14.33.1.51-.034.173-.134.383-.3.63l-.22.25-.39.43c-.14.153-.27.29-.39.41-.114.12-.187.197-.22.23-.047.02-.127.09-.24.21-.107.113-.224.24-.35.38-.12.133-.224.253-.31.36-.08.1-.114.15-.1.15-.007.027.003.04.03.04.026-.007.07-.02.13-.04.1-.033.23-.067.39-.1a6.31 6.31 0 0 1 .51-.08c.173-.027.323-.043.45-.05.133-.007.21 0 .23.02.013.033.023.047.03.04l.02-.02c.013-.047.096-.06.25-.04.16.02.303.05.43.09.073.02.13.037.17.05.046.013.07.033.07.06l.02.05c.02.027.05.063.09.11.106.087.12.143.04.17-.08.027-.254.017-.52-.03-.174 0-.317.01-.43.03a.456.456 0 0 1-.17.02c-.087 0-.17.003-.25.01a1.092 1.092 0 0 0-.36.02 3.17 3.17 0 0 0-.43.11l-.28.09c-.127.04-.264.08-.41.12-.147.04-.28.07-.4.09a.78.78 0 0 1-.22.02Zm7.452-.23a.62.62 0 0 1-.33-.08.682.682 0 0 1-.22-.29 3.101 3.101 0 0 1-.07-.31 2.85 2.85 0 0 1-.02-.33c0-.107.01-.177.03-.21.026-.027.036-.073.03-.14v-.23c-.007-.133-.04-.207-.1-.22-.054-.02-.134 0-.24.06-.12.073-.277.173-.47.3-.194.12-.397.253-.61.4-.207.147-.404.3-.59.46-.147.16-.237.283-.27.37-.027.08-.067.12-.12.12-.054.027-.1.03-.14.01l-.15-.12a3.066 3.066 0 0 0-.14-.15.68.68 0 0 1-.09-.12c0-.033.01-.103.03-.21.02-.107.043-.213.07-.32.033-.107.056-.177.07-.21.033 0 .06-.033.08-.1a1.23 1.23 0 0 1 .12-.22 1.66 1.66 0 0 1 .1-.32l.16-.37c.093-.16.156-.293.19-.4.04-.107.066-.24.08-.4a.07.07 0 0 1 .02-.07c.02-.027.043-.04.07-.04a.168.168 0 0 1 .19-.04c.073.02.14.07.2.15a.65.65 0 0 1 .14.5c-.02.167-.127.407-.32.72l-.11.25a.392.392 0 0 0-.03.13l.1-.07c.073-.047.153-.1.24-.16a4.62 4.62 0 0 1 .22-.15 2.39 2.39 0 0 1 .23-.18c.12-.087.246-.17.38-.25.14-.087.243-.137.31-.15.053-.027.11-.05.17-.07a.377.377 0 0 1 .13-.04c.053 0 .12.03.2.09.086.053.166.12.24.2a.456.456 0 0 1 .13.19v.08l.02.08c.026.087.04.203.04.35.006.147.003.28-.01.4-.014.12-.037.19-.07.21v.03c.006.013.023.02.05.02v.05c-.034 0-.047.03-.04.09a.572.572 0 0 0 .06.18c.04.067.08.12.12.16.08.08.113.157.1.23-.014.067-.074.113-.18.14Zm3.521.36c-.026 0-.066-.003-.12-.01a.222.222 0 0 1-.12-.09 1.02 1.02 0 0 1-.19-.3.828.828 0 0 1-.01-.35c.014-.1.02-.187.02-.26a5.02 5.02 0 0 1 .02-.2c-.026-.027-.076-.007-.15.06-.066.06-.16.137-.28.23-.226.26-.43.46-.61.6a1.68 1.68 0 0 1-.47.27 1.05 1.05 0 0 1-.4.04.397.397 0 0 1-.27-.14.702.702 0 0 1-.13-.33 2.32 2.32 0 0 1 0-.43c.027-.22.074-.43.14-.63.074-.2.19-.423.35-.67a1.95 1.95 0 0 1 .29-.39c.127-.133.264-.25.41-.35.154-.107.3-.183.44-.23.154-.06.31-.093.47-.1.16-.013.304 0 .43.04.08.04.144.06.19.06.054 0 .094-.033.12-.1.034-.053.067-.133.1-.24.034-.113.074-.21.12-.29l.22-.65c.074-.18.154-.37.24-.57.087-.2.19-.443.31-.73.114-.213.207-.337.28-.37.074-.04.157-.013.25.08a.35.35 0 0 1 .08.3c-.02.107-.08.28-.18.52a4.276 4.276 0 0 0-.26.5 35.87 35.87 0 0 1-.24.56c-.073.16-.15.343-.23.55-.026.107-.063.23-.11.37a9 9 0 0 0-.1.38c-.02.107-.043.207-.07.3-.02.087-.043.13-.07.13a.895.895 0 0 0-.15.32 5.06 5.06 0 0 0-.12.46c-.026.16-.05.293-.07.4-.013.08-.023.183-.03.31-.006.127-.01.25-.01.37v.24c0 .147-.003.24-.01.28-.006.04-.033.06-.08.06Zm-2.13-.63c.14 0 .287-.06.44-.18.16-.12.32-.253.48-.4.1-.093.207-.217.32-.37.12-.153.234-.307.34-.46.114-.153.204-.287.27-.4.067-.12.1-.193.1-.22 0-.033-.03-.057-.09-.07a.979.979 0 0 0-.21-.02.504.504 0 0 0-.18.01c-.146.033-.293.1-.44.2-.14.1-.293.25-.46.45a3.601 3.601 0 0 0-.43.66 2.353 2.353 0 0 0-.2.57c-.026.153-.006.23.06.23Zm5.478 2.96a.583.583 0 0 1-.15-.1.595.595 0 0 1-.13-.16.274.274 0 0 1-.05-.14c0-.04.017-.147.05-.32.034-.167.077-.373.13-.62.06-.24.123-.487.19-.74a9.475 9.475 0 0 1 .35-.99c.08-.193.157-.427.23-.7.053-.173.123-.37.21-.59.087-.22.177-.44.27-.66.093-.227.17-.427.23-.6s.11-.313.15-.42c.047-.113.073-.183.08-.21a.25.25 0 0 1 .06-.1.524.524 0 0 1 .1-.08.292.292 0 0 1 .08-.05c.12-.033.224.017.31.15.034.06.04.13.02.21-.02.08-.056.18-.11.3l-.07.2.36-.08c.06 0 .133.003.22.01h.27c.087 0 .15.007.19.02.16.007.27.037.33.09a.673.673 0 0 1 .17.21c.034.033.073.08.12.14a.304.304 0 0 1 .08.16.866.866 0 0 1 0 .37c-.02.127-.06.253-.12.38a1.4 1.4 0 0 1-.5.6 1.136 1.136 0 0 0-.18.09l-.08.04c-.007.033-.08.087-.22.16-.14.067-.3.13-.48.19s-.336.1-.47.12a3.318 3.318 0 0 1-.2.02.352.352 0 0 1-.2-.03 1.03 1.03 0 0 0-.15-.02c-.026 0-.04.013-.04.04a17.482 17.482 0 0 0-.41 1.35c-.127.387-.23.693-.31.92-.08.233-.143.407-.19.52-.04.113-.07.19-.09.23a.324.324 0 0 1-.05.09Zm1.25-3.69c.02.04.084.053.19.04.113-.02.247-.06.4-.12.16-.067.317-.14.47-.22.153-.087.28-.173.38-.26.147-.167.267-.32.36-.46.093-.147.107-.243.04-.29-.073-.107-.21-.157-.41-.15-.2.007-.447.09-.74.25a.618.618 0 0 0-.26.16.843.843 0 0 0-.14.23c-.04.093-.09.207-.15.34-.06.147-.1.257-.12.33-.02.073-.026.123-.02.15Zm3.66 1.31a.392.392 0 0 1-.21-.05 3.599 3.599 0 0 1-.18-.14 1.39 1.39 0 0 1-.27-.38.633.633 0 0 1-.05-.36.31.31 0 0 0 .02-.15v-.08c-.034-.033-.044-.053-.03-.06a.234.234 0 0 0 .04-.06c.04 0 .053-.037.04-.11-.014-.053.013-.17.08-.35.066-.18.15-.35.25-.51.04-.067.1-.153.18-.26a4.03 4.03 0 0 1 .26-.33 2.593 2.593 0 0 1 .71-.58 1.63 1.63 0 0 1 .41-.15c.146-.033.246-.05.3-.05.06 0 .14.053.24.16a.772.772 0 0 1 .33.24c.073.093.12.23.14.41.02.2.003.43-.05.69-.047.253-.204.57-.47.95-.167.24-.32.42-.46.54a4.06 4.06 0 0 1-.5.34 2.3 2.3 0 0 1-.38.21c-.114.04-.247.067-.4.08Zm.96-1.06a3.1 3.1 0 0 0 .66-1.12.979.979 0 0 0 .05-.27 1.562 1.562 0 0 0-.01-.31c-.007-.1-.03-.157-.07-.17a.416.416 0 0 0-.29-.04c-.114.013-.237.077-.37.19-.207.173-.387.39-.54.65a8.032 8.032 0 0 0-.45.87c-.1.24-.124.433-.07.58.06.14.183.19.37.15.193-.047.433-.223.72-.53Zm2.485 1.25a1.637 1.637 0 0 1-.36-.21.946.946 0 0 1-.22-.23c0-.06.01-.1.03-.12.02-.027.077-.037.17-.03.1 0 .26.013.48.04a2.813 2.813 0 0 0 .63-.08c.106-.027.166-.06.18-.1.033 0 .04-.01.02-.03a.747.747 0 0 0-.07-.08.18.18 0 0 1-.09-.03c-.033-.027-.063-.04-.09-.04 0-.033-.034-.07-.1-.11a.781.781 0 0 0-.19-.11c-.147-.12-.274-.227-.38-.32-.107-.1-.147-.167-.12-.2v-.05c-.047 0-.1-.067-.16-.2a.983.983 0 0 1-.08-.36c0-.08.023-.18.07-.3.047-.127.11-.257.19-.39a1.71 1.71 0 0 1 .25-.33c.12-.113.27-.233.45-.36.18-.133.356-.25.53-.35.18-.107.33-.177.45-.21.12-.047.23-.07.33-.07.107 0 .2.023.28.07a.54.54 0 0 1 .18.15c.06.06.11.123.15.19.047.06.077.113.09.16 0 .08-.007.17-.02.27a1.246 1.246 0 0 1-.06.25c-.02.073-.053.11-.1.11l-.03.01c-.014 0-.02.017-.02.05 0 .067-.05.143-.15.23a.98.98 0 0 1-.33.16c-.093.013-.15-.023-.17-.11a.262.262 0 0 1-.04-.07c-.007-.02-.023-.03-.05-.03l-.03-.03c-.02-.02-.03-.053-.03-.1 0-.027.01-.05.03-.07l.03-.04c.033 0 .076-.037.13-.11.053-.08.1-.163.14-.25a.555.555 0 0 0 .07-.19c0-.04-.007-.063-.02-.07-.007-.007-.037-.01-.09-.01a9.92 9.92 0 0 0-.72.36 1.07 1.07 0 0 0-.25.17 2.766 2.766 0 0 0-.05.09c-.007.007-.024.01-.05.01 0-.027-.023-.013-.07.04a5.18 5.18 0 0 0-.16.2l-.18.26-.12.18a.36.36 0 0 0-.05.12.787.787 0 0 0-.02.17c-.027.08-.023.137.01.17l.22.18c.233.173.416.317.55.43.133.113.233.207.3.28.066.073.106.14.12.2.12.2.157.353.11.46-.047.107-.16.2-.34.28-.067.033-.177.06-.33.08-.153.02-.31.03-.47.03a2.18 2.18 0 0 1-.38-.01Zm3.298-.35c-.1-.013-.187-.083-.26-.21a1.141 1.141 0 0 1-.12-.36c.007-.053.013-.13.02-.23l.04-.31c.027-.127.063-.28.11-.46l.14-.56c.053-.187.1-.347.14-.48.04-.133.067-.213.08-.24.033-.053.087-.067.16-.04a.428.428 0 0 1 .18.12c.04.053.063.117.07.19a.838.838 0 0 1-.03.32c-.027.14-.08.347-.16.62-.073.267-.13.483-.17.65-.033.16-.047.33-.04.51a4.748 4.748 0 0 1-.06.42c-.013.047-.047.067-.1.06Zm1.15-3.99a.133.133 0 0 1-.08.03.668.668 0 0 1-.11-.06.448.448 0 0 1-.18-.09 2.314 2.314 0 0 1-.18-.18.417.417 0 0 1-.07-.12 1.117 1.117 0 0 1 .01-.25.75.75 0 0 1 .11-.28.278.278 0 0 1 .23-.14.22.22 0 0 1 .07.01c.02.007.08.03.18.07.053.1.107.213.16.34a.77.77 0 0 1 .07.36c-.007.113-.077.217-.21.31Zm1.465 4.28a1.105 1.105 0 0 1-.23-.09c-.06-.04-.14-.103-.24-.19a1.993 1.993 0 0 1-.19-.3c-.04-.093-.066-.2-.08-.32a4.713 4.713 0 0 1-.02-.48c0-.08.014-.2.04-.36.034-.16.07-.327.11-.5.047-.18.087-.34.12-.48.04-.14.064-.23.07-.27.02-.087-.013-.137-.1-.15a1.358 1.358 0 0 0-.29-.01.44.44 0 0 1-.2-.03c-.026-.007-.04-.017-.04-.03v-.03c0-.027-.003-.043-.01-.05a.174.174 0 0 0-.03-.07c-.013-.027-.006-.063.02-.11a.225.225 0 0 1 .16-.1c.06-.013.14-.023.24-.03.107-.013.214-.037.32-.07a.61.61 0 0 0 .26-.18c.06-.147.13-.31.21-.49.08-.18.157-.34.23-.48.08-.147.134-.237.16-.27.114-.06.197-.083.25-.07.054.007.114.063.18.17a.914.914 0 0 1 .07.11c.02.027.024.067.01.12-.013.053-.05.137-.11.25a11.06 11.06 0 0 1-.25.49l-.09.18-.04.07a.53.53 0 0 0 .12.01c.054 0 .12-.003.2-.01.074-.013.167-.023.28-.03a.903.903 0 0 1 .27 0c.154 0 .267.03.34.09.074.053.114.147.12.28.014.073-.003.117-.05.13-.04.013-.15.02-.33.02a5.5 5.5 0 0 0-.28.01l-.4.02c-.133.007-.25.017-.35.03-.093.007-.14.017-.14.03-.02.013-.053.077-.1.19-.04.113-.083.243-.13.39-.04.14-.076.267-.11.38a7.975 7.975 0 0 0-.11.68 3.57 3.57 0 0 0-.01.59c.014.167.05.283.11.35.06.06.177.073.35.04a1.02 1.02 0 0 0 .42-.19c.12-.1.217-.15.29-.15.08 0 .124.037.13.11.014.067-.023.163-.11.29-.08.12-.18.227-.3.32a1.27 1.27 0 0 1-.38.19.66.66 0 0 1-.36 0Zm2.25-.47a.33.33 0 0 1-.1-.02l-.05-.03c0-.027-.01-.06-.03-.1a.33.33 0 0 1-.02-.1c-.046-.027-.072-.053-.08-.08a.34.34 0 0 1 .03-.16c.04-.067.094-.173.16-.32a22.293 22.293 0 0 0 .42-1.02c.068-.173.124-.32.17-.44.047-.127.074-.203.08-.23 0-.027.01-.06.03-.1a.383.383 0 0 1 .07-.1c.054-.047.11-.05.17-.01.06.033.11.093.15.18.047.08.07.17.07.27 0 .047-.032.167-.1.36-.066.187-.156.41-.27.67-.106.26-.226.523-.36.79a42.3 42.3 0 0 0-.19.37c-.026.047-.076.07-.15.07Zm1.47-3.79a.489.489 0 0 1-.26-.09 1.13 1.13 0 0 1-.23-.24c-.06-.1-.09-.2-.09-.3 0-.033.02-.08.06-.14l.12-.18a.36.36 0 0 0 .06-.11.53.53 0 0 1 .12.01c.034 0 .074.013.12.04.074.167.164.303.27.41.114.107.17.197.17.27 0 .147-.013.24-.04.28-.026.033-.126.05-.3.05Zm.896 4.13a.392.392 0 0 1-.21-.05 3.599 3.599 0 0 1-.18-.14 1.39 1.39 0 0 1-.27-.38.633.633 0 0 1-.05-.36.298.298 0 0 0 .02-.15v-.08c-.033-.033-.043-.053-.03-.06a.234.234 0 0 0 .04-.06c.04 0 .053-.037.04-.11-.013-.053.013-.17.08-.35.067-.18.15-.35.25-.51.04-.067.1-.153.18-.26a4.03 4.03 0 0 1 .26-.33 2.593 2.593 0 0 1 .71-.58c.127-.067.263-.117.41-.15.147-.033.247-.05.3-.05.06 0 .14.053.24.16a.772.772 0 0 1 .33.24c.073.093.12.23.14.41.02.2.003.43-.05.69-.047.253-.203.57-.47.95-.167.24-.32.42-.46.54a4.06 4.06 0 0 1-.5.34 2.3 2.3 0 0 1-.38.21c-.113.04-.247.067-.4.08Zm.96-1.06a3.1 3.1 0 0 0 .66-1.12.979.979 0 0 0 .05-.27 1.562 1.562 0 0 0-.01-.31c-.007-.1-.03-.157-.07-.17a.416.416 0 0 0-.29-.04c-.113.013-.237.077-.37.19-.207.173-.387.39-.54.65a8.032 8.032 0 0 0-.45.87c-.1.24-.123.433-.07.58.06.14.183.19.37.15.193-.047.433-.223.72-.53Zm2.355.77c-.026 0-.066-.017-.12-.05a1.974 1.974 0 0 1-.11-.1.39.39 0 0 1-.09-.16 3.84 3.84 0 0 1-.01-.36c0-.213.044-.443.13-.69.087-.253.234-.607.44-1.06l.33-.7a.82.82 0 0 1 .07-.12.759.759 0 0 0 .07-.08h.1c.054 0 .107.033.16.1.054.06.094.127.12.2a.984.984 0 0 1-.04.27c-.02.093-.1.233-.24.42-.046.073-.11.197-.19.37a2.512 2.512 0 0 0-.15.45 14.147 14.147 0 0 1-.11.25c-.02.06-.043.117-.07.17l-.05.22.67-.69c.314-.313.567-.537.76-.67.194-.133.347-.19.46-.17.114.02.21.11.29.27.047.073.08.14.1.2a.598.598 0 0 1 .05.22c.007.093 0 .233-.02.42v.62c.1-.027.18-.05.24-.07.06-.027.124-.053.19-.08.06-.027.13-.05.21-.07.08-.027.18-.043.3-.05a.72.72 0 0 1-.09.28c-.053.093-.12.183-.2.27-.08.087-.17.157-.27.21a.56.56 0 0 1-.28.08c-.086 0-.183-.043-.29-.13a.777.777 0 0 1-.23-.29.897.897 0 0 1-.05-.24v-.85c0-.107-.033-.137-.1-.09-.06.04-.11.077-.15.11-.1.087-.206.187-.32.3l-.33.35c-.306.32-.563.557-.77.71-.2.153-.336.23-.41.23Z"/>
    <path fill="#580DD9" d="M88.59 52.77a1.61 1.61 0 0 1-.12-.07l-.15-.13a.698.698 0 0 1-.1-.14c-.02-.033-.02-.093 0-.18.027-.087.053-.13.08-.13.02.013.053-.01.1-.07a4.67 4.67 0 0 0 .14-.19.493.493 0 0 0 .07-.13.09.09 0 0 1 .05-.06c.033-.02.063-.04.09-.06a.914.914 0 0 1 .13-.16c.06-.06.107-.11.14-.15.053-.067.15-.167.29-.3.14-.133.277-.27.41-.41.14-.153.263-.287.37-.4.107-.12.163-.203.17-.25l.03-.03a.466.466 0 0 1 .09-.07.98.98 0 0 0 .13-.1c.06-.047.11-.09.15-.13a.824.824 0 0 1 .11-.22c.067-.1.133-.183.2-.25a2.43 2.43 0 0 0 .15-.26c.047-.1.077-.173.09-.22.02-.073.02-.117 0-.13-.02-.02-.103-.053-.25-.1a1.368 1.368 0 0 0-.53-.06c-.187.007-.397.093-.63.26a1.52 1.52 0 0 0-.26.08.361.361 0 0 1-.19.04.28.28 0 0 1-.09-.09 1.025 1.025 0 0 0-.11-.13l-.1-.21.31-.17a3.12 3.12 0 0 1 .74-.36c.227-.067.433-.07.62-.01.073 0 .14.01.2.03l.09.02c.053-.007.12.023.2.09.08.06.157.137.23.23.08.093.14.187.18.28.107.16.14.33.1.51-.033.173-.133.383-.3.63-.033.04-.107.123-.22.25s-.243.27-.39.43c-.14.153-.27.29-.39.41-.113.12-.187.197-.22.23-.047.02-.127.09-.24.21-.107.113-.223.24-.35.38-.12.133-.223.253-.31.36-.08.1-.113.15-.1.15-.007.027.003.04.03.04.027-.007.07-.02.13-.04.1-.033.23-.067.39-.1.167-.033.337-.06.51-.08.173-.027.323-.043.45-.05.133-.007.21 0 .23.02.013.033.023.047.03.04l.02-.02c.013-.047.097-.06.25-.04.16.02.303.05.43.09.073.02.13.037.17.05.047.013.07.033.07.06l.02.05c.02.027.05.063.09.11.107.087.12.143.04.17-.08.027-.253.017-.52-.03-.173 0-.317.01-.43.03a.456.456 0 0 1-.17.02c-.087 0-.17.003-.25.01a1.092 1.092 0 0 0-.36.02c-.12.02-.263.057-.43.11l-.28.09c-.127.04-.263.08-.41.12-.147.04-.28.07-.4.09a.768.768 0 0 1-.22.02Zm7.452-.23a.62.62 0 0 1-.33-.08.68.68 0 0 1-.22-.29 3.074 3.074 0 0 1-.07-.31 2.99 2.99 0 0 1-.02-.33c0-.107.01-.177.03-.21.027-.027.037-.073.03-.14v-.23c-.007-.133-.04-.207-.1-.22-.053-.02-.133 0-.24.06-.12.073-.277.173-.47.3-.193.12-.397.253-.61.4a8.17 8.17 0 0 0-.59.46c-.147.16-.237.283-.27.37-.027.08-.067.12-.12.12-.053.027-.1.03-.14.01l-.15-.12a3.167 3.167 0 0 0-.14-.15.67.67 0 0 1-.09-.12c0-.033.01-.103.03-.21.02-.107.043-.213.07-.32.033-.107.057-.177.07-.21.033 0 .06-.033.08-.1.027-.067.067-.14.12-.22.013-.08.047-.187.1-.32l.16-.37c.093-.16.157-.293.19-.4a1.5 1.5 0 0 0 .08-.4.07.07 0 0 1 .02-.07c.02-.027.043-.04.07-.04a.168.168 0 0 1 .19-.04c.073.02.14.07.2.15.12.16.167.327.14.5-.02.167-.127.407-.32.72l-.11.25a.392.392 0 0 0-.03.13l.1-.07c.073-.047.153-.1.24-.16a4.52 4.52 0 0 1 .22-.15 2.39 2.39 0 0 1 .23-.18c.12-.087.247-.17.38-.25.14-.087.243-.137.31-.15.053-.027.11-.05.17-.07a.377.377 0 0 1 .13-.04c.053 0 .12.03.2.09a1.1 1.1 0 0 1 .24.2.458.458 0 0 1 .13.19v.08l.02.08c.027.087.04.203.04.35.007.147.003.28-.01.4-.013.12-.037.19-.07.21v.03c.007.013.023.02.05.02v.05c-.033 0-.047.03-.04.09a.566.566 0 0 0 .06.18c.04.067.08.12.12.16.08.08.113.157.1.23-.013.067-.073.113-.18.14Zm3.522.36a.977.977 0 0 1-.12-.01.222.222 0 0 1-.12-.09 1.02 1.02 0 0 1-.19-.3.828.828 0 0 1-.01-.35c.013-.1.02-.187.02-.26a5.02 5.02 0 0 1 .02-.2c-.027-.027-.077-.007-.15.06a5.29 5.29 0 0 1-.28.23 4.6 4.6 0 0 1-.61.6 1.68 1.68 0 0 1-.47.27 1.05 1.05 0 0 1-.4.04.397.397 0 0 1-.27-.14.702.702 0 0 1-.13-.33 2.32 2.32 0 0 1 0-.43c.027-.22.073-.43.14-.63.073-.2.19-.423.35-.67.073-.133.17-.263.29-.39a2.55 2.55 0 0 1 .41-.35c.153-.107.3-.183.44-.23.153-.06.31-.093.47-.1.16-.013.303 0 .43.04.08.04.143.06.19.06.053 0 .093-.033.12-.1.033-.053.067-.133.1-.24.033-.113.073-.21.12-.29l.22-.65c.073-.18.153-.37.24-.57.087-.2.19-.443.31-.73.113-.213.207-.337.28-.37.073-.04.157-.013.25.08a.35.35 0 0 1 .08.3c-.02.107-.08.28-.18.52a4.428 4.428 0 0 0-.26.5c-.087.207-.167.393-.24.56-.073.16-.15.343-.23.55a5.06 5.06 0 0 1-.11.37 9 9 0 0 0-.1.38c-.02.107-.043.207-.07.3-.02.087-.043.13-.07.13a.893.893 0 0 0-.15.32c-.047.147-.087.3-.12.46-.027.16-.05.293-.07.4-.013.08-.023.183-.03.31-.007.127-.01.25-.01.37v.24c0 .147-.003.24-.01.28-.007.04-.033.06-.08.06Zm-2.13-.63c.14 0 .287-.06.44-.18.16-.12.32-.253.48-.4.1-.093.207-.217.32-.37.12-.153.233-.307.34-.46.113-.153.203-.287.27-.4.067-.12.1-.193.1-.22 0-.033-.03-.057-.09-.07a.979.979 0 0 0-.21-.02.504.504 0 0 0-.18.01c-.147.033-.293.1-.44.2-.14.1-.293.25-.46.45a3.601 3.601 0 0 0-.43.66 2.353 2.353 0 0 0-.2.57c-.027.153-.007.23.06.23Zm5.928.82a.363.363 0 0 1-.19-.15.724.724 0 0 1-.07-.31c0-.08.013-.187.04-.32l.09-.46v-.04c.006-.02.01-.033.01-.04.006-.027.013-.067.02-.12l.03-.12c.006-.033.01-.033.01 0l.07-.27.1-.36a9.801 9.801 0 0 1 .14-.47l.04-.11a12.645 12.645 0 0 1 .39-1.02c.093-.22.176-.38.25-.48a.408.408 0 0 1 .03-.07l.03-.08a.898.898 0 0 1 .02-.12.38.38 0 0 1 .05-.09.867.867 0 0 1 .06-.1c.026-.047.056-.103.09-.17l.04-.11c.04-.087.09-.183.15-.29l.13-.23c.026-.06.066-.13.12-.21.053-.087.093-.143.12-.17l-.01-.01c.033-.06.073-.093.12-.1a.699.699 0 0 1 .17-.02c.093 0 .146.013.16.04.013.027.02.087.02.18 0 .1-.004.173-.01.22 0 .04-.027.087-.08.14h.01c.013-.013.01.003-.01.05a.961.961 0 0 1-.05.09c-.014.033-.03.07-.05.11a.236.236 0 0 1-.05.09c-.02.027-.07.117-.15.27l-.26.52-.27.58a9.04 9.04 0 0 0-.19.43l-.05.15a.143.143 0 0 0-.02.06l-.06.14a.998.998 0 0 1-.06.12l-.17.58-.05.21-.09.22-.06.19a.726.726 0 0 0-.03.11.155.155 0 0 1-.04.08.09.09 0 0 1-.01.03v.02a6.201 6.201 0 0 0-.16 1.06c0 .007-.004.013-.01.02v.02c-.02.14-.054.233-.1.28-.047.047-.117.057-.21.03Zm1.749-.45a.305.305 0 0 0-.1-.12c-.04-.033-.06-.063-.06-.09a.313.313 0 0 0-.01-.08.123.123 0 0 0-.04-.09c-.033-.04-.03-.13.01-.27.04-.147.107-.323.2-.53.093-.213.203-.437.33-.67.053-.053.107-.123.16-.21.053-.087.093-.143.12-.17 0-.027.01-.05.03-.07.02-.027.043-.04.07-.04v-.06c0-.033.03-.09.09-.17.067-.08.147-.167.24-.26.093-.1.19-.193.29-.28a1.6 1.6 0 0 1 .25-.2c.14-.093.283-.15.43-.17a.492.492 0 0 1 .39.1l.1.1.16.16a4.5 4.5 0 0 1 .2.17l.37.33-.18.5c-.087.267-.11.5-.07.7.047.2.113.373.2.52.033.073.1.143.2.21a.788.788 0 0 0 .3.12.328.328 0 0 1 .15.06c.047.033.07.087.07.16a.28.28 0 0 1-.04.16c-.027.04-.073.067-.14.08a.875.875 0 0 1-.62-.16c-.187-.133-.36-.353-.52-.66a1.617 1.617 0 0 1-.18-.44 17.19 17.19 0 0 0-.15.19c-.073.087-.13.15-.17.19-.473.48-.883.803-1.23.97-.34.16-.623.167-.85.02Zm.36-.56c0 .047.07.047.21 0 .147-.053.303-.147.47-.28a9.98 9.98 0 0 0 .68-.64c.233-.233.42-.45.56-.65l.22-.36c-.067-.153-.14-.257-.22-.31-.073-.06-.137-.09-.19-.09-.087 0-.217.08-.39.24a4.73 4.73 0 0 0-.54.64c-.193.267-.377.56-.55.88a6.183 6.183 0 0 0-.25.57Zm4.545.96a1.666 1.666 0 0 1-.36-.21.964.964 0 0 1-.22-.23c0-.06.01-.1.03-.12.02-.027.077-.037.17-.03.1 0 .26.013.48.04a2.813 2.813 0 0 0 .63-.08c.107-.027.167-.06.18-.1.034 0 .04-.01.02-.03a.715.715 0 0 0-.07-.08.183.183 0 0 1-.09-.03c-.033-.027-.063-.04-.09-.04 0-.033-.033-.07-.1-.11a.776.776 0 0 0-.19-.11c-.146-.12-.273-.227-.38-.32-.106-.1-.146-.167-.12-.2v-.05c-.046 0-.1-.067-.16-.2a.99.99 0 0 1-.08-.36c0-.08.024-.18.07-.3.047-.127.11-.257.19-.39s.164-.243.25-.33c.12-.113.27-.233.45-.36.18-.133.357-.25.53-.35.18-.107.33-.177.45-.21.12-.047.23-.07.33-.07.107 0 .2.023.28.07a.534.534 0 0 1 .18.15c.06.06.11.123.15.19.047.06.077.113.09.16 0 .08-.006.17-.02.27a1.206 1.206 0 0 1-.06.25c-.02.073-.053.11-.1.11l-.03.01c-.013 0-.02.017-.02.05 0 .067-.05.143-.15.23a.969.969 0 0 1-.33.16c-.093.013-.15-.023-.17-.11a.27.27 0 0 1-.04-.07c-.006-.02-.023-.03-.05-.03l-.03-.03c-.02-.02-.03-.053-.03-.1 0-.027.01-.05.03-.07l.03-.04c.034 0 .077-.037.13-.11.054-.08.1-.163.14-.25a.548.548 0 0 0 .07-.19c0-.04-.006-.063-.02-.07-.006-.007-.036-.01-.09-.01a10.149 10.149 0 0 0-.72.36 1.09 1.09 0 0 0-.25.17l-.05.09c-.006.007-.023.01-.05.01 0-.027-.023-.013-.07.04a5.49 5.49 0 0 0-.16.2l-.18.26-.12.18a.367.367 0 0 0-.05.12.807.807 0 0 0-.02.17c-.026.08-.023.137.01.17l.22.18c.234.173.417.317.55.43.134.113.234.207.3.28a.46.46 0 0 1 .12.2c.12.2.157.353.11.46-.046.107-.16.2-.34.28a1.11 1.11 0 0 1-.33.08c-.153.02-.31.03-.47.03-.16.007-.286.003-.38-.01Zm4.048-.06a1.114 1.114 0 0 1-.23-.09c-.06-.04-.14-.103-.24-.19a2.026 2.026 0 0 1-.19-.3c-.04-.093-.066-.2-.08-.32a4.832 4.832 0 0 1-.02-.48c0-.08.014-.2.04-.36.034-.16.07-.327.11-.5.047-.18.087-.34.12-.48.04-.14.064-.23.07-.27.02-.087-.013-.137-.1-.15a1.355 1.355 0 0 0-.29-.01c-.1 0-.166-.01-.2-.03-.026-.007-.04-.017-.04-.03v-.03c0-.027-.003-.043-.01-.05a.174.174 0 0 0-.03-.07c-.013-.027-.006-.063.02-.11a.227.227 0 0 1 .16-.1c.06-.013.14-.023.24-.03.107-.013.214-.037.32-.07.107-.04.194-.1.26-.18.06-.147.13-.31.21-.49.08-.18.157-.34.23-.48.08-.147.134-.237.16-.27.114-.06.197-.083.25-.07.054.007.114.063.18.17a.792.792 0 0 1 .07.11c.02.027.024.067.01.12-.013.053-.05.137-.11.25a11.06 11.06 0 0 1-.25.49l-.09.18-.04.07c.027.007.067.01.12.01.054 0 .12-.003.2-.01.074-.013.167-.023.28-.03a.902.902 0 0 1 .27 0c.154 0 .267.03.34.09.074.053.114.147.12.28.014.073-.003.117-.05.13-.04.013-.15.02-.33.02a5.5 5.5 0 0 0-.28.01l-.4.02a4.36 4.36 0 0 0-.35.03c-.093.007-.14.017-.14.03-.02.013-.053.077-.1.19-.04.113-.083.243-.13.39-.04.14-.076.267-.11.38a8.436 8.436 0 0 0-.11.68c-.02.227-.023.423-.01.59.014.167.05.283.11.35.06.06.177.073.35.04.174-.04.314-.103.42-.19.12-.1.217-.15.29-.15.08 0 .124.037.13.11.014.067-.023.163-.11.29-.08.12-.18.227-.3.32-.12.087-.246.15-.38.19a.66.66 0 0 1-.36 0ZM87.61 63.24h-.1c-.04.007-.077-.02-.11-.08a.284.284 0 0 1-.05-.15c0-.067.017-.187.05-.36.033-.113.06-.227.08-.34.02-.107.03-.187.03-.24 0-.027.007-.08.02-.16a.693.693 0 0 0 .03-.16.695.695 0 0 0 .08-.22c.02-.093.03-.177.03-.25 0-.08.04-.153.12-.22 0-.053.01-.12.03-.2a.653.653 0 0 0 .04-.16c.02-.093.063-.257.13-.49.073-.24.16-.51.26-.81.107-.3.21-.593.31-.88.1-.287.19-.53.27-.73a2.55 2.55 0 0 0 .16-.48c.033-.14.05-.243.05-.31 0-.027.007-.047.02-.06.013-.02.043-.057.09-.11.067-.067.123-.087.17-.06.053.027.117.067.19.12.053.087.09.16.11.22.027.06.027.163 0 .31 0 .1-.017.187-.05.26a1.2 1.2 0 0 1-.09.17c-.027.033-.033.047-.02.04.273-.127.513-.193.72-.2a.883.883 0 0 1 .53.11c.147.08.257.193.33.34a1.068 1.068 0 0 1 .06.8 1.51 1.51 0 0 1-.13.3.836.836 0 0 1-.13.19c-.027 0-.053.023-.08.07a1.31 1.31 0 0 0-.08.14c-.053.067-.14.143-.26.23-.113.08-.227.147-.34.2-.113.047-.197.06-.25.04l-.03.01c-.013 0-.02.017-.02.05 0 .013-.053.043-.16.09-.107.04-.23.08-.37.12a1.64 1.64 0 0 1-.37.05c-.14 0-.24-.027-.3-.08a.582.582 0 0 0-.05.06.162.162 0 0 0-.02.07c0 .04-.017.117-.05.23-.027.107-.06.21-.1.31-.04.1-.077.15-.11.15l-.02.03c-.013.02-.007.047.02.08l-.01.11c0 .08-.017.147-.05.2 0 .053-.01.133-.03.24a.957.957 0 0 1-.07.24c0 .08-.013.157-.04.23-.02.08-.043.12-.07.12-.027.007-.043.047-.05.12-.007.08-.01.137-.01.17a.778.778 0 0 1-.1.39c-.06.093-.13.14-.21.14Zm1.21-3.34c.053 0 .163-.023.33-.07.167-.047.337-.103.51-.17a1.53 1.53 0 0 0 .4-.22 1.65 1.65 0 0 0 .4-.52c.1-.2.093-.39-.02-.57-.053-.093-.15-.13-.29-.11a1.19 1.19 0 0 0-.46.16c-.167.093-.323.21-.47.35-.08.087-.153.193-.22.32a3.167 3.167 0 0 0-.17.38 1.48 1.48 0 0 0-.07.32c-.007.087.013.13.06.13Zm3.65.95a.392.392 0 0 1-.21-.05 3.599 3.599 0 0 1-.18-.14 1.39 1.39 0 0 1-.27-.38.634.634 0 0 1-.05-.36.302.302 0 0 0 .02-.15v-.08c-.034-.033-.044-.053-.03-.06a.231.231 0 0 0 .04-.06c.04 0 .053-.037.04-.11-.014-.053.013-.17.08-.35.066-.18.15-.35.25-.51.04-.067.1-.153.18-.26.08-.113.166-.223.26-.33a2.597 2.597 0 0 1 .71-.58 1.63 1.63 0 0 1 .41-.15c.146-.033.246-.05.3-.05.06 0 .14.053.24.16a.772.772 0 0 1 .33.24c.073.093.12.23.14.41.02.2.003.43-.05.69-.047.253-.204.57-.47.95-.167.24-.32.42-.46.54a4.06 4.06 0 0 1-.5.34 2.3 2.3 0 0 1-.38.21 1.63 1.63 0 0 1-.4.08Zm.96-1.06a3.1 3.1 0 0 0 .66-1.12.975.975 0 0 0 .05-.27 1.555 1.555 0 0 0-.01-.31c-.007-.1-.03-.157-.07-.17a.416.416 0 0 0-.29-.04c-.114.013-.237.077-.37.19-.207.173-.387.39-.54.65a8.068 8.068 0 0 0-.45.87c-.1.24-.124.433-.07.58.06.14.183.19.37.15.193-.047.433-.223.72-.53Zm2.825 1.12a1.637 1.637 0 0 1-.48-.03.99.99 0 0 1-.38-.17.696.696 0 0 1-.21-.31.555.555 0 0 1-.07-.19c0-.04.023-.073.07-.1.053 0 .1.017.14.05.046.027.106.057.18.09.1.087.22.133.36.14a.874.874 0 0 0 .4-.07c.12-.053.186-.12.2-.2a.582.582 0 0 0-.03-.14 3.824 3.824 0 0 0-.07-.21 3.05 3.05 0 0 1-.4-.75 2.16 2.16 0 0 1-.12-.62c0-.12.036-.247.11-.38.073-.14.173-.257.3-.35.12-.127.253-.24.4-.34.146-.1.293-.187.44-.26.153-.073.29-.127.41-.16.073 0 .17.01.29.03.12.02.203.043.25.07.073.027.143.1.21.22.066.113.1.227.1.34a.553.553 0 0 1-.04.18c-.027.073-.07.16-.13.26a2.01 2.01 0 0 1-.09.21.324.324 0 0 0-.05.13c-.034.073-.08.11-.14.11a.328.328 0 0 1-.17-.09.743.743 0 0 1-.13-.21.685.685 0 0 1-.03-.24.485.485 0 0 1 .08-.21c.073-.073.11-.123.11-.15 0-.027-.037-.04-.11-.04-.047 0-.134.03-.26.09-.12.053-.25.127-.39.22-.134.087-.25.18-.35.28-.127.12-.204.207-.23.26a.765.765 0 0 0-.03.25c0 .093.02.21.06.35.046.14.093.233.14.28l.07.14c.046.087.103.18.17.28.193.427.243.733.15.92-.094.187-.337.293-.73.32Zm2.958-.22c-.1-.013-.187-.083-.26-.21a1.136 1.136 0 0 1-.12-.36c.007-.053.013-.13.02-.23l.04-.31c.027-.127.063-.28.11-.46l.14-.56c.053-.187.1-.347.14-.48.04-.133.067-.213.08-.24.033-.053.087-.067.16-.04a.43.43 0 0 1 .18.12c.04.053.063.117.07.19a.842.842 0 0 1-.03.32c-.027.14-.08.347-.16.62-.073.267-.13.483-.17.65-.033.16-.047.33-.04.51a4.83 4.83 0 0 1-.06.42c-.013.047-.047.067-.1.06Zm1.15-3.99a.133.133 0 0 1-.08.03.652.652 0 0 1-.11-.06.444.444 0 0 1-.18-.09 2.28 2.28 0 0 1-.18-.18.415.415 0 0 1-.07-.12 1.11 1.11 0 0 1 .01-.25.75.75 0 0 1 .11-.28.278.278 0 0 1 .23-.14.22.22 0 0 1 .07.01c.02.007.08.03.18.07.053.1.107.213.16.34.053.12.077.24.07.36-.007.113-.077.217-.21.31Zm1.115 4.8c-.22-.033-.37-.117-.45-.25-.073-.127-.09-.323-.05-.59.04-.127.063-.24.07-.34.013-.107.043-.173.09-.2l.01-.03c.013-.02.01-.04-.01-.06 0-.087.03-.207.09-.36.013-.04.03-.087.05-.14l.04-.09c-.033-.053-.033-.097 0-.13a1.23 1.23 0 0 1 .1-.09c.04-.033.043-.07.01-.11-.013-.027.003-.087.05-.18.047-.1.1-.203.16-.31.06-.107.1-.19.12-.25 0-.013.017-.06.05-.14a13.09 13.09 0 0 1 .25-.57c.047-.087.077-.143.09-.17.067-.033.04-.057-.08-.07a2.371 2.371 0 0 0-.38-.01 7.248 7.248 0 0 1-.5-.03.757.757 0 0 1-.3-.09c-.08-.093-.11-.16-.09-.2.027-.047.107-.073.24-.08.087-.007.153-.01.2-.01.053 0 .12-.003.2-.01.087-.013.22-.03.4-.05l.51-.04.03-.17a3.057 3.057 0 0 0 .23-.45c.027-.073.047-.15.06-.23l.09-.16a.966.966 0 0 0 .11-.35c.08-.133.15-.253.21-.36.06-.113.097-.183.11-.21.073-.06.123-.09.15-.09.033 0 .1.033.2.1.06.033.113.073.16.12a.319.319 0 0 1 .09.15c.013.047-.007.093-.06.14a1.918 1.918 0 0 0-.06.15 1.64 1.64 0 0 0-.06.17c-.04.047-.09.123-.15.23-.053.1-.09.203-.11.31a11.92 11.92 0 0 1-.15.31c-.047.087-.083.13-.11.13.013.067.053.1.12.1.067-.007.177-.013.33-.02.127-.013.213-.027.26-.04.053-.02.113-.013.18.02.033.047.06.1.08.16.02.06.023.117.01.17a.123.123 0 0 1-.08.1.811.811 0 0 0-.21.06c-.1.033-.227.053-.38.06l-.53.05-.17.34a3.667 3.667 0 0 0-.12.24.609.609 0 0 1-.07.12c0 .04-.023.1-.07.18l-.13.26c-.04.113-.087.217-.14.31l-.07.14c-.027 0-.04.02-.04.06.033.08.023.14-.03.18a.296.296 0 0 0-.09.09l-.03.05c.027.027.03.06.01.1a.69.69 0 0 1-.06.13.81.81 0 0 1-.05.23c-.027.1-.057.193-.09.28.007.12.013.197.02.23.007.033.023.047.05.04a.204.204 0 0 0 .09 0 .327.327 0 0 1 .08-.01c.093-.04.043.193-.15.7-.107.167-.18.287-.22.36-.04.08-.077.12-.11.12Zm2.601-.99a.328.328 0 0 1-.1-.02l-.05-.03c0-.027-.01-.06-.03-.1a.31.31 0 0 1-.02-.1c-.047-.027-.074-.053-.08-.08-.007-.033.003-.087.03-.16.04-.067.093-.173.16-.32l.21-.49c.073-.18.143-.357.21-.53l.17-.44c.046-.127.073-.203.08-.23a.374.374 0 0 1 .1-.2c.053-.047.11-.05.17-.01.06.033.11.093.15.18.046.08.07.17.07.27 0 .047-.034.167-.1.36-.067.187-.157.41-.27.67-.107.26-.227.523-.36.79-.1.193-.164.317-.19.37-.027.047-.077.07-.15.07Zm1.47-3.79a.487.487 0 0 1-.26-.09 1.103 1.103 0 0 1-.23-.24c-.06-.1-.09-.2-.09-.3 0-.033.02-.08.06-.14l.12-.18a.36.36 0 0 0 .06-.11c.053 0 .093.003.12.01.033 0 .073.013.12.04.073.167.163.303.27.41.113.107.17.197.17.27 0 .147-.014.24-.04.28-.027.033-.127.05-.3.05Zm.895 4.13a.39.39 0 0 1-.21-.05 3.34 3.34 0 0 1-.18-.14 1.376 1.376 0 0 1-.27-.38.637.637 0 0 1-.05-.36.299.299 0 0 0 .02-.15v-.08c-.033-.033-.043-.053-.03-.06a.231.231 0 0 0 .04-.06c.04 0 .053-.037.04-.11-.013-.053.013-.17.08-.35.067-.18.15-.35.25-.51.04-.067.1-.153.18-.26.08-.113.167-.223.26-.33a2.597 2.597 0 0 1 .71-.58c.127-.067.263-.117.41-.15.147-.033.247-.05.3-.05.06 0 .14.053.24.16a.776.776 0 0 1 .33.24c.073.093.12.23.14.41.02.2.003.43-.05.69-.047.253-.203.57-.47.95-.167.24-.32.42-.46.54-.14.113-.307.227-.5.34a2.3 2.3 0 0 1-.38.21 1.63 1.63 0 0 1-.4.08Zm.96-1.06a3.118 3.118 0 0 0 .66-1.12.975.975 0 0 0 .05-.27 1.555 1.555 0 0 0-.01-.31c-.007-.1-.03-.157-.07-.17a.417.417 0 0 0-.29-.04c-.113.013-.237.077-.37.19-.207.173-.387.39-.54.65a8.178 8.178 0 0 0-.45.87c-.1.24-.123.433-.07.58.06.14.183.19.37.15.193-.047.433-.223.72-.53Zm5.415.75a.622.622 0 0 1-.33-.08.686.686 0 0 1-.22-.29 3.278 3.278 0 0 1-.07-.31c-.013-.12-.02-.23-.02-.33 0-.107.01-.177.03-.21.027-.027.037-.073.03-.14v-.23c-.006-.133-.04-.207-.1-.22-.053-.02-.133 0-.24.06-.12.073-.276.173-.47.3-.193.12-.396.253-.61.4a8.51 8.51 0 0 0-.59.46c-.146.16-.236.283-.27.37-.026.08-.066.12-.12.12-.053.027-.1.03-.14.01a25.507 25.507 0 0 0-.15-.12 2.681 2.681 0 0 0-.14-.15.748.748 0 0 1-.09-.12c0-.033.01-.103.03-.21.02-.107.044-.213.07-.32.034-.107.057-.177.07-.21.034 0 .06-.033.08-.1.027-.067.067-.14.12-.22a1.72 1.72 0 0 1 .1-.32l.16-.37c.094-.16.157-.293.19-.4a1.5 1.5 0 0 0 .08-.4.07.07 0 0 1 .02-.07c.02-.027.044-.04.07-.04a.168.168 0 0 1 .19-.04c.074.02.14.07.2.15.12.16.167.327.14.5-.02.167-.126.407-.32.72l-.11.25a.392.392 0 0 0-.03.13l.1-.07c.074-.047.154-.1.24-.16.094-.067.167-.117.22-.15.034-.033.11-.093.23-.18.12-.087.247-.17.38-.25.14-.087.244-.137.31-.15.054-.027.11-.05.17-.07a.38.38 0 0 1 .13-.04c.054 0 .12.03.2.09a1.1 1.1 0 0 1 .24.2.448.448 0 0 1 .13.19v.08l.02.08c.027.087.04.203.04.35.007.147.004.28-.01.4-.013.12-.036.19-.07.21v.03c.007.013.024.02.05.02v.05c-.033 0-.046.03-.04.09a.587.587 0 0 0 .18.34c.08.08.114.157.1.23-.013.067-.073.113-.18.14Z"/>
    <path fill="#474747" d="M.9 39v-6.56h.83V39H.9Zm4.477.12a2.3 2.3 0 0 1-1.17-.3 2.11 2.11 0 0 1-.82-.87c-.2-.38-.3-.837-.3-1.37 0-.547.107-1.01.32-1.39.22-.38.507-.67.86-.87.36-.2.747-.3 1.16-.3.32 0 .593.053.82.16.233.107.433.243.6.41l-.41.51a1.264 1.264 0 0 0-.43-.28 1.307 1.307 0 0 0-.55-.11c-.287 0-.547.08-.78.24-.227.153-.407.37-.54.65-.133.28-.2.607-.2.98 0 .367.063.69.19.97s.303.5.53.66c.227.153.49.23.79.23.227 0 .437-.043.63-.13.193-.087.36-.197.5-.33l.36.5c-.207.193-.44.35-.7.47a2.13 2.13 0 0 1-.86.17Zm2.63-.12v-7.12h.82v1.94l-.03 1a4.37 4.37 0 0 1 .73-.56c.26-.16.557-.24.89-.24.514 0 .887.163 1.12.49.24.32.36.79.36 1.41V39h-.82v-2.97c0-.46-.073-.79-.22-.99-.14-.207-.373-.31-.7-.31-.246 0-.47.063-.67.19a4.347 4.347 0 0 0-.66.56V39h-.82Zm40.284 0v-4.86h.68l.07.7h.03c.213-.227.443-.42.69-.58.253-.16.526-.24.82-.24.373 0 .663.083.87.25.213.167.37.393.47.68.253-.28.51-.503.77-.67.26-.173.536-.26.83-.26.506 0 .88.163 1.12.49.24.32.36.79.36 1.41V39h-.82v-2.97c0-.46-.074-.79-.22-.99-.147-.207-.374-.31-.68-.31a1.1 1.1 0 0 0-.59.19c-.194.12-.404.307-.63.56V39h-.82v-2.97c0-.46-.074-.79-.22-.99-.147-.207-.377-.31-.69-.31-.367 0-.774.25-1.22.75V39h-.82Zm8.29 0v-4.86h.82V39h-.82Zm.41-5.86a.562.562 0 0 1-.4-.15c-.1-.1-.15-.23-.15-.39s.05-.29.15-.39c.107-.1.24-.15.4-.15a.528.528 0 0 1 .55.54.528.528 0 0 1-.55.54Zm3.582 5.95c-.514 0-.874-.15-1.08-.45-.207-.3-.31-.69-.31-1.17v-2.66h-.72v-.62l.76-.05.1-1.56h.69v1.56h1.32v.67h-1.32v2.67c0 .293.053.523.16.69.113.167.31.25.59.25.086 0 .176-.007.27-.02.093-.02.186-.053.28-.1l.18.58c-.127.06-.27.11-.43.15-.16.04-.324.06-.49.06Zm3.85-.09v-4.86h.82V39h-.82Zm.41-5.86a.562.562 0 0 1-.4-.15c-.1-.1-.15-.23-.15-.39s.05-.29.15-.39c.107-.1.24-.15.4-.15a.528.528 0 0 1 .55.54.528.528 0 0 1-.55.54ZM66.886 39v-7.12h.82v1.94l-.03 1a4.29 4.29 0 0 1 .73-.56c.26-.16.556-.24.89-.24.513 0 .886.163 1.12.49.24.32.36.79.36 1.41V39h-.82v-2.97c0-.46-.074-.79-.22-.99-.14-.207-.374-.31-.7-.31-.247 0-.47.063-.67.19a4.34 4.34 0 0 0-.66.56V39h-.82Zm5.439 0v-4.86h.68l.07.7h.03c.213-.227.443-.42.69-.58.253-.16.527-.24.82-.24.373 0 .663.083.87.25.213.167.37.393.47.68.253-.28.51-.503.77-.67.26-.173.537-.26.83-.26.507 0 .88.163 1.12.49.24.32.36.79.36 1.41V39h-.82v-2.97c0-.46-.073-.79-.22-.99-.147-.207-.373-.31-.68-.31a1.1 1.1 0 0 0-.59.19c-.193.12-.403.307-.63.56V39h-.82v-2.97c0-.46-.073-.79-.22-.99-.147-.207-.377-.31-.69-.31-.367 0-.773.25-1.22.75V39h-.82Z"/>
    <path fill="#000" d="m18.17 39-1.3-4.91h1.18l.58 2.55a12.027 12.027 0 0 1 .25 1.46h.04c.047-.293.09-.553.13-.78l.14-.68.6-2.55h1.2l.62 2.55a17.875 17.875 0 0 1 .29 1.46h.04c.047-.293.087-.553.12-.78.04-.233.084-.46.13-.68l.58-2.55h1.1L22.62 39h-1.47l-.5-2.28c-.046-.22-.092-.44-.14-.66-.04-.227-.08-.5-.12-.82h-.04a11.665 11.665 0 0 1-.26 1.48l-.5 2.28h-1.42Zm8.723.12c-.46 0-.877-.1-1.25-.3a2.255 2.255 0 0 1-.87-.88c-.214-.387-.32-.853-.32-1.4 0-.533.11-.99.33-1.37.22-.387.503-.683.85-.89.346-.207.713-.31 1.1-.31.446 0 .82.1 1.12.3.3.2.523.477.67.83a2.95 2.95 0 0 1 .21 1.51c-.007.1-.02.197-.04.29h-3.38v-.88h2.42c0-.353-.08-.63-.24-.83-.16-.207-.407-.31-.74-.31-.187 0-.37.05-.55.15-.174.1-.32.27-.44.51-.114.24-.17.573-.17 1 0 .387.066.703.2.95.133.24.31.42.53.54.22.113.456.17.71.17.213 0 .413-.03.6-.09a2.21 2.21 0 0 0 .54-.25l.4.74a2.83 2.83 0 0 1-.78.38c-.287.093-.587.14-.9.14ZM29.85 39v-4.91h.95l.08.87h.04c.173-.32.38-.563.62-.73.247-.173.503-.26.77-.26a2.2 2.2 0 0 1 .32.02c.087.013.167.04.24.08l-.23.98a1.555 1.555 0 0 0-.22-.04 1.374 1.374 0 0 0-.26-.02c-.193 0-.397.077-.61.23-.213.147-.397.407-.55.78v3h-1.15Zm5.353.12c-.613 0-1.103-.227-1.47-.68-.367-.453-.55-1.083-.55-1.89 0-.533.097-.993.29-1.38.2-.387.457-.683.77-.89.32-.207.66-.31 1.02-.31.28 0 .517.047.71.14.2.093.393.227.58.4l-.04-.79v-1.78h1.15V39h-.95l-.08-.53h-.04a2.6 2.6 0 0 1-.63.46 1.6 1.6 0 0 1-.76.19Zm.28-.95c.193 0 .373-.043.54-.13a1.85 1.85 0 0 0 .49-.42v-2.29a1.504 1.504 0 0 0-.5-.32 1.468 1.468 0 0 0-.5-.09.96.96 0 0 0-.58.19c-.167.127-.303.31-.41.55-.1.24-.15.533-.15.88 0 .527.097.93.29 1.21.193.28.467.42.82.42Zm5.754.95c-.46 0-.876-.1-1.25-.3a2.255 2.255 0 0 1-.87-.88c-.213-.387-.32-.853-.32-1.4 0-.533.11-.99.33-1.37.22-.387.504-.683.85-.89.347-.207.714-.31 1.1-.31.447 0 .82.1 1.12.3.3.2.524.477.67.83.154.347.23.747.23 1.2 0 .107-.006.21-.02.31-.006.1-.02.197-.04.29h-3.38v-.88h2.42c0-.353-.08-.63-.24-.83-.16-.207-.406-.31-.74-.31-.186 0-.37.05-.55.15-.173.1-.32.27-.44.51-.113.24-.17.573-.17 1 0 .387.067.703.2.95.134.24.31.42.53.54.22.113.457.17.71.17.214 0 .414-.03.6-.09a2.21 2.21 0 0 0 .54-.25l.4.74c-.226.16-.486.287-.78.38-.286.093-.586.14-.9.14Zm45 2.05c-.392 0-.742-.047-1.05-.14a1.615 1.615 0 0 1-.73-.43 1.003 1.003 0 0 1-.26-.71c0-.207.06-.4.18-.58.127-.173.3-.33.52-.47v-.04a1.095 1.095 0 0 1-.31-.32.9.9 0 0 1-.13-.5.92.92 0 0 1 .16-.52c.114-.16.24-.29.38-.39v-.04a1.8 1.8 0 0 1-.45-.53 1.552 1.552 0 0 1-.19-.77c0-.373.09-.69.27-.95.18-.267.418-.467.71-.6a2.2 2.2 0 0 1 .96-.21c.134 0 .264.01.39.03.127.02.237.05.33.09h1.76v.85h-.92v.04a1.154 1.154 0 0 1 .3.8c0 .36-.082.663-.25.91a1.57 1.57 0 0 1-.67.56 2.255 2.255 0 0 1-1.27.16 1.64 1.64 0 0 1-.34-.1 1.515 1.515 0 0 0-.17.2.464.464 0 0 0-.07.27c0 .14.06.25.18.33.12.08.328.12.62.12h.87c.594 0 1.04.097 1.34.29.308.187.46.493.46.92 0 .32-.106.61-.32.87-.212.267-.516.477-.91.63-.392.153-.856.23-1.39.23Zm.06-4.45a.823.823 0 0 0 .42-.11.806.806 0 0 0 .31-.34c.08-.153.12-.333.12-.54 0-.313-.082-.553-.25-.72a.797.797 0 0 0-.6-.25.83.83 0 0 0-.61.25c-.166.167-.25.407-.25.72 0 .207.04.387.12.54.08.147.184.26.31.34a.85.85 0 0 0 .43.11Zm.12 3.7c.26 0 .49-.037.69-.11.2-.067.358-.163.47-.29.114-.12.17-.25.17-.39 0-.193-.076-.323-.23-.39-.146-.067-.36-.1-.64-.1h-.67c-.132 0-.252-.007-.36-.02a4.288 4.288 0 0 1-.31-.05c-.126.1-.222.203-.29.31a.683.683 0 0 0-.09.34c0 .22.114.39.34.51.227.127.534.19.92.19Zm5.26-1.3c-.46 0-.877-.1-1.25-.3a2.253 2.253 0 0 1-.87-.88c-.213-.387-.32-.853-.32-1.4 0-.533.11-.99.33-1.37.22-.387.503-.683.85-.89.347-.207.713-.31 1.1-.31.447 0 .82.1 1.12.3.3.2.523.477.67.83a2.95 2.95 0 0 1 .21 1.51c-.007.1-.02.197-.04.29h-3.38v-.88h2.42c0-.353-.08-.63-.24-.83-.16-.207-.407-.31-.74-.31-.187 0-.37.05-.55.15-.173.1-.32.27-.44.51-.113.24-.17.573-.17 1 0 .387.067.703.2.95.133.24.31.42.53.54.22.113.457.17.71.17.213 0 .413-.03.6-.09.193-.06.373-.143.54-.25l.4.74a2.83 2.83 0 0 1-.78.38 2.89 2.89 0 0 1-.9.14Zm4.328 0a2.82 2.82 0 0 1-1.01-.19 2.582 2.582 0 0 1-.85-.53l.51-.66c.22.18.444.31.67.39.227.08.467.12.72.12.267 0 .464-.057.59-.17a.541.541 0 0 0 .19-.42.448.448 0 0 0-.15-.34 1.187 1.187 0 0 0-.37-.24 8.24 8.24 0 0 0-.51-.2 4.113 4.113 0 0 1-.67-.31 1.788 1.788 0 0 1-.51-.46 1.164 1.164 0 0 1-.19-.67c0-.433.16-.787.48-1.06.32-.273.754-.41 1.3-.41.334 0 .64.057.92.17.28.107.52.247.72.42l-.51.65a1.79 1.79 0 0 0-1.1-.37c-.246 0-.43.053-.55.16a.493.493 0 0 0-.07.69c.08.08.194.153.34.22.147.06.324.123.53.19.254.087.49.193.71.32.22.12.394.277.52.47.134.187.2.423.2.71 0 .28-.073.537-.22.77a1.57 1.57 0 0 1-.65.55c-.28.133-.626.2-1.04.2Zm2.937 1.82v-6.85h.95l.08.52h.04c.207-.18.437-.33.69-.45.253-.127.517-.19.79-.19.407 0 .753.103 1.04.31.287.207.507.497.66.87.153.373.23.813.23 1.32 0 .56-.1 1.037-.3 1.43-.2.393-.46.697-.78.91-.313.207-.653.31-1.02.31-.213 0-.427-.047-.64-.14a2.455 2.455 0 0 1-.62-.4l.03.82v1.54h-1.15Zm2.14-2.77c.22 0 .417-.063.59-.19s.31-.313.41-.56c.1-.253.15-.567.15-.94 0-.327-.037-.607-.11-.84a1.018 1.018 0 0 0-.35-.53c-.153-.127-.353-.19-.6-.19-.18 0-.357.047-.53.14a2.297 2.297 0 0 0-.55.41v2.29c.18.147.353.253.52.32.173.06.33.09.47.09Zm3.504.83v-4.91h.95l.08.87h.04c.174-.32.38-.563.62-.73.247-.173.504-.26.77-.26.127 0 .234.007.32.02.087.013.167.04.24.08l-.23.98a1.547 1.547 0 0 0-.22-.04 1.367 1.367 0 0 0-.26-.02c-.193 0-.396.077-.61.23-.213.147-.396.407-.55.78v3h-1.15Zm5.643.12c-.406 0-.786-.1-1.14-.3-.353-.207-.64-.5-.86-.88-.22-.387-.33-.85-.33-1.39 0-.547.11-1.01.33-1.39.22-.387.507-.68.86-.88a2.22 2.22 0 0 1 1.14-.31c.414 0 .797.103 1.15.31.354.2.64.493.86.88.22.38.33.843.33 1.39 0 .54-.11 1.003-.33 1.39-.22.38-.506.673-.86.88-.353.2-.736.3-1.15.3Zm0-.94c.24 0 .447-.067.62-.2.174-.133.307-.323.4-.57.094-.247.14-.533.14-.86 0-.327-.046-.613-.14-.86a1.251 1.251 0 0 0-.4-.57.955.955 0 0 0-.62-.21c-.24 0-.446.07-.62.21a1.307 1.307 0 0 0-.39.57 2.43 2.43 0 0 0-.14.86c0 .327.047.613.14.86.094.247.224.437.39.57.174.133.38.2.62.2Zm5.549.94c-.454 0-.86-.1-1.22-.3-.36-.207-.647-.5-.86-.88-.207-.387-.31-.85-.31-1.39 0-.547.113-1.01.34-1.39a2.27 2.27 0 0 1 .9-.88 2.51 2.51 0 0 1 1.22-.31c.313 0 .586.053.82.16.24.1.446.23.62.39l-.55.72c-.107-.1-.23-.18-.37-.24a1.114 1.114 0 0 0-.46-.09c-.26 0-.49.07-.69.21-.2.133-.36.323-.48.57a1.99 1.99 0 0 0-.17.86c0 .327.056.613.17.86.113.24.266.43.46.57.2.133.43.2.69.2.193 0 .373-.037.54-.11.173-.073.326-.167.46-.28l.47.71a2.49 2.49 0 0 1-.72.45 2.18 2.18 0 0 1-.86.17Zm2.549-.12v-7.06h1.15v1.82l-.04.95a3.73 3.73 0 0 1 .69-.51c.253-.153.546-.23.88-.23.526 0 .91.17 1.15.51.24.34.36.82.36 1.44V39h-1.15v-2.93c0-.407-.06-.693-.18-.86-.12-.167-.317-.25-.59-.25-.214 0-.404.053-.57.16-.16.1-.344.25-.55.45V39h-1.15Zm7.686.12c-.46 0-.877-.1-1.25-.3a2.25 2.25 0 0 1-.87-.88c-.214-.387-.32-.853-.32-1.4 0-.533.11-.99.33-1.37.22-.387.503-.683.85-.89.346-.207.713-.31 1.1-.31.446 0 .82.1 1.12.3.3.2.523.477.67.83a2.95 2.95 0 0 1 .21 1.51c-.007.1-.02.197-.04.29h-3.38v-.88h2.42c0-.353-.08-.63-.24-.83-.16-.207-.407-.31-.74-.31-.187 0-.37.05-.55.15-.174.1-.32.27-.44.51-.114.24-.17.573-.17 1 0 .387.066.703.2.95.133.24.31.42.53.54.22.113.456.17.71.17.213 0 .413-.03.6-.09.193-.06.373-.143.54-.25l.4.74a2.83 2.83 0 0 1-.78.38c-.287.093-.587.14-.9.14Zm2.958-.12v-4.91h.95l.08.66h.04c.22-.213.46-.397.72-.55.26-.153.557-.23.89-.23.527 0 .91.17 1.15.51.24.34.36.82.36 1.44V39h-1.15v-2.93c0-.407-.06-.693-.18-.86-.12-.167-.316-.25-.59-.25-.213 0-.403.053-.57.16-.16.1-.343.25-.55.45V39h-1.15Zm11.602 0v-7.06h1.15v1.82l-.04.95a3.73 3.73 0 0 1 .69-.51c.253-.153.546-.23.88-.23.526 0 .91.17 1.15.51.24.34.36.82.36 1.44V39h-1.15v-2.93c0-.407-.06-.693-.18-.86-.12-.167-.317-.25-.59-.25-.214 0-.404.053-.57.16-.16.1-.344.25-.55.45V39h-1.15Zm6.766.12c-.287 0-.54-.06-.76-.18a1.342 1.342 0 0 1-.52-.5 1.56 1.56 0 0 1-.18-.76c0-.553.23-.97.69-1.25.467-.287 1.203-.483 2.21-.59a1.296 1.296 0 0 0-.1-.46.644.644 0 0 0-.28-.33c-.127-.087-.3-.13-.52-.13-.24 0-.477.043-.71.13-.227.087-.45.197-.67.33l-.42-.78c.18-.113.377-.217.59-.31.213-.1.44-.177.68-.23.24-.06.49-.09.75-.09.407 0 .743.083 1.01.25.273.16.477.4.61.72.14.313.21.7.21 1.16V39h-.95l-.08-.54h-.04a3.968 3.968 0 0 1-.71.47c-.247.127-.517.19-.81.19Zm.36-.94c.2 0 .383-.04.55-.12a2.33 2.33 0 0 0 .53-.38v-1.04c-.447.053-.8.123-1.06.21s-.447.193-.56.32a.624.624 0 0 0-.16.43c0 .207.067.357.2.45.133.087.3.13.5.13Zm5.986.94c-.22 0-.446-.053-.68-.16a2.699 2.699 0 0 1-.66-.48h-.03l-.1.52h-.91v-7.06h1.15v1.82l-.03.82c.207-.18.43-.327.67-.44.247-.113.497-.17.75-.17.407 0 .754.103 1.04.31.294.207.517.497.67.87.154.367.23.803.23 1.31 0 .56-.1 1.04-.3 1.44-.2.393-.46.697-.78.91-.313.207-.653.31-1.02.31Zm-.24-.95c.22 0 .417-.063.59-.19a1.25 1.25 0 0 0 .41-.56c.1-.253.15-.567.15-.94a2.8 2.8 0 0 0-.11-.84 1.018 1.018 0 0 0-.35-.53c-.153-.127-.353-.19-.6-.19-.18 0-.356.047-.53.14a2.316 2.316 0 0 0-.55.41v2.29c.174.147.347.253.52.32.174.06.33.09.47.09Zm5.605.95c-.46 0-.877-.1-1.25-.3a2.25 2.25 0 0 1-.87-.88c-.213-.387-.32-.853-.32-1.4 0-.533.11-.99.33-1.37.22-.387.503-.683.85-.89.347-.207.713-.31 1.1-.31.447 0 .82.1 1.12.3.3.2.523.477.67.83a2.95 2.95 0 0 1 .21 1.51c-.007.1-.02.197-.04.29h-3.38v-.88h2.42c0-.353-.08-.63-.24-.83-.16-.207-.407-.31-.74-.31-.187 0-.37.05-.55.15-.173.1-.32.27-.44.51-.113.24-.17.573-.17 1 0 .387.067.703.2.95.133.24.31.42.53.54.22.113.457.17.71.17.213 0 .413-.03.6-.09.193-.06.373-.143.54-.25l.4.74a2.83 2.83 0 0 1-.78.38c-.287.093-.587.14-.9.14Zm2.958-.12v-4.91h.95l.08.66h.04c.22-.213.46-.397.72-.55.26-.153.557-.23.89-.23.527 0 .91.17 1.15.51.24.34.36.82.36 1.44V39h-1.15v-2.93c0-.407-.06-.693-.18-.86-.12-.167-.316-.25-.59-.25-.213 0-.403.053-.57.16-.16.1-.343.25-.55.45V39h-1.15Z"/>
    <path fill="#DF00A6" fill-rule="evenodd" d="M158.494 28.863c1.504.049 2.699.534 3.894 1.078 3.92 1.788 5.232 4.563 2.545 7.29-4.177 4.227-13.907 6.995-21.452 5.718-1.671-.282-3.933-.53-5.591-1.904-1.542-1.278-1.478-2.798-.771-4.204.72-1.442 2.108-2.77 3.213-3.623 4.833-3.722 14.511-7.105 23.264-5.322.18.035.36-.024.412-.132.051-.107-.039-.222-.206-.256-9.01-1.836-18.997 1.62-23.971 5.45-1.376 1.065-3.175 2.84-3.689 4.678-.347 1.256-.103 2.54 1.234 3.656 1.761 1.464 4.164 1.751 5.938 2.05 7.789 1.32 17.853-1.528 22.159-5.895 2.892-2.93 1.504-5.915-2.712-7.837-1.285-.591-2.596-1.102-4.229-1.155-.18-.006-.334.08-.334.193-.013.113.129.209.296.215Z" clip-rule="evenodd"/>
    <path fill="#DF00A6" d="M146.92 51.65a.879.879 0 0 1-.49.21c-.18.02-.357-.007-.53-.08-.173-.08-.317-.2-.43-.36a1.13 1.13 0 0 1-.22-.5 3.022 3.022 0 0 1-.01-.75c.02-.26.103-.52.25-.78.147-.267.323-.503.53-.71.213-.207.423-.35.63-.43.1-.067.183-.097.25-.09.073 0 .183.007.33.02.153.02.267.05.34.09.08.04.143.093.19.16a.783.783 0 0 1 .25.58c-.027.147-.127.327-.3.54a1.908 1.908 0 0 1-.66.51 1.397 1.397 0 0 1-.48.06.782.782 0 0 1-.43-.13c-.127-.053-.21-.043-.25.03-.04.067-.077.233-.11.5-.027.253-.007.44.06.56.067.113.157.18.27.2.133.027.237.047.31.06a.512.512 0 0 0 .29-.09 1.11 1.11 0 0 1 .2-.11.221.221 0 0 0 .06-.04l.13-.13a1.1 1.1 0 0 1 .11-.1.125.125 0 0 1 .09-.04c.033 0 .063.017.09.05a.312.312 0 0 0 .08.06c.067 0 .08.04.04.12-.033.08-.103.177-.21.29a2.217 2.217 0 0 1-.38.3Zm-.01-2.12c.073-.033.15-.08.23-.14.08-.067.147-.137.2-.21.06-.08.09-.147.09-.2a.27.27 0 0 0-.13-.23c-.087-.067-.217-.077-.39-.03a.686.686 0 0 0-.25.15 2.41 2.41 0 0 0-.27.25c-.08.093-.147.177-.2.25-.047.073-.063.117-.05.13.02.033.077.06.17.08.093.013.197.017.31.01a.82.82 0 0 0 .29-.06Zm5.042 2.01a.622.622 0 0 1-.33-.08.679.679 0 0 1-.22-.29 2.994 2.994 0 0 1-.07-.31c-.013-.12-.02-.23-.02-.33 0-.107.01-.177.03-.21.027-.027.037-.073.03-.14v-.23c-.007-.133-.04-.207-.1-.22-.053-.02-.133 0-.24.06-.12.073-.277.173-.47.3-.193.12-.397.253-.61.4-.207.147-.403.3-.59.46-.147.16-.237.283-.27.37-.027.08-.067.12-.12.12-.053.027-.1.03-.14.01a25.507 25.507 0 0 0-.15-.12 3.116 3.116 0 0 0-.14-.15.64.64 0 0 1-.09-.12c0-.033.01-.103.03-.21.02-.107.043-.213.07-.32a3.6 3.6 0 0 1 .07-.21c.033 0 .06-.033.08-.1.027-.067.067-.14.12-.22.013-.08.047-.187.1-.32l.16-.37a2.06 2.06 0 0 0 .19-.4 1.5 1.5 0 0 0 .08-.4.069.069 0 0 1 .02-.07c.02-.027.043-.04.07-.04a.168.168 0 0 1 .19-.04c.073.02.14.07.2.15.12.16.167.327.14.5-.02.167-.127.407-.32.72l-.11.25a.392.392 0 0 0-.03.13l.1-.07c.073-.047.153-.1.24-.16a4.57 4.57 0 0 1 .22-.15 2.39 2.39 0 0 1 .23-.18c.12-.087.247-.17.38-.25.14-.087.243-.137.31-.15.053-.027.11-.05.17-.07a.375.375 0 0 1 .13-.04c.053 0 .12.03.2.09a1.1 1.1 0 0 1 .24.2.457.457 0 0 1 .13.19v.08l.02.08c.027.087.04.203.04.35.007.147.003.28-.01.4-.013.12-.037.19-.07.21v.03c.007.013.023.02.05.02v.05c-.033 0-.047.03-.04.09a.587.587 0 0 0 .18.34c.08.08.113.157.1.23-.013.067-.073.113-.18.14Zm3.522.36a.977.977 0 0 1-.12-.01.22.22 0 0 1-.12-.09c-.1-.12-.163-.22-.19-.3a.823.823 0 0 1-.01-.35c.013-.1.02-.187.02-.26a5.02 5.02 0 0 1 .02-.2c-.027-.027-.077-.007-.15.06a5.29 5.29 0 0 1-.28.23 4.6 4.6 0 0 1-.61.6 1.68 1.68 0 0 1-.47.27 1.05 1.05 0 0 1-.4.04.398.398 0 0 1-.27-.14.699.699 0 0 1-.13-.33 2.373 2.373 0 0 1 0-.43c.027-.22.073-.43.14-.63.073-.2.19-.423.35-.67.073-.133.17-.263.29-.39a2.55 2.55 0 0 1 .41-.35c.153-.107.3-.183.44-.23.153-.06.31-.093.47-.1.16-.013.303 0 .43.04.08.04.143.06.19.06.053 0 .093-.033.12-.1.033-.053.067-.133.1-.24a1.28 1.28 0 0 1 .12-.29l.22-.65c.073-.18.153-.37.24-.57.087-.2.19-.443.31-.73.113-.213.207-.337.28-.37.073-.04.157-.013.25.08a.35.35 0 0 1 .08.3c-.02.107-.08.28-.18.52a4.428 4.428 0 0 0-.26.5c-.087.207-.167.393-.24.56-.073.16-.15.343-.23.55a5.06 5.06 0 0 1-.11.37 9 9 0 0 0-.1.38c-.02.107-.043.207-.07.3-.02.087-.043.13-.07.13a.906.906 0 0 0-.15.32c-.047.147-.087.3-.12.46-.027.16-.05.293-.07.4-.013.08-.023.183-.03.31a6.7 6.7 0 0 0-.01.37v.24c0 .147-.003.24-.01.28-.007.04-.033.06-.08.06Zm-2.13-.63c.14 0 .287-.06.44-.18.16-.12.32-.253.48-.4.1-.093.207-.217.32-.37.12-.153.233-.307.34-.46.113-.153.203-.287.27-.4.067-.12.1-.193.1-.22 0-.033-.03-.057-.09-.07a.979.979 0 0 0-.21-.02.505.505 0 0 0-.18.01c-.147.033-.293.1-.44.2-.14.1-.293.25-.46.45a3.601 3.601 0 0 0-.43.66 2.353 2.353 0 0 0-.2.57c-.027.153-.007.23.06.23Z"/>
    <path fill="#3E3E3E" d="m31.59 7-1.35-4.86h.86l.71 2.81c.053.22.103.44.15.66.047.22.09.46.13.72h.04c.053-.26.103-.5.15-.72l.16-.66.72-2.81h.9l.73 2.81c.06.22.113.44.16.66.053.22.107.46.16.72h.04c.053-.26.103-.5.15-.72l.14-.66.71-2.81h.8L35.64 7h-1.07l-.65-2.6c-.053-.227-.107-.45-.16-.67a40.938 40.938 0 0 1-.15-.77h-.04c-.047.287-.097.543-.15.77-.047.227-.1.45-.16.67L32.61 7h-1.02Zm8.348.12c-.433 0-.83-.1-1.19-.3a2.245 2.245 0 0 1-.84-.87c-.206-.38-.31-.84-.31-1.38 0-.527.107-.98.32-1.36a2.38 2.38 0 0 1 .82-.88c.334-.207.687-.31 1.06-.31.414 0 .764.097 1.05.29.294.187.514.45.66.79.147.34.22.74.22 1.2 0 .087-.003.17-.01.25 0 .08-.01.16-.03.24h-3.5v-.65h2.8c0-.467-.103-.823-.31-1.07-.2-.253-.49-.38-.87-.38-.22 0-.436.063-.65.19-.213.12-.39.317-.53.59-.133.273-.2.637-.2 1.09 0 .413.07.76.21 1.04.147.28.344.493.59.64.247.14.517.21.81.21a2.178 2.178 0 0 0 1.21-.37l.3.54a3.03 3.03 0 0 1-.72.36 2.63 2.63 0 0 1-.89.14ZM42.93 7V2.14h.68l.07.88h.03c.16-.307.36-.55.6-.73.24-.18.5-.27.78-.27.107 0 .2.007.28.02.08.013.16.04.24.08l-.18.7a1.29 1.29 0 0 0-.21-.04 1.15 1.15 0 0 0-.24-.02c-.206 0-.423.083-.65.25-.22.167-.413.457-.58.87V7h-.82Zm5.03.12c-.614 0-1.104-.22-1.47-.66-.36-.447-.54-1.073-.54-1.88 0-.527.096-.98.29-1.36.2-.387.46-.683.78-.89a1.88 1.88 0 0 1 1.04-.31c.286 0 .53.05.73.15.206.093.416.23.63.41l-.04-.83V-.12h.83V7h-.68l-.07-.57h-.03c-.187.187-.407.35-.66.49-.254.133-.524.2-.81.2Zm.18-.69c.226 0 .44-.057.64-.17.2-.113.4-.28.6-.5V3.22a1.843 1.843 0 0 0-.59-.39 1.53 1.53 0 0 0-.59-.12c-.26 0-.497.08-.71.24-.207.153-.374.37-.5.65-.127.273-.19.597-.19.97 0 .58.116 1.037.35 1.37.233.327.563.49.99.49Zm5.676.69c-.433 0-.83-.1-1.19-.3a2.245 2.245 0 0 1-.84-.87c-.206-.38-.31-.84-.31-1.38 0-.527.107-.98.32-1.36a2.39 2.39 0 0 1 .82-.88c.334-.207.687-.31 1.06-.31.414 0 .764.097 1.05.29.294.187.514.45.66.79.147.34.22.74.22 1.2 0 .087-.003.17-.01.25 0 .08-.01.16-.03.24h-3.5v-.65h2.8c0-.467-.103-.823-.31-1.07-.2-.253-.49-.38-.87-.38-.22 0-.436.063-.65.19-.213.12-.39.317-.53.59-.133.273-.2.637-.2 1.09 0 .413.07.76.21 1.04.147.28.344.493.59.64.247.14.517.21.81.21a2.18 2.18 0 0 0 1.21-.37l.3.54a3.03 3.03 0 0 1-.72.36 2.63 2.63 0 0 1-.89.14Zm8.635 2.12c-.393 0-.743-.053-1.05-.16-.3-.1-.536-.247-.71-.44a1.05 1.05 0 0 1-.25-.71c0-.207.064-.407.19-.6.127-.187.3-.353.52-.5v-.04a1.143 1.143 0 0 1-.31-.31.916.916 0 0 1-.12-.48c0-.207.057-.387.17-.54.12-.153.24-.273.36-.36v-.04a2.16 2.16 0 0 1-.43-.54 1.49 1.49 0 0 1-.2-.77c0-.353.084-.66.25-.92.174-.26.397-.46.67-.6a2.007 2.007 0 0 1 1.29-.17c.12.02.224.047.31.08h1.69v.63h-1.01v.04c.12.107.217.24.29.4.08.16.12.35.12.57 0 .347-.08.647-.24.9-.16.247-.373.44-.64.58a1.984 1.984 0 0 1-1.27.16 2.1 2.1 0 0 1-.36-.13c-.08.073-.153.153-.22.24-.06.087-.09.2-.09.34 0 .153.06.28.18.38.127.1.354.15.68.15h.94c.567 0 .99.093 1.27.28.287.18.43.473.43.88 0 .3-.1.577-.3.83-.2.253-.486.457-.86.61-.366.16-.8.24-1.3.24Zm0-4.33a.962.962 0 0 0 .51-.14c.16-.1.287-.237.38-.41a1.26 1.26 0 0 0 .14-.61c0-.36-.1-.637-.3-.83-.2-.2-.443-.3-.73-.3-.286 0-.53.1-.73.3-.2.193-.3.47-.3.83 0 .233.047.437.14.61.094.173.217.31.37.41.16.093.334.14.52.14Zm.12 3.76c.307 0 .574-.047.8-.14.234-.093.414-.217.54-.37a.725.725 0 0 0 .2-.48c0-.227-.086-.383-.26-.47-.166-.087-.406-.13-.72-.13h-.84a2.674 2.674 0 0 1-.63-.08c-.18.127-.31.26-.39.4a.899.899 0 0 0-.11.42c0 .26.124.467.37.62.254.153.6.23 1.04.23Zm5.113-1.55c-.434 0-.83-.1-1.19-.3a2.243 2.243 0 0 1-.84-.87c-.207-.38-.31-.84-.31-1.38 0-.527.106-.98.32-1.36.213-.38.486-.673.82-.88.333-.207.686-.31 1.06-.31.413 0 .763.097 1.05.29.293.187.513.45.66.79.146.34.22.74.22 1.2 0 .087-.004.17-.01.25 0 .08-.01.16-.03.24h-3.5v-.65h2.8c0-.467-.104-.823-.31-1.07-.2-.253-.49-.38-.87-.38-.22 0-.437.063-.65.19-.214.12-.39.317-.53.59-.134.273-.2.637-.2 1.09 0 .413.07.76.21 1.04.146.28.343.493.59.64.246.14.516.21.81.21a2.18 2.18 0 0 0 1.21-.37l.3.54a3.033 3.033 0 0 1-.72.36c-.26.093-.557.14-.89.14Zm4.26 0c-.353 0-.69-.06-1.01-.18-.313-.127-.58-.3-.8-.52l.38-.48c.214.173.434.307.66.4.234.093.5.14.8.14.32 0 .56-.073.72-.22a.725.725 0 0 0 .24-.54.538.538 0 0 0-.17-.41 1.24 1.24 0 0 0-.41-.28 4.687 4.687 0 0 0-.52-.22 5.826 5.826 0 0 1-.69-.3 1.78 1.78 0 0 1-.54-.44c-.133-.18-.2-.403-.2-.67 0-.393.147-.72.44-.98.3-.267.714-.4 1.24-.4.3 0 .58.053.84.16.26.1.484.23.67.39l-.38.47a2.39 2.39 0 0 0-.53-.28c-.18-.067-.38-.1-.6-.1-.306 0-.533.07-.68.21a.672.672 0 0 0-.21.49c0 .147.044.27.13.37.087.093.207.177.36.25.16.073.34.143.54.21.254.093.494.2.72.32.234.113.42.263.56.45.147.18.22.417.22.71 0 .267-.07.51-.21.73a1.446 1.446 0 0 1-.6.52c-.26.133-.583.2-.97.2Zm2.92 1.93V2.14h.68l.07.56h.03a3.6 3.6 0 0 1 .73-.48c.267-.133.54-.2.82-.2.413 0 .763.103 1.05.31.287.2.503.487.65.86.147.367.22.803.22 1.31 0 .547-.1 1.017-.3 1.41-.193.393-.45.693-.77.9a1.86 1.86 0 0 1-1.03.31c-.22 0-.443-.05-.67-.15a3.351 3.351 0 0 1-.68-.41l.02.85v1.64h-.82Zm2.01-2.62c.267 0 .503-.077.71-.23a1.5 1.5 0 0 0 .5-.66c.12-.293.18-.64.18-1.04 0-.353-.043-.663-.13-.93a1.258 1.258 0 0 0-.41-.63c-.187-.153-.433-.23-.74-.23-.2 0-.407.057-.62.17a3.06 3.06 0 0 0-.68.49v2.55c.227.187.44.32.64.4.207.073.39.11.55.11ZM80.41 7V2.14h.68l.07.88h.03c.16-.307.36-.55.6-.73.24-.18.5-.27.78-.27.107 0 .2.007.28.02.08.013.16.04.24.08l-.18.7a1.285 1.285 0 0 0-.21-.04 1.15 1.15 0 0 0-.24-.02c-.207 0-.423.083-.65.25-.22.167-.413.457-.58.87V7h-.82Zm5.259.12c-.393 0-.763-.1-1.11-.3a2.27 2.27 0 0 1-.83-.87c-.207-.38-.31-.837-.31-1.37 0-.547.103-1.01.31-1.39.213-.38.49-.67.83-.87.347-.2.717-.3 1.11-.3a2.15 2.15 0 0 1 1.93 1.17c.213.38.32.843.32 1.39 0 .533-.107.99-.32 1.37a2.15 2.15 0 0 1-1.93 1.17Zm0-.68c.28 0 .527-.077.74-.23.213-.16.377-.38.49-.66.113-.28.17-.603.17-.97 0-.373-.057-.7-.17-.98a1.437 1.437 0 0 0-.49-.66 1.2 1.2 0 0 0-.74-.24 1.2 1.2 0 0 0-.74.24c-.207.153-.37.373-.49.66-.113.28-.17.607-.17.98 0 .367.057.69.17.97.12.28.283.5.49.66.213.153.46.23.74.23Zm5.46.68a2.3 2.3 0 0 1-1.17-.3 2.11 2.11 0 0 1-.82-.87c-.2-.38-.3-.837-.3-1.37 0-.547.107-1.01.32-1.39.22-.38.507-.67.86-.87.36-.2.747-.3 1.16-.3.32 0 .593.053.82.16.233.107.433.243.6.41l-.41.51a1.264 1.264 0 0 0-.43-.28 1.307 1.307 0 0 0-.55-.11c-.287 0-.547.08-.78.24-.227.153-.407.37-.54.65-.133.28-.2.607-.2.98 0 .367.063.69.19.97s.303.5.53.66c.227.153.49.23.79.23.227 0 .437-.043.63-.13.193-.087.36-.197.5-.33l.36.5c-.207.193-.44.35-.7.47a2.13 2.13 0 0 1-.86.17Zm2.63-.12V-.12h.82v1.94l-.03 1a4.37 4.37 0 0 1 .73-.56c.26-.16.557-.24.89-.24.514 0 .887.163 1.12.49.24.32.36.79.36 1.41V7h-.82V4.03c0-.46-.073-.79-.22-.99-.14-.207-.373-.31-.7-.31-.246 0-.47.063-.67.19a4.34 4.34 0 0 0-.66.56V7h-.82Zm7.41.12c-.433 0-.83-.1-1.19-.3a2.245 2.245 0 0 1-.84-.87c-.207-.38-.31-.84-.31-1.38 0-.527.107-.98.32-1.36.213-.38.487-.673.82-.88a1.98 1.98 0 0 1 1.06-.31c.413 0 .763.097 1.05.29.293.187.513.45.66.79.147.34.22.74.22 1.2 0 .087-.003.17-.01.25 0 .08-.01.16-.03.24h-3.5v-.65h2.8c0-.467-.103-.823-.31-1.07-.2-.253-.49-.38-.87-.38-.22 0-.437.063-.65.19-.213.12-.39.317-.53.59-.133.273-.2.637-.2 1.09 0 .413.07.76.21 1.04.147.28.343.493.59.64.247.14.517.21.81.21a2.18 2.18 0 0 0 1.21-.37l.3.54a3.018 3.018 0 0 1-.72.36c-.26.093-.557.14-.89.14ZM104.16 7V2.14h.68l.07.7h.03c.233-.233.48-.427.74-.58.26-.16.557-.24.89-.24.513 0 .887.163 1.12.49.24.32.36.79.36 1.41V7h-.82V4.03c0-.46-.073-.79-.22-.99-.14-.207-.373-.31-.7-.31-.247 0-.47.063-.67.19a4.38 4.38 0 0 0-.66.56V7h-.82Zm9.473 0V-.12h.82v1.94l-.03 1a4.29 4.29 0 0 1 .73-.56c.26-.16.556-.24.89-.24.513 0 .886.163 1.12.49.24.32.36.79.36 1.41V7h-.82V4.03c0-.46-.074-.79-.22-.99-.14-.207-.374-.31-.7-.31-.247 0-.47.063-.67.19a4.283 4.283 0 0 0-.66.56V7h-.82Zm6.559.12a1.65 1.65 0 0 1-.73-.16 1.337 1.337 0 0 1-.51-.47 1.405 1.405 0 0 1-.19-.75c0-.547.24-.96.72-1.24s1.24-.477 2.28-.59c-.007-.2-.04-.393-.1-.58a.842.842 0 0 0-.3-.45c-.147-.113-.35-.17-.61-.17-.28 0-.543.053-.79.16-.247.1-.467.213-.66.34l-.32-.56c.147-.1.32-.197.52-.29.2-.1.417-.18.65-.24.233-.067.48-.1.74-.1.393 0 .713.083.96.25.253.16.437.39.55.69.12.3.18.653.18 1.06V7h-.68l-.07-.58h-.03c-.233.193-.483.36-.75.5a1.9 1.9 0 0 1-.86.2Zm.23-.68c.24 0 .463-.053.67-.16.213-.107.437-.263.67-.47V4.5c-.547.067-.98.153-1.3.26-.313.1-.54.227-.68.38a.788.788 0 0 0-.21.55c0 .267.083.46.25.58.167.113.367.17.6.17Zm5.839.68c-.227 0-.46-.053-.7-.16a2.965 2.965 0 0 1-.69-.46h-.03l-.07.5h-.66V-.12h.82v1.94l-.02.88c.22-.193.46-.353.72-.48.267-.133.533-.2.8-.2.42 0 .773.103 1.06.31.287.2.503.487.65.86.147.367.22.8.22 1.3 0 .553-.1 1.027-.3 1.42-.193.393-.45.693-.77.9a1.86 1.86 0 0 1-1.03.31Zm-.14-.69c.267 0 .503-.077.71-.23a1.5 1.5 0 0 0 .5-.66c.12-.293.18-.64.18-1.04 0-.353-.043-.663-.13-.93a1.26 1.26 0 0 0-.41-.63c-.187-.153-.433-.23-.74-.23-.2 0-.41.057-.63.17-.213.107-.437.27-.67.49v2.55c.213.187.423.32.63.4.213.073.4.11.56.11Zm5.487.69c-.433 0-.83-.1-1.19-.3a2.25 2.25 0 0 1-.84-.87c-.206-.38-.31-.84-.31-1.38 0-.527.107-.98.32-1.36a2.39 2.39 0 0 1 .82-.88c.334-.207.687-.31 1.06-.31.414 0 .764.097 1.05.29.294.187.514.45.66.79.147.34.22.74.22 1.2 0 .087-.003.17-.01.25 0 .08-.01.16-.03.24h-3.5v-.65h2.8c0-.467-.103-.823-.31-1.07-.2-.253-.49-.38-.87-.38-.22 0-.436.063-.65.19-.213.12-.39.317-.53.59-.133.273-.2.637-.2 1.09 0 .413.07.76.21 1.04.147.28.344.493.59.64.247.14.517.21.81.21a2.163 2.163 0 0 0 1.21-.37l.3.54a3.018 3.018 0 0 1-.72.36 2.63 2.63 0 0 1-.89.14Zm2.991-.12V2.14h.68l.07.7h.03c.234-.233.48-.427.74-.58.26-.16.557-.24.89-.24.514 0 .887.163 1.12.49.24.32.36.79.36 1.41V7h-.82V4.03c0-.46-.073-.79-.22-.99-.14-.207-.373-.31-.7-.31-.246 0-.47.063-.67.19a4.38 4.38 0 0 0-.66.56V7h-.82Z"/>
    <path fill="#625C5C" d="M139.428 25.442a.35.35 0 0 0 .416-.268l.669-3.078a.35.35 0 0 0-.684-.149l-.595 2.736-2.736-.594a.35.35 0 0 0-.149.684l3.079.669Zm-9.285-14.253 9.064 14.1.589-.379-9.064-14.1-.589.38ZM94.427 25.442a.35.35 0 0 0 .417-.268l.67-3.078a.35.35 0 0 0-.685-.149l-.595 2.736-2.736-.594a.35.35 0 1 0-.149.684l3.078.669Zm-9.284-14.253 9.064 14.1.59-.379-9.065-14.1-.589.38ZM36.512 25.442a.35.35 0 0 1-.416-.268l-.67-3.078a.35.35 0 0 1 .685-.149l.595 2.736 2.736-.594a.35.35 0 1 1 .148.684l-3.078.669Zm9.284-14.253-9.064 14.1-.589-.379 9.065-14.1.588.38Z"/>
  </g>
  <defs>
    <clipPath id="a">
      <path fill="#fff" d="M0 0h169v64H0z"/>
    </clipPath>
  </defs>
</svg>
