<svg xmlns="http://www.w3.org/2000/svg" width="165" height="45" fill="none" viewBox="0 0 165 45">
  <path fill="#DF00A6" fillRule="evenodd" d="M29.14 12.899c1.213.05 2.177.545 3.14 1.1 3.162 1.824 4.22 4.654 2.053 7.435-3.368 4.313-11.215 7.135-17.3 5.833-1.347-.287-3.172-.54-4.509-1.942-1.244-1.304-1.192-2.853-.622-4.288.58-1.471 1.7-2.825 2.592-3.695 3.897-3.797 11.702-7.248 18.761-5.428.145.034.29-.026.332-.135.041-.11-.031-.227-.166-.262-7.266-1.872-15.32 1.653-19.332 5.56-1.109 1.085-2.56 2.897-2.975 4.77-.28 1.282-.082 2.591.996 3.73 1.42 1.494 3.358 1.786 4.788 2.092 6.282 1.345 14.398-1.56 17.87-6.014 2.333-2.989 1.213-6.033-2.187-7.994-1.036-.603-2.093-1.123-3.41-1.178-.145-.006-.27.083-.27.197-.01.115.104.213.24.219Z" clipRule="evenodd"/>
  <path fill="#000" d="M1.08 24v-7.873h4.536v.84h-3.54v2.472h2.988v.852H2.076v2.856h3.66V24H1.08Zm6.232 0v-5.833h.816l.084 1.056h.036c.2-.368.444-.66.732-.876.288-.216.596-.324.924-.324.232 0 .44.04.624.12l-.192.864a1.566 1.566 0 0 0-.564-.096c-.248 0-.508.1-.78.3-.264.2-.496.548-.696 1.044V24h-.984Zm7.487 0-1.62-5.833h1.008l.864 3.372c.064.272.124.544.18.816l.168.804h.048l.192-.804c.064-.272.132-.544.204-.816l.9-3.372h.96l.912 3.372c.072.272.14.544.204.816.072.264.14.532.204.804h.048c.064-.272.124-.54.18-.804.064-.272.124-.544.18-.816l.852-3.372h.936L19.659 24h-1.2l-.84-3.132c-.072-.28-.14-.556-.204-.828-.056-.272-.12-.556-.192-.852h-.048c-.064.296-.128.584-.192.864-.064.272-.136.548-.216.828L15.95 24h-1.152Zm7.689 0v-5.833h.984V24h-.984Zm.504-7.033a.703.703 0 0 1-.48-.168.649.649 0 0 1-.18-.48c0-.192.06-.348.18-.468a.675.675 0 0 1 .48-.18c.192 0 .348.06.468.18.128.12.192.276.192.468 0 .2-.064.36-.192.48a.658.658 0 0 1-.468.168ZM25.44 24v-5.832h.816l.084 1.056h.036c.2-.368.444-.66.732-.876.288-.216.596-.324.924-.324.232 0 .44.04.624.12l-.192.864a1.567 1.567 0 0 0-.564-.096c-.248 0-.508.1-.78.3-.264.2-.496.548-.696 1.044V24h-.984Zm6.035.144c-.728 0-1.312-.264-1.752-.792-.44-.536-.66-1.288-.66-2.256 0-.632.116-1.176.348-1.632.24-.464.552-.82.936-1.068a2.295 2.295 0 0 1 1.248-.372c.336 0 .628.06.876.18s.5.284.756.492l-.048-.996v-2.244h.996V24h-.816l-.084-.684h-.036c-.224.224-.488.42-.792.588-.304.16-.628.24-.972.24Zm.216-.828c.512 0 1.008-.268 1.488-.804v-3.048a2.34 2.34 0 0 0-.72-.468 1.75 1.75 0 0 0-.696-.144c-.312 0-.596.096-.852.288a1.94 1.94 0 0 0-.6.78c-.152.328-.228.716-.228 1.164 0 .696.14 1.244.42 1.644.28.392.676.588 1.188.588Zm6.85.684v-5.832h.817l.084.84h.036c.256-.28.536-.512.84-.696a1.79 1.79 0 0 1 .972-.288c.448 0 .796.1 1.044.3.256.192.444.464.564.816.304-.328.612-.596.924-.804.312-.208.644-.312.996-.312.6 0 1.044.196 1.332.588.296.384.444.948.444 1.692V24h-.984v-3.564c0-.544-.088-.94-.264-1.188-.176-.248-.448-.372-.816-.372-.432 0-.92.3-1.464.9V24h-.984v-3.564c0-.544-.088-.94-.264-1.188-.176-.248-.452-.372-.828-.372-.432 0-.92.3-1.464.9V24h-.984Zm12.218.144c-.472 0-.916-.12-1.332-.36a2.725 2.725 0 0 1-.996-1.044c-.248-.456-.372-1.004-.372-1.644 0-.656.124-1.212.372-1.668.256-.456.588-.804.996-1.044.416-.24.86-.36 1.332-.36.48 0 .924.12 1.332.36.408.24.736.588.984 1.044.256.456.384 1.012.384 1.668 0 .64-.128 1.188-.384 1.644a2.641 2.641 0 0 1-.984 1.044 2.58 2.58 0 0 1-1.332.36Zm0-.816c.504 0 .908-.204 1.212-.612.312-.416.468-.956.468-1.62 0-.672-.156-1.216-.468-1.632-.304-.416-.708-.624-1.212-.624-.496 0-.9.208-1.212.624-.312.416-.468.96-.468 1.632 0 .664.156 1.204.468 1.62.312.408.716.612 1.212.612Zm4.236.672v-5.832h.816l.084 1.056h.036c.2-.368.444-.66.732-.876.288-.216.596-.324.924-.324.232 0 .44.04.624.12l-.192.864a1.567 1.567 0 0 0-.564-.096c-.248 0-.508.1-.78.3-.264.2-.496.548-.696 1.044V24h-.984Zm6.01 2.688c-.711 0-1.291-.136-1.74-.408-.447-.272-.671-.66-.671-1.164 0-.248.076-.488.228-.72.152-.224.36-.424.624-.6v-.048a1.179 1.179 0 0 1-.372-.372 1.1 1.1 0 0 1-.144-.576c0-.248.068-.464.204-.648a1.84 1.84 0 0 1 .432-.432v-.048a2.447 2.447 0 0 1-.528-.648 1.861 1.861 0 0 1-.228-.924c0-.424.1-.792.3-1.104.2-.312.468-.552.804-.72a2.408 2.408 0 0 1 1.548-.204c.144.024.268.056.372.096h2.028v.756h-1.2c.136.128.248.3.336.516.096.208.144.436.144.684 0 .416-.096.776-.288 1.08-.192.304-.448.54-.768.708-.32.16-.68.24-1.08.24-.312 0-.604-.068-.876-.204a1.342 1.342 0 0 0-.264.3.68.68 0 0 0-.108.396c0 .184.072.336.216.456.152.12.424.18.816.18h1.128c.68 0 1.188.112 1.524.336.344.216.516.568.516 1.056 0 .36-.12.692-.36.996-.24.304-.58.548-1.02.732-.44.192-.964.288-1.572.288Zm0-5.196c.337 0 .625-.124.865-.372.248-.256.372-.596.372-1.02 0-.424-.12-.756-.36-.996s-.532-.36-.876-.36-.636.12-.876.36-.36.572-.36.996c0 .424.12.764.36 1.02.248.248.54.372.876.372Zm.145 4.512c.56 0 1.008-.124 1.344-.372.336-.24.504-.512.504-.816 0-.272-.104-.46-.312-.564-.2-.104-.488-.156-.864-.156h-1.008a3.206 3.206 0 0 1-.756-.096c-.208.152-.36.312-.456.48a1.008 1.008 0 0 0-.144.504c0 .312.148.56.444.744.304.184.72.276 1.248.276Zm6.134-1.86c-.52 0-.992-.12-1.415-.36-.425-.248-.76-.6-1.008-1.056-.248-.456-.372-1-.372-1.632 0-.64.124-1.188.372-1.644.256-.456.584-.808.984-1.056s.82-.372 1.26-.372c.744 0 1.316.248 1.716.744.407.496.611 1.16.611 1.992 0 .104-.004.208-.012.312 0 .096-.008.18-.024.252H65.46c.04.616.233 1.108.576 1.476.352.368.808.552 1.368.552.28 0 .537-.04.769-.12.24-.088.467-.2.683-.336l.349.648c-.249.16-.532.3-.853.42a2.96 2.96 0 0 1-1.067.18Zm-1.835-3.528h3.12c0-.592-.128-1.04-.384-1.344-.249-.312-.6-.468-1.057-.468-.407 0-.776.16-1.104.48-.32.312-.512.756-.576 1.332ZM70.874 24v-5.832h.816l.084.84h.036c.28-.28.576-.512.888-.696a1.996 1.996 0 0 1 1.068-.288c.616 0 1.064.196 1.344.588.288.384.432.948.432 1.692V24h-.984v-3.564c0-.544-.088-.94-.264-1.188-.176-.248-.456-.372-.84-.372-.296 0-.564.076-.804.228a5.216 5.216 0 0 0-.792.672V24h-.984Zm9.06 0v-7.872h4.537v.84h-3.54v2.664h3v.84h-3V24h-.996Zm7.35.144c-.615 0-1.067-.192-1.355-.576-.288-.392-.432-.96-.432-1.704v-3.696h.996v3.564c0 .544.084.94.252 1.188.176.248.456.372.84.372.304 0 .572-.076.804-.228.24-.16.496-.412.768-.756v-4.14h.984V24h-.816l-.084-.912h-.036c-.272.32-.56.576-.864.768a1.935 1.935 0 0 1-1.056.288Zm8.484 0a2.6 2.6 0 0 1-.912-.156 3.932 3.932 0 0 1-.78-.432l.396-.696c.416.344.84.516 1.272.516.328 0 .576-.096.744-.288a.992.992 0 0 0 .264-.672c0-.28-.08-.504-.24-.672a2.196 2.196 0 0 0-.588-.432c-.232-.12-.468-.244-.708-.372a2.112 2.112 0 0 1-.588-.504c-.16-.2-.24-.468-.24-.804 0-.272.052-.504.156-.696.112-.2.236-.384.372-.552.136-.176.256-.356.36-.54.112-.192.168-.412.168-.66 0-.304-.084-.552-.252-.744-.168-.2-.416-.3-.744-.3-.424 0-.756.156-.996.468-.24.312-.36.776-.36 1.392v6h-.984v-6.18c0-.752.204-1.352.612-1.8.408-.456.988-.684 1.74-.684.424 0 .78.08 1.068.24.288.16.508.372.66.636.152.264.228.556.228.876 0 .296-.056.552-.168.768a2.66 2.66 0 0 1-.384.588 5.26 5.26 0 0 0-.384.504 1.05 1.05 0 0 0-.156.564c0 .232.08.42.24.564.16.136.356.264.588.384.24.112.476.244.708.396.232.144.428.332.588.564.16.232.24.544.24.936 0 .504-.172.928-.516 1.272-.344.344-.812.516-1.404.516Zm5.834 0c-.272 0-.556-.064-.852-.192a3.334 3.334 0 0 1-.816-.552H99.9l-.084.6h-.792v-8.544h.984v2.328l-.024 1.056c.264-.232.552-.424.864-.576.32-.16.64-.24.96-.24.76 0 1.336.268 1.728.804.392.536.588 1.256.588 2.16 0 .664-.12 1.232-.36 1.704-.232.472-.54.832-.924 1.08a2.2 2.2 0 0 1-1.236.372Zm-.168-.828c.48 0 .876-.204 1.188-.612.32-.416.48-.984.48-1.704 0-.64-.12-1.156-.36-1.548-.232-.4-.624-.6-1.176-.6-.248 0-.5.068-.756.204a3.997 3.997 0 0 0-.804.588v3.06c.256.224.508.384.756.48.256.088.48.132.672.132Zm5.401.828c-.488 0-.896-.144-1.224-.432-.32-.296-.48-.704-.48-1.224 0-.64.284-1.128.852-1.464.576-.344 1.484-.584 2.724-.72a2.3 2.3 0 0 0-.108-.708 1.015 1.015 0 0 0-.36-.54c-.168-.144-.412-.216-.732-.216-.336 0-.652.064-.948.192-.296.128-.56.272-.792.432l-.384-.684c.272-.176.604-.344.996-.504.4-.168.832-.252 1.296-.252.712 0 1.228.22 1.548.66.32.432.48 1.012.48 1.74V24h-.816l-.084-.696h-.036c-.272.224-.572.42-.9.588-.32.168-.664.252-1.032.252Zm.288-.792c.28 0 .544-.068.792-.204.248-.136.512-.328.792-.576v-1.62c-.968.12-1.648.3-2.04.54-.384.24-.576.548-.576.924 0 .328.1.568.3.72.2.144.444.216.732.216Zm5.459.792c-.368 0-.636-.112-.804-.336-.16-.232-.24-.56-.24-.984v-7.368h.984v7.44c0 .152.028.264.084.336a.25.25 0 0 0 .192.096h.084c.032-.008.076-.016.132-.024l.132.744a.849.849 0 0 1-.228.072c-.088.016-.2.024-.336.024Zm3.058 0c-.368 0-.636-.112-.804-.336-.16-.232-.24-.56-.24-.984v-7.368h.984v7.44c0 .152.028.264.084.336a.25.25 0 0 0 .192.096h.084c.032-.008.076-.016.132-.024l.132.744a.849.849 0 0 1-.228.072c-.088.016-.2.024-.336.024Zm8.344 0a3.14 3.14 0 0 1-1.188-.228 4.192 4.192 0 0 1-.984-.576l.492-.66c.256.2.52.368.792.504.272.128.58.192.924.192.384 0 .672-.088.864-.264a.87.87 0 0 0 .288-.648c0-.2-.068-.368-.204-.504a1.463 1.463 0 0 0-.504-.336 7.3 7.3 0 0 0-.624-.264c-.272-.104-.54-.22-.804-.348a1.99 1.99 0 0 1-.648-.516c-.168-.216-.252-.488-.252-.816 0-.472.176-.864.528-1.176.36-.32.856-.48 1.488-.48.36 0 .696.064 1.008.192.312.128.58.284.804.468l-.48.624a3.135 3.135 0 0 0-.624-.372 1.724 1.724 0 0 0-.708-.144c-.368 0-.64.084-.816.252a.806.806 0 0 0-.252.588c0 .184.06.336.18.456.12.112.276.212.468.3l.612.252c.28.104.556.224.828.36.272.128.496.304.672.528.184.216.276.508.276.876 0 .312-.084.6-.252.864-.16.264-.4.476-.72.636-.312.16-.7.24-1.164.24Zm3.503 2.316v-8.292h.816l.084.672h.036c.264-.224.552-.416.864-.576a2.2 2.2 0 0 1 .996-.24c.752 0 1.324.272 1.716.816.392.536.588 1.256.588 2.16 0 .656-.12 1.22-.36 1.692-.232.472-.54.832-.924 1.08a2.2 2.2 0 0 1-1.236.372c-.272 0-.544-.06-.816-.18a4.184 4.184 0 0 1-.804-.492l.024 1.02v1.968h-.984Zm2.412-3.144c.48 0 .876-.204 1.188-.612.32-.416.48-.984.48-1.704 0-.64-.12-1.156-.36-1.548-.232-.4-.624-.6-1.176-.6-.248 0-.5.068-.756.204a4.502 4.502 0 0 0-.804.588v3.06c.264.224.52.384.768.48.248.088.468.132.66.132Zm4.244.684v-5.832h.984V24h-.984Zm.504-7.032a.703.703 0 0 1-.48-.168.649.649 0 0 1-.18-.48c0-.192.06-.348.18-.468a.675.675 0 0 1 .48-.18c.192 0 .348.06.468.18.128.12.192.276.192.468 0 .2-.064.36-.192.48a.658.658 0 0 1-.468.168Zm4.813 7.176c-.52 0-.992-.12-1.416-.36-.424-.248-.76-.6-1.008-1.056-.248-.456-.372-1-.372-1.632 0-.64.124-1.188.372-1.644.256-.456.584-.808.984-1.056s.82-.372 1.26-.372c.744 0 1.316.248 1.716.744.408.496.612 1.16.612 1.992 0 .104-.004.208-.012.312 0 .096-.008.18-.024.252h-3.936c.04.616.232 1.108.576 1.476.352.368.808.552 1.368.552.28 0 .536-.04.768-.12.24-.088.468-.2.684-.336l.348.648c-.248.16-.532.3-.852.42a2.96 2.96 0 0 1-1.068.18Zm-1.836-3.528h3.12c0-.592-.128-1.04-.384-1.344-.248-.312-.6-.468-1.056-.468-.408 0-.776.16-1.104.48-.32.312-.512.756-.576 1.332Zm6.469 3.528c-.368 0-.636-.112-.804-.336-.16-.232-.24-.56-.24-.984v-7.368h.984v7.44c0 .152.028.264.084.336a.25.25 0 0 0 .192.096h.084c.032-.008.076-.016.132-.024l.132.744a.849.849 0 0 1-.228.072c-.088.016-.2.024-.336.024Zm4.379 0c-.52 0-.992-.12-1.416-.36-.424-.248-.76-.6-1.008-1.056-.248-.456-.372-1-.372-1.632 0-.64.124-1.188.372-1.644.256-.456.584-.808.984-1.056s.82-.372 1.26-.372c.744 0 1.316.248 1.716.744.408.496.612 1.16.612 1.992 0 .104-.004.208-.012.312 0 .096-.008.18-.024.252h-3.936c.04.616.232 1.108.576 1.476.352.368.808.552 1.368.552.28 0 .536-.04.768-.12.24-.088.468-.2.684-.336l.348.648c-.248.16-.532.3-.852.42a2.96 2.96 0 0 1-1.068.18Zm-1.836-3.528h3.12c0-.592-.128-1.04-.384-1.344-.248-.312-.6-.468-1.056-.468-.408 0-.776.16-1.104.48-.32.312-.512.756-.576 1.332ZM152.062 24v-5.832h.816l.084.84h.036c.28-.28.576-.512.888-.696a1.996 1.996 0 0 1 1.068-.288c.616 0 1.064.196 1.344.588.288.384.432.948.432 1.692V24h-.984v-3.564c0-.544-.088-.94-.264-1.188-.176-.248-.456-.372-.84-.372-.296 0-.564.076-.804.228a5.216 5.216 0 0 0-.792.672V24h-.984Z"/>
  <path fill="#580DD9" fillRule="evenodd" d="M152.415 26.24c2.096-.46 3.662-1.35 5.215-2.312 5.091-3.155 6.304-6.775 1.927-9.27-6.804-3.864-21.061-4.523-31.346-1-2.278.777-5.392 1.675-7.406 3.738-1.874 1.918-1.443 3.69-.136 5.16 1.333 1.506 3.577 2.699 5.317 3.409 7.609 3.093 21.932 4.492 33.797.05.244-.089.51-.067.606.045.096.113-.004.272-.231.358-12.213 4.572-26.984 3.17-34.816-.014-2.166-.886-5.087-2.497-6.22-4.524-.769-1.387-.716-2.965.906-4.639 2.139-2.196 5.442-3.176 7.86-4.004 10.618-3.637 25.361-2.972 32.377 1.022 4.711 2.68 3.437 6.568-2.038 9.96-1.668 1.04-3.391 1.992-5.666 2.491-.251.055-.487-.005-.512-.138-.043-.129.133-.28.366-.331Z" clipRule="evenodd"/>
  <path fill="#DF00A6" d="M9.27 35.675a.272.272 0 0 0-.09-.107c-.036-.03-.054-.057-.054-.081a.296.296 0 0 0-.009-.073.112.112 0 0 0-.036-.08c-.03-.037-.027-.117.01-.244a3.14 3.14 0 0 1 .18-.477c.083-.191.182-.392.296-.602.048-.049.096-.111.144-.19a.961.961 0 0 1 .108-.152.09.09 0 0 1 .027-.063c.018-.025.04-.037.063-.037v-.053c0-.03.027-.081.081-.154.06-.072.132-.15.216-.233a3.43 3.43 0 0 1 .261-.252 1.34 1.34 0 0 1 .225-.18.919.919 0 0 1 .387-.154.442.442 0 0 1 .351.09l.09.09.144.145c.06.047.12.099.18.152l.333.297-.162.45c-.078.24-.099.45-.063.63.042.18.102.337.18.468a.48.48 0 0 0 .18.19c.096.06.186.096.27.108a.292.292 0 0 1 .135.054c.042.03.063.078.063.144 0 .06-.012.108-.036.144-.024.035-.066.06-.126.072a.788.788 0 0 1-.558-.145c-.168-.12-.324-.318-.468-.593a1.458 1.458 0 0 1-.162-.396l-.135.17a3.021 3.021 0 0 1-.153.172c-.426.432-.795.723-1.107.873-.306.143-.56.15-.765.017Zm.324-.503c0 .042.063.042.19 0 .131-.048.272-.133.422-.252a9.26 9.26 0 0 0 .612-.577c.21-.21.378-.405.504-.585l.198-.324c-.06-.137-.126-.23-.198-.278-.066-.054-.123-.081-.17-.081-.079 0-.196.072-.352.215a4.32 4.32 0 0 0-.486.577c-.174.24-.339.504-.495.791a5.68 5.68 0 0 0-.162.352l-.063.162Zm5.657.81c-.042.023-.1.014-.171-.027a.823.823 0 0 1-.198-.19.79.79 0 0 1-.09-.233 2.63 2.63 0 0 1-.018-.351c.006-.12 0-.198-.018-.234-.012-.037-.045-.03-.1.017a3.703 3.703 0 0 0-.278.261c-.15.15-.294.267-.432.352-.132.084-.24.123-.324.117-.042 0-.09-.022-.144-.064a1 1 0 0 1-.135-.17 1.813 1.813 0 0 1-.108-.217 1.353 1.353 0 0 1-.018-.504c.03-.21.078-.428.144-.656.066-.228.14-.444.225-.648.09-.205.18-.37.27-.495.096-.127.18-.19.252-.19.048 0 .09.025.126.072a.83.83 0 0 1 .126.225c.024.043.033.079.027.109 0 .03-.024.066-.072.108a2.22 2.22 0 0 0-.19.323c-.065.144-.131.3-.197.468-.06.169-.114.33-.162.486a3.352 3.352 0 0 0-.1.388c-.017.096-.014.143.01.143a.617.617 0 0 0 .297-.099 1.98 1.98 0 0 0 .342-.26c.126-.127.237-.264.333-.415.102-.15.204-.309.306-.477a9.66 9.66 0 0 0 .243-.395 2.34 2.34 0 0 0 .17-.306 2.6 2.6 0 0 1 .19-.316.287.287 0 0 1 .153-.117h.126a.27.27 0 0 1 .126.082c.048.023.075.047.08.072a.234.234 0 0 1 .01.072c-.024.06-.063.15-.117.27l-.108.252a95.27 95.27 0 0 1-.342.764 3.441 3.441 0 0 0-.234.757 1.552 1.552 0 0 0-.01.296.74.74 0 0 0 .055.234l.063.127c.03.041.063.078.099.108.054.036.063.075.027.117a.375.375 0 0 1-.234.143Zm3.835-.01a.744.744 0 0 1-.1-.008.161.161 0 0 1-.09-.045 1.013 1.013 0 0 1-.288-.09 1.307 1.307 0 0 1-.242-.145 5.655 5.655 0 0 1-.306-.252 3.583 3.583 0 0 1-.261-.252c-.066-.078-.1-.135-.1-.17 0-.03-.014-.045-.044-.045l-.027-.028a.12.12 0 0 1-.027-.072c0-.06-.03-.09-.09-.09l-.153.127a4.742 4.742 0 0 0-.333.306c-.168.168-.294.29-.378.369-.078.072-.141.108-.19.108a.323.323 0 0 1-.161-.055.837.837 0 0 1-.162-.126.254.254 0 0 1-.063-.152l.18-.207c.126-.139.273-.28.44-.424l.577-.566-.1-.343a11.904 11.904 0 0 0-.134-.296 6.051 6.051 0 0 1-.1-.27.97.97 0 0 1-.116-.19c0-.03.024-.08.072-.152a.403.403 0 0 1 .117-.09c.036-.019.09-.004.162.044.036 0 .084.052.144.154.06.096.114.203.162.324a.688.688 0 0 1 .08.242c0 .096.037.136.109.117.072-.017.18-.075.324-.17.072-.066.129-.12.17-.163l.064-.072a1.85 1.85 0 0 1 .162-.117c.09-.066.183-.132.279-.198.096-.066.159-.105.189-.117.048-.035.102-.035.162 0 .06.03.11.079.153.145.042.06.063.123.063.188a.254.254 0 0 1-.054.171.922.922 0 0 1-.234.163l-.288.206c-.078.06-.162.127-.252.198a9.51 9.51 0 0 0-.324.27l-.234.19.144.242.099.18a.439.439 0 0 0 .135.154c.036.047.105.113.207.197s.2.163.297.235a.894.894 0 0 0 .17.099.16.16 0 0 1 .082.026c.03.019.066.04.108.064a.314.314 0 0 1 .09.162.249.249 0 0 1 0 .162c-.012.042-.042.063-.09.063Zm.637-.413a.296.296 0 0 1-.09-.018l-.045-.027a.212.212 0 0 0-.027-.09.296.296 0 0 1-.018-.09c-.042-.025-.066-.049-.072-.073a.304.304 0 0 1 .027-.144c.036-.06.084-.155.144-.287l.189-.441c.066-.163.129-.322.189-.478.06-.156.11-.288.153-.395.042-.114.066-.183.072-.207 0-.024.009-.054.027-.09a.343.343 0 0 1 .063-.09c.048-.042.099-.045.153-.01.054.03.099.084.135.163a.473.473 0 0 1 .063.243c0 .041-.03.15-.09.324-.06.168-.141.369-.243.603-.096.233-.204.47-.324.71l-.171.334c-.024.041-.07.063-.135.063Zm1.323-3.411a.44.44 0 0 1-.234-.082 1.013 1.013 0 0 1-.207-.216.521.521 0 0 1-.081-.27c0-.03.018-.071.054-.125l.108-.162a.324.324 0 0 0 .054-.1.48.48 0 0 1 .108.01c.03 0 .066.012.108.035.066.15.147.274.243.37.102.095.153.177.153.242 0 .133-.012.216-.036.252-.024.03-.114.046-.27.046Zm.329 3.428a.53.53 0 0 1-.135-.108.233.233 0 0 1-.045-.153c0-.09.012-.182.036-.279l.072-.297c.012-.107.027-.215.045-.323a.964.964 0 0 1 .126-.316c.066-.227.135-.453.207-.675.072-.227.135-.461.189-.701l.207-.585a52.5 52.5 0 0 0 .243-.658 3.69 3.69 0 0 0 .135-.477c.042-.174.105-.33.189-.468a1.32 1.32 0 0 0 .08-.135 2 2 0 0 1 .073-.116c.006-.024.024-.04.054-.046a.265.265 0 0 1 .117.01.19.19 0 0 1 .099.063c.018-.007.039.011.063.053a.65.65 0 0 1 .08.127.21.21 0 0 1 .028.125.386.386 0 0 1-.018.1.28.28 0 0 1-.045.117.419.419 0 0 0-.072.108 2.452 2.452 0 0 1-.09.18 2.873 2.873 0 0 0-.063.242 1.14 1.14 0 0 1-.072.216 1.27 1.27 0 0 1-.09.208c-.03.066-.051.12-.063.162a3.299 3.299 0 0 1-.153.405 3.88 3.88 0 0 0-.144.423 22.49 22.49 0 0 0-.126.45 1.91 1.91 0 0 1-.18.431.69.69 0 0 0-.09.252l-.054.306c-.036.108-.07.21-.1.306a.94.94 0 0 0-.035.171 3.091 3.091 0 0 0-.081.396.938.938 0 0 1-.09.333.42.42 0 0 1-.036.145.112.112 0 0 1-.09.063.417.417 0 0 1-.171-.054Zm1.475.136a.452.452 0 0 1-.108-.18.66.66 0 0 1-.018-.216.494.494 0 0 1 .045-.18.25.25 0 0 1 .018-.108c.018-.03.024-.057.018-.081a.278.278 0 0 1 .018-.127 5.93 5.93 0 0 1 .054-.17 5.87 5.87 0 0 0 .135-.343c.048-.138.093-.273.135-.404a70.743 70.743 0 0 0 .162-.523c0-.072.048-.11.144-.117.072-.023.126-.023.162 0a.514.514 0 0 1 .144.172c.048.047.066.12.054.215a1.295 1.295 0 0 1-.117.36 2.898 2.898 0 0 0-.09.208c-.03.09-.05.17-.063.242a2.898 2.898 0 0 0-.207.585 3.932 3.932 0 0 1-.045.18.664.664 0 0 1-.072.163c-.054.245-.105.39-.153.431-.042.042-.114.006-.216-.108Zm.873-3.655a.415.415 0 0 1-.08-.126.666.666 0 0 1-.046-.162c-.006-.053 0-.08.018-.08.048-.006.105-.058.171-.154.066-.096.093-.18.081-.252a.09.09 0 0 1 .027-.063.113.113 0 0 1 .063-.044c.072-.048.141-.054.207-.018.072.03.138.092.198.188.054.114.07.21.045.288a1.13 1.13 0 0 1-.198.306c-.09.12-.174.186-.252.198-.072.013-.15-.014-.234-.08Zm1.472 3.681a.805.805 0 0 1-.19.019 1.75 1.75 0 0 1-.206-.027c-.054-.018-.081-.036-.081-.054 0-.03-.015-.046-.045-.046l-.045-.036a.395.395 0 0 0-.117-.072.49.49 0 0 1-.081-.27c0-.102.027-.26.08-.477.019-.15.076-.323.172-.521a5.266 5.266 0 0 1 .819-1.188 2.2 2.2 0 0 1 .44-.37.45.45 0 0 1 .307-.134.627.627 0 0 1 .342.08c.06.03.12.078.18.144a2.049 2.049 0 0 1 .306.45.69.69 0 0 1 .027.18.893.893 0 0 1 0 .18c0 .073-.01.18-.027.325-.03.108-.057.24-.081.395a3.601 3.601 0 0 0-.027.405c-.012.115 0 .196.036.244.042.047.102.05.18.008a.383.383 0 0 1 .207-.044c.066 0 .117.017.153.053.042.037.063.09.063.163 0 .072-.036.146-.108.224a.924.924 0 0 1-.252.19.622.622 0 0 1-.28.072c-.065 0-.128-.04-.188-.117a1.534 1.534 0 0 1-.162-.297c-.042-.12-.081-.234-.117-.343l-.054-.207-.387.37a4.302 4.302 0 0 1-.234.233.832.832 0 0 0-.135.144.497.497 0 0 1-.171.163 1.615 1.615 0 0 1-.324.162Zm.027-.53a2.49 2.49 0 0 0 .35-.261 4.743 4.743 0 0 0 .702-.783c.103-.138.18-.267.235-.387.054-.12.093-.235.117-.343a.815.815 0 0 0-.117-.206c-.054-.078-.102-.12-.144-.127-.132 0-.273.084-.423.252a6.57 6.57 0 0 0-.648.864l-.072.108a1.693 1.693 0 0 0-.108.207c-.048.109-.096.22-.144.334a.707.707 0 0 0-.072.215.83.83 0 0 0 .009.117c.012.042.042.07.09.081.048.012.123-.012.225-.072Zm3.27.584c-.03.06-.075.078-.135.054a.917.917 0 0 1-.135-.071.168.168 0 0 1-.108-.036.193.193 0 0 1-.063-.108.285.285 0 0 1-.009-.127c.006-.053.018-.113.036-.18.024-.072.048-.15.072-.233.048-.199.081-.343.1-.433.017-.09.035-.168.053-.233.018-.066.042-.162.072-.288a2.96 2.96 0 0 0 .117-.352 1.62 1.62 0 0 1 .135-.341c.042-.157.093-.303.153-.442.066-.144.13-.264.19-.36a.527.527 0 0 1 .062-.072c.036-.03.066-.044.09-.044.048-.049.09-.067.126-.055a.345.345 0 0 1 .153.082.302.302 0 0 1 .081.27c-.012.102-.084.252-.216.45-.072.185-.138.347-.198.485-.06.133-.102.258-.126.378a1.85 1.85 0 0 1 .216-.26l.207-.207c.132-.133.24-.228.324-.288.09-.06.195-.13.315-.208.072-.047.141-.09.207-.126a.687.687 0 0 1 .216-.09.681.681 0 0 1 .27 0 .158.158 0 0 1 .144.054.43.43 0 0 1 .1.171.996.996 0 0 1 .044.252.632.632 0 0 0-.369.019 1.097 1.097 0 0 0-.279.134 9.678 9.678 0 0 1-.17.127 9 9 0 0 0-.343.242 3.067 3.067 0 0 0-.414.351c-.108.12-.2.222-.279.306a3.672 3.672 0 0 0-.18.226.936.936 0 0 0-.099.206c-.06.139-.123.288-.189.45-.066.163-.123.262-.17.297Zm2.604 1.998a1.051 1.051 0 0 1-.477.019 1.132 1.132 0 0 1-.44-.153c-.133-.078-.208-.166-.226-.261-.006-.037.006-.076.036-.117a.205.205 0 0 1 .1-.09c.035-.013.068 0 .098.035.048.03.135.066.261.108a.764.764 0 0 0 .423.027.834.834 0 0 0 .405-.242c.138-.133.25-.255.333-.37a14.04 14.04 0 0 0 .594-.998c.126-.228.231-.438.315-.63.018-.049.04-.105.063-.172a.52.52 0 0 1 .09-.161 2.64 2.64 0 0 0 .09-.198.991.991 0 0 0 .054-.136.881.881 0 0 1 .081-.18c.048-.09.093-.18.135-.27l.135-.395c.06-.175.12-.316.18-.424.072-.138.13-.248.171-.333.048-.09.1-.143.153-.161.054-.043.09-.064.108-.064a.37.37 0 0 1 .135.054.478.478 0 0 1 .135.217.433.433 0 0 1-.027.252c-.03.096-.09.227-.18.395a3.023 3.023 0 0 1-.288.621c-.03.073-.066.154-.108.244l-.099.234c-.108.24-.2.434-.279.584-.078.15-.147.288-.207.414a6.93 6.93 0 0 0-.189.441c-.138.223-.273.433-.405.63a5.049 5.049 0 0 1-.405.568c-.06.053-.135.117-.225.189s-.183.138-.279.197a.942.942 0 0 1-.26.127Zm1.215-2.16a.468.468 0 0 1-.27-.162 1.212 1.212 0 0 1-.198-.306c-.048-.108-.066-.185-.054-.233v-.099c-.036 0-.069-.045-.099-.136a2.073 2.073 0 0 1-.054-.35 9.994 9.994 0 0 1-.027-.46c0-.162.006-.315.018-.459.024-.101.036-.212.036-.332 0-.127.003-.226.01-.298-.007-.096.002-.159.026-.189a.327.327 0 0 1 .072-.08c.168-.073.28-.028.333.134.06.157.075.45.045.883-.012.24-.012.48 0 .72s.045.45.1.63c.06.18.14.303.242.368.042.024.063.057.063.1a.303.303 0 0 1-.135.242.147.147 0 0 1-.108.027Zm5.14.081c-.06.043-.103.064-.127.064a.443.443 0 0 1-.135-.108c-.114-.108-.195-.313-.243-.613a10.058 10.058 0 0 1-.063-1.287c.024-.245.036-.456.036-.63l.01-.297c.017-.024.053-.036.107-.036.06 0 .111.012.153.036.06.03.1.075.117.135.024.06.04.169.045.325.006.15.01.38.01.693-.019.24-.028.45-.028.63 0 .174.01.273.027.297.024.041.051.053.081.035.036-.023.1-.08.19-.17a8.091 8.091 0 0 0 .35-.531c.066-.084.126-.165.18-.243.06-.079.102-.13.126-.154a.662.662 0 0 1 .09-.135.82.82 0 0 0 .09-.126c.066-.113.135-.206.207-.278.072-.078.12-.117.144-.117.024.017.045.023.063.017a.16.16 0 0 1 .072-.018c.042-.042.1-.042.171 0a.313.313 0 0 1 .063.063.086.086 0 0 1 .027.064c0 .03-.024.093-.072.189a1.811 1.811 0 0 1-.153.279.529.529 0 0 1-.126.152l-.027.027-.063.064a1.157 1.157 0 0 1-.117.225 7.963 7.963 0 0 1-.243.35c-.096.133-.195.264-.297.397l-.27.35a1.23 1.23 0 0 1-.207.226c-.078.06-.14.102-.189.126Zm2.69.072c-.233-.096-.386-.227-.458-.395-.066-.174-.078-.441-.036-.801a7.27 7.27 0 0 0 .018-.37c0-.06-.033-.12-.1-.18a.746.746 0 0 0-.098-.099c-.042-.041-.06-.078-.054-.108a.35.35 0 0 1 .009-.134c.012-.054.03-.081.054-.081a.16.16 0 0 0 .072-.019.095.095 0 0 1 .08 0c.025 0 .052.004.082.01.03.005.045.02.045.044.024.043.063.049.117.019.054-.036.11-.114.17-.234.06-.096.139-.193.235-.288.102-.096.2-.183.297-.261a1.59 1.59 0 0 1 .252-.18 1.734 1.734 0 0 1 .324-.09.642.642 0 0 1 .18-.01.484.484 0 0 1 .27.09c.078.055.15.117.216.19a.334.334 0 0 1 .144.215.838.838 0 0 1-.063.567.576.576 0 0 1-.153.216c-.084.084-.18.166-.288.243a1.424 1.424 0 0 1-.297.171 3.443 3.443 0 0 1-.648.063.609.609 0 0 1-.207-.036c-.042-.024-.075.01-.1.1-.023.09-.041.219-.053.387a1.116 1.116 0 0 0 0 .288.53.53 0 0 0 .036.125c.042.042.099.096.17.163.079.06.187.069.325.026a.683.683 0 0 0 .333-.233 2.83 2.83 0 0 1 .315-.306.144.144 0 0 1 .117-.072.407.407 0 0 1 .189.009c.066.041.093.093.08.153a.92.92 0 0 1-.09.252.592.592 0 0 1-.125.162c-.06.06-.13.123-.207.189a1.178 1.178 0 0 1-.702.297c-.156 0-.306-.028-.45-.082Zm.532-1.827c.132-.03.237-.05.315-.063a.5.5 0 0 0 .225-.099c.072-.06.162-.17.27-.332a.374.374 0 0 0 .018-.199c-.006-.066-.021-.11-.045-.134a.177.177 0 0 0-.198-.054.597.597 0 0 0-.207.098.883.883 0 0 0-.19.136 2.151 2.151 0 0 0-.233.233 1.903 1.903 0 0 0-.19.234c-.047.072-.06.114-.035.127-.012.023.02.038.099.044.084.006.14.01.17.01Zm2.216 1.836c-.03.06-.075.078-.135.054a.917.917 0 0 1-.135-.071.168.168 0 0 1-.108-.036.193.193 0 0 1-.063-.108.285.285 0 0 1-.01-.127 1.41 1.41 0 0 1 .037-.18c.024-.072.048-.15.072-.233.048-.199.08-.343.099-.433a3.36 3.36 0 0 1 .054-.233c.018-.066.042-.162.072-.288a2.96 2.96 0 0 0 .117-.352 1.62 1.62 0 0 1 .135-.341c.042-.157.093-.303.153-.442.066-.144.129-.264.189-.36a.527.527 0 0 1 .063-.072c.036-.03.066-.044.09-.044.048-.049.09-.067.126-.055a.345.345 0 0 1 .153.082.302.302 0 0 1 .08.27c-.011.102-.083.252-.215.45-.072.185-.138.347-.198.485-.06.133-.102.258-.126.378a1.85 1.85 0 0 1 .216-.26l.207-.207c.132-.133.24-.228.324-.288.09-.06.195-.13.315-.208.072-.047.14-.09.207-.126a.687.687 0 0 1 .216-.09.681.681 0 0 1 .27 0 .158.158 0 0 1 .144.054.43.43 0 0 1 .099.171.996.996 0 0 1 .045.252.632.632 0 0 0-.37.019 1.097 1.097 0 0 0-.278.134 9.678 9.678 0 0 1-.171.127 9 9 0 0 0-.342.242 3.067 3.067 0 0 0-.414.351c-.108.12-.201.222-.28.306a3.672 3.672 0 0 0-.18.226.936.936 0 0 0-.098.206c-.06.139-.123.288-.19.45-.065.163-.122.262-.17.297Zm3.792.054a.69.69 0 0 1-.225-.044.42.42 0 0 1-.09-.145.504.504 0 0 1-.09-.125.184.184 0 0 1 0-.081h.08c.025-.007.04-.019.046-.037 0-.017.009-.03.027-.035a.146.146 0 0 1 .072 0c.114.006.258-.03.432-.108a3.81 3.81 0 0 0 .576-.343c.21-.15.414-.314.612-.494.156-.204.27-.363.342-.477a.905.905 0 0 0 .126-.288.304.304 0 0 0-.027-.198c-.024-.048-.111-.066-.261-.054-.15.005-.318.069-.504.188a4.815 4.815 0 0 0-.621.45c-.156.139-.3.294-.432.468-.048.06-.096.133-.144.216l-.108.217-.045.09c0 .023-.036.053-.108.09a.371.371 0 0 1-.171.053.811.811 0 0 1-.1-.063.269.269 0 0 1-.071-.134.766.766 0 0 1-.09-.072.134.134 0 0 1-.036-.064.42.42 0 0 1 .027-.17c.024-.078.057-.202.099-.37.036-.156.075-.318.117-.486.048-.167.093-.311.135-.431.042-.12.072-.187.09-.199l.036-.08a.462.462 0 0 0 .036-.19.782.782 0 0 1 .054-.188.291.291 0 0 0 .045-.117c.024-.019.06-.09.108-.217.048-.126.108-.29.18-.495 0-.018.02-.075.063-.17a29.982 29.982 0 0 0 .333-.774c.066-.15.12-.283.162-.396.072-.102.126-.195.162-.28.042-.09.084-.143.126-.162a.232.232 0 0 1 .108.01.36.36 0 0 1 .135.045.306.306 0 0 1 .153.189c.006.023-.003.069-.027.134a46.206 46.206 0 0 1-.441.945 14.997 14.997 0 0 0-.684 1.71 13.27 13.27 0 0 1-.198.558l-.045.198.225-.215c.09-.066.189-.148.297-.243.108-.097.204-.18.288-.253.048-.036.11-.072.189-.108.084-.041.165-.078.243-.108.078-.03.135-.047.17-.053a1.617 1.617 0 0 1 .396-.045c.133 0 .238.03.316.09.084.06.165.156.243.288.066.125.093.27.08.431a.983.983 0 0 1-.143.441.492.492 0 0 0-.09.1c-.03.036-.045.066-.045.09-.006.041-.06.129-.162.26a9.574 9.574 0 0 1-.306.36 2.91 2.91 0 0 1-.396.343 6.74 6.74 0 0 1-.468.296c-.15.084-.28.145-.387.18a3.105 3.105 0 0 0-.207.036c-.09.012-.16.024-.207.036Zm-27.253 7.748c-.09 0-.175-.053-.253-.162a1.3 1.3 0 0 1-.162-.431 2.454 2.454 0 0 1-.027-.558c0-.192.01-.346.027-.46l.072-.35a.212.212 0 0 0 .027-.09.989.989 0 0 0 .019-.117c.011-.055.032-.145.063-.27.024-.102.047-.187.072-.252a.386.386 0 0 1 .072-.136.175.175 0 0 1 .116-.063.237.237 0 0 1 .261.108c.037.03.055.1.055.207.006.102 0 .21-.018.324a.552.552 0 0 1-.081.234 1.41 1.41 0 0 0-.046.234c-.012.127-.026.259-.044.397a2.82 2.82 0 0 1-.046.332.402.402 0 0 0 .027.262c.043.066.117.069.226.009.113-.066.264-.234.45-.505.125-.18.221-.327.288-.44.066-.114.116-.22.152-.316.043-.102.084-.21.127-.324.03-.095.056-.173.08-.233a.345.345 0 0 1 .081-.127.201.201 0 0 1 .144-.035c.06.005.127.032.198.08a.356.356 0 0 1 .108.261.85.85 0 0 1-.108.36 2.644 2.644 0 0 0-.143.37 5.68 5.68 0 0 0-.108.459 2.43 2.43 0 0 0-.037.368c0 .12.015.193.046.217a.278.278 0 0 0 .126.026.583.583 0 0 0 .26-.08c.102-.054.216-.148.342-.28.055-.053.12-.132.198-.233a7.226 7.226 0 0 0 .415-.649.523.523 0 0 0 .08-.17c0-.036.028-.087.082-.154l.08-.107a.378.378 0 0 1 .127-.09c.047-.025.09-.028.125-.01a.291.291 0 0 1 .117.09c.03.025.046.06.046.108.006.048.009.108.009.18a2.779 2.779 0 0 1-.09.261 2.594 2.594 0 0 1-.127.297.936.936 0 0 1-.108.19 4.615 4.615 0 0 0-.126.135c-.06.06-.113.126-.162.197a3.29 3.29 0 0 1-.323.352 2.324 2.324 0 0 0-.172.153 1.446 1.446 0 0 1-.395.288.993.993 0 0 1-.396.09.513.513 0 0 1-.306-.09c-.186-.096-.28-.258-.28-.486a.278.278 0 0 0-.027-.127l-.017-.063a.386.386 0 0 0-.1.019c-.035.012-.075.053-.116.126a1.187 1.187 0 0 1-.261.314 2.31 2.31 0 0 1-.352.261.652.652 0 0 1-.288.1Zm5.54.09a.792.792 0 0 1-.441.19.94.94 0 0 1-.477-.073.962.962 0 0 1-.387-.324 1.017 1.017 0 0 1-.198-.45 2.72 2.72 0 0 1-.01-.675c.019-.233.094-.467.226-.701.132-.24.29-.454.477-.64.192-.186.38-.315.567-.387.09-.06.165-.087.225-.08.066 0 .165.006.297.018a.92.92 0 0 1 .306.08.449.449 0 0 1 .17.144.708.708 0 0 1 .226.523c-.024.132-.114.294-.27.486-.15.185-.348.338-.594.459-.132.041-.276.06-.432.053a.704.704 0 0 1-.387-.117c-.114-.047-.19-.038-.225.028-.036.06-.07.21-.1.45-.023.227-.005.395.055.504.06.102.14.162.243.18l.279.054a.462.462 0 0 0 .26-.081 1 1 0 0 1 .18-.1.21.21 0 0 0 .055-.035l.117-.117c.042-.042.075-.072.099-.09a.112.112 0 0 1 .08-.036c.03 0 .058.014.082.044a.282.282 0 0 0 .072.054c.06 0 .072.036.036.108a.951.951 0 0 1-.19.261 1.99 1.99 0 0 1-.341.27Zm-.01-1.907c.067-.03.136-.072.208-.127.072-.06.132-.122.18-.188.054-.073.08-.133.08-.18a.242.242 0 0 0-.116-.207c-.078-.06-.195-.07-.351-.028a.617.617 0 0 0-.225.136 2.118 2.118 0 0 0-.423.45c-.042.066-.057.104-.045.116.018.03.069.054.153.072a1.4 1.4 0 0 0 .279.01.738.738 0 0 0 .26-.055Zm1.902 1.944c-.018.006-.048.003-.09-.01a1.057 1.057 0 0 1-.126-.044.292.292 0 0 1-.081-.046.419.419 0 0 1-.072-.108.395.395 0 0 1 0-.206c.018-.096.078-.22.18-.37.03-.06.066-.15.108-.27.042-.12.084-.245.126-.378.048-.138.09-.26.126-.369a8.37 8.37 0 0 1 .09-.224c.012-.102.006-.174-.018-.216-.018-.048-.07-.075-.153-.081a.468.468 0 0 1-.144-.019c-.03-.012-.045-.072-.045-.18.012-.084.033-.14.063-.17.036-.037.084-.075.144-.117a.677.677 0 0 1 .369-.072c.06.005.108.026.144.063.042.023.069.077.08.161.013.079.019.16.019.244.006.084.012.147.018.189l.243-.198c.108-.09.2-.174.279-.252a2.88 2.88 0 0 1 .342-.199c.132-.071.228-.107.288-.107a.41.41 0 0 1 .198.053c.066.03.11.07.135.117.06.102.087.193.08.27a.398.398 0 0 1-.098.243.464.464 0 0 1-.225.163.673.673 0 0 1-.162.044c-.036 0-.081-.026-.135-.08-.054-.054-.084-.1-.09-.136 0-.017-.04 0-.117.055a2.488 2.488 0 0 0-.243.189c-.09.072-.165.138-.225.198a3.21 3.21 0 0 0-.324.513c-.114.215-.25.476-.405.782-.072.15-.123.28-.153.388-.03.102-.072.162-.126.18Zm4.7.252a.304.304 0 0 1-.143.026 1.918 1.918 0 0 1-.19-.135.685.685 0 0 1-.08-.188 3.689 3.689 0 0 1-.01-.316c.013-.09.037-.218.073-.386.042-.168.09-.345.144-.531.054-.186.102-.354.144-.505.048-.15.084-.252.108-.306.042-.143.05-.23.027-.26-.024-.036-.096-.06-.216-.072-.24-.03-.456.047-.648.233a4.063 4.063 0 0 0-.576.73c-.144.221-.231.413-.261.576-.024.156-.027.264-.01.324.019.048.06.075.127.08a.606.606 0 0 0 .216-.044c.084-.03.156-.06.216-.09.042-.025.093-.049.153-.073a4.47 4.47 0 0 1 .189-.08c.036 0 .06.011.072.035.018.019.027.057.027.117 0 .025.009.046.027.064a.24.24 0 0 0 .063.045c.024.023-.012.078-.108.162-.09.084-.231.18-.423.288-.18.041-.327.063-.441.063a.513.513 0 0 1-.315-.117c-.168-.102-.264-.267-.288-.495-.018-.235.03-.52.144-.855.114-.27.24-.49.378-.657.138-.175.285-.343.44-.505a1.582 1.582 0 0 1 .495-.252c.15-.048.292-.078.424-.09a.504.504 0 0 1 .342.081c.108.024.177.021.207-.009a1.65 1.65 0 0 0 .153-.324c.12-.3.237-.602.35-.908.115-.313.238-.627.37-.945a1.09 1.09 0 0 0 .108-.262.313.313 0 0 1 .063-.135h.17c.025 0 .067.022.127.064a.33.33 0 0 1 .126.17c0 .054-.024.175-.072.36-.048.18-.126.397-.234.648a76.24 76.24 0 0 0-.288.675c-.09.223-.177.46-.261.712a4.962 4.962 0 0 1-.18.45c-.054.114-.09.212-.108.297a2.503 2.503 0 0 1-.135.422 14.6 14.6 0 0 0-.1.252l-.188.558a4.209 4.209 0 0 0-.108.352c-.024.09-.04.183-.045.279 0 .09.009.197.027.323a.296.296 0 0 1-.01.072c-.005.025-.03.052-.071.081Zm2.391.053a.811.811 0 0 1-.648-.297 1.113 1.113 0 0 1-.243-.755c.012-.216.054-.447.126-.693.078-.252.18-.492.306-.72.126-.234.264-.438.414-.612a1.363 1.363 0 0 1 .657-.441.888.888 0 0 1 .216-.028c.066 0 .135.013.207.037a.889.889 0 0 1 .18.063c.102.041.18.093.234.153.054.06.102.153.144.279a1.8 1.8 0 0 1 .027.242c0 .049-.015.12-.045.217a2.023 2.023 0 0 1-.279.558 1.418 1.418 0 0 1-.459.395.638.638 0 0 1-.171.072 1.008 1.008 0 0 1-.54-.045.638.638 0 0 1-.261-.206l-.063-.072-.027.072a4.78 4.78 0 0 0-.144.45 1.79 1.79 0 0 0-.045.377c0 .072.006.142.018.207a.638.638 0 0 0 .072.171.217.217 0 0 0 .117.081.89.89 0 0 0 .189.019h.126a.498.498 0 0 0 .135-.036 1.02 1.02 0 0 0 .243-.117c.066-.042.132-.087.198-.136l.036-.018h-.009a1.61 1.61 0 0 0 .189-.108l.09-.053c.024 0 .048-.016.072-.046.048-.023.108-.014.18.027.078.042.117.096.117.162a.457.457 0 0 1-.081.145c-.048.06-.102.117-.162.17-.054.054-.099.084-.135.09a.351.351 0 0 1-.063.036.195.195 0 0 0-.072.037h.009c-.054.072-.108.107-.162.107h-.072c-.024.042-.102.09-.234.145a1.128 1.128 0 0 1-.387.072Zm.405-1.98c.108 0 .201-.03.279-.09.084-.066.156-.138.216-.216a.998.998 0 0 0 .207-.468c.024-.155.006-.264-.054-.323a.224.224 0 0 0-.099-.027.372.372 0 0 0-.153.027.637.637 0 0 0-.225.135 2.678 2.678 0 0 0-.495.504l-.117.188a.386.386 0 0 1 .135-.027c.048-.006.075-.003.081.01 0 .053.009.105.027.152a.342.342 0 0 0 .081.1.207.207 0 0 0 .117.035Zm4.844 1.54a.558.558 0 0 1-.297-.072.613.613 0 0 1-.198-.262 2.775 2.775 0 0 1-.063-.279 2.706 2.706 0 0 1-.018-.297c0-.096.009-.159.027-.189.024-.023.033-.066.027-.126v-.206c-.006-.12-.036-.187-.09-.199-.048-.018-.12 0-.216.054-.108.067-.25.157-.423.27-.174.108-.357.228-.55.36-.185.133-.362.27-.53.414-.132.145-.213.255-.243.334-.024.072-.06.108-.108.108-.048.023-.09.026-.126.008l-.135-.107a2.776 2.776 0 0 0-.126-.136.608.608 0 0 1-.081-.108c0-.03.009-.093.027-.188.018-.097.039-.193.063-.289.03-.096.05-.159.063-.189.03 0 .054-.03.072-.09.024-.06.06-.125.108-.197.012-.073.042-.169.09-.289l.144-.333c.084-.144.14-.264.17-.36a1.36 1.36 0 0 0 .073-.36.063.063 0 0 1 .018-.063c.018-.023.039-.035.063-.035a.151.151 0 0 1 .17-.036.342.342 0 0 1 .18.135c.109.143.15.294.127.45-.018.15-.114.366-.288.648l-.1.224a.352.352 0 0 0-.026.117l.09-.063c.066-.041.138-.09.216-.143.084-.06.15-.105.198-.136.03-.03.099-.084.207-.162a5.18 5.18 0 0 1 .342-.224c.126-.078.219-.123.279-.136.048-.023.099-.044.153-.063a.34.34 0 0 1 .117-.035c.048 0 .108.026.18.08.078.049.15.109.216.18a.412.412 0 0 1 .117.172v.072l.018.071c.024.078.036.183.036.316.006.132.003.252-.01.36-.011.107-.032.17-.062.188v.028c.006.012.02.018.045.018v.044c-.03 0-.042.027-.036.081a.512.512 0 0 0 .054.163c.036.06.072.108.108.143.072.072.102.142.09.207-.012.06-.066.102-.162.127Z"/>
  <path fill="#580DD9" d="M126.999 37.712a.452.452 0 0 1-.108-.18.66.66 0 0 1-.018-.216.494.494 0 0 1 .045-.18.25.25 0 0 1 .018-.108c.018-.03.024-.057.018-.081a.278.278 0 0 1 .018-.127 5.93 5.93 0 0 1 .054-.17 5.87 5.87 0 0 0 .135-.343c.048-.138.093-.273.135-.404a70.743 70.743 0 0 0 .162-.523c0-.072.048-.11.144-.117.072-.023.126-.023.162 0a.514.514 0 0 1 .144.172c.048.047.066.12.054.215a1.295 1.295 0 0 1-.117.36 2.898 2.898 0 0 0-.09.208c-.03.09-.051.17-.063.242a2.898 2.898 0 0 0-.207.585 3.932 3.932 0 0 1-.045.18.664.664 0 0 1-.072.163c-.054.245-.105.39-.153.431-.042.042-.114.006-.216-.108Zm.873-3.655a.415.415 0 0 1-.081-.126.666.666 0 0 1-.045-.161c-.006-.055 0-.082.018-.082.048-.006.105-.056.171-.153.066-.095.093-.18.081-.252a.09.09 0 0 1 .027-.063.113.113 0 0 1 .063-.044c.072-.049.141-.055.207-.019.072.03.138.094.198.19.054.114.069.21.045.288a1.13 1.13 0 0 1-.198.306c-.09.12-.174.185-.252.197-.072.013-.15-.014-.234-.08Zm3.893 3.529a.558.558 0 0 1-.297-.072.613.613 0 0 1-.198-.262 2.775 2.775 0 0 1-.063-.279 2.706 2.706 0 0 1-.018-.297c0-.096.009-.159.027-.189.024-.023.033-.066.027-.126v-.206c-.006-.12-.036-.187-.09-.199-.048-.018-.12 0-.216.054-.108.067-.249.157-.423.27-.174.108-.357.228-.549.36-.186.133-.363.27-.531.414-.132.145-.213.255-.243.334-.024.072-.06.108-.108.108-.048.023-.09.026-.126.008l-.135-.107a2.776 2.776 0 0 0-.126-.136.608.608 0 0 1-.081-.108c0-.03.009-.093.027-.188.018-.097.039-.193.063-.289.03-.096.051-.159.063-.189.03 0 .054-.03.072-.09.024-.06.06-.125.108-.197.012-.073.042-.169.09-.289l.144-.333c.084-.144.141-.264.171-.36a1.36 1.36 0 0 0 .072-.36.063.063 0 0 1 .018-.063c.018-.023.039-.035.063-.035a.151.151 0 0 1 .171-.036.342.342 0 0 1 .18.135c.108.143.15.294.126.45-.018.15-.114.366-.288.648l-.099.224a.352.352 0 0 0-.027.117l.09-.063c.066-.041.138-.09.216-.143.084-.06.15-.105.198-.136.03-.03.099-.084.207-.162a5.18 5.18 0 0 1 .342-.224c.126-.078.219-.123.279-.136.048-.023.099-.044.153-.063a.34.34 0 0 1 .117-.035c.048 0 .108.026.18.08.078.049.15.109.216.18a.412.412 0 0 1 .117.172v.072l.018.071c.024.078.036.183.036.316.006.132.003.252-.009.36-.012.107-.033.17-.063.188v.028c.006.012.021.018.045.018v.044c-.03 0-.042.027-.036.081a.512.512 0 0 0 .054.163c.036.06.072.108.108.143.072.072.102.142.09.207-.012.06-.066.102-.162.127Zm1.072 1.367c-.036.024-.078.018-.126-.018a2.174 2.174 0 0 1-.189-.198.346.346 0 0 1-.081-.153 1.091 1.091 0 0 1 .009-.306.553.553 0 0 0 .036-.188 1.5 1.5 0 0 0 .009-.127c0-.035.009-.12.027-.252.024-.131.048-.27.072-.413a5.51 5.51 0 0 1 .09-.45l.045-.216c.024-.09.045-.201.063-.334.048-.15.087-.297.117-.44.036-.15.054-.252.054-.306 0-.108.042-.187.126-.234a.612.612 0 0 1 .054-.136c.03-.066.057-.12.081-.162.12-.342.219-.612.297-.81.078-.203.159-.38.243-.53.036-.102.075-.208.117-.316a1.17 1.17 0 0 1 .144-.252c.03-.078.099-.177.207-.297.108-.125.222-.245.342-.36.12-.12.216-.21.288-.27.132-.066.237-.11.315-.135a1.11 1.11 0 0 1 .306-.035c.114 0 .189.014.225.044.042.025.102.073.18.145.084.09.132.15.144.18.012.03.018.087.018.17-.012.06-.036.136-.072.225-.03.084-.066.171-.108.261a1.72 1.72 0 0 1-.126.217c-.036.06-.066.09-.09.09-.072.023-.126.017-.162-.019-.03-.042-.045-.108-.045-.198a.207.207 0 0 0-.036-.117l-.027-.063a.73.73 0 0 1 .009-.09.53.53 0 0 1 .054-.135c.03-.06.036-.105.018-.135-.012-.03-.051-.036-.117-.018a5.623 5.623 0 0 0-.621.522c-.066.066-.099.108-.099.127l-.036.08a1.05 1.05 0 0 1-.135.19c-.042.06-.081.12-.117.18a.35.35 0 0 0-.045.099.417.417 0 0 1-.009.08c0 .024-.015.036-.045.036l-.027.081a1.224 1.224 0 0 1-.099.208c-.024.06-.054.123-.09.189a.696.696 0 0 1-.09.126h.009l-.045.116-.081.234a.763.763 0 0 0-.045.135c0 .024.042.036.126.036.09 0 .195-.009.315-.027.12-.023.228-.047.324-.072a.775.775 0 0 1 .171-.035c.03 0 .09.011.18.035.072.043.114.114.126.217.012.096.006.159-.018.189-.006.024-.06.056-.162.099a1.56 1.56 0 0 1-.333.099c-.108.023-.24.05-.396.08l-.414.082c-.114.024-.171.044-.171.063-.024 0-.045.014-.063.044-.018.025-.027.046-.027.064a.559.559 0 0 1-.009.108.321.321 0 0 1-.027.08 5.502 5.502 0 0 0-.063.217l-.099.36-.081.36c-.018.108-.027.18-.027.216a.281.281 0 0 0-.063.162c-.006.06-.009.114-.009.162a.566.566 0 0 0-.054.225v.035a.17.17 0 0 1-.009.054 9.95 9.95 0 0 1-.027.234 5.06 5.06 0 0 0-.009.297l-.027.261a1.44 1.44 0 0 1-.027.199.258.258 0 0 1-.063.134Zm2.691-1.233c-.09-.011-.168-.075-.234-.188a1.025 1.025 0 0 1-.108-.324c.006-.048.012-.117.018-.207l.036-.28c.024-.113.057-.252.099-.413l.126-.505.126-.431c.036-.12.06-.193.072-.216.03-.048.078-.06.144-.036.066.024.12.06.162.108a.328.328 0 0 1 .063.17.756.756 0 0 1-.027.288 6.529 6.529 0 0 1-.144.559 8.41 8.41 0 0 1-.135.486l-.036.188-.018.18a.994.994 0 0 0 0 .19c-.024.203-.042.33-.054.377-.012.043-.042.06-.09.055Zm.351-3.654a1 1 0 0 1 .009-.224.672.672 0 0 1 .099-.252.25.25 0 0 1 .207-.127.2.2 0 0 1 .063.01c.018.005.072.026.162.063.048.09.096.191.144.306a.695.695 0 0 1 .063.324c-.006.102-.069.195-.189.279a.12.12 0 0 1-.072.026.594.594 0 0 1-.099-.053.402.402 0 0 1-.162-.081 2.062 2.062 0 0 1-.162-.163.373.373 0 0 1-.063-.108Zm3.672 3.825c-.06 0-.123-.032-.189-.099a1.07 1.07 0 0 1-.162-.242.758.758 0 0 1-.063-.288c0-.09.021-.258.063-.505.048-.245.105-.494.171-.746.048-.157.063-.247.045-.27-.018-.024-.099.008-.243.099a1.594 1.594 0 0 0-.225.134.806.806 0 0 0-.171.145c-.03.023-.075.063-.135.117-.06.053-.123.105-.189.153a4.89 4.89 0 0 0-.297.252l-.36.324a9.724 9.724 0 0 0-.261.252.198.198 0 0 1-.135.099.43.43 0 0 1-.288-.135.3.3 0 0 1-.081-.207c0-.06.024-.162.072-.306.048-.15.111-.33.189-.54.084-.21.18-.432.288-.666a.45.45 0 0 0 .045-.109 1.13 1.13 0 0 0 .027-.153.706.706 0 0 0 .018-.153c0-.03.003-.06.009-.09.012-.035.024-.069.036-.099a.303.303 0 0 1 .045-.072c.024-.047.066-.06.126-.035.06.018.111.06.153.126a.41.41 0 0 1 .135.314 1.27 1.27 0 0 1-.09.468 1.233 1.233 0 0 0-.063.127 1.801 1.801 0 0 1-.063.161l-.009.018a.47.47 0 0 0 .162-.08 7.57 7.57 0 0 1 .297-.18 6.68 6.68 0 0 0 .234-.18 1.93 1.93 0 0 1 .18-.136c.048-.036.078-.053.09-.053a.212.212 0 0 0 .09-.027.343.343 0 0 0 .09-.063c.024-.025.042-.037.054-.037l.027-.009h.036a.16.16 0 0 0 .072-.044c.048-.036.111-.045.189-.027a.49.49 0 0 1 .216.09c.066.047.099.102.099.161a.11.11 0 0 0 .018.063l.027.019c.048 0 .078.074.09.224a.953.953 0 0 1-.045.432c0 .09-.018.198-.054.325-.03.126-.057.245-.081.36-.048.15-.081.282-.099.396a.956.956 0 0 0-.009.288.5.5 0 0 0 .063.188c.024.043.024.09 0 .145-.024.047-.072.072-.144.072Zm1.712-.17c-.09-.012-.168-.075-.234-.19a1.025 1.025 0 0 1-.108-.323c.006-.048.012-.117.018-.207l.036-.28c.024-.113.057-.252.099-.413l.126-.505.126-.431c.036-.12.06-.193.072-.216.03-.048.078-.06.144-.036.066.024.12.06.162.108a.328.328 0 0 1 .063.17.756.756 0 0 1-.027.288 6.529 6.529 0 0 1-.144.559c-.066.24-.117.434-.153.585a1.9 1.9 0 0 0-.036.459c-.024.203-.042.33-.054.377-.012.043-.042.06-.09.055Zm1.035-3.591a.12.12 0 0 1-.072.026.594.594 0 0 1-.099-.053.402.402 0 0 1-.162-.081 2.062 2.062 0 0 1-.162-.163.373.373 0 0 1-.063-.108 1 1 0 0 1 .009-.224.672.672 0 0 1 .099-.252.25.25 0 0 1 .207-.127.2.2 0 0 1 .063.01c.018.005.072.026.162.063.048.09.096.192.144.306a.695.695 0 0 1 .063.323c-.006.102-.069.195-.189.28Zm1.004 4.32c-.198-.03-.333-.106-.405-.226-.066-.113-.081-.29-.045-.53.036-.114.057-.217.063-.306.012-.096.039-.157.081-.18l.009-.027c.012-.018.009-.036-.009-.054 0-.079.027-.187.081-.325l.045-.126.036-.08c-.03-.048-.03-.087 0-.117.03-.03.06-.057.09-.081.036-.03.039-.064.009-.1-.012-.023.003-.078.045-.162.042-.09.09-.183.144-.279a1.42 1.42 0 0 0 .108-.224c0-.013.015-.055.045-.127a15.817 15.817 0 0 1 .225-.513l.081-.153c.06-.03.036-.05-.072-.063a2.133 2.133 0 0 0-.342-.008 6.485 6.485 0 0 1-.45-.027.682.682 0 0 1-.27-.081c-.072-.084-.099-.145-.081-.18.024-.043.096-.067.216-.073.078-.005.138-.008.18-.008.048 0 .108-.003.18-.01a9.53 9.53 0 0 1 .36-.044l.459-.036.027-.154a2.75 2.75 0 0 0 .207-.404c.024-.067.042-.136.054-.208l.081-.143a.876.876 0 0 0 .099-.316c.072-.12.135-.227.189-.324l.099-.189c.066-.053.111-.08.135-.08.03 0 .09.03.18.09.054.03.102.066.144.108a.291.291 0 0 1 .081.135c.012.041-.006.083-.054.125-.012.024-.03.07-.054.136-.024.06-.042.11-.054.153a1.375 1.375 0 0 0-.135.207.97.97 0 0 0-.099.279c-.048.102-.093.194-.135.279-.042.078-.075.117-.099.117.012.06.048.09.108.09.06-.006.159-.012.297-.018.114-.012.192-.024.234-.036.048-.018.102-.012.162.018a.54.54 0 0 1 .072.144.27.27 0 0 1 .009.152.11.11 0 0 1-.072.09.724.724 0 0 0-.189.054c-.09.03-.204.048-.342.054l-.477.046-.153.305c-.042.078-.078.15-.108.216a.55.55 0 0 1-.063.108c0 .036-.021.09-.063.163l-.117.233a1.705 1.705 0 0 1-.126.28l-.063.125c-.024 0-.036.018-.036.054.03.073.021.127-.027.163a.26.26 0 0 0-.081.08l-.027.045c.024.024.027.054.009.09a.66.66 0 0 1-.054.117.717.717 0 0 1-.045.207c-.024.09-.051.174-.081.252.006.108.012.178.018.208.006.03.021.042.045.036.03.006.057.006.081 0a.296.296 0 0 1 .072-.01c.084-.035.039.175-.135.63-.096.15-.162.258-.198.325-.036.072-.069.108-.099.108Zm2.34-.892a.296.296 0 0 1-.09-.017l-.045-.027a.212.212 0 0 0-.027-.09.296.296 0 0 1-.018-.09c-.042-.025-.066-.049-.072-.073a.304.304 0 0 1 .027-.144c.036-.06.084-.155.144-.287l.189-.441c.066-.163.129-.322.189-.478l.153-.395c.042-.114.066-.183.072-.207 0-.024.009-.054.027-.09a.343.343 0 0 1 .063-.09c.048-.042.099-.045.153-.01.054.03.099.084.135.163a.473.473 0 0 1 .063.243c0 .041-.03.15-.09.324-.06.168-.141.369-.243.603-.096.233-.204.47-.324.71l-.171.334c-.024.041-.069.063-.135.063Zm1.323-3.41a.44.44 0 0 1-.234-.082 1.013 1.013 0 0 1-.207-.216.521.521 0 0 1-.081-.27c0-.03.018-.072.054-.125l.108-.163a.324.324 0 0 0 .054-.099.48.48 0 0 1 .108.01c.03 0 .066.011.108.035.066.15.147.273.243.37.102.096.153.177.153.242 0 .133-.012.216-.036.252-.024.03-.114.046-.27.046Zm.932 3.302c-.042-.036-.096-.144-.162-.324-.06-.18-.12-.39-.18-.63a16.74 16.74 0 0 1-.135-.675 2.214 2.214 0 0 0-.081-.305 5.154 5.154 0 0 0-.063-.207.642.642 0 0 1-.027-.27.24.24 0 0 1 .126-.172.287.287 0 0 1 .108-.035.241.241 0 0 1 .108-.01c.072.024.138.136.198.334.06.191.114.447.162.764.024.186.054.346.09.477.036.133.054.21.054.235.024.047.051.096.081.144.036.041.078.038.126-.01.024-.023.072-.078.144-.161.078-.084.153-.174.225-.27a9.52 9.52 0 0 0 .297-.415c.078-.108.165-.221.261-.342.042-.06.09-.126.144-.198a2.87 2.87 0 0 1 .162-.198.36.36 0 0 1 .162-.117c.144-.023.222.007.234.09.012.084-.042.21-.162.378a1.481 1.481 0 0 0-.117.207.386.386 0 0 1-.072.127 3.407 3.407 0 0 1-.225.369c-.102.144-.201.279-.297.405a3.13 3.13 0 0 1-.198.233 2.25 2.25 0 0 1-.162.136c-.078.066-.153.15-.225.252-.144.138-.258.221-.342.252-.084.03-.162.008-.234-.064ZM122.17 8c-.114.03-.207.006-.279-.072-.066-.078-.105-.198-.117-.36a2.056 2.056 0 0 1 .054-.576 1.71 1.71 0 0 0 .072-.207.75.75 0 0 0 .027-.171c.012-.06.036-.147.072-.261a12.786 12.786 0 0 1 .234-.702c.042-.102.069-.165.081-.189.024 0 .045-.021.063-.063a.318.318 0 0 0 .027-.126.57.57 0 0 1 .027-.162.386.386 0 0 1 .072-.126c0-.03.006-.063.018-.099a.273.273 0 0 0 .027-.099.16.16 0 0 1 .018-.072.12.12 0 0 0 .027-.072c.042-.078.096-.201.162-.369.072-.174.147-.366.225-.576a16.107 16.107 0 0 0 .405-1.134c.048-.144.072-.231.072-.261 0-.048.012-.084.036-.108.024-.024.06-.036.108-.036a.134.134 0 0 1 .063-.036.417.417 0 0 1 .081-.009l.036.036.108.108c.048.042.075.09.081.144a.879.879 0 0 1-.009.396 2.05 2.05 0 0 1-.108.261l-.252.531a4.51 4.51 0 0 1-.153.342.664.664 0 0 0-.081.189c0 .024-.012.06-.036.108a5.302 5.302 0 0 0-.063.18c-.024.048-.057.12-.099.216l-.135.297a12.59 12.59 0 0 0-.108.27.638.638 0 0 0-.045.126.296.296 0 0 1-.009.072c0 .024-.012.048-.036.072-.024 0-.039.018-.045.054v.045c0 .06-.048.219-.144.477-.096.33-.186.633-.27.909a2.587 2.587 0 0 0-.117.666c0 .144-.003.24-.009.288-.006.042-.033.075-.081.099Zm1.314-.324a.272.272 0 0 0-.09-.108c-.036-.03-.054-.057-.054-.081a.296.296 0 0 0-.009-.072.112.112 0 0 0-.036-.081c-.03-.036-.027-.117.009-.243.036-.132.096-.291.18-.477.084-.192.183-.393.297-.603.048-.048.096-.111.144-.189a.961.961 0 0 1 .108-.153c0-.024.009-.045.027-.063.018-.024.039-.036.063-.036v-.054c0-.03.027-.081.081-.153.06-.072.132-.15.216-.234a3.43 3.43 0 0 1 .261-.252c.09-.084.165-.144.225-.18a.919.919 0 0 1 .387-.153.442.442 0 0 1 .351.09l.09.09.144.144c.06.048.12.099.18.153l.333.297-.162.45c-.078.24-.099.45-.063.63.042.18.102.336.18.468a.48.48 0 0 0 .18.189c.096.06.186.096.27.108a.292.292 0 0 1 .135.054c.042.03.063.078.063.144 0 .06-.012.108-.036.144-.024.036-.066.06-.126.072a.788.788 0 0 1-.558-.144c-.168-.12-.324-.318-.468-.594a1.458 1.458 0 0 1-.162-.396l-.135.171a3.021 3.021 0 0 1-.153.171c-.426.432-.795.723-1.107.873-.306.144-.561.15-.765.018Zm.324-.504c0 .042.063.042.189 0 .132-.048.273-.132.423-.252.204-.174.408-.366.612-.576.21-.21.378-.405.504-.585l.198-.324c-.06-.138-.126-.231-.198-.279-.066-.054-.123-.081-.171-.081-.078 0-.195.072-.351.216a4.32 4.32 0 0 0-.486.576c-.174.24-.339.504-.495.792a5.943 5.943 0 0 0-.225.513Zm4.396.747c-.15.012-.294.003-.432-.027a.891.891 0 0 1-.342-.153.627.627 0 0 1-.189-.279.5.5 0 0 1-.063-.171c0-.036.021-.066.063-.09a.19.19 0 0 1 .126.045c.042.024.096.051.162.081.09.078.198.12.324.126a.787.787 0 0 0 .36-.063c.108-.048.168-.108.18-.18a.524.524 0 0 0-.027-.126 3.484 3.484 0 0 0-.063-.189 2.744 2.744 0 0 1-.36-.675 1.946 1.946 0 0 1-.108-.558c0-.108.033-.222.099-.342a.912.912 0 0 1 .27-.315c.108-.114.228-.216.36-.306.132-.09.264-.168.396-.234.138-.066.261-.114.369-.144.066 0 .153.009.261.027a.746.746 0 0 1 .225.063c.066.024.129.09.189.198.06.102.09.204.09.306a.499.499 0 0 1-.036.162 1.406 1.406 0 0 1-.117.234 1.79 1.79 0 0 1-.081.189.291.291 0 0 0-.045.117c-.03.066-.072.099-.126.099a.294.294 0 0 1-.153-.081.67.67 0 0 1-.117-.189.618.618 0 0 1-.027-.216.437.437 0 0 1 .072-.189c.066-.066.099-.111.099-.135 0-.024-.033-.036-.099-.036a.7.7 0 0 0-.234.081 2.4 2.4 0 0 0-.351.198c-.12.078-.225.162-.315.252a1.108 1.108 0 0 0-.207.234.689.689 0 0 0-.027.225c0 .084.018.189.054.315.042.126.084.21.126.252l.063.126c.042.078.093.162.153.252.174.384.219.66.135.828-.084.168-.303.264-.657.288Zm3.023.531c-.198-.03-.333-.105-.405-.225-.066-.114-.081-.291-.045-.531.036-.114.057-.216.063-.306.012-.096.039-.156.081-.18l.009-.027c.012-.018.009-.036-.009-.054 0-.078.027-.186.081-.324l.045-.126.036-.081c-.03-.048-.03-.087 0-.117.03-.03.06-.057.09-.081.036-.03.039-.063.009-.099-.012-.024.003-.078.045-.162.042-.09.09-.183.144-.279a1.42 1.42 0 0 0 .108-.225c0-.012.015-.054.045-.126a15.817 15.817 0 0 1 .225-.513l.081-.153c.06-.03.036-.051-.072-.063a2.133 2.133 0 0 0-.342-.009 6.485 6.485 0 0 1-.45-.027.682.682 0 0 1-.27-.081c-.072-.084-.099-.144-.081-.18.024-.042.096-.066.216-.072.078-.006.138-.009.18-.009.048 0 .108-.003.18-.009a9.53 9.53 0 0 1 .36-.045l.459-.036.027-.153a2.75 2.75 0 0 0 .207-.405c.024-.066.042-.135.054-.207l.081-.144a.876.876 0 0 0 .099-.315c.072-.12.135-.228.189-.324l.099-.189c.066-.054.111-.081.135-.081.03 0 .09.03.18.09.054.03.102.066.144.108a.291.291 0 0 1 .081.135c.012.042-.006.084-.054.126-.012.024-.03.069-.054.135-.024.06-.042.111-.054.153a1.375 1.375 0 0 0-.135.207.97.97 0 0 0-.099.279c-.048.102-.093.195-.135.279-.042.078-.075.117-.099.117.012.06.048.09.108.09.06-.006.159-.012.297-.018.114-.012.192-.024.234-.036.048-.018.102-.012.162.018a.54.54 0 0 1 .072.144.27.27 0 0 1 .009.153.11.11 0 0 1-.072.09.724.724 0 0 0-.189.054c-.09.03-.204.048-.342.054l-.477.045-.153.306c-.042.078-.078.15-.108.216a.55.55 0 0 1-.063.108c0 .036-.021.09-.063.162l-.117.234a1.705 1.705 0 0 1-.126.279l-.063.126c-.024 0-.036.018-.036.054.03.072.021.126-.027.162a.26.26 0 0 0-.081.081l-.027.045c.024.024.027.054.009.09a.66.66 0 0 1-.054.117.717.717 0 0 1-.045.207c-.024.09-.051.174-.081.252.006.108.012.177.018.207.006.03.021.042.045.036.03.006.057.006.081 0a.296.296 0 0 1 .072-.009c.084-.036.039.174-.135.63-.096.15-.162.258-.198.324-.036.072-.069.108-.099.108Zm3.998 1.566h-.09c-.036.006-.069-.018-.099-.072a.256.256 0 0 1-.045-.135c0-.06.015-.168.045-.324.03-.102.054-.204.072-.306a1.29 1.29 0 0 0 .027-.216c0-.024.006-.072.018-.144a.624.624 0 0 0 .027-.144.625.625 0 0 0 .072-.198c.018-.084.027-.159.027-.225 0-.072.036-.138.108-.198 0-.048.009-.108.027-.18a.59.59 0 0 0 .036-.144 7.98 7.98 0 0 1 .117-.441c.066-.216.144-.459.234-.729l.279-.792c.09-.258.171-.477.243-.657a2.26 2.26 0 0 0 .144-.432 1.35 1.35 0 0 0 .045-.279c0-.024.006-.042.018-.054.012-.018.039-.051.081-.099.06-.06.111-.078.153-.054.048.024.105.06.171.108.048.078.081.144.099.198.024.054.024.147 0 .279 0 .09-.015.168-.045.234s-.057.117-.081.153c-.024.03-.03.042-.018.036.246-.114.462-.174.648-.18a.794.794 0 0 1 .477.099.697.697 0 0 1 .297.306c.066.132.099.285.099.459a.951.951 0 0 1-.045.261 1.36 1.36 0 0 1-.234.441c-.024 0-.048.021-.072.063a1.177 1.177 0 0 0-.072.126 1.22 1.22 0 0 1-.234.207 2.033 2.033 0 0 1-.306.18c-.102.042-.177.054-.225.036l-.027.009c-.012 0-.018.015-.018.045 0 .012-.048.039-.144.081a4.4 4.4 0 0 1-.333.108 1.46 1.46 0 0 1-.333.045c-.126 0-.216-.024-.27-.072a.526.526 0 0 0-.045.054.145.145 0 0 0-.018.063.92.92 0 0 1-.045.207 2.162 2.162 0 0 1-.09.279c-.036.09-.069.135-.099.135l-.018.027c-.012.018-.006.042.018.072l-.009.099a.334.334 0 0 1-.045.18c0 .048-.009.12-.027.216a.863.863 0 0 1-.063.216.601.601 0 0 1-.036.207c-.018.072-.039.108-.063.108-.024.006-.039.042-.045.108a2.128 2.128 0 0 0-.009.153.7.7 0 0 1-.09.351c-.054.084-.117.126-.189.126Zm1.089-3.006c.048 0 .147-.021.297-.063.15-.042.303-.093.459-.153.162-.066.282-.132.36-.198.156-.138.276-.294.36-.468a.492.492 0 0 0-.018-.513c-.048-.084-.135-.117-.261-.099a1.07 1.07 0 0 0-.414.144c-.15.084-.291.189-.423.315a1.347 1.347 0 0 0-.198.288 2.85 2.85 0 0 0-.153.342 1.33 1.33 0 0 0-.063.288c-.006.078.012.117.054.117Zm3.608.648a.926.926 0 0 1-.243.027.61.61 0 0 1-.144-.108.827.827 0 0 1-.243-.18.801.801 0 0 1-.135-.225.558.558 0 0 1-.027-.207 2.77 2.77 0 0 1 .153-.675c.084-.24.186-.471.306-.693a3.02 3.02 0 0 1 .387-.567c.144-.162.282-.267.414-.315a.706.706 0 0 1 .342-.054.28.28 0 0 1 .234.171c.09.174.069.285-.063.333-.018 0-.039.009-.063.027-.024.012-.036.03-.036.054.024.012.09.015.198.009a3.04 3.04 0 0 0 .324-.054.648.648 0 0 0 .225-.09.207.207 0 0 1 .081-.027c.018 0 .063.006.135.018.102.03.153.066.153.108a.12.12 0 0 0 .027.072.086.086 0 0 0 .063.027c.042.006.036.033-.018.081a2.048 2.048 0 0 1-.252.198c-.114.072-.186.12-.216.144-.024.018-.027.06-.009.126a.59.59 0 0 1 .009.396c-.042.15-.117.303-.225.459a2.46 2.46 0 0 1-.396.441 2.73 2.73 0 0 1-.486.342c-.168.09-.333.144-.495.162Zm-.153-.396a.413.413 0 0 0 .126-.036l.144-.072c.024-.024.054-.051.09-.081a.285.285 0 0 1 .099-.063.212.212 0 0 0 .09-.027c.036-.024.087-.069.153-.135.066-.072.153-.177.261-.315.12-.132.213-.252.279-.36.066-.114.084-.219.054-.315-.006-.024-.024-.039-.054-.045a.43.43 0 0 1-.099-.045.347.347 0 0 1-.171-.045 5.28 5.28 0 0 1-.171-.135l-.144-.18-.153.153c-.096.096-.198.24-.306.432a4.136 4.136 0 0 0-.261.576 1.995 1.995 0 0 0-.126.459c-.006.09.009.15.045.18a.26.26 0 0 0 .144.054Zm3.236.657c-.15.012-.294.003-.432-.027a.891.891 0 0 1-.342-.153.627.627 0 0 1-.189-.279.5.5 0 0 1-.063-.171c0-.036.021-.066.063-.09a.19.19 0 0 1 .126.045c.042.024.096.051.162.081.09.078.198.12.324.126a.787.787 0 0 0 .36-.063c.108-.048.168-.108.18-.18a.524.524 0 0 0-.027-.126 3.484 3.484 0 0 0-.063-.189 2.744 2.744 0 0 1-.36-.675 1.946 1.946 0 0 1-.108-.558c0-.108.033-.222.099-.342a.912.912 0 0 1 .27-.315c.108-.114.228-.216.36-.306.132-.09.264-.168.396-.234.138-.066.261-.114.369-.144.066 0 .153.009.261.027a.746.746 0 0 1 .225.063c.066.024.129.09.189.198.06.102.09.204.09.306a.499.499 0 0 1-.036.162 1.406 1.406 0 0 1-.117.234 1.79 1.79 0 0 1-.081.189.291.291 0 0 0-.045.117c-.03.066-.072.099-.126.099a.294.294 0 0 1-.153-.081.67.67 0 0 1-.117-.189.618.618 0 0 1-.027-.216.437.437 0 0 1 .072-.189c.066-.066.099-.111.099-.135 0-.024-.033-.036-.099-.036a.7.7 0 0 0-.234.081 2.4 2.4 0 0 0-.351.198c-.12.078-.225.162-.315.252a1.108 1.108 0 0 0-.207.234.689.689 0 0 0-.027.225c0 .084.018.189.054.315.042.126.084.21.126.252l.063.126c.042.078.093.162.153.252.174.384.219.66.135.828-.084.168-.303.264-.657.288Zm2.383-.36a.296.296 0 0 1-.09-.018l-.045-.027a.212.212 0 0 0-.027-.09.296.296 0 0 1-.018-.09c-.042-.024-.066-.048-.072-.072a.304.304 0 0 1 .027-.144c.036-.06.084-.156.144-.288l.189-.441c.066-.162.129-.321.189-.477l.153-.396c.042-.114.066-.183.072-.207 0-.024.009-.054.027-.09a.343.343 0 0 1 .063-.09c.048-.042.099-.045.153-.009.054.03.099.084.135.162a.473.473 0 0 1 .063.243c0 .042-.03.15-.09.324-.06.168-.141.369-.243.603-.096.234-.204.471-.324.711l-.171.333c-.024.042-.069.063-.135.063Zm1.323-3.411a.44.44 0 0 1-.234-.081 1.013 1.013 0 0 1-.207-.216.521.521 0 0 1-.081-.27c0-.03.018-.072.054-.126l.108-.162a.324.324 0 0 0 .054-.099.48.48 0 0 1 .108.009c.03 0 .066.012.108.036.066.15.147.273.243.369.102.096.153.177.153.243 0 .132-.012.216-.036.252-.024.03-.114.045-.27.045Zm.995 4.302c-.198-.03-.333-.105-.405-.225-.066-.114-.081-.291-.045-.531.036-.114.057-.216.063-.306.012-.096.039-.156.081-.18l.009-.027c.012-.018.009-.036-.009-.054 0-.078.027-.186.081-.324l.045-.126.036-.081c-.03-.048-.03-.087 0-.117.03-.03.06-.057.09-.081.036-.03.039-.063.009-.099-.012-.024.003-.078.045-.162.042-.09.09-.183.144-.279a1.42 1.42 0 0 0 .108-.225c0-.012.015-.054.045-.126a15.817 15.817 0 0 1 .225-.513l.081-.153c.06-.03.036-.051-.072-.063a2.133 2.133 0 0 0-.342-.009 6.485 6.485 0 0 1-.45-.027.682.682 0 0 1-.27-.081c-.072-.084-.099-.144-.081-.18.024-.042.096-.066.216-.072.078-.006.138-.009.18-.009.048 0 .108-.003.18-.009a9.53 9.53 0 0 1 .36-.045l.459-.036.027-.153a2.75 2.75 0 0 0 .207-.405c.024-.066.042-.135.054-.207l.081-.144a.876.876 0 0 0 .099-.315c.072-.12.135-.228.189-.324l.099-.189c.066-.054.111-.081.135-.081.03 0 .09.03.18.09.054.03.102.066.144.108a.291.291 0 0 1 .081.135c.012.042-.006.084-.054.126-.012.024-.03.069-.054.135-.024.06-.042.111-.054.153a1.375 1.375 0 0 0-.135.207.97.97 0 0 0-.099.279c-.048.102-.093.195-.135.279-.042.078-.075.117-.099.117.012.06.048.09.108.09.06-.006.159-.012.297-.018.114-.012.192-.024.234-.036.048-.018.102-.012.162.018a.54.54 0 0 1 .072.144.27.27 0 0 1 .009.153.11.11 0 0 1-.072.09.724.724 0 0 0-.189.054c-.09.03-.204.048-.342.054l-.477.045-.153.306c-.042.078-.078.15-.108.216a.55.55 0 0 1-.063.108c0 .036-.021.09-.063.162l-.117.234a1.705 1.705 0 0 1-.126.279l-.063.126c-.024 0-.036.018-.036.054.03.072.021.126-.027.162a.26.26 0 0 0-.081.081l-.027.045c.024.024.027.054.009.09a.66.66 0 0 1-.054.117.717.717 0 0 1-.045.207c-.024.09-.051.174-.081.252.006.108.012.177.018.207.006.03.021.042.045.036.03.006.057.006.081 0a.296.296 0 0 1 .072-.009c.084-.036.039.174-.135.63-.096.15-.162.258-.198.324-.036.072-.069.108-.099.108Zm2.269-.738a.452.452 0 0 1-.108-.18.66.66 0 0 1-.018-.216.494.494 0 0 1 .045-.18.25.25 0 0 1 .018-.108c.018-.03.024-.057.018-.081a.278.278 0 0 1 .018-.126 5.93 5.93 0 0 1 .054-.171 5.87 5.87 0 0 0 .135-.342c.048-.138.093-.273.135-.405a70.743 70.743 0 0 0 .162-.522c0-.072.048-.111.144-.117.072-.024.126-.024.162 0 .036.018.084.075.144.171.048.048.066.12.054.216a1.295 1.295 0 0 1-.117.36 2.898 2.898 0 0 0-.09.207c-.03.09-.051.171-.063.243a2.898 2.898 0 0 0-.207.585 3.932 3.932 0 0 1-.045.18.664.664 0 0 1-.072.162c-.054.246-.105.39-.153.432-.042.042-.114.006-.216-.108Zm.873-3.654a.415.415 0 0 1-.081-.126.666.666 0 0 1-.045-.162c-.006-.054 0-.081.018-.081.048-.006.105-.057.171-.153.066-.096.093-.18.081-.252 0-.024.009-.045.027-.063a.113.113 0 0 1 .063-.045c.072-.048.141-.054.207-.018.072.03.138.093.198.189.054.114.069.21.045.288a1.13 1.13 0 0 1-.198.306c-.09.12-.174.186-.252.198-.072.012-.15-.015-.234-.081Zm1.651 3.6a.926.926 0 0 1-.243.027.61.61 0 0 1-.144-.108.827.827 0 0 1-.243-.18.801.801 0 0 1-.135-.225.558.558 0 0 1-.027-.207 2.77 2.77 0 0 1 .153-.675c.084-.24.186-.471.306-.693a3.02 3.02 0 0 1 .387-.567c.144-.162.282-.267.414-.315a.706.706 0 0 1 .342-.054.28.28 0 0 1 .234.171c.09.174.069.285-.063.333-.018 0-.039.009-.063.027-.024.012-.036.03-.036.054.024.012.09.015.198.009a3.04 3.04 0 0 0 .324-.054.648.648 0 0 0 .225-.09.207.207 0 0 1 .081-.027c.018 0 .063.006.135.018.102.03.153.066.153.108a.12.12 0 0 0 .027.072.086.086 0 0 0 .063.027c.042.006.036.033-.018.081a2.048 2.048 0 0 1-.252.198c-.114.072-.186.12-.216.144-.024.018-.027.06-.009.126a.59.59 0 0 1 .009.396c-.042.15-.117.303-.225.459a2.46 2.46 0 0 1-.396.441 2.73 2.73 0 0 1-.486.342c-.168.09-.333.144-.495.162Zm-.153-.396a.413.413 0 0 0 .126-.036l.144-.072c.024-.024.054-.051.09-.081a.285.285 0 0 1 .099-.063.212.212 0 0 0 .09-.027c.036-.024.087-.069.153-.135.066-.072.153-.177.261-.315.12-.132.213-.252.279-.36.066-.114.084-.219.054-.315-.006-.024-.024-.039-.054-.045a.43.43 0 0 1-.099-.045.347.347 0 0 1-.171-.045 5.28 5.28 0 0 1-.171-.135l-.144-.18-.153.153c-.096.096-.198.24-.306.432a4.136 4.136 0 0 0-.261.576 1.995 1.995 0 0 0-.126.459c-.006.09.009.15.045.18a.26.26 0 0 0 .144.054Zm5.567.324a.558.558 0 0 1-.297-.072.613.613 0 0 1-.198-.261 2.775 2.775 0 0 1-.063-.279 2.706 2.706 0 0 1-.018-.297c0-.096.009-.159.027-.189.024-.024.033-.066.027-.126v-.207c-.006-.12-.036-.186-.09-.198-.048-.018-.12 0-.216.054-.108.066-.249.156-.423.27-.174.108-.357.228-.549.36-.186.132-.363.27-.531.414-.132.144-.213.255-.243.333-.024.072-.06.108-.108.108-.048.024-.09.027-.126.009l-.135-.108a2.776 2.776 0 0 0-.126-.135.608.608 0 0 1-.081-.108c0-.03.009-.093.027-.189.018-.096.039-.192.063-.288.03-.096.051-.159.063-.189.03 0 .054-.03.072-.09.024-.06.06-.126.108-.198.012-.072.042-.168.09-.288l.144-.333c.084-.144.141-.264.171-.36a1.36 1.36 0 0 0 .072-.36.063.063 0 0 1 .018-.063c.018-.024.039-.036.063-.036a.151.151 0 0 1 .171-.036.342.342 0 0 1 .18.135c.108.144.15.294.126.45-.018.15-.114.366-.288.648l-.099.225a.352.352 0 0 0-.027.117l.09-.063c.066-.042.138-.09.216-.144.084-.06.15-.105.198-.135.03-.03.099-.084.207-.162.108-.078.222-.153.342-.225.126-.078.219-.123.279-.135.048-.024.099-.045.153-.063a.34.34 0 0 1 .117-.036c.048 0 .108.027.18.081.078.048.15.108.216.18a.412.412 0 0 1 .117.171v.072l.018.072c.024.078.036.183.036.315.006.132.003.252-.009.36-.012.108-.033.171-.063.189v.027c.006.012.021.018.045.018v.045c-.03 0-.042.027-.036.081a.512.512 0 0 0 .054.162c.036.06.072.108.108.144.072.072.102.141.09.207-.012.06-.066.102-.162.126Z"/>
</svg>
