<svg xmlns="http://www.w3.org/2000/svg" width="202" height="53" fill="none" viewBox="0 0 202 53">
  <g clip-path="url(#a)">
    <path fill="#DF00A6" fill-rule="evenodd" d="M58.494 11.234c1.504.06 2.699.641 3.894 1.294 3.92 2.146 5.232 5.476 2.545 8.748-4.177 5.073-13.907 8.394-21.452 6.861-1.67-.337-3.933-.635-5.591-2.284-1.542-1.534-1.478-3.357-.771-5.045.72-1.73 2.108-3.323 3.213-4.347 4.833-4.467 14.511-8.527 23.264-6.386.18.04.36-.03.412-.159.051-.128-.039-.266-.206-.308-9.01-2.202-18.997 1.945-23.971 6.542-1.376 1.276-3.175 3.407-3.689 5.612-.347 1.507-.103 3.048 1.234 4.388 1.76 1.757 4.164 2.1 5.938 2.46 7.79 1.583 17.853-1.834 22.159-7.074 2.892-3.517 1.504-7.099-2.712-9.405-1.285-.71-2.596-1.322-4.229-1.386-.18-.007-.334.097-.334.232-.013.135.129.25.296.257Z" clip-rule="evenodd"/>
    <path fill="#580DD9" fill-rule="evenodd" d="M140.667 13.342c2.547.319 4.519 1.088 6.484 1.927 6.442 2.753 8.338 6.193 3.454 8.88-7.595 4.165-24.441 5.67-37.098 2.877-2.803-.617-6.613-1.299-9.265-3.178-2.466-1.748-2.177-3.496-.809-5 1.393-1.544 3.907-2.838 5.885-3.632 8.647-3.466 25.479-5.693 40.127-2.103.301.071.614.034.714-.081.1-.115-.039-.264-.319-.333-15.077-3.695-32.442-1.437-41.342 2.129-2.461.991-5.727 2.733-6.818 4.77-.738 1.393-.477 2.921 1.66 4.447 2.815 2.001 6.861 2.752 9.837 3.408 13.066 2.885 30.489 1.344 38.318-2.96 5.258-2.887 3.256-6.583-3.672-9.543-2.112-.908-4.277-1.727-7.042-2.073-.305-.039-.577.035-.59.165-.035.128.193.264.476.3Z" clip-rule="evenodd"/>
    <path fill="#DF00A6" d="M30.134 35.64a.303.303 0 0 0-.1-.12c-.04-.033-.06-.063-.06-.09a.332.332 0 0 0-.01-.08.125.125 0 0 0-.04-.09c-.034-.04-.03-.13.01-.27.04-.147.106-.323.2-.53.093-.213.203-.437.33-.67a1.15 1.15 0 0 0 .16-.21c.053-.087.093-.143.12-.17 0-.027.01-.05.03-.07.02-.027.043-.04.07-.04v-.06c0-.033.03-.09.09-.17.066-.08.146-.167.24-.26.093-.1.19-.193.29-.28.1-.093.183-.16.25-.2.14-.093.283-.15.43-.17a.491.491 0 0 1 .39.1l.1.1.16.16c.066.053.133.11.2.17l.37.33-.18.5c-.087.267-.11.5-.07.7.046.2.113.373.2.52.033.073.1.143.2.21a.783.783 0 0 0 .3.12.325.325 0 0 1 .15.06c.046.033.07.087.07.16a.29.29 0 0 1-.04.16c-.027.04-.074.067-.14.08a.876.876 0 0 1-.62-.16c-.187-.133-.36-.353-.52-.66a1.606 1.606 0 0 1-.18-.44l-.15.19c-.074.087-.13.15-.17.19-.474.48-.884.803-1.23.97-.34.16-.624.167-.85.02Zm.36-.56c0 .047.07.047.21 0a1.72 1.72 0 0 0 .47-.28c.226-.193.453-.407.68-.64.233-.233.42-.45.56-.65l.22-.36c-.067-.153-.14-.257-.22-.31-.074-.06-.137-.09-.19-.09-.087 0-.217.08-.39.24a4.73 4.73 0 0 0-.54.64c-.194.267-.377.56-.55.88a6.541 6.541 0 0 0-.18.39l-.07.18Zm6.285.9c-.047.027-.11.017-.19-.03a.915.915 0 0 1-.22-.21.877.877 0 0 1-.1-.26 2.928 2.928 0 0 1-.02-.39c.006-.133 0-.22-.02-.26-.014-.04-.05-.033-.11.02a4.12 4.12 0 0 0-.31.29 2.625 2.625 0 0 1-.48.39c-.147.093-.267.137-.36.13-.047 0-.1-.023-.16-.07a1.113 1.113 0 0 1-.15-.19 2.004 2.004 0 0 1-.12-.24 1.503 1.503 0 0 1-.02-.56c.033-.233.086-.477.16-.73a6.83 6.83 0 0 1 .25-.72c.1-.227.2-.41.3-.55.106-.14.2-.21.28-.21.053 0 .1.027.14.08a.922.922 0 0 1 .14.25c.026.047.036.087.03.12 0 .033-.027.073-.08.12-.06.08-.13.2-.21.36a9.28 9.28 0 0 0-.22.52c-.067.187-.127.367-.18.54-.054.173-.09.317-.11.43-.02.107-.017.16.01.16a.686.686 0 0 0 .33-.11c.133-.08.26-.177.38-.29.14-.14.263-.293.37-.46.113-.167.226-.343.34-.53.086-.133.176-.28.27-.44.1-.16.163-.273.19-.34.093-.173.163-.29.21-.35a.319.319 0 0 1 .17-.13h.14c.04.007.086.037.14.09.053.027.083.053.09.08a.26.26 0 0 1 .01.08c-.027.067-.07.167-.13.3l-.12.28c-.127.287-.254.57-.38.85a3.82 3.82 0 0 0-.26.84 1.724 1.724 0 0 0-.01.33c.013.12.033.207.06.26l.07.14c.033.047.07.087.11.12.06.04.07.083.03.13a.416.416 0 0 1-.26.16Zm4.26-.01a.82.82 0 0 1-.11-.01.179.179 0 0 1-.1-.05 1.12 1.12 0 0 1-.32-.1 1.452 1.452 0 0 1-.27-.16 6.26 6.26 0 0 1-.34-.28 3.98 3.98 0 0 1-.29-.28c-.073-.087-.11-.15-.11-.19 0-.033-.016-.05-.05-.05l-.03-.03a.133.133 0 0 1-.03-.08c0-.067-.033-.1-.1-.1l-.17.14a5.247 5.247 0 0 0-.37.34c-.186.187-.326.323-.42.41-.086.08-.156.12-.21.12a.358.358 0 0 1-.18-.06.93.93 0 0 1-.18-.14.282.282 0 0 1-.07-.17l.2-.23c.14-.153.304-.31.49-.47l.64-.63-.11-.38a13.36 13.36 0 0 0-.15-.33 6.6 6.6 0 0 1-.11-.3 1.072 1.072 0 0 1-.13-.21c0-.033.028-.09.08-.17a.447.447 0 0 1 .13-.1c.04-.02.1-.003.18.05.04 0 .094.057.16.17.067.107.127.227.18.36.06.127.09.217.09.27 0 .107.04.15.12.13.08-.02.2-.083.36-.19a4.99 4.99 0 0 0 .19-.18l.07-.08a1.7 1.7 0 0 1 .18-.13c.1-.073.204-.147.31-.22a1.55 1.55 0 0 1 .21-.13c.054-.04.114-.04.18 0a.432.432 0 0 1 .17.16.36.36 0 0 1 .07.21c0 .08-.02.143-.06.19a.995.995 0 0 1-.26.18l-.32.23c-.086.067-.18.14-.28.22a10.36 10.36 0 0 0-.36.3l-.26.21.16.27c.027.047.064.113.11.2a.487.487 0 0 0 .15.17c.04.053.117.127.23.22.114.093.224.18.33.26.114.073.177.11.19.11a.18.18 0 0 1 .09.03l.12.07a.349.349 0 0 1 .1.18c.02.067.02.127 0 .18-.013.047-.046.07-.1.07Zm.709-.46a.33.33 0 0 1-.1-.02l-.05-.03c0-.027-.01-.06-.03-.1a.33.33 0 0 1-.02-.1c-.047-.027-.074-.053-.08-.08a.34.34 0 0 1 .03-.16c.04-.067.093-.173.16-.32l.21-.49c.073-.18.143-.357.21-.53l.17-.44c.046-.127.073-.203.08-.23 0-.027.01-.06.03-.1a.383.383 0 0 1 .07-.1c.053-.047.11-.05.17-.01.06.033.11.093.15.18.046.08.07.17.07.27 0 .047-.034.167-.1.36-.067.187-.157.41-.27.67-.107.26-.227.523-.36.79a42.3 42.3 0 0 0-.19.37c-.027.047-.077.07-.15.07Zm1.47-3.79a.489.489 0 0 1-.26-.09 1.13 1.13 0 0 1-.23-.24c-.06-.1-.09-.2-.09-.3 0-.033.02-.08.06-.14l.12-.18a.36.36 0 0 0 .06-.11.53.53 0 0 1 .12.01c.033 0 .073.013.12.04.073.167.163.303.27.41.113.107.17.197.17.27 0 .147-.014.24-.04.28-.027.033-.127.05-.3.05Zm.365 3.81a.587.587 0 0 1-.15-.12.258.258 0 0 1-.05-.17c0-.1.013-.203.04-.31.026-.113.053-.223.08-.33.013-.12.03-.24.05-.36.027-.127.073-.243.14-.35.073-.253.15-.503.23-.75.08-.253.15-.513.21-.78a75 75 0 0 1 .23-.65c.073-.193.163-.437.27-.73a4.1 4.1 0 0 0 .15-.53c.047-.193.117-.367.21-.52.04-.06.07-.11.09-.15.026-.047.053-.09.08-.13.007-.027.027-.043.06-.05a.295.295 0 0 1 .13.01.21.21 0 0 1 .11.07c.02-.007.043.013.07.06.033.04.063.087.09.14.027.053.037.1.03.14a.43.43 0 0 1-.02.11.312.312 0 0 1-.05.13.464.464 0 0 0-.08.12c-.02.047-.053.113-.1.2-.027.087-.05.177-.07.27-.02.087-.047.167-.08.24-.027.08-.06.157-.1.23a1.348 1.348 0 0 0-.07.18 3.686 3.686 0 0 1-.17.45c-.06.147-.113.303-.16.47-.047.16-.093.327-.14.5a2.155 2.155 0 0 1-.2.48.767.767 0 0 0-.1.28l-.06.34c-.04.12-.077.233-.11.34-.027.1-.04.163-.04.19-.04.147-.07.293-.09.44-.014.14-.047.263-.1.37a.467.467 0 0 1-.04.16.125.125 0 0 1-.1.07.463.463 0 0 1-.19-.06Zm1.64.15a.503.503 0 0 1-.12-.2.732.732 0 0 1-.02-.24.55.55 0 0 1 .05-.2.28.28 0 0 1 .02-.12c.02-.033.026-.063.02-.09a.308.308 0 0 1 .02-.14c.02-.067.04-.13.06-.19a7.638 7.638 0 0 0 .3-.83 71.784 71.784 0 0 0 .18-.58c0-.08.053-.123.16-.13.08-.027.14-.027.18 0 .04.02.093.083.16.19.053.053.073.133.06.24a1.47 1.47 0 0 1-.13.4 1.69 1.69 0 0 0-.17.5 3.198 3.198 0 0 0-.23.65c-.014.06-.03.127-.05.2a.738.738 0 0 1-.08.18c-.06.273-.117.433-.17.48-.047.047-.127.007-.24-.12Zm.97-4.06a.462.462 0 0 1-.09-.14.74.74 0 0 1-.05-.18c-.007-.06 0-.09.02-.09.053-.007.116-.063.19-.17.073-.107.103-.2.09-.28 0-.027.01-.05.03-.07a.126.126 0 0 1 .07-.05c.08-.053.156-.06.23-.02a.5.5 0 0 1 .22.21c.06.127.076.233.05.32-.027.08-.1.193-.22.34-.1.133-.194.207-.28.22-.08.013-.167-.017-.26-.09Zm1.635 4.09a.896.896 0 0 1-.21.02 1.961 1.961 0 0 1-.23-.03c-.06-.02-.09-.04-.09-.06 0-.033-.017-.05-.05-.05l-.05-.04a.438.438 0 0 0-.13-.08.545.545 0 0 1-.09-.3c0-.113.03-.29.09-.53.02-.167.083-.36.19-.58.113-.227.25-.457.41-.69.16-.233.326-.443.5-.63.18-.187.343-.323.49-.41a.5.5 0 0 1 .34-.15.696.696 0 0 1 .38.09.7.7 0 0 1 .2.16c.066.073.13.153.19.24s.11.173.15.26c.02.073.03.14.03.2a.988.988 0 0 1 0 .2c0 .08-.01.2-.03.36a3.62 3.62 0 0 0-.09.44 4 4 0 0 0-.03.45c-.014.127 0 .217.04.27.046.053.113.057.2.01a.425.425 0 0 1 .23-.05c.073 0 .13.02.17.06.046.04.07.1.07.18 0 .08-.04.163-.12.25-.074.08-.167.15-.28.21a.692.692 0 0 1-.31.08c-.074 0-.144-.043-.21-.13a1.71 1.71 0 0 1-.18-.33 27.7 27.7 0 0 1-.13-.38l-.06-.23-.43.41a5.31 5.31 0 0 1-.26.26.924.924 0 0 0-.15.16.552.552 0 0 1-.19.18 1.79 1.79 0 0 1-.36.18Zm.03-.59c.113-.067.243-.163.39-.29.146-.133.29-.277.43-.43.14-.16.256-.307.35-.44.113-.153.2-.297.26-.43s.103-.26.13-.38a.904.904 0 0 0-.13-.23c-.06-.087-.114-.133-.16-.14-.147 0-.304.093-.47.28a7.321 7.321 0 0 0-.72.96l-.08.12c-.02.027-.06.103-.12.23-.054.12-.107.243-.16.37-.054.12-.08.2-.08.24 0 .04.003.083.01.13.013.047.046.077.1.09.053.013.136-.013.25-.08Zm3.633.65c-.033.067-.083.087-.15.06a1.02 1.02 0 0 1-.15-.08.186.186 0 0 1-.12-.04.214.214 0 0 1-.07-.12.317.317 0 0 1-.01-.14c.007-.06.02-.127.04-.2a6.3 6.3 0 0 0 .08-.26c.053-.22.09-.38.11-.48.02-.1.04-.187.06-.26.02-.073.047-.18.08-.32a3.3 3.3 0 0 0 .13-.39c.034-.127.084-.253.15-.38.047-.173.104-.337.17-.49.074-.16.144-.293.21-.4a.584.584 0 0 1 .07-.08c.04-.033.073-.05.1-.05.053-.053.1-.073.14-.06a.385.385 0 0 1 .17.09c.08.087.11.187.09.3-.013.113-.093.28-.24.5-.08.207-.153.387-.22.54a1.94 1.94 0 0 0-.14.42 2.05 2.05 0 0 1 .24-.29l.23-.23a3.17 3.17 0 0 1 .36-.32c.1-.067.217-.143.35-.23.08-.053.157-.1.23-.14a.762.762 0 0 1 .24-.1.757.757 0 0 1 .3 0 .175.175 0 0 1 .16.06c.047.047.084.11.11.19.027.08.044.173.05.28a.702.702 0 0 0-.41.02c-.12.04-.223.09-.31.15-.08.06-.143.107-.19.14-.1.067-.227.157-.38.27a3.413 3.413 0 0 0-.46.39c-.12.133-.223.247-.31.34-.08.093-.147.177-.2.25-.046.073-.083.15-.11.23-.066.153-.136.32-.21.5-.073.18-.136.29-.19.33Zm2.894 2.22c-.16.047-.337.053-.53.02a1.258 1.258 0 0 1-.49-.17c-.147-.087-.23-.183-.25-.29-.007-.04.006-.083.04-.13a.228.228 0 0 1 .11-.1c.04-.013.076 0 .11.04.053.033.15.073.29.12a.85.85 0 0 0 .47.03.925.925 0 0 0 .45-.27c.153-.147.276-.283.37-.41a15.221 15.221 0 0 0 .66-1.11c.14-.253.256-.487.35-.7l.07-.19a.578.578 0 0 1 .1-.18 2.9 2.9 0 0 0 .1-.22 1.08 1.08 0 0 0 .06-.15.984.984 0 0 1 .09-.2c.053-.1.103-.2.15-.3.033-.1.083-.247.15-.44.066-.193.133-.35.2-.47.08-.153.143-.277.19-.37.053-.1.11-.16.17-.18.06-.047.1-.07.12-.07a.42.42 0 0 1 .15.06c.08.08.13.16.15.24a.48.48 0 0 1-.03.28c-.034.107-.1.253-.2.44-.054.16-.114.307-.18.44a1.37 1.37 0 0 1-.14.25c-.034.08-.074.17-.12.27l-.11.26c-.12.267-.224.483-.31.65-.087.167-.164.32-.23.46a7.77 7.77 0 0 0-.21.49c-.154.247-.304.48-.45.7a5.55 5.55 0 0 1-.45.63c-.067.06-.15.13-.25.21-.1.08-.204.153-.31.22-.1.067-.197.113-.29.14Zm1.35-2.4c-.1-.013-.2-.073-.3-.18a1.35 1.35 0 0 1-.22-.34c-.054-.12-.074-.207-.06-.26v-.11c-.04 0-.077-.05-.11-.15-.027-.1-.047-.23-.06-.39a11.2 11.2 0 0 1-.03-.51c0-.18.006-.35.02-.51.026-.113.04-.237.04-.37 0-.14.003-.25.01-.33-.007-.107.003-.177.03-.21a.365.365 0 0 1 .08-.09c.186-.08.31-.03.37.15.066.173.083.5.05.98a8.025 8.025 0 0 0 0 .8c.013.267.05.5.11.7.066.2.156.337.27.41.046.027.07.063.07.11a.337.337 0 0 1-.15.27.163.163 0 0 1-.12.03Zm5.71.09c-.067.047-.114.07-.14.07a.493.493 0 0 1-.15-.12c-.127-.12-.217-.347-.27-.68-.047-.34-.07-.817-.07-1.43.027-.273.04-.507.04-.7.007-.193.01-.303.01-.33.02-.027.06-.04.12-.04.066 0 .123.013.17.04a.24.24 0 0 1 .13.15c.027.067.043.187.05.36.007.167.01.423.01.77-.02.267-.03.5-.03.7 0 .193.01.303.03.33.026.047.056.06.09.04.04-.027.11-.09.21-.19a9.007 9.007 0 0 0 .39-.59c.073-.093.14-.183.2-.27.066-.087.113-.143.14-.17a.738.738 0 0 1 .1-.15.913.913 0 0 0 .1-.14c.073-.127.15-.23.23-.31.08-.087.133-.13.16-.13.026.02.05.027.07.02a.178.178 0 0 1 .08-.02c.046-.047.11-.047.19 0 .026.02.05.043.07.07.02.02.03.043.03.07a.655.655 0 0 1-.08.21c-.047.107-.104.21-.17.31a.589.589 0 0 1-.14.17l-.03.03-.07.07c-.014.047-.057.13-.13.25a8.83 8.83 0 0 1-.27.39c-.107.147-.217.293-.33.44l-.3.39a1.366 1.366 0 0 1-.23.25 1.41 1.41 0 0 1-.21.14Zm2.99.08c-.26-.107-.43-.253-.51-.44-.073-.193-.086-.49-.04-.89a8.12 8.12 0 0 0 .02-.41c0-.067-.036-.133-.11-.2a.831.831 0 0 0-.11-.11c-.046-.047-.066-.087-.06-.12a.387.387 0 0 1 .01-.15c.014-.06.034-.09.06-.09a.178.178 0 0 0 .08-.02.106.106 0 0 1 .09 0c.027 0 .057.003.09.01.034.007.05.023.05.05.027.047.07.053.13.02.06-.04.124-.127.19-.26.067-.107.154-.213.26-.32.114-.107.224-.203.33-.29.114-.093.207-.16.28-.2a1.931 1.931 0 0 1 .36-.1.713.713 0 0 1 .2-.01c.12.007.22.04.3.1.087.06.167.13.24.21.087.06.14.14.16.24a.934.934 0 0 1-.07.63.64.64 0 0 1-.17.24c-.093.093-.2.183-.32.27-.12.087-.23.15-.33.19a3.837 3.837 0 0 1-.72.07.677.677 0 0 1-.23-.04c-.046-.027-.083.01-.11.11a2.44 2.44 0 0 0-.06.43 1.234 1.234 0 0 0 0 .32.615.615 0 0 0 .04.14c.047.047.11.107.19.18.087.067.207.077.36.03.127-.033.25-.12.37-.26.127-.14.244-.253.35-.34a.16.16 0 0 1 .13-.08.453.453 0 0 1 .21.01c.074.047.104.103.09.17-.006.06-.04.153-.1.28a.657.657 0 0 1-.14.18 3.778 3.778 0 0 1-.23.21 1.306 1.306 0 0 1-.78.33c-.173 0-.34-.03-.5-.09Zm.59-2.03c.147-.033.264-.057.35-.07a.556.556 0 0 0 .25-.11c.08-.067.18-.19.3-.37a.417.417 0 0 0 .02-.22c-.006-.073-.023-.123-.05-.15a.197.197 0 0 0-.22-.06.664.664 0 0 0-.23.11.98.98 0 0 0-.21.15 2.45 2.45 0 0 0-.26.26c-.086.093-.156.18-.21.26-.053.08-.066.127-.04.14-.013.027.024.043.11.05.094.007.157.01.19.01Zm2.462 2.04c-.033.067-.083.087-.15.06a1.02 1.02 0 0 1-.15-.08.186.186 0 0 1-.12-.04.214.214 0 0 1-.07-.12.317.317 0 0 1-.01-.14c.007-.06.02-.127.04-.2a6.3 6.3 0 0 0 .08-.26c.054-.22.09-.38.11-.48.02-.1.04-.187.06-.26.02-.073.047-.18.08-.32.054-.133.097-.263.13-.39.034-.127.084-.253.15-.38.047-.173.104-.337.17-.49.074-.16.144-.293.21-.4a.584.584 0 0 1 .07-.08c.04-.033.074-.05.1-.05.054-.053.1-.073.14-.06a.385.385 0 0 1 .17.09c.08.087.11.187.09.3-.013.113-.093.28-.24.5-.08.207-.153.387-.22.54a1.94 1.94 0 0 0-.14.42 2.05 2.05 0 0 1 .24-.29l.23-.23a3.17 3.17 0 0 1 .36-.32c.1-.067.217-.143.35-.23.08-.053.157-.1.23-.14a.762.762 0 0 1 .24-.1.757.757 0 0 1 .3 0 .175.175 0 0 1 .16.06c.047.047.084.11.11.19.027.08.044.173.05.28a.702.702 0 0 0-.41.02c-.12.04-.223.09-.31.15-.08.06-.143.107-.19.14-.1.067-.226.157-.38.27a3.413 3.413 0 0 0-.46.39c-.12.133-.223.247-.31.34-.08.093-.146.177-.2.25-.046.073-.083.15-.11.23-.066.153-.136.32-.21.5-.073.18-.136.29-.19.33Zm4.214.06a.767.767 0 0 1-.25-.05.468.468 0 0 1-.1-.16.563.563 0 0 1-.1-.14.206.206 0 0 1 0-.09h.09c.027-.007.043-.02.05-.04 0-.02.01-.033.03-.04a.162.162 0 0 1 .08 0c.126.007.286-.033.48-.12.2-.093.413-.22.64-.38.233-.167.46-.35.68-.55.173-.227.3-.403.38-.53a.995.995 0 0 0 .14-.32.337.337 0 0 0-.03-.22c-.027-.053-.123-.073-.29-.06-.167.007-.354.077-.56.21-.287.18-.517.347-.69.5a3.585 3.585 0 0 0-.48.52 1.887 1.887 0 0 0-.16.24l-.12.24-.05.1c0 .027-.04.06-.12.1a.412.412 0 0 1-.19.06.91.91 0 0 1-.11-.07.299.299 0 0 1-.08-.15.853.853 0 0 1-.1-.08.148.148 0 0 1-.04-.07.47.47 0 0 1 .03-.19c.026-.087.063-.223.11-.41.04-.173.083-.353.13-.54.053-.187.103-.347.15-.48.046-.133.08-.207.1-.22l.04-.09c.026-.06.04-.13.04-.21a.875.875 0 0 1 .06-.21.322.322 0 0 0 .05-.13c.026-.02.067-.1.12-.24.053-.14.12-.323.2-.55a.85.85 0 0 1 .07-.19 32.025 32.025 0 0 0 .37-.86c.073-.167.133-.313.18-.44.08-.113.14-.217.18-.31.046-.1.093-.16.14-.18a.258.258 0 0 1 .12.01.398.398 0 0 1 .15.05.337.337 0 0 1 .17.21c.006.027-.004.077-.03.15a50.722 50.722 0 0 1-.49 1.05 16.71 16.71 0 0 0-.76 1.9c-.08.24-.153.447-.22.62l-.05.22.25-.24c.1-.073.21-.163.33-.27.12-.107.227-.2.32-.28.053-.04.123-.08.21-.12a2.81 2.81 0 0 1 .27-.12c.087-.033.15-.053.19-.06a1.8 1.8 0 0 1 .44-.05.56.56 0 0 1 .35.1c.093.067.183.173.27.32.073.14.103.3.09.48a1.09 1.09 0 0 1-.16.49.55.55 0 0 0-.1.11c-.033.04-.05.073-.05.1-.007.047-.067.143-.18.29-.114.14-.227.273-.34.4a3.25 3.25 0 0 1-.44.38c-.174.12-.347.23-.52.33-.167.093-.31.16-.43.2-.053.007-.13.02-.23.04-.1.013-.177.027-.23.04Zm-30.282 7.72c-.1 0-.193-.06-.28-.18a1.444 1.444 0 0 1-.18-.48 2.73 2.73 0 0 1-.03-.62c0-.213.01-.383.03-.51l.08-.39c.02-.04.03-.073.03-.1a1.1 1.1 0 0 0 .02-.13l.07-.3a2.55 2.55 0 0 1 .08-.28.43.43 0 0 1 .08-.15.195.195 0 0 1 .13-.07.264.264 0 0 1 .29.12c.04.033.06.11.06.23.007.113 0 .233-.02.36a.613.613 0 0 1-.09.26 1.57 1.57 0 0 0-.05.26c-.013.14-.03.287-.05.44-.013.153-.03.277-.05.37-.02.12-.01.217.03.29.047.073.13.077.25.01.127-.073.294-.26.5-.56.14-.2.247-.363.32-.49.074-.127.13-.243.17-.35.047-.113.094-.233.14-.36.034-.107.064-.193.09-.26a.383.383 0 0 1 .09-.14.224.224 0 0 1 .16-.04c.067.007.14.037.22.09.08.08.12.177.12.29 0 .107-.04.24-.12.4a2.937 2.937 0 0 0-.16.41 6.289 6.289 0 0 0-.12.51c-.026.167-.04.303-.04.41 0 .133.017.213.05.24.04.02.087.03.14.03.08 0 .177-.03.29-.09.114-.06.24-.163.38-.31.06-.06.134-.147.22-.26.087-.12.17-.243.25-.37a4.53 4.53 0 0 0 .21-.35c.06-.1.09-.163.09-.19 0-.04.03-.097.09-.17L45 41a.42.42 0 0 1 .14-.1c.054-.027.1-.03.14-.01a.32.32 0 0 1 .13.1c.034.027.05.067.05.12.007.053.01.12.01.2a3.08 3.08 0 0 1-.1.29c-.04.113-.086.223-.14.33a.979.979 0 0 1-.12.21 5.22 5.22 0 0 0-.14.15 1.54 1.54 0 0 0-.18.22c-.166.2-.286.33-.36.39a2.59 2.59 0 0 0-.19.17 1.59 1.59 0 0 1-.44.32c-.153.067-.3.1-.44.1a.57.57 0 0 1-.34-.1c-.206-.107-.31-.287-.31-.54a.31.31 0 0 0-.03-.14l-.02-.07a.43.43 0 0 0-.11.02c-.04.013-.083.06-.13.14a1.32 1.32 0 0 1-.29.35c-.126.113-.256.21-.39.29-.133.073-.24.11-.32.11Zm6.156.1a.88.88 0 0 1-.49.21c-.18.02-.356-.007-.53-.08a1.07 1.07 0 0 1-.43-.36 1.131 1.131 0 0 1-.22-.5 3.027 3.027 0 0 1-.01-.75c.02-.26.104-.52.25-.78.147-.267.324-.503.53-.71a1.94 1.94 0 0 1 .63-.43c.1-.067.184-.097.25-.09.074 0 .184.007.33.02.154.02.267.05.34.09.08.04.144.093.19.16a.787.787 0 0 1 .25.58c-.026.147-.126.327-.3.54a1.9 1.9 0 0 1-.66.51 1.394 1.394 0 0 1-.48.06.783.783 0 0 1-.43-.13c-.126-.053-.21-.043-.25.03-.04.067-.076.233-.11.5-.026.253-.006.44.06.56.067.113.157.18.27.2.134.027.237.047.31.06a.513.513 0 0 0 .29-.09c.107-.067.174-.103.2-.11a.231.231 0 0 0 .06-.04l.13-.13a1.15 1.15 0 0 1 .11-.1.124.124 0 0 1 .09-.04c.034 0 .064.017.09.05a.314.314 0 0 0 .08.06c.067 0 .08.04.04.12-.033.08-.103.177-.21.29a2.213 2.213 0 0 1-.38.3Zm-.01-2.12c.074-.033.15-.08.23-.14.08-.067.147-.137.2-.21.06-.08.09-.147.09-.2a.27.27 0 0 0-.13-.23c-.086-.067-.216-.077-.39-.03a.687.687 0 0 0-.25.15 2.359 2.359 0 0 0-.27.25c-.08.093-.146.177-.2.25-.046.073-.063.117-.05.13.02.033.077.06.17.08.094.013.197.017.31.01a.821.821 0 0 0 .29-.06Zm2.112 2.16c-.02.007-.053.003-.1-.01a1.162 1.162 0 0 1-.14-.05.324.324 0 0 1-.09-.05.464.464 0 0 1-.08-.12.438.438 0 0 1 0-.23c.02-.107.087-.243.2-.41.034-.067.074-.167.12-.3.047-.133.094-.273.14-.42.054-.153.1-.29.14-.41.047-.12.08-.203.1-.25.014-.113.007-.193-.02-.24-.02-.053-.076-.083-.17-.09a.521.521 0 0 1-.16-.02c-.033-.013-.05-.08-.05-.2.014-.093.037-.157.07-.19.04-.04.094-.083.16-.13a.752.752 0 0 1 .41-.08c.067.007.12.03.16.07.047.027.077.087.09.18.014.087.02.177.02.27.007.093.014.163.02.21.067-.053.157-.127.27-.22.12-.1.224-.193.31-.28.107-.073.234-.147.38-.22.147-.08.254-.12.32-.12.074 0 .147.02.22.06a.294.294 0 0 1 .15.13.529.529 0 0 1 .09.3.442.442 0 0 1-.11.27.515.515 0 0 1-.25.18.751.751 0 0 1-.18.05c-.04 0-.09-.03-.15-.09s-.093-.11-.1-.15c0-.02-.043 0-.13.06-.08.053-.17.123-.27.21-.1.08-.183.153-.25.22-.113.14-.233.33-.36.57-.126.24-.276.53-.45.87-.08.167-.136.31-.17.43-.033.113-.08.18-.14.2Zm5.224.28a.337.337 0 0 1-.16.03 2.11 2.11 0 0 1-.21-.15.759.759 0 0 1-.09-.21 4.084 4.084 0 0 1-.01-.35c.013-.1.04-.243.08-.43.047-.187.1-.383.16-.59l.16-.56c.053-.167.093-.28.12-.34.047-.16.057-.257.03-.29-.027-.04-.107-.067-.24-.08-.267-.033-.507.053-.72.26a4.517 4.517 0 0 0-.64.81c-.16.247-.257.46-.29.64-.027.173-.03.293-.01.36.02.053.067.083.14.09a.674.674 0 0 0 .24-.05c.093-.033.173-.067.24-.1.047-.027.103-.053.17-.08.073-.033.143-.063.21-.09.04 0 .067.013.08.04.02.02.03.063.03.13 0 .027.01.05.03.07.02.02.043.037.07.05.027.027-.013.087-.12.18-.1.093-.257.2-.47.32-.2.047-.363.07-.49.07a.57.57 0 0 1-.35-.13c-.187-.113-.293-.297-.32-.55-.02-.26.033-.577.16-.95.127-.3.267-.543.42-.73.153-.193.317-.38.49-.56a1.76 1.76 0 0 1 .55-.28c.167-.053.323-.087.47-.1a.56.56 0 0 1 .38.09c.12.027.197.023.23-.01.033-.04.09-.16.17-.36.133-.333.263-.67.39-1.01.127-.347.263-.697.41-1.05.067-.127.107-.223.12-.29a.348.348 0 0 1 .07-.15h.19c.027 0 .073.023.14.07.067.047.113.11.14.19 0 .06-.027.193-.08.4-.053.2-.14.44-.26.72-.107.247-.213.497-.32.75-.1.247-.197.51-.29.79-.073.207-.14.373-.2.5s-.1.237-.12.33c-.04.173-.09.33-.15.47l-.11.28c-.087.253-.157.46-.21.62a4.694 4.694 0 0 0-.12.39 1.58 1.58 0 0 0-.05.31c0 .1.01.22.03.36a.327.327 0 0 1-.01.08c-.007.027-.033.057-.08.09Zm2.656.06a.901.901 0 0 1-.72-.33c-.187-.227-.277-.507-.27-.84.013-.24.06-.497.14-.77.086-.28.2-.547.34-.8.14-.26.293-.487.46-.68a1.514 1.514 0 0 1 .73-.49c.08-.02.16-.03.24-.03.073 0 .15.013.23.04.08.02.146.043.2.07.113.047.2.103.26.17.06.067.113.17.16.31.02.127.03.217.03.27a.897.897 0 0 1-.05.24 2.25 2.25 0 0 1-.31.62c-.127.173-.297.32-.51.44a.711.711 0 0 1-.19.08 1.118 1.118 0 0 1-.6-.05.708.708 0 0 1-.29-.23l-.07-.08-.03.08c-.067.18-.12.347-.16.5-.034.153-.05.293-.05.42 0 .08.006.157.02.23.02.073.046.137.08.19.026.04.07.07.13.09.066.013.136.02.21.02h.14a.555.555 0 0 0 .15-.04c.113-.04.203-.083.27-.13a4.38 4.38 0 0 0 .22-.15l.04-.02h-.01c.08-.04.15-.08.21-.12l.1-.06c.026 0 .053-.017.08-.05.053-.027.12-.017.2.03.086.047.13.107.13.18a.51.51 0 0 1-.09.16 1.69 1.69 0 0 1-.18.19c-.06.06-.11.093-.15.1a.39.39 0 0 1-.07.04.217.217 0 0 0-.08.04h.01c-.06.08-.12.12-.18.12h-.08c-.027.047-.114.1-.26.16-.147.053-.29.08-.43.08Zm.45-2.2c.12 0 .223-.033.31-.1.093-.073.173-.153.24-.24.133-.18.21-.353.23-.52.026-.173.006-.293-.06-.36a.249.249 0 0 0-.11-.03c-.027-.007-.084.003-.17.03a.706.706 0 0 0-.25.15 2.98 2.98 0 0 0-.55.56l-.13.21a.428.428 0 0 1 .15-.03c.053-.007.083-.003.09.01 0 .06.01.117.03.17a.378.378 0 0 0 .09.11.23.23 0 0 0 .13.04Zm5.382 1.71a.62.62 0 0 1-.33-.08.682.682 0 0 1-.22-.29 3.101 3.101 0 0 1-.07-.31 2.85 2.85 0 0 1-.02-.33c0-.107.01-.177.03-.21.026-.027.036-.073.03-.14v-.23c-.007-.133-.04-.207-.1-.22-.054-.02-.134 0-.24.06-.12.073-.277.173-.47.3-.194.12-.397.253-.61.4-.207.147-.404.3-.59.46-.147.16-.237.283-.27.37-.027.08-.067.12-.12.12-.054.027-.1.03-.14.01l-.15-.12a3.066 3.066 0 0 0-.14-.15.68.68 0 0 1-.09-.12c0-.033.01-.103.03-.21.02-.107.043-.213.07-.32.033-.107.056-.177.07-.21.033 0 .06-.033.08-.1a1.23 1.23 0 0 1 .12-.22 1.66 1.66 0 0 1 .1-.32l.16-.37c.093-.16.156-.293.19-.4.04-.107.066-.24.08-.4a.07.07 0 0 1 .02-.07c.02-.027.043-.04.07-.04a.168.168 0 0 1 .19-.04c.073.02.14.07.2.15a.65.65 0 0 1 .14.5c-.02.167-.127.407-.32.72l-.11.25a.392.392 0 0 0-.03.13l.1-.07c.073-.047.153-.1.24-.16a4.62 4.62 0 0 1 .22-.15 2.39 2.39 0 0 1 .23-.18c.12-.087.246-.17.38-.25.14-.087.243-.137.31-.15.053-.027.11-.05.17-.07a.377.377 0 0 1 .13-.04c.053 0 .12.03.2.09.086.053.166.12.24.2a.456.456 0 0 1 .13.19v.08l.02.08c.026.087.04.203.04.35.006.147.003.28-.01.4-.014.12-.037.19-.07.21v.03c.006.013.023.02.05.02v.05c-.034 0-.047.03-.04.09a.572.572 0 0 0 .06.18c.04.067.08.12.12.16.08.08.113.157.1.23-.014.067-.074.113-.18.14Z"/>
    <path fill="#580DD9" d="M108.61 39.24h-.1c-.04.007-.077-.02-.11-.08a.284.284 0 0 1-.05-.15c0-.067.017-.187.05-.36.033-.113.06-.227.08-.34.02-.107.03-.187.03-.24 0-.027.007-.08.02-.16a.693.693 0 0 0 .03-.16.703.703 0 0 0 .08-.22c.02-.093.03-.177.03-.25 0-.08.04-.153.12-.22 0-.053.01-.12.03-.2a.638.638 0 0 0 .04-.16c.02-.093.063-.257.13-.49.073-.24.16-.51.26-.81.107-.3.21-.593.31-.88.1-.287.19-.53.27-.73a2.55 2.55 0 0 0 .16-.48c.033-.14.05-.243.05-.31 0-.027.007-.047.02-.06.013-.02.043-.057.09-.11.067-.067.123-.087.17-.06.053.027.117.067.19.12.053.087.09.16.11.22.027.06.027.163 0 .31 0 .1-.017.187-.05.26a1.2 1.2 0 0 1-.09.17c-.027.033-.033.047-.02.04.273-.127.513-.193.72-.2a.883.883 0 0 1 .53.11.77.77 0 0 1 .33.34 1.07 1.07 0 0 1 .06.8 1.51 1.51 0 0 1-.13.3.845.845 0 0 1-.13.19c-.027 0-.053.023-.08.07a1.31 1.31 0 0 0-.08.14c-.053.067-.14.143-.26.23-.113.08-.227.147-.34.2-.113.047-.197.06-.25.04l-.03.01c-.013 0-.02.017-.02.05 0 .013-.053.043-.16.09-.107.04-.23.08-.37.12a1.64 1.64 0 0 1-.37.05c-.14 0-.24-.027-.3-.08a.623.623 0 0 0-.05.06.166.166 0 0 0-.02.07c0 .04-.017.117-.05.23-.027.107-.06.21-.1.31-.04.1-.077.15-.11.15l-.02.03c-.013.02-.007.047.02.08l-.01.11c0 .08-.017.147-.05.2 0 .053-.01.133-.03.24a.945.945 0 0 1-.07.24.66.66 0 0 1-.04.23c-.02.08-.043.12-.07.12-.027.007-.043.047-.05.12a2.18 2.18 0 0 0-.01.17.781.781 0 0 1-.1.39c-.06.093-.13.14-.21.14Zm1.21-3.34c.053 0 .163-.023.33-.07.167-.047.337-.103.51-.17a1.53 1.53 0 0 0 .4-.22 1.65 1.65 0 0 0 .4-.52c.1-.2.093-.39-.02-.57-.053-.093-.15-.13-.29-.11a1.19 1.19 0 0 0-.46.16c-.167.093-.323.21-.47.35-.08.087-.153.193-.22.32a3.167 3.167 0 0 0-.17.38c-.04.127-.063.233-.07.32-.007.087.013.13.06.13Zm3.029.74a.297.297 0 0 0-.1-.12c-.04-.033-.06-.063-.06-.09a.313.313 0 0 0-.01-.08.123.123 0 0 0-.04-.09c-.033-.04-.03-.13.01-.27.04-.147.107-.323.2-.53.094-.213.204-.437.33-.67.054-.053.107-.123.16-.21.054-.087.094-.143.12-.17 0-.027.01-.05.03-.07.02-.027.044-.04.07-.04v-.06c0-.033.03-.09.09-.17.067-.08.147-.167.24-.26.094-.1.19-.193.29-.28.1-.093.184-.16.25-.2.14-.093.284-.15.43-.17a.49.49 0 0 1 .39.1l.1.1.16.16c.067.053.134.11.2.17l.37.33-.18.5c-.086.267-.11.5-.07.7.047.2.114.373.2.52a.54.54 0 0 0 .2.21.788.788 0 0 0 .3.12.32.32 0 0 1 .15.06c.047.033.07.087.07.16a.28.28 0 0 1-.04.16c-.026.04-.073.067-.14.08a.877.877 0 0 1-.62-.16c-.186-.133-.36-.353-.52-.66a1.747 1.747 0 0 1-.11-.22 2.279 2.279 0 0 1-.07-.22l-.15.19c-.073.087-.13.15-.17.19-.473.48-.883.803-1.23.97-.34.16-.623.167-.85.02Zm.36-.56c0 .047.07.047.21 0 .147-.053.304-.147.47-.28a9.75 9.75 0 0 0 .68-.64c.234-.233.42-.45.56-.65l.22-.36c-.066-.153-.14-.257-.22-.31-.073-.06-.136-.09-.19-.09-.086 0-.216.08-.39.24a4.9 4.9 0 0 0-.54.64c-.193.267-.376.56-.55.88a7.564 7.564 0 0 0-.18.39l-.07.18Zm4.546.61c-.02.007-.054.003-.1-.01a1.11 1.11 0 0 1-.14-.05.315.315 0 0 1-.09-.05.442.442 0 0 1-.08-.12.438.438 0 0 1 0-.23c.02-.107.086-.243.2-.41.033-.067.073-.167.12-.3.046-.133.093-.273.14-.42l.14-.41c.046-.12.08-.203.1-.25.013-.113.006-.193-.02-.24-.02-.053-.077-.083-.17-.09a.52.52 0 0 1-.16-.02c-.034-.013-.05-.08-.05-.2.013-.093.036-.157.07-.19.04-.04.093-.083.16-.13a.751.751 0 0 1 .41-.08c.066.007.12.03.16.07.046.027.076.087.09.18.013.087.02.177.02.27.006.093.013.163.02.21l.27-.22c.12-.1.223-.193.31-.28a3.12 3.12 0 0 1 .38-.22c.146-.08.253-.12.32-.12.073 0 .146.02.22.06a.297.297 0 0 1 .15.13.539.539 0 0 1 .09.3.444.444 0 0 1-.11.27.517.517 0 0 1-.25.18.766.766 0 0 1-.18.05c-.04 0-.09-.03-.15-.09s-.094-.11-.1-.15c0-.02-.044 0-.13.06-.08.053-.17.123-.27.21-.1.08-.184.153-.25.22-.114.14-.234.33-.36.57-.127.24-.277.53-.45.87-.08.167-.137.31-.17.43-.034.113-.08.18-.14.2Zm3.893.81c-.22-.033-.37-.117-.45-.25-.073-.127-.09-.323-.05-.59.04-.127.063-.24.07-.34.013-.107.043-.173.09-.2l.01-.03c.013-.02.01-.04-.01-.06 0-.087.03-.207.09-.36.013-.04.03-.087.05-.14l.04-.09c-.033-.053-.033-.097 0-.13a1.23 1.23 0 0 1 .1-.09c.04-.033.043-.07.01-.11-.013-.027.003-.087.05-.18.047-.1.1-.203.16-.31.06-.107.1-.19.12-.25 0-.013.017-.06.05-.14a13.09 13.09 0 0 1 .25-.57c.047-.087.077-.143.09-.17.067-.033.04-.057-.08-.07a2.371 2.371 0 0 0-.38-.01 7.248 7.248 0 0 1-.5-.03.757.757 0 0 1-.3-.09c-.08-.093-.11-.16-.09-.2.027-.047.107-.073.24-.08.087-.007.153-.01.2-.01.053 0 .12-.003.2-.01.087-.013.22-.03.4-.05l.51-.04.03-.17a3.057 3.057 0 0 0 .23-.45c.027-.073.047-.15.06-.23l.09-.16a.966.966 0 0 0 .11-.35c.08-.133.15-.253.21-.36.06-.113.097-.183.11-.21.073-.06.123-.09.15-.09.033 0 .1.033.2.1.06.033.113.073.16.12a.319.319 0 0 1 .09.15c.013.047-.007.093-.06.14a1.918 1.918 0 0 0-.06.15 1.64 1.64 0 0 0-.06.17c-.04.047-.09.123-.15.23-.053.1-.09.203-.11.31a11.92 11.92 0 0 1-.15.31c-.047.087-.083.13-.11.13.013.067.053.1.12.1.067-.007.177-.013.33-.02.127-.013.213-.027.26-.04.053-.02.113-.013.18.02.033.047.06.1.08.16.02.06.023.117.01.17a.123.123 0 0 1-.08.1.811.811 0 0 0-.21.06c-.1.033-.227.053-.38.06l-.53.05-.17.34a3.667 3.667 0 0 0-.12.24.609.609 0 0 1-.07.12c0 .04-.023.1-.07.18l-.13.26c-.04.113-.087.217-.14.31l-.07.14c-.027 0-.04.02-.04.06.033.08.023.14-.03.18a.296.296 0 0 0-.09.09l-.03.05c.027.027.03.06.01.1a.69.69 0 0 1-.06.13.81.81 0 0 1-.05.23c-.027.1-.057.193-.09.28.007.12.013.197.02.23.007.033.023.047.05.04a.204.204 0 0 0 .09 0 .327.327 0 0 1 .08-.01c.093-.04.043.193-.15.7-.107.167-.18.287-.22.36-.04.08-.077.12-.11.12Zm2.911-.81c-.1-.013-.187-.083-.26-.21a1.121 1.121 0 0 1-.12-.36c.006-.053.013-.13.02-.23l.04-.31c.026-.127.063-.28.11-.46l.14-.56c.053-.187.1-.347.14-.48a2.16 2.16 0 0 1 .08-.24c.033-.053.086-.067.16-.04a.433.433 0 0 1 .18.12c.04.053.063.117.07.19a.854.854 0 0 1-.03.32c-.027.14-.08.347-.16.62-.074.267-.13.483-.17.65-.034.16-.047.33-.04.51a5.1 5.1 0 0 1-.06.42c-.014.047-.047.067-.1.06Zm1.15-3.99a.135.135 0 0 1-.08.03.652.652 0 0 1-.11-.06.443.443 0 0 1-.18-.09 2.182 2.182 0 0 1-.18-.18.407.407 0 0 1-.07-.12 1.054 1.054 0 0 1 .01-.25c.02-.107.056-.2.11-.28a.278.278 0 0 1 .23-.14c.026 0 .05.003.07.01.02.007.08.03.18.07.053.1.106.213.16.34.053.12.076.24.07.36-.007.113-.077.217-.21.31Zm.615 4.02c-.254.033-.444.057-.57.07a.71.71 0 0 1-.29-.03.781.781 0 0 1-.2-.14.193.193 0 0 1-.07-.19c.02-.073.133-.217.34-.43.126-.153.256-.297.39-.43.133-.14.253-.253.36-.34.046-.04.1-.08.16-.12a7.3 7.3 0 0 1 .29-.21 32.7 32.7 0 0 1 .59-.4 8.617 8.617 0 0 1 .48-.36l.16-.12a6.938 6.938 0 0 0-.31-.03 2.319 2.319 0 0 0-.43 0h-.36a1.325 1.325 0 0 1-.16-.03h-.15a.73.73 0 0 1-.18-.04 1.318 1.318 0 0 1-.24-.12c-.074-.047-.114-.093-.12-.14l.06-.03a.672.672 0 0 0 .1-.08 2.02 2.02 0 0 0 .12-.08c.033-.02.063-.017.09.01h.19c.126-.007.27-.013.43-.02.386.007.67.02.85.04.186.013.323.04.41.08.093.04.183.1.27.18.106.107.15.21.13.31-.02.1-.067.19-.14.27a.942.942 0 0 0-.08.09c-.02.027-.04.04-.06.04l-.14.09-.34.22a6.238 6.238 0 0 1-.38.24 1 1 0 0 0-.22.16 2.093 2.093 0 0 0-.17.11.737.737 0 0 0-.14.1c-.02.027-.067.073-.14.14-.067.067-.14.127-.22.18-.06.053-.134.12-.22.2l-.21.21-.09.09.2-.02c.133-.02.3-.037.5-.05.2-.02.396-.023.59-.01.313-.007.56-.013.74-.02.186-.013.326-.017.42-.01.1 0 .176.013.23.04.046.013.086.04.12.08.04.04.066.083.08.13.02.04.023.07.01.09-.027 0-.13.01-.31.03-.18.013-.387.027-.62.04-.307.027-.604.06-.89.1-.287.04-.574.077-.86.11Zm2.944-.21a.328.328 0 0 1-.1-.02l-.05-.03c0-.027-.01-.06-.03-.1a.34.34 0 0 1-.02-.1c-.047-.027-.073-.053-.08-.08-.007-.033.003-.087.03-.16.04-.067.093-.173.16-.32.067-.153.137-.317.21-.49.073-.18.143-.357.21-.53l.17-.44c.047-.127.073-.203.08-.23a.374.374 0 0 1 .1-.2c.053-.047.11-.05.17-.01.06.033.11.093.15.18.047.08.07.17.07.27 0 .047-.033.167-.1.36-.067.187-.157.41-.27.67-.107.26-.227.523-.36.79l-.19.37c-.027.047-.077.07-.15.07Zm1.47-3.79a.487.487 0 0 1-.26-.09 1.127 1.127 0 0 1-.23-.24c-.06-.1-.09-.2-.09-.3 0-.033.02-.08.06-.14l.12-.18a.36.36 0 0 0 .06-.11c.053 0 .093.003.12.01.033 0 .073.013.12.04.073.167.163.303.27.41.113.107.17.197.17.27 0 .147-.013.24-.04.28-.027.033-.127.05-.3.05Zm.245 6.03c-.08.053-.163.05-.25-.01a.538.538 0 0 1-.18-.27.578.578 0 0 1 .01-.38c.014-.04.034-.107.06-.2.027-.087.044-.163.05-.23.007-.047.027-.127.06-.24.034-.107.07-.213.11-.32.047-.107.084-.183.11-.23a.622.622 0 0 0 .08-.23.963.963 0 0 0 .03-.2 5.3 5.3 0 0 1 .05-.16.694.694 0 0 1 .08-.14c.014-.053.034-.11.06-.17a.841.841 0 0 1 .09-.17.871.871 0 0 0 .03-.17c.014-.067.034-.103.06-.11a.313.313 0 0 0 .01-.08.83.83 0 0 1 .04-.11c.014-.073.044-.18.09-.32.047-.14.104-.293.17-.46a1.38 1.38 0 0 0 .1-.55c0-.18-.05-.29-.15-.33a.182.182 0 0 1-.1-.11.231.231 0 0 1 .02-.16.218.218 0 0 1 .12-.11.37.37 0 0 1 .19-.03c.074.007.137.02.19.04.054.013.077.027.07.04 0 .033.017.053.05.06.014-.02.04.003.08.07.047.06.09.13.13.21.04.08.06.137.06.17a.187.187 0 0 0-.02.05h.04l.11-.05c.074-.04.15-.083.23-.13a.982.982 0 0 0 .17-.12l.05-.02a.37.37 0 0 0 .1-.07.722.722 0 0 1 .43-.03c.16.033.287.093.38.18.134.167.2.327.2.48.007.153-.036.347-.13.58a6.55 6.55 0 0 1-.21.38l-.06.09c-.153.24-.333.44-.54.6-.206.16-.416.3-.63.42a.878.878 0 0 1-.21.11 1.09 1.09 0 0 1-.18.04c-.053 0-.09-.007-.11-.02-.073-.053-.14-.167-.2-.34l-.1.26a3.92 3.92 0 0 0-.05.16 1.537 1.537 0 0 1-.02.12.121.121 0 0 1-.05.07l-.01.04a.387.387 0 0 1-.07.12c-.066.193-.126.36-.18.5a5.443 5.443 0 0 0-.21.65 2.07 2.07 0 0 1-.11.53c-.06.18-.106.28-.14.3Zm1.19-2.85c.027-.013.084-.05.17-.11.094-.067.197-.143.31-.23.114-.093.217-.18.31-.26a1.53 1.53 0 0 0 .35-.37.946.946 0 0 0 .11-.24l.07-.18c.027-.067.05-.13.07-.19a.27.27 0 0 0 .03-.16c0-.06-.02-.11-.06-.15-.026-.007-.106.013-.24.06-.133.04-.28.11-.44.21-.16.093-.3.217-.42.37-.14.18-.243.367-.31.56-.06.193-.086.357-.08.49.014.133.057.2.13.2Zm5.892 1.41c-.047-.073-.154-.12-.32-.14a3.34 3.34 0 0 0-.59-.01.611.611 0 0 1-.27-.02.421.421 0 0 1-.21-.11c-.047-.047-.064-.097-.05-.15.006-.08.073-.143.2-.19.133-.047.343-.073.63-.08l.53-.01.1-.2c.026-.073.06-.177.1-.31l.13-.43c.026-.093.066-.22.12-.38l.17-.51.16-.48c.046-.147.076-.25.09-.31.026-.06.063-.16.11-.3.046-.147.09-.293.13-.44.046-.153.076-.263.09-.33.173-.527.286-.9.34-1.12.053-.227.066-.343.04-.35a9.024 9.024 0 0 0-.54.04c-.12.007-.23.017-.33.03a.546.546 0 0 0-.17.04c-.034.047-.09.057-.17.03-.08-.027-.13-.073-.15-.14a1.266 1.266 0 0 1-.01-.14.115.115 0 0 1 .06-.08.899.899 0 0 1 .27-.13c.133-.053.283-.1.45-.14.173-.04.336-.07.49-.09.113-.013.226-.037.34-.07a.934.934 0 0 0 .27-.14c.06-.02.116-.037.17-.05a.546.546 0 0 1 .18-.01c.053.033.143.05.27.05.133 0 .273-.003.42-.01.373-.033.623-.043.75-.03.133.013.223.067.27.16.033.127.04.227.02.3-.02.067-.087.097-.2.09a2.91 2.91 0 0 1-.33.04l-.49.02c-.474.04-.727.087-.76.14a.715.715 0 0 0-.07.08.614.614 0 0 1-.06.09c.006.027-.01.113-.05.26-.034.14-.077.283-.13.43-.027.087-.067.21-.12.37-.054.16-.11.327-.17.5l-.15.46a5.74 5.74 0 0 1-.1.27 1.36 1.36 0 0 0-.1.35 28.46 28.46 0 0 1-.25.83c-.067.227-.13.427-.19.6-.054.167-.104.33-.15.49a24.49 24.49 0 0 0-.15.51l.15-.01c.106-.013.246-.027.42-.04.313-.033.536-.053.67-.06.14-.007.233.003.28.03.046.02.08.06.1.12.133.18.15.303.05.37-.1.067-.337.097-.71.09l-.8.03a2.28 2.28 0 0 0-.38.05c-.067.02-.107.053-.12.1 0 .053-.027.08-.08.08a.653.653 0 0 1-.2-.04Zm4.129.24c-.054-.067-.164-.107-.33-.12a3.595 3.595 0 0 0-.59.01.73.73 0 0 1-.27-.01.471.471 0 0 1-.21-.1c-.054-.047-.074-.1-.06-.16.006-.08.073-.143.2-.19.126-.053.333-.087.62-.1l.53-.03.1-.21c.02-.073.046-.177.08-.31a24.346 24.346 0 0 1 .24-.84l.19-.59.18-.56c.053-.167.083-.28.09-.34.026-.06.063-.17.11-.33l.14-.49c.046-.173.076-.293.09-.36.153-.533.253-.913.3-1.14.046-.227.056-.34.03-.34a4.439 4.439 0 0 0-.54.05c-.12.013-.23.03-.33.05-.094.013-.147.027-.16.04-.034.047-.09.06-.17.04a.241.241 0 0 1-.16-.14 1.266 1.266 0 0 1-.01-.14.124.124 0 0 1 .05-.08c.046-.04.133-.087.26-.14.133-.053.283-.103.45-.15.173-.047.336-.083.49-.11.113-.013.226-.04.34-.08a.928.928 0 0 0 .26-.15.967.967 0 0 1 .17-.06.546.546 0 0 1 .18-.01.65.65 0 0 0 .27.04c.133-.007.273-.017.42-.03.373-.047.626-.063.76-.05.133.007.223.057.27.15.033.12.04.217.02.29-.014.073-.077.107-.19.1-.06.02-.17.037-.33.05-.154.013-.317.027-.49.04a4.481 4.481 0 0 0-.54.09c-.127.027-.197.053-.21.08a.715.715 0 0 0-.07.08.614.614 0 0 1-.06.09c.013.027.003.113-.03.26-.034.14-.074.287-.12.44l-.12.39-.17.53a53.72 53.72 0 0 1-.15.51c-.047.147-.08.243-.1.29-.02.06-.04.127-.06.2a.784.784 0 0 0-.02.15c-.107.433-.207.803-.3 1.11-.094.3-.18.57-.26.81-.074.24-.14.483-.2.73l.15-.01c.106-.013.246-.033.42-.06a13.7 13.7 0 0 1 .55-.07c.133-.013.233-.017.3-.01.066 0 .11.013.13.04.026.02.05.053.07.1.14.173.16.293.06.36-.094.067-.327.107-.7.12l-.8.06c-.18.02-.307.04-.38.06-.067.02-.104.053-.11.1 0 .033-.014.057-.04.07-.02.02-.054.027-.1.02a.763.763 0 0 1-.14-.04Zm-28.684 7.03a.608.608 0 0 1-.32-.37 1.713 1.713 0 0 1-.07-.55c.007-.2.01-.357.01-.47.007-.113-.017-.17-.07-.17-.053 0-.157.053-.31.16-.147.1-.317.237-.51.41s-.39.367-.59.58a6.159 6.159 0 0 1-.2.21c-.06.06-.12.1-.18.12-.06.013-.13-.01-.21-.07l-.11-.09a.206.206 0 0 1-.06-.1.295.295 0 0 1 .01-.13l.23-.66c.107-.24.18-.413.22-.52a.974.974 0 0 0 .06-.21c0-.033-.01-.047-.03-.04a.766.766 0 0 0-.24.1.512.512 0 0 0-.21.16c-.027 0-.067.03-.12.09-.053.06-.12.117-.2.17a1.51 1.51 0 0 1-.28.31c-.133.127-.267.257-.4.39a2.021 2.021 0 0 0-.26.27l-.21.28c-.053.08-.09.12-.11.12a.436.436 0 0 1-.24-.07.419.419 0 0 1-.15-.23c-.053-.113-.053-.27 0-.47.053-.207.113-.473.18-.8.027-.1.043-.173.05-.22.007-.047.017-.093.03-.14l.09-.24.21-.48a1.36 1.36 0 0 0 .08-.28.881.881 0 0 0 .02-.14c0-.067.017-.123.05-.17a.342.342 0 0 1 .14-.1.235.235 0 0 1 .15-.01c.073.013.137.05.19.11.06.06.093.143.1.25.007.08 0 .153-.02.22-.02.06-.04.117-.06.17l-.11.27a10.43 10.43 0 0 0-.27.71 1.1 1.1 0 0 0-.06.2c.007.02.03.017.07-.01.04-.033.09-.077.15-.13a4.5 4.5 0 0 1 .2-.17 5.19 5.19 0 0 1 .98-.7c.16-.087.283-.143.37-.17.113 0 .19.02.23.06.047.04.123.113.23.22a.282.282 0 0 1 .08.18.73.73 0 0 1-.01.21 6.895 6.895 0 0 1-.16.49l-.04.14.11-.1c.08-.067.167-.137.26-.21l.21-.18c.26-.2.487-.327.68-.38.193-.053.35.017.47.21.08.073.12.153.12.24.007.087.01.237.01.45.007.087.013.19.02.31l.02.33c.013.093.027.15.04.17a.24.24 0 0 0 .11.07c.06.013.137.027.23.04.1.013.16.057.18.13.02.073-.023.143-.13.21-.1.06-.21.087-.33.08a1.138 1.138 0 0 1-.32-.06Zm1.156.06a.305.305 0 0 0-.1-.12c-.04-.033-.06-.063-.06-.09a.365.365 0 0 0-.01-.08.127.127 0 0 0-.04-.09c-.034-.04-.03-.13.01-.27.04-.147.106-.323.2-.53.093-.213.203-.437.33-.67a1.17 1.17 0 0 0 .16-.21c.053-.087.093-.143.12-.17 0-.027.01-.05.03-.07.02-.027.043-.04.07-.04v-.06c0-.033.03-.09.09-.17.066-.08.146-.167.24-.26.093-.1.19-.193.29-.28a1.6 1.6 0 0 1 .25-.2c.14-.093.283-.15.43-.17a.492.492 0 0 1 .39.1l.1.1.16.16c.066.053.133.11.2.17l.37.33-.18.5c-.087.267-.11.5-.07.7.046.2.113.373.2.52.033.073.1.143.2.21a.776.776 0 0 0 .3.12.328.328 0 0 1 .15.06c.046.033.07.087.07.16a.29.29 0 0 1-.04.16c-.027.04-.074.067-.14.08a.875.875 0 0 1-.62-.16c-.187-.133-.36-.353-.52-.66a1.506 1.506 0 0 1-.18-.44 3.63 3.63 0 0 1-.32.38c-.474.48-.884.803-1.23.97-.34.16-.624.167-.85.02Zm.36-.56c0 .047.07.047.21 0a1.72 1.72 0 0 0 .47-.28c.226-.193.453-.407.68-.64.233-.233.42-.45.56-.65l.22-.36c-.067-.153-.14-.257-.22-.31-.074-.06-.137-.09-.19-.09-.087 0-.217.08-.39.24a4.73 4.73 0 0 0-.54.64c-.194.267-.377.56-.55.88a6.183 6.183 0 0 0-.25.57Zm4.435.61c-.1-.013-.187-.083-.26-.21a1.121 1.121 0 0 1-.12-.36c.007-.053.013-.13.02-.23l.04-.31c.027-.127.063-.28.11-.46l.14-.56c.053-.187.1-.347.14-.48.04-.133.067-.213.08-.24.033-.053.087-.067.16-.04a.433.433 0 0 1 .18.12c.04.053.063.117.07.19a.854.854 0 0 1-.03.32c-.027.14-.08.347-.16.62-.073.267-.13.483-.17.65-.033.16-.047.33-.04.51a5.1 5.1 0 0 1-.06.42c-.013.047-.047.067-.1.06Zm1.15-3.99a.133.133 0 0 1-.08.03.652.652 0 0 1-.11-.06.443.443 0 0 1-.18-.09 2.182 2.182 0 0 1-.18-.18.407.407 0 0 1-.07-.12 1.11 1.11 0 0 1 .01-.25.75.75 0 0 1 .11-.28.278.278 0 0 1 .23-.14.22.22 0 0 1 .07.01c.02.007.08.03.18.07.053.1.107.213.16.34.053.12.077.24.07.36-.007.113-.077.217-.21.31Zm3.315 4.18c-.066 0-.136-.037-.21-.11a1.234 1.234 0 0 1-.18-.27.855.855 0 0 1-.07-.32c0-.1.024-.287.07-.56.054-.273.117-.55.19-.83.054-.173.07-.273.05-.3-.02-.027-.11.01-.27.11a1.837 1.837 0 0 0-.25.15.922.922 0 0 0-.19.16c-.033.027-.083.07-.15.13-.066.06-.136.117-.21.17-.086.067-.196.16-.33.28l-.4.36c-.126.12-.223.213-.29.28a.192.192 0 0 1-.06.07.213.213 0 0 1-.09.04.48.48 0 0 1-.32-.15.334.334 0 0 1-.09-.23c0-.067.027-.18.08-.34a16.3 16.3 0 0 1 .21-.6c.094-.233.2-.48.32-.74a.486.486 0 0 0 .05-.12 1.1 1.1 0 0 0 .03-.17.746.746 0 0 0 .02-.17c0-.033.004-.067.01-.1l.04-.11a.347.347 0 0 1 .05-.08c.027-.053.074-.067.14-.04.067.02.124.067.17.14.1.093.15.21.15.35a1.39 1.39 0 0 1-.1.52c-.026.047-.05.093-.07.14a1.413 1.413 0 0 1-.07.18l-.01.02c.027 0 .087-.03.18-.09.094-.06.204-.127.33-.2a5.8 5.8 0 0 0 .26-.2c.08-.067.147-.117.2-.15.054-.04.087-.06.1-.06a.37.37 0 0 0 .2-.1c.027-.027.047-.04.06-.04l.03-.01h.04a.172.172 0 0 0 .08-.05c.054-.04.124-.05.21-.03a.54.54 0 0 1 .24.1c.074.053.11.113.11.18 0 .027.007.05.02.07l.03.02c.054 0 .087.083.1.25.02.167.004.327-.05.48 0 .1-.02.22-.06.36-.033.14-.063.273-.09.4-.053.167-.09.313-.11.44-.02.127-.023.233-.01.32a.572.572 0 0 0 .07.21c.027.047.027.1 0 .16-.026.053-.08.08-.16.08Zm4.864-.2c-.053.007-.13-.023-.23-.09a1.707 1.707 0 0 1-.26-.23 1.237 1.237 0 0 1-.13-.33 3.22 3.22 0 0 1-.09-.49c-.02-.18-.03-.353-.03-.52.007-.167.023-.35.05-.55l.09-.57c.033-.173.057-.29.07-.35a.61.61 0 0 1 .17-.14.233.233 0 0 1 .16-.02c.047.013.09.05.13.11.093.047.137.12.13.22 0 .1-.03.217-.09.35 0 .033-.007.08-.02.14-.013.053-.027.103-.04.15a.646.646 0 0 0-.09.25c0 .067.01.143.03.23a.284.284 0 0 1-.05.24v-.01c-.007.047-.01.127-.01.24.007.113.017.227.03.34.02.107.047.183.08.23.007.06.04.09.1.09.067-.007.15-.053.25-.14.08-.08.17-.18.27-.3a3.71 3.71 0 0 0 .29-.37c.093-.127.167-.237.22-.33.06-.093.083-.153.07-.18-.027-.053-.013-.097.04-.13.06-.04.11-.077.15-.11a.261.261 0 0 0 .06-.12.394.394 0 0 1 .05-.14.356.356 0 0 0 .08-.14c-.02-.047-.007-.087.04-.12a.267.267 0 0 0 .1-.12c.013-.067.037-.113.07-.14a.15.15 0 0 1 .13-.02c.047.007.087.03.12.07.04.033.063.083.07.15 0 .08-.03.197-.09.35a4.05 4.05 0 0 1-.49.96 2.149 2.149 0 0 0-.09.16c-.027.053-.07.123-.13.21a4.247 4.247 0 0 1-.28.38c-.053.053-.107.11-.16.17a3.33 3.33 0 0 1-.16.15c-.127.147-.237.26-.33.34a.488.488 0 0 1-.28.13Zm2.971.08c-.26-.107-.43-.253-.51-.44-.074-.193-.087-.49-.04-.89.013-.207.02-.343.02-.41 0-.067-.037-.133-.11-.2a.85.85 0 0 0-.11-.11c-.047-.047-.067-.087-.06-.12a.37.37 0 0 1 .01-.15c.013-.06.033-.09.06-.09a.181.181 0 0 0 .08-.02.106.106 0 0 1 .09 0c.026 0 .056.003.09.01.033.007.05.023.05.05.026.047.07.053.13.02.06-.04.123-.127.19-.26.066-.107.153-.213.26-.32.113-.107.223-.203.33-.29.113-.093.206-.16.28-.2a1.856 1.856 0 0 1 .36-.1.712.712 0 0 1 .2-.01c.12.007.22.04.3.1.086.06.166.13.24.21.086.06.14.14.16.24a.87.87 0 0 1 .02.32.963.963 0 0 1-.09.31.644.644 0 0 1-.17.24c-.094.093-.2.183-.32.27-.12.087-.23.15-.33.19a3.846 3.846 0 0 1-.72.07.674.674 0 0 1-.23-.04c-.047-.027-.084.01-.11.11a2.38 2.38 0 0 0-.06.43 1.182 1.182 0 0 0 0 .32.57.57 0 0 0 .04.14c.046.047.11.107.19.18.086.067.206.077.36.03a.762.762 0 0 0 .37-.26c.126-.14.243-.253.35-.34.026-.047.07-.073.13-.08a.454.454 0 0 1 .21.01c.073.047.103.103.09.17-.007.06-.04.153-.1.28a.664.664 0 0 1-.14.18 4.067 4.067 0 0 1-.23.21c-.08.067-.154.12-.22.16a1.31 1.31 0 0 1-.56.17c-.174 0-.34-.03-.5-.09Zm.59-2.03c.146-.033.263-.057.35-.07a.558.558 0 0 0 .25-.11c.08-.067.18-.19.3-.37a.426.426 0 0 0 .02-.22c-.007-.073-.024-.123-.05-.15a.197.197 0 0 0-.22-.06.661.661 0 0 0-.23.11.965.965 0 0 0-.21.15c-.087.073-.174.16-.26.26a2.05 2.05 0 0 0-.21.26c-.054.08-.067.127-.04.14-.014.027.023.043.11.05.093.007.156.01.19.01Zm2.152 1.92a.489.489 0 0 1-.13-.14c-.02-.047-.02-.137 0-.27.02-.187.046-.35.08-.49.033-.147.073-.313.12-.5.013-.08.05-.217.11-.41a13.994 13.994 0 0 1 .52-1.27c.093-.207.173-.36.24-.46a.264.264 0 0 1 .19-.05c.08.007.146.037.2.09.073.06.083.167.03.32a6.35 6.35 0 0 1-.3.7l-.18.41c-.04.087-.057.14-.05.16.006.013.036.003.09-.03a.986.986 0 0 1 .22-.25c.106-.1.22-.197.34-.29.12-.093.233-.177.34-.25.106-.073.18-.12.22-.14a.728.728 0 0 1 .18-.08c.073-.027.123-.047.15-.06a.83.83 0 0 1 .47-.08c.16.02.26.08.3.18a.169.169 0 0 0 .06.12l.06.04c.026 0 .04.01.04.03l.01.03c0 .047-.037.077-.11.09a7.484 7.484 0 0 1-.26.02.772.772 0 0 0-.23.05c-.067.027-.147.06-.24.1-.254.147-.497.29-.73.43-.227.14-.447.327-.66.56a1.464 1.464 0 0 0-.14.19c-.047.073-.097.153-.15.24a.55.55 0 0 0-.1.22 6.519 6.519 0 0 0-.09.33c-.02.1-.03.16-.03.18l-.03.1a.625.625 0 0 1-.1.18c-.08.107-.147.16-.2.16-.054 0-.134-.053-.24-.16Zm4.193.05a.487.487 0 0 1-.24 0 .567.567 0 0 1-.2-.1 1.76 1.76 0 0 1-.16-.14c-.047-.053-.06-.1-.04-.14.02-.047.053-.07.1-.07.027 0 .043-.027.05-.08a2.86 2.86 0 0 0 .04-.32c.013-.093.03-.173.05-.24a.538.538 0 0 0 .04-.15.95.95 0 0 0 .02-.16c.013-.093.033-.173.06-.24a8.94 8.94 0 0 1 .12-.46c.053-.193.107-.38.16-.56l.14-.43c.013-.073.043-.167.09-.28a4.87 4.87 0 0 1 .12-.27c.067-.187.153-.41.26-.67l.34-.78c.113-.26.213-.48.3-.66.093-.187.153-.3.18-.34a.228.228 0 0 1 .19-.07.37.37 0 0 1 .23.12c.06.073.087.153.08.24a.48.48 0 0 1-.13.26 2.049 2.049 0 0 0-.09.18 1.275 1.275 0 0 1-.1.17c-.053.16-.12.317-.2.47-.073.153-.153.327-.24.52-.087.187-.18.42-.28.7-.06.127-.11.253-.15.38a.871.871 0 0 1-.1.23c-.04.147-.09.3-.15.46a2.36 2.36 0 0 0-.13.47l.1-.1c.073-.067.16-.15.26-.25.26-.28.52-.51.78-.69.267-.18.487-.273.66-.28a.58.58 0 0 1 .3.07c.113.053.217.12.31.2a.572.572 0 0 1 .19.24c.053.12.073.25.06.39a1.148 1.148 0 0 1-.12.43c-.067.147-.16.297-.28.45a2.23 2.23 0 0 1-.27.37c-.1.113-.187.197-.26.25l-.2.18c-.06.053-.11.097-.15.13-.087.06-.157.107-.21.14a2.053 2.053 0 0 1-.22.09c-.14.1-.333.173-.58.22-.247.047-.49.087-.73.12Zm.26-.51c.047 0 .13-.01.25-.03a.779.779 0 0 0 .35-.15c.313-.16.583-.357.81-.59.227-.24.397-.477.51-.71.12-.24.173-.437.16-.59-.013-.153-.13-.187-.35-.1-.22.087-.487.287-.8.6a5.024 5.024 0 0 0-.42.43l-.36.42-.12.19a.494.494 0 0 0-.05.16c-.053.247-.047.37.02.37Z"/>
    <g clip-path="url(#b)">
      <path fill="#000" fill-rule="evenodd" d="M4.143-1.267C3.102.818 3.004 3.198 3.48 5.558c.718 3.564 2.742 7.082 4.83 9.49 1.313 1.514 2.707 2.099 4.308 3.288a.146.146 0 0 1-.174.234c-1.62-1.203-3.026-1.8-4.354-3.33-2.118-2.442-4.168-6.01-4.896-9.624-.489-2.425-.382-4.87.689-7.013a.146.146 0 1 1 .261.13Z" clip-rule="evenodd"/>
      <path fill="#000" fill-rule="evenodd" d="M12.742 18.893c-.006-.003-.045-.03-.08-.05a6.237 6.237 0 0 0-.76-.326c-1.16-.429-3.204-.975-4.544-.571a.146.146 0 0 1-.084-.28c1.393-.42 3.522.13 4.73.577.162.06.308.118.433.171a33.429 33.429 0 0 0-.708-1.023c-.697-.972-1.098-1.958-1.318-3.142a.146.146 0 1 1 .287-.053c.212 1.14.598 2.089 1.268 3.024.316.442.625.887.917 1.344.03.046.104.165.111.183a.141.141 0 0 1-.047.177.149.149 0 0 1-.205-.03Zm.217-.195.008.01-.008-.01Z" clip-rule="evenodd"/>
    </g>
    <path fill="#000" d="M21.9 23v-6.56h.83V23h-.83Zm4.477.12a2.3 2.3 0 0 1-1.17-.3 2.11 2.11 0 0 1-.82-.87c-.2-.38-.3-.837-.3-1.37 0-.547.107-1.01.32-1.39.22-.38.507-.67.86-.87.36-.2.747-.3 1.16-.3.32 0 .593.053.82.16.233.107.433.243.6.41l-.41.51a1.265 1.265 0 0 0-.43-.28 1.307 1.307 0 0 0-.55-.11c-.287 0-.547.08-.78.24-.227.153-.407.37-.54.65-.133.28-.2.607-.2.98 0 .367.063.69.19.97s.303.5.53.66c.227.153.49.23.79.23.227 0 .437-.043.63-.13.193-.087.36-.197.5-.33l.36.5c-.207.193-.44.35-.7.47a2.13 2.13 0 0 1-.86.17Zm2.63-.12v-7.12h.82v1.94l-.03 1a4.37 4.37 0 0 1 .73-.56c.26-.16.557-.24.89-.24.514 0 .887.163 1.12.49.24.32.36.79.36 1.41V23h-.82v-2.97c0-.46-.073-.79-.22-.99-.14-.207-.373-.31-.7-.31-.246 0-.47.063-.67.19a4.35 4.35 0 0 0-.66.56V23h-.82Zm10.214 0-1.35-4.86h.86l.71 2.81c.053.22.103.44.15.66.047.22.09.46.13.72h.04c.053-.26.103-.5.15-.72l.16-.66.72-2.81h.9l.73 2.81c.06.22.113.44.16.66.053.22.106.46.16.72h.04c.053-.26.103-.5.15-.72l.14-.66.71-2.81h.8L43.27 23H42.2l-.65-2.6c-.053-.227-.107-.45-.16-.67a40.938 40.938 0 0 1-.15-.77h-.04c-.047.287-.097.543-.15.77-.047.227-.1.45-.16.67l-.65 2.6h-1.02Zm8.348.12c-.433 0-.83-.1-1.19-.3a2.245 2.245 0 0 1-.84-.87c-.206-.38-.31-.84-.31-1.38 0-.527.107-.98.32-1.36a2.39 2.39 0 0 1 .82-.88c.334-.207.687-.31 1.06-.31.414 0 .764.097 1.05.29.294.187.514.45.66.79.147.34.22.74.22 1.2 0 .087-.003.17-.01.25 0 .08-.01.16-.03.24h-3.5v-.65h2.8c0-.467-.103-.823-.31-1.07-.2-.253-.49-.38-.87-.38-.22 0-.436.063-.65.19-.213.12-.39.317-.53.59-.133.273-.2.637-.2 1.09 0 .413.07.76.21 1.04.147.28.344.493.59.64.247.14.517.21.81.21a2.181 2.181 0 0 0 1.21-.37l.3.54a3.027 3.027 0 0 1-.72.36 2.63 2.63 0 0 1-.89.14ZM50.56 23v-4.86h.68l.07.88h.03c.16-.307.36-.55.6-.73.24-.18.5-.27.78-.27.107 0 .2.007.28.02.08.013.16.04.24.08l-.18.7a1.289 1.289 0 0 0-.21-.04c-.06-.013-.14-.02-.24-.02-.206 0-.423.083-.65.25-.22.167-.413.457-.58.87V23h-.82Zm5.03.12c-.614 0-1.104-.22-1.47-.66-.36-.447-.54-1.073-.54-1.88 0-.527.096-.98.29-1.36.2-.387.46-.683.78-.89a1.88 1.88 0 0 1 1.04-.31c.286 0 .53.05.73.15.206.093.416.23.63.41l-.04-.83v-1.87h.83V23h-.68l-.07-.57h-.03a2.93 2.93 0 0 1-.66.49c-.254.133-.524.2-.81.2Zm.18-.69c.226 0 .44-.057.64-.17.2-.113.4-.28.6-.5v-2.54a1.842 1.842 0 0 0-.59-.39 1.53 1.53 0 0 0-.59-.12c-.26 0-.497.08-.71.24-.207.153-.374.37-.5.65-.127.273-.19.597-.19.97 0 .58.116 1.037.35 1.37.233.327.563.49.99.49Zm5.676.69c-.433 0-.83-.1-1.19-.3a2.244 2.244 0 0 1-.84-.87c-.206-.38-.31-.84-.31-1.38 0-.527.107-.98.32-1.36a2.39 2.39 0 0 1 .82-.88c.334-.207.687-.31 1.06-.31.414 0 .764.097 1.05.29.294.187.514.45.66.79.147.34.22.74.22 1.2 0 .087-.003.17-.01.25 0 .08-.01.16-.03.24h-3.5v-.65h2.8c0-.467-.103-.823-.31-1.07-.2-.253-.49-.38-.87-.38-.22 0-.436.063-.65.19-.213.12-.39.317-.53.59-.133.273-.2.637-.2 1.09 0 .413.07.76.21 1.04.147.28.344.493.59.64.247.14.517.21.81.21a2.183 2.183 0 0 0 1.21-.37l.3.54a3.03 3.03 0 0 1-.72.36 2.63 2.63 0 0 1-.89.14Zm6.995-.12v-4.86h.68l.07.7h.03c.213-.227.443-.42.69-.58.253-.16.527-.24.82-.24.373 0 .663.083.87.25.213.167.37.393.47.68.253-.28.51-.503.77-.67.26-.173.537-.26.83-.26.507 0 .88.163 1.12.49.24.32.36.79.36 1.41V23h-.82v-2.97c0-.46-.073-.79-.22-.99-.147-.207-.373-.31-.68-.31a1.1 1.1 0 0 0-.59.19c-.193.12-.403.307-.63.56V23h-.82v-2.97c0-.46-.073-.79-.22-.99-.147-.207-.377-.31-.69-.31-.367 0-.773.25-1.22.75V23h-.82Zm8.291 0v-4.86h.82V23h-.82Zm.41-5.86a.562.562 0 0 1-.4-.15c-.1-.1-.15-.23-.15-.39s.05-.29.15-.39c.107-.1.24-.15.4-.15a.528.528 0 0 1 .55.54.528.528 0 0 1-.55.54Zm3.581 5.95c-.513 0-.873-.15-1.08-.45-.207-.3-.31-.69-.31-1.17v-2.66h-.72v-.62l.76-.05.1-1.56h.69v1.56h1.32v.67h-1.32v2.67c0 .293.053.523.16.69.113.167.31.25.59.25.087 0 .177-.007.27-.02.093-.02.187-.053.28-.1l.18.58c-.127.06-.27.11-.43.15-.16.04-.323.06-.49.06Zm3.85-.09v-4.86h.82V23h-.82Zm.41-5.86a.562.562 0 0 1-.4-.15c-.1-.1-.15-.23-.15-.39s.05-.29.15-.39c.108-.1.24-.15.4-.15a.528.528 0 0 1 .55.54.528.528 0 0 1-.55.54ZM87.036 23v-7.12h.82v1.94l-.03 1a4.35 4.35 0 0 1 .73-.56c.26-.16.556-.24.89-.24.513 0 .887.163 1.12.49.24.32.36.79.36 1.41V23h-.82v-2.97c0-.46-.074-.79-.22-.99-.14-.207-.374-.31-.7-.31-.247 0-.47.063-.67.19a4.35 4.35 0 0 0-.66.56V23h-.82Zm5.44 0v-4.86h.68l.07.7h.03c.213-.227.443-.42.69-.58.253-.16.526-.24.82-.24.373 0 .663.083.87.25.213.167.37.393.47.68.253-.28.51-.503.77-.67.26-.173.536-.26.83-.26.506 0 .88.163 1.12.49.24.32.36.79.36 1.41V23h-.82v-2.97c0-.46-.074-.79-.22-.99-.147-.207-.374-.31-.68-.31a1.1 1.1 0 0 0-.59.19c-.194.12-.404.307-.63.56V23h-.82v-2.97c0-.46-.074-.79-.22-.99-.147-.207-.377-.31-.69-.31-.367 0-.774.25-1.22.75V23h-.82Zm13.934 2.24a3.19 3.19 0 0 1-1.05-.16 1.62 1.62 0 0 1-.71-.44 1.053 1.053 0 0 1-.25-.71c0-.207.064-.407.19-.6.127-.187.3-.353.52-.5v-.04a1.147 1.147 0 0 1-.31-.31.916.916 0 0 1-.12-.48c0-.207.057-.387.17-.54.12-.153.24-.273.36-.36v-.04a2.179 2.179 0 0 1-.43-.54 1.493 1.493 0 0 1-.2-.77c0-.353.084-.66.25-.92.174-.26.397-.46.67-.6a2.008 2.008 0 0 1 1.29-.17c.12.02.224.047.31.08h1.69v.63h-1.01v.04c.12.107.217.24.29.4.08.16.12.35.12.57 0 .347-.08.647-.24.9-.16.247-.373.44-.64.58a1.981 1.981 0 0 1-1.27.16 2.138 2.138 0 0 1-.36-.13 1.9 1.9 0 0 0-.22.24c-.06.087-.09.2-.09.34 0 .153.06.28.18.38.127.1.354.15.68.15h.94c.567 0 .99.093 1.27.28.287.18.43.473.43.88 0 .3-.1.577-.3.83-.2.253-.486.457-.86.61-.366.16-.8.24-1.3.24Zm0-4.33a.96.96 0 0 0 .51-.14c.16-.1.287-.237.38-.41a1.26 1.26 0 0 0 .14-.61c0-.36-.1-.637-.3-.83-.2-.2-.443-.3-.73-.3-.286 0-.53.1-.73.3-.2.193-.3.47-.3.83 0 .233.047.437.14.61.094.173.217.31.37.41.16.093.334.14.52.14Zm.12 3.76c.307 0 .574-.047.8-.14.234-.093.414-.217.54-.37a.722.722 0 0 0 .2-.48c0-.227-.086-.383-.26-.47-.166-.087-.406-.13-.72-.13h-.84a2.693 2.693 0 0 1-.63-.08c-.18.127-.31.26-.39.4a.902.902 0 0 0-.11.42c0 .26.124.467.37.62.254.153.6.23 1.04.23Zm5.113-1.55c-.434 0-.83-.1-1.19-.3a2.235 2.235 0 0 1-.84-.87c-.207-.38-.31-.84-.31-1.38 0-.527.106-.98.32-1.36a2.37 2.37 0 0 1 .82-.88c.333-.207.686-.31 1.06-.31.413 0 .763.097 1.05.29.293.187.513.45.66.79.146.34.22.74.22 1.2 0 .087-.004.17-.01.25 0 .08-.01.16-.03.24h-3.5v-.65h2.8c0-.467-.104-.823-.31-1.07-.2-.253-.49-.38-.87-.38-.22 0-.437.063-.65.19-.214.12-.39.317-.53.59-.134.273-.2.637-.2 1.09 0 .413.07.76.21 1.04.146.28.343.493.59.64.246.14.516.21.81.21.233 0 .45-.033.65-.1.206-.067.393-.157.56-.27l.3.54a3.053 3.053 0 0 1-.72.36c-.26.093-.557.14-.89.14Zm4.261 0c-.354 0-.69-.06-1.01-.18-.314-.127-.58-.3-.8-.52l.379-.48c.214.173.434.307.66.4.234.093.501.14.801.14.32 0 .56-.073.72-.22a.724.724 0 0 0 .24-.54.54.54 0 0 0-.17-.41 1.244 1.244 0 0 0-.411-.28 4.65 4.65 0 0 0-.519-.22 5.835 5.835 0 0 1-.69-.3 1.78 1.78 0 0 1-.54-.44 1.09 1.09 0 0 1-.2-.67c0-.393.146-.72.44-.98.3-.267.713-.4 1.24-.4.3 0 .58.053.84.16.26.1.483.23.67.39l-.38.47a2.407 2.407 0 0 0-.53-.28c-.18-.067-.38-.1-.6-.1-.307 0-.534.07-.68.21a.672.672 0 0 0-.21.49c0 .147.043.27.129.37.087.093.207.177.361.25.16.073.34.143.54.21.253.093.493.2.72.32.233.113.42.263.56.45.146.18.22.417.22.71 0 .267-.07.51-.21.73a1.455 1.455 0 0 1-.6.52c-.26.133-.584.2-.97.2Zm2.919 1.93v-6.91h.68l.07.56h.03a3.6 3.6 0 0 1 .73-.48c.267-.133.54-.2.82-.2.413 0 .763.103 1.05.31.287.2.503.487.65.86.147.367.22.803.22 1.31 0 .547-.1 1.017-.3 1.41-.193.393-.45.693-.77.9a1.86 1.86 0 0 1-1.03.31c-.22 0-.443-.05-.67-.15a3.356 3.356 0 0 1-.68-.41l.02.85v1.64h-.82Zm2.01-2.62c.267 0 .503-.077.71-.23a1.5 1.5 0 0 0 .5-.66c.12-.293.18-.64.18-1.04 0-.353-.043-.663-.13-.93a1.26 1.26 0 0 0-.41-.63c-.187-.153-.433-.23-.74-.23-.2 0-.407.057-.62.17a3.07 3.07 0 0 0-.68.49v2.55c.227.187.44.32.64.4.207.073.39.11.55.11Zm3.537.57v-4.86h.68l.07.88h.03c.16-.307.36-.55.6-.73.24-.18.5-.27.78-.27.106 0 .2.007.28.02.08.013.16.04.24.08l-.18.7a1.317 1.317 0 0 0-.21-.04c-.06-.013-.14-.02-.24-.02-.207 0-.424.083-.65.25-.22.167-.414.457-.58.87V23h-.82Zm5.259.12c-.393 0-.763-.1-1.11-.3-.34-.2-.617-.49-.83-.87-.207-.38-.31-.837-.31-1.37 0-.547.103-1.01.31-1.39.213-.38.49-.67.83-.87.347-.2.717-.3 1.11-.3a2.15 2.15 0 0 1 1.93 1.17c.213.38.32.843.32 1.39 0 .533-.107.99-.32 1.37a2.15 2.15 0 0 1-1.93 1.17Zm0-.68c.28 0 .527-.077.74-.23.213-.16.377-.38.49-.66.113-.28.17-.603.17-.97 0-.373-.057-.7-.17-.98a1.437 1.437 0 0 0-.49-.66 1.2 1.2 0 0 0-.74-.24 1.2 1.2 0 0 0-.74.24c-.207.153-.37.373-.49.66-.113.28-.17.607-.17.98 0 .367.057.69.17.97.12.28.283.5.49.66.213.153.46.23.74.23Zm5.46.68a2.3 2.3 0 0 1-1.17-.3 2.11 2.11 0 0 1-.82-.87c-.2-.38-.3-.837-.3-1.37 0-.547.107-1.01.32-1.39.22-.38.507-.67.86-.87.36-.2.747-.3 1.16-.3.32 0 .593.053.82.16.233.107.433.243.6.41l-.41.51a1.261 1.261 0 0 0-.43-.28 1.306 1.306 0 0 0-.55-.11c-.287 0-.547.08-.78.24a1.58 1.58 0 0 0-.54.65c-.133.28-.2.607-.2.98 0 .367.063.69.19.97s.303.5.53.66c.227.153.49.23.79.23.227 0 .437-.043.63-.13.193-.087.36-.197.5-.33l.36.5c-.207.193-.44.35-.7.47-.26.113-.547.17-.86.17Zm2.63-.12v-7.12h.82v1.94l-.03 1a4.37 4.37 0 0 1 .73-.56c.26-.16.557-.24.89-.24.514 0 .887.163 1.12.49.24.32.36.79.36 1.41V23h-.82v-2.97c0-.46-.073-.79-.22-.99-.14-.207-.373-.31-.7-.31-.246 0-.47.063-.67.19a4.38 4.38 0 0 0-.66.56V23h-.82Zm7.41.12c-.433 0-.83-.1-1.19-.3a2.25 2.25 0 0 1-.84-.87c-.207-.38-.31-.84-.31-1.38 0-.527.107-.98.32-1.36.213-.38.487-.673.82-.88.333-.207.687-.31 1.06-.31.413 0 .763.097 1.05.29.293.187.513.45.66.79.147.34.22.74.22 1.2 0 .087-.003.17-.01.25 0 .08-.01.16-.03.24h-3.5v-.65h2.8c0-.467-.103-.823-.31-1.07-.2-.253-.49-.38-.87-.38-.22 0-.437.063-.65.19-.213.12-.39.317-.53.59-.133.273-.2.637-.2 1.09 0 .413.07.76.21 1.04.147.28.343.493.59.64.247.14.517.21.81.21a2.181 2.181 0 0 0 1.21-.37l.3.54a3.016 3.016 0 0 1-.72.36c-.26.093-.557.14-.89.14Zm2.991-.12v-4.86h.68l.07.7h.03c.233-.233.48-.427.74-.58.26-.16.556-.24.89-.24.513 0 .886.163 1.12.49.24.32.36.79.36 1.41V23h-.82v-2.97c0-.46-.074-.79-.22-.99-.14-.207-.374-.31-.7-.31-.247 0-.47.063-.67.19a4.283 4.283 0 0 0-.66.56V23h-.82Zm11.474 0v-7.12h.82v1.94l-.03 1a4.37 4.37 0 0 1 .73-.56c.26-.16.557-.24.89-.24.514 0 .887.163 1.12.49.24.32.36.79.36 1.41V23h-.82v-2.97c0-.46-.073-.79-.22-.99-.14-.207-.373-.31-.7-.31-.246 0-.47.063-.67.19a4.38 4.38 0 0 0-.66.56V23h-.82Zm6.56.12a1.65 1.65 0 0 1-.73-.16 1.337 1.337 0 0 1-.51-.47 1.406 1.406 0 0 1-.19-.75c0-.547.24-.96.72-1.24s1.24-.477 2.28-.59a2.13 2.13 0 0 0-.1-.58.842.842 0 0 0-.3-.45c-.147-.113-.35-.17-.61-.17-.28 0-.543.053-.79.16-.247.1-.467.213-.66.34l-.32-.56c.147-.1.32-.197.52-.29.2-.1.417-.18.65-.24.233-.067.48-.1.74-.1.393 0 .713.083.96.25.253.16.437.39.55.69.12.3.18.653.18 1.06V23h-.68l-.07-.58h-.03c-.233.193-.483.36-.75.5a1.9 1.9 0 0 1-.86.2Zm.23-.68c.24 0 .463-.053.67-.16.213-.107.437-.263.67-.47V20.5c-.547.067-.98.153-1.3.26-.313.1-.54.227-.68.38a.788.788 0 0 0-.21.55c0 .267.083.46.25.58.167.113.367.17.6.17Zm5.839.68c-.227 0-.46-.053-.7-.16a2.965 2.965 0 0 1-.69-.46h-.03l-.07.5h-.66v-7.12h.82v1.94l-.02.88c.22-.193.46-.353.72-.48.267-.133.533-.2.8-.2.42 0 .773.103 1.06.31.287.2.503.487.65.86.147.367.22.8.22 1.3 0 .553-.1 1.027-.3 1.42-.193.393-.45.693-.77.9a1.86 1.86 0 0 1-1.03.31Zm-.14-.69c.267 0 .503-.077.71-.23a1.5 1.5 0 0 0 .5-.66c.12-.293.18-.64.18-1.04 0-.353-.043-.663-.13-.93a1.26 1.26 0 0 0-.41-.63c-.187-.153-.433-.23-.74-.23-.2 0-.41.057-.63.17-.213.107-.437.27-.67.49v2.55c.213.187.423.32.63.4.213.073.4.11.56.11Zm5.487.69c-.433 0-.83-.1-1.19-.3a2.25 2.25 0 0 1-.84-.87c-.206-.38-.31-.84-.31-1.38 0-.527.107-.98.32-1.36a2.39 2.39 0 0 1 .82-.88c.334-.207.687-.31 1.06-.31.414 0 .764.097 1.05.29.294.187.514.45.66.79.147.34.22.74.22 1.2 0 .087-.003.17-.01.25 0 .08-.01.16-.03.24h-3.5v-.65h2.8c0-.467-.103-.823-.31-1.07-.2-.253-.49-.38-.87-.38-.22 0-.436.063-.65.19-.213.12-.39.317-.53.59-.133.273-.2.637-.2 1.09 0 .413.07.76.21 1.04.147.28.344.493.59.64.247.14.517.21.81.21a2.165 2.165 0 0 0 1.21-.37l.3.54a3.016 3.016 0 0 1-.72.36 2.63 2.63 0 0 1-.89.14Zm2.991-.12v-4.86h.68l.07.7h.03c.234-.233.48-.427.74-.58.26-.16.557-.24.89-.24.514 0 .887.163 1.12.49.24.32.36.79.36 1.41V23h-.82v-2.97c0-.46-.073-.79-.22-.99-.14-.207-.373-.31-.7-.31-.246 0-.47.063-.67.19a4.38 4.38 0 0 0-.66.56V23h-.82Zm5.899.12c-.16 0-.3-.057-.42-.17a.61.61 0 0 1-.18-.45c0-.193.06-.347.18-.46.12-.12.26-.18.42-.18.167 0 .307.06.42.18.113.113.17.267.17.46 0 .18-.057.33-.17.45a.57.57 0 0 1-.42.17Z"/>
    <path fill="#DF00A6" fill-rule="evenodd" d="M179.494 12.863c1.504.049 2.699.534 3.894 1.078 3.92 1.788 5.232 4.563 2.545 7.29-4.177 4.227-13.907 6.995-21.452 5.717-1.671-.28-3.933-.529-5.591-1.903-1.542-1.278-1.478-2.798-.771-4.204.72-1.442 2.108-2.77 3.213-3.623 4.833-3.722 14.511-7.105 23.264-5.322.18.035.36-.024.412-.132.051-.107-.039-.222-.206-.256-9.01-1.836-18.997 1.62-23.971 5.45-1.376 1.065-3.175 2.84-3.689 4.678-.347 1.256-.103 2.54 1.234 3.656 1.761 1.464 4.164 1.751 5.938 2.05 7.789 1.32 17.853-1.528 22.159-5.895 2.892-2.93 1.504-5.915-2.712-7.837-1.285-.591-2.596-1.102-4.229-1.155-.18-.006-.334.08-.334.193-.013.113.129.209.296.215Z" clip-rule="evenodd"/>
    <path fill="#DF00A6" d="M154.133 35.64a.297.297 0 0 0-.1-.12c-.04-.033-.06-.063-.06-.09a.313.313 0 0 0-.01-.08.123.123 0 0 0-.04-.09c-.033-.04-.03-.13.01-.27.04-.147.107-.323.2-.53.094-.213.204-.437.33-.67.054-.053.107-.123.16-.21.054-.087.094-.143.12-.17 0-.027.01-.05.03-.07.02-.027.044-.04.07-.04v-.06c0-.033.03-.09.09-.17.067-.08.147-.167.24-.26.094-.1.19-.193.29-.28.1-.093.184-.16.25-.2.14-.093.284-.15.43-.17a.49.49 0 0 1 .39.1l.1.1.16.16c.067.053.134.11.2.17l.37.33-.18.5c-.086.267-.11.5-.07.7.047.2.114.373.2.52a.54.54 0 0 0 .2.21.788.788 0 0 0 .3.12.32.32 0 0 1 .15.06c.047.033.07.087.07.16a.28.28 0 0 1-.04.16c-.026.04-.073.067-.14.08a.877.877 0 0 1-.62-.16c-.186-.133-.36-.353-.52-.66a1.747 1.747 0 0 1-.11-.22 2.279 2.279 0 0 1-.07-.22l-.15.19c-.073.087-.13.15-.17.19-.473.48-.883.803-1.23.97-.34.16-.623.167-.85.02Zm.36-.56c0 .047.07.047.21 0 .147-.053.304-.147.47-.28a9.75 9.75 0 0 0 .68-.64c.234-.233.42-.45.56-.65l.22-.36c-.066-.153-.14-.257-.22-.31-.073-.06-.136-.09-.19-.09-.086 0-.216.08-.39.24a4.9 4.9 0 0 0-.54.64c-.193.267-.376.56-.55.88a7.564 7.564 0 0 0-.18.39l-.07.18Zm6.286.9c-.047.027-.11.017-.19-.03a.897.897 0 0 1-.22-.21.869.869 0 0 1-.1-.26 2.813 2.813 0 0 1-.02-.39c.006-.133 0-.22-.02-.26-.014-.04-.05-.033-.11.02-.06.047-.164.143-.31.29a2.645 2.645 0 0 1-.48.39c-.147.093-.267.137-.36.13-.047 0-.1-.023-.16-.07a1.048 1.048 0 0 1-.15-.19 1.918 1.918 0 0 1-.12-.24 1.496 1.496 0 0 1-.02-.56c.033-.233.086-.477.16-.73a6.83 6.83 0 0 1 .25-.72c.1-.227.2-.41.3-.55.106-.14.2-.21.28-.21.053 0 .1.027.14.08a.95.95 0 0 1 .14.25c.026.047.036.087.03.12 0 .033-.027.073-.08.12-.06.08-.13.2-.21.36a9.28 9.28 0 0 0-.22.52c-.067.187-.127.367-.18.54-.054.173-.09.317-.11.43-.02.107-.017.16.01.16a.688.688 0 0 0 .33-.11c.133-.08.26-.177.38-.29.14-.14.263-.293.37-.46.113-.167.226-.343.34-.53.086-.133.176-.28.27-.44.1-.16.163-.273.19-.34.093-.173.163-.29.21-.35a.315.315 0 0 1 .17-.13h.14c.04.007.086.037.14.09.053.027.083.053.09.08.006.02.01.047.01.08a9.11 9.11 0 0 1-.13.3l-.12.28c-.127.287-.254.57-.38.85-.12.273-.207.553-.26.84a1.646 1.646 0 0 0-.01.33.81.81 0 0 0 .06.26l.07.14c.033.047.07.087.11.12.06.04.07.083.03.13a.423.423 0 0 1-.26.16Zm4.261-.01a.821.821 0 0 1-.11-.01.18.18 0 0 1-.1-.05 1.099 1.099 0 0 1-.32-.1 1.433 1.433 0 0 1-.27-.16 6.3 6.3 0 0 1-.34-.28 3.98 3.98 0 0 1-.29-.28c-.073-.087-.11-.15-.11-.19 0-.033-.017-.05-.05-.05l-.03-.03a.133.133 0 0 1-.03-.08c0-.067-.033-.1-.1-.1l-.17.14a5.27 5.27 0 0 0-.37.34c-.187.187-.327.323-.42.41-.087.08-.157.12-.21.12a.36.36 0 0 1-.18-.06.911.911 0 0 1-.18-.14.28.28 0 0 1-.07-.17l.2-.23c.14-.153.303-.31.49-.47l.64-.63-.11-.38a16.033 16.033 0 0 0-.15-.33 6.724 6.724 0 0 1-.11-.3 1.094 1.094 0 0 1-.13-.21c0-.033.027-.09.08-.17a.448.448 0 0 1 .13-.1c.04-.02.1-.003.18.05.04 0 .093.057.16.17.067.107.127.227.18.36.06.127.09.217.09.27 0 .107.04.15.12.13.08-.02.2-.083.36-.19a5.89 5.89 0 0 0 .19-.18l.07-.08a1.7 1.7 0 0 1 .18-.13c.1-.073.203-.147.31-.22a1.55 1.55 0 0 1 .21-.13c.053-.04.113-.04.18 0a.431.431 0 0 1 .17.16.36.36 0 0 1 .07.21c0 .08-.02.143-.06.19-.04.047-.127.107-.26.18l-.32.23a17.394 17.394 0 0 0-.64.52l-.26.21.16.27c.027.047.063.113.11.2a.48.48 0 0 0 .15.17c.04.053.117.127.23.22s.223.18.33.26c.113.073.177.11.19.11.027 0 .057.01.09.03l.12.07a.348.348 0 0 1 .1.18c.02.067.02.127 0 .18-.013.047-.047.07-.1.07Zm.708-.46a.328.328 0 0 1-.1-.02l-.05-.03c0-.027-.01-.06-.03-.1a.31.31 0 0 1-.02-.1c-.047-.027-.074-.053-.08-.08-.007-.033.003-.087.03-.16.04-.067.093-.173.16-.32l.21-.49c.073-.18.143-.357.21-.53l.17-.44c.046-.127.073-.203.08-.23a.374.374 0 0 1 .1-.2c.053-.047.11-.05.17-.01.06.033.11.093.15.18.046.08.07.17.07.27 0 .047-.034.167-.1.36-.067.187-.157.41-.27.67-.107.26-.227.523-.36.79-.1.193-.164.317-.19.37-.027.047-.077.07-.15.07Zm1.47-3.79a.487.487 0 0 1-.26-.09 1.103 1.103 0 0 1-.23-.24c-.06-.1-.09-.2-.09-.3 0-.033.02-.08.06-.14l.12-.18a.36.36 0 0 0 .06-.11c.053 0 .093.003.12.01.033 0 .073.013.12.04.073.167.163.303.27.41.113.107.17.197.17.27 0 .147-.014.24-.04.28-.027.033-.127.05-.3.05Zm.365 3.81a.577.577 0 0 1-.15-.12.26.26 0 0 1-.05-.17c0-.1.013-.203.04-.31.027-.113.053-.223.08-.33.013-.12.03-.24.05-.36.027-.127.073-.243.14-.35.073-.253.15-.503.23-.75.08-.253.15-.513.21-.78l.23-.65c.073-.193.163-.437.27-.73a4.1 4.1 0 0 0 .15-.53c.047-.193.117-.367.21-.52.04-.06.07-.11.09-.15a2.21 2.21 0 0 1 .08-.13c.007-.027.027-.043.06-.05a.295.295 0 0 1 .13.01.21.21 0 0 1 .11.07c.02-.007.043.013.07.06.033.04.063.087.09.14.027.053.037.1.03.14a.444.444 0 0 1-.02.11.31.31 0 0 1-.05.13.467.467 0 0 0-.08.12c-.02.047-.053.113-.1.2-.027.087-.05.177-.07.27a1.29 1.29 0 0 1-.08.24 1.44 1.44 0 0 1-.1.23 1.362 1.362 0 0 0-.07.18 3.67 3.67 0 0 1-.17.45c-.06.147-.113.303-.16.47-.047.16-.093.327-.14.5a2.15 2.15 0 0 1-.2.48.761.761 0 0 0-.1.28l-.06.34c-.04.12-.077.233-.11.34-.027.1-.04.163-.04.19-.04.147-.07.293-.09.44-.013.14-.047.263-.1.37a.474.474 0 0 1-.04.16.124.124 0 0 1-.1.07.462.462 0 0 1-.19-.06Zm1.639.15a.51.51 0 0 1-.12-.2.751.751 0 0 1-.02-.24.57.57 0 0 1 .05-.2c0-.053.007-.093.02-.12.02-.033.027-.063.02-.09a.319.319 0 0 1 .02-.14c.02-.067.04-.13.06-.19a6.08 6.08 0 0 0 .15-.38 40.307 40.307 0 0 0 .33-1.03c0-.08.054-.123.16-.13.08-.027.14-.027.18 0 .04.02.094.083.16.19.054.053.074.133.06.24-.013.107-.056.24-.13.4-.026.053-.06.13-.1.23-.033.1-.056.19-.07.27-.026.053-.06.13-.1.23a7.487 7.487 0 0 0-.09.27 1.027 1.027 0 0 0-.04.15c-.013.06-.03.127-.05.2a.712.712 0 0 1-.08.18c-.06.273-.116.433-.17.48-.046.047-.126.007-.24-.12Zm.97-4.06a.474.474 0 0 1-.09-.14.789.789 0 0 1-.05-.18c-.006-.06 0-.09.02-.09.054-.007.117-.063.19-.17.074-.107.104-.2.09-.28 0-.027.01-.05.03-.07a.128.128 0 0 1 .07-.05c.08-.053.157-.06.23-.02.08.033.154.103.22.21.06.127.077.233.05.32-.026.08-.1.193-.22.34-.1.133-.193.207-.28.22-.08.013-.166-.017-.26-.09Zm1.636 4.09a.904.904 0 0 1-.21.02 1.93 1.93 0 0 1-.23-.03c-.06-.02-.09-.04-.09-.06 0-.033-.017-.05-.05-.05l-.05-.04a.444.444 0 0 0-.13-.08.545.545 0 0 1-.09-.3c0-.113.03-.29.09-.53.02-.167.083-.36.19-.58a5.8 5.8 0 0 1 .41-.69c.16-.233.326-.443.5-.63.18-.187.343-.323.49-.41a.499.499 0 0 1 .34-.15.697.697 0 0 1 .38.09.716.716 0 0 1 .2.16 2.4 2.4 0 0 1 .19.24c.06.087.11.173.15.26.02.073.03.14.03.2.006.053.006.12 0 .2 0 .08-.01.2-.03.36a3.62 3.62 0 0 0-.09.44 4 4 0 0 0-.03.45c-.014.127 0 .217.04.27.046.053.113.057.2.01a.424.424 0 0 1 .23-.05c.073 0 .13.02.17.06.046.04.07.1.07.18 0 .08-.04.163-.12.25-.074.08-.167.15-.28.21a.693.693 0 0 1-.31.08c-.074 0-.144-.043-.21-.13a1.667 1.667 0 0 1-.18-.33c-.047-.133-.09-.26-.13-.38l-.06-.23-.43.41a5.31 5.31 0 0 1-.26.26.924.924 0 0 0-.15.16.562.562 0 0 1-.19.18c-.087.06-.207.12-.36.18Zm.03-.59c.113-.067.243-.163.39-.29.146-.133.29-.277.43-.43.14-.16.256-.307.35-.44a2.4 2.4 0 0 0 .26-.43c.06-.133.103-.26.13-.38a.916.916 0 0 0-.13-.23c-.06-.087-.114-.133-.16-.14-.147 0-.304.093-.47.28a7.234 7.234 0 0 0-.72.96l-.08.12c-.02.027-.06.103-.12.23-.054.12-.107.243-.16.37-.054.12-.08.2-.08.24 0 .04.003.083.01.13.013.047.046.077.1.09.053.013.136-.013.25-.08Zm3.633.65c-.033.067-.083.087-.15.06a1.02 1.02 0 0 1-.15-.08.189.189 0 0 1-.12-.04.22.22 0 0 1-.07-.12.332.332 0 0 1-.01-.14c.007-.06.02-.127.04-.2.027-.08.054-.167.08-.26.054-.22.09-.38.11-.48.02-.1.04-.187.06-.26.02-.073.047-.18.08-.32a3.16 3.16 0 0 0 .13-.39c.034-.127.084-.253.15-.38.047-.173.104-.337.17-.49.074-.16.144-.293.21-.4a.664.664 0 0 1 .07-.08c.04-.033.074-.05.1-.05.054-.053.1-.073.14-.06a.38.38 0 0 1 .17.09c.08.087.11.187.09.3-.013.113-.093.28-.24.5-.08.207-.153.387-.22.54a1.997 1.997 0 0 0-.14.42c.074-.107.154-.203.24-.29l.23-.23a3.17 3.17 0 0 1 .36-.32c.1-.067.217-.143.35-.23.08-.053.157-.1.23-.14a.776.776 0 0 1 .24-.1.757.757 0 0 1 .3 0 .175.175 0 0 1 .16.06c.047.047.084.11.11.19.027.08.044.173.05.28a.702.702 0 0 0-.41.02c-.12.04-.223.09-.31.15-.08.06-.143.107-.19.14-.1.067-.226.157-.38.27a3.475 3.475 0 0 0-.46.39c-.12.133-.223.247-.31.34-.08.093-.146.177-.2.25-.046.073-.083.15-.11.23-.066.153-.136.32-.21.5-.073.18-.136.29-.19.33Zm2.894 2.22c-.16.047-.337.053-.53.02a1.256 1.256 0 0 1-.49-.17c-.147-.087-.23-.183-.25-.29-.007-.04.006-.083.04-.13a.224.224 0 0 1 .11-.1c.04-.013.076 0 .11.04.053.033.15.073.29.12a.85.85 0 0 0 .47.03.929.929 0 0 0 .45-.27c.153-.147.276-.283.37-.41a17.408 17.408 0 0 0 .66-1.11c.14-.253.256-.487.35-.7l.07-.19a.565.565 0 0 1 .1-.18c.04-.08.073-.153.1-.22.033-.073.053-.123.06-.15a.907.907 0 0 1 .09-.2c.053-.1.103-.2.15-.3.033-.1.083-.247.15-.44.066-.193.133-.35.2-.47.08-.153.143-.277.19-.37.053-.1.11-.16.17-.18.06-.047.1-.07.12-.07a.42.42 0 0 1 .15.06c.08.08.13.16.15.24a.48.48 0 0 1-.03.28c-.034.107-.1.253-.2.44-.054.16-.114.307-.18.44a1.38 1.38 0 0 1-.14.25 20.976 20.976 0 0 0-.23.53c-.12.267-.224.483-.31.65-.087.167-.164.32-.23.46a7.26 7.26 0 0 0-.21.49c-.154.247-.304.48-.45.7a5.55 5.55 0 0 1-.45.63c-.067.06-.15.13-.25.21-.1.08-.204.153-.31.22-.1.067-.197.113-.29.14Zm1.35-2.4c-.1-.013-.2-.073-.3-.18a1.32 1.32 0 0 1-.22-.34c-.054-.12-.074-.207-.06-.26v-.11c-.04 0-.077-.05-.11-.15-.027-.1-.047-.23-.06-.39a9.491 9.491 0 0 1-.03-.51c0-.18.006-.35.02-.51.026-.113.04-.237.04-.37 0-.14.003-.25.01-.33-.007-.107.003-.177.03-.21a.344.344 0 0 1 .08-.09c.186-.08.31-.03.37.15.066.173.083.5.05.98a7.624 7.624 0 0 0 0 .8c.013.267.05.5.11.7.066.2.156.337.27.41.046.027.07.063.07.11a.346.346 0 0 1-.04.15.387.387 0 0 1-.11.12.163.163 0 0 1-.12.03Zm5.71.09c-.067.047-.114.07-.14.07a.485.485 0 0 1-.15-.12c-.127-.12-.217-.347-.27-.68-.047-.34-.07-.817-.07-1.43.026-.273.04-.507.04-.7l.01-.33c.02-.027.06-.04.12-.04a.34.34 0 0 1 .17.04.24.24 0 0 1 .13.15c.026.067.043.187.05.36.006.167.01.423.01.77-.02.267-.03.5-.03.7 0 .193.01.303.03.33.026.047.056.06.09.04.04-.027.11-.09.21-.19.053-.073.12-.17.2-.29l.19-.3a5.77 5.77 0 0 0 .2-.27c.066-.087.113-.143.14-.17a.71.71 0 0 1 .1-.15.934.934 0 0 0 .1-.14c.073-.127.15-.23.23-.31.08-.087.133-.13.16-.13.026.02.05.027.07.02a.175.175 0 0 1 .08-.02c.046-.047.11-.047.19 0 .026.02.05.043.07.07.02.02.03.043.03.07a.663.663 0 0 1-.08.21 2.1 2.1 0 0 1-.17.31.594.594 0 0 1-.14.17l-.03.03-.07.07c-.014.047-.057.13-.13.25-.074.113-.164.243-.27.39-.107.147-.217.293-.33.44l-.3.39a1.403 1.403 0 0 1-.23.25 1.442 1.442 0 0 1-.21.14Zm2.99.08c-.26-.107-.43-.253-.51-.44-.073-.193-.086-.49-.04-.89.014-.207.02-.343.02-.41 0-.067-.036-.133-.11-.2a.79.79 0 0 0-.11-.11c-.046-.047-.066-.087-.06-.12a.41.41 0 0 1 .01-.15c.014-.06.034-.09.06-.09a.175.175 0 0 0 .08-.02c.034-.013.064-.013.09 0 .027 0 .057.003.09.01.034.007.05.023.05.05.027.047.07.053.13.02.06-.04.124-.127.19-.26.067-.107.154-.213.26-.32.114-.107.224-.203.33-.29.114-.093.207-.16.28-.2a2.163 2.163 0 0 1 .36-.1.713.713 0 0 1 .2-.01c.12.007.22.04.3.1.087.06.167.13.24.21.087.06.14.14.16.24.027.1.034.207.02.32a.915.915 0 0 1-.09.31.632.632 0 0 1-.17.24c-.093.093-.2.183-.32.27-.12.087-.23.15-.33.19a3.83 3.83 0 0 1-.72.07.68.68 0 0 1-.23-.04c-.046-.027-.083.01-.11.11-.026.1-.046.243-.06.43a1.272 1.272 0 0 0 0 .32.679.679 0 0 0 .04.14c.047.047.11.107.19.18.087.067.207.077.36.03.127-.033.25-.12.37-.26.127-.14.244-.253.35-.34a.16.16 0 0 1 .13-.08.453.453 0 0 1 .21.01c.074.047.104.103.09.17a1 1 0 0 1-.1.28.644.644 0 0 1-.14.18 3.476 3.476 0 0 1-.23.21 1.306 1.306 0 0 1-.78.33c-.173 0-.34-.03-.5-.09Zm.59-2.03c.147-.033.264-.057.35-.07a.554.554 0 0 0 .25-.11c.08-.067.18-.19.3-.37a.406.406 0 0 0 .02-.22c-.006-.073-.023-.123-.05-.15a.197.197 0 0 0-.22-.06.67.67 0 0 0-.23.11c-.046.02-.116.07-.21.15a2.48 2.48 0 0 0-.26.26c-.086.093-.156.18-.21.26-.053.08-.066.127-.04.14-.013.027.024.043.11.05.094.007.157.01.19.01Zm2.462 2.04c-.033.067-.083.087-.15.06a1.02 1.02 0 0 1-.15-.08.189.189 0 0 1-.12-.04.22.22 0 0 1-.07-.12.332.332 0 0 1-.01-.14c.007-.06.02-.127.04-.2.027-.08.054-.167.08-.26.054-.22.09-.38.11-.48.02-.1.04-.187.06-.26.02-.073.047-.18.08-.32a3.16 3.16 0 0 0 .13-.39c.034-.127.084-.253.15-.38.047-.173.104-.337.17-.49.074-.16.144-.293.21-.4a.664.664 0 0 1 .07-.08c.04-.033.074-.05.1-.05.054-.053.1-.073.14-.06a.38.38 0 0 1 .17.09c.08.087.11.187.09.3-.013.113-.093.28-.24.5-.08.207-.153.387-.22.54a1.997 1.997 0 0 0-.14.42c.074-.107.154-.203.24-.29l.23-.23a3.17 3.17 0 0 1 .36-.32c.1-.067.217-.143.35-.23.08-.053.157-.1.23-.14a.776.776 0 0 1 .24-.1.757.757 0 0 1 .3 0 .175.175 0 0 1 .16.06c.047.047.084.11.11.19.027.08.044.173.05.28a.702.702 0 0 0-.41.02c-.12.04-.223.09-.31.15-.08.06-.143.107-.19.14-.1.067-.226.157-.38.27a3.475 3.475 0 0 0-.46.39c-.12.133-.223.247-.31.34-.08.093-.146.177-.2.25-.046.073-.083.15-.11.23-.066.153-.136.32-.21.5-.073.18-.136.29-.19.33Zm4.214.06a.76.76 0 0 1-.25-.05.462.462 0 0 1-.1-.16.535.535 0 0 1-.1-.14.195.195 0 0 1 0-.09h.09c.026-.007.043-.02.05-.04 0-.02.01-.033.03-.04a.162.162 0 0 1 .08 0c.126.007.286-.033.48-.12.2-.093.413-.22.64-.38.233-.167.46-.35.68-.55.173-.227.3-.403.38-.53.08-.133.126-.24.14-.32a.342.342 0 0 0-.03-.22c-.027-.053-.124-.073-.29-.06-.167.007-.354.077-.56.21-.287.18-.517.347-.69.5a3.508 3.508 0 0 0-.48.52 1.777 1.777 0 0 0-.16.24 38.062 38.062 0 0 0-.17.34c0 .027-.04.06-.12.1a.416.416 0 0 1-.19.06.83.83 0 0 1-.11-.07.296.296 0 0 1-.08-.15.82.82 0 0 1-.1-.08.143.143 0 0 1-.04-.07.455.455 0 0 1 .03-.19c.026-.087.063-.223.11-.41.04-.173.083-.353.13-.54.053-.187.103-.347.15-.48.046-.133.08-.207.1-.22l.04-.09c.026-.06.04-.13.04-.21a.84.84 0 0 1 .06-.21.329.329 0 0 0 .05-.13c.026-.02.066-.1.12-.24.053-.14.12-.323.2-.55a.85.85 0 0 1 .07-.19 51.054 51.054 0 0 0 .55-1.3c.08-.113.14-.217.18-.31.046-.1.093-.16.14-.18a.259.259 0 0 1 .12.01.403.403 0 0 1 .28.17.35.35 0 0 1 .04.09c.006.027-.004.077-.03.15a75.727 75.727 0 0 1-.49 1.05 16.556 16.556 0 0 0-.76 1.9c-.08.24-.154.447-.22.62l-.05.22.25-.24c.1-.073.21-.163.33-.27.12-.107.226-.2.32-.28.053-.04.123-.08.21-.12a2.81 2.81 0 0 1 .27-.12c.086-.033.15-.053.19-.06a1.795 1.795 0 0 1 .44-.05.56.56 0 0 1 .35.1c.093.067.183.173.27.32.073.14.103.3.09.48a1.104 1.104 0 0 1-.16.49.52.52 0 0 0-.1.11c-.034.04-.05.073-.05.1-.007.047-.067.143-.18.29-.114.14-.227.273-.34.4a3.25 3.25 0 0 1-.44.38c-.174.12-.347.23-.52.33-.167.093-.31.16-.43.2-.054.007-.13.02-.23.04-.1.013-.177.027-.23.04Zm-41.643 8.21a1.666 1.666 0 0 1-.36-.21.964.964 0 0 1-.22-.23c0-.06.01-.1.03-.12.02-.027.077-.037.17-.03.1 0 .26.013.48.04a2.813 2.813 0 0 0 .63-.08c.107-.027.167-.06.18-.1.034 0 .04-.01.02-.03a.715.715 0 0 0-.07-.08.183.183 0 0 1-.09-.03c-.033-.027-.063-.04-.09-.04 0-.033-.033-.07-.1-.11a.776.776 0 0 0-.19-.11c-.146-.12-.273-.227-.38-.32-.106-.1-.146-.167-.12-.2v-.05c-.046 0-.1-.067-.16-.2a.99.99 0 0 1-.08-.36c0-.08.024-.18.07-.3.047-.127.11-.257.19-.39s.164-.243.25-.33c.12-.113.27-.233.45-.36.18-.133.357-.25.53-.35.18-.107.33-.177.45-.21.12-.047.23-.07.33-.07.107 0 .2.023.28.07a.534.534 0 0 1 .18.15c.06.06.11.123.15.19.047.06.077.113.09.16 0 .08-.006.17-.02.27a1.206 1.206 0 0 1-.06.25c-.02.073-.053.11-.1.11l-.03.01c-.013 0-.02.017-.02.05 0 .067-.05.143-.15.23a.969.969 0 0 1-.33.16c-.093.013-.15-.023-.17-.11a.27.27 0 0 1-.04-.07c-.006-.02-.023-.03-.05-.03l-.03-.03c-.02-.02-.03-.053-.03-.1 0-.027.01-.05.03-.07l.03-.04c.034 0 .077-.037.13-.11.054-.08.1-.163.14-.25a.548.548 0 0 0 .07-.19c0-.04-.006-.063-.02-.07-.006-.007-.036-.01-.09-.01a10.149 10.149 0 0 0-.72.36 1.09 1.09 0 0 0-.25.17l-.05.09c-.006.007-.023.01-.05.01 0-.027-.023-.013-.07.04a5.49 5.49 0 0 0-.16.2l-.18.26-.12.18a.367.367 0 0 0-.05.12.807.807 0 0 0-.02.17c-.026.08-.023.137.01.17l.22.18c.234.173.417.317.55.43.134.113.234.207.3.28a.46.46 0 0 1 .12.2c.12.2.157.353.11.46-.046.107-.16.2-.34.28a1.11 1.11 0 0 1-.33.08c-.153.02-.31.03-.47.03-.16.007-.286.003-.38-.01Zm4.558-.39a.879.879 0 0 1-.49.21c-.18.02-.356-.007-.53-.08-.173-.08-.316-.2-.43-.36a1.141 1.141 0 0 1-.22-.5 3.072 3.072 0 0 1-.01-.75c.02-.26.104-.52.25-.78.147-.267.324-.503.53-.71a1.94 1.94 0 0 1 .63-.43c.1-.067.184-.097.25-.09.074 0 .184.007.33.02.154.02.267.05.34.09.08.04.144.093.19.16a.783.783 0 0 1 .25.58c-.026.147-.126.327-.3.54a1.89 1.89 0 0 1-.66.51 1.39 1.39 0 0 1-.48.06.785.785 0 0 1-.43-.13c-.126-.053-.21-.043-.25.03-.04.067-.076.233-.11.5-.026.253-.006.44.06.56.067.113.157.18.27.2.134.027.237.047.31.06a.512.512 0 0 0 .29-.09c.107-.067.174-.103.2-.11a.221.221 0 0 0 .06-.04l.13-.13c.047-.047.084-.08.11-.1a.125.125 0 0 1 .09-.04c.034 0 .064.017.09.05a.33.33 0 0 0 .08.06c.067 0 .08.04.04.12-.033.08-.103.177-.21.29a2.179 2.179 0 0 1-.38.3Zm-.01-2.12c.074-.033.15-.08.23-.14.08-.067.147-.137.2-.21.06-.08.09-.147.09-.2a.27.27 0 0 0-.13-.23c-.086-.067-.216-.077-.39-.03a.694.694 0 0 0-.25.15 2.41 2.41 0 0 0-.27.25c-.08.093-.146.177-.2.25-.046.073-.063.117-.05.13.02.033.077.06.17.08.094.013.197.017.31.01a.82.82 0 0 0 .29-.06Zm2.002 2.16c-.1-.013-.186-.083-.26-.21a1.173 1.173 0 0 1-.12-.36c.007-.053.014-.13.02-.23.014-.1.027-.203.04-.31.027-.127.064-.28.11-.46l.14-.56c.054-.187.1-.347.14-.48.04-.133.067-.213.08-.24.034-.053.087-.067.16-.04a.42.42 0 0 1 .18.12.36.36 0 0 1 .07.19.814.814 0 0 1-.03.32c-.026.14-.08.347-.16.62-.073.267-.13.483-.17.65-.033.16-.046.33-.04.51a4.303 4.303 0 0 1-.06.42c-.013.047-.046.067-.1.06Zm1.15-3.99a.13.13 0 0 1-.08.03.694.694 0 0 1-.11-.06.455.455 0 0 1-.18-.09 2.546 2.546 0 0 1-.18-.18.435.435 0 0 1-.07-.12 1.173 1.173 0 0 1 .01-.25.75.75 0 0 1 .11-.28.28.28 0 0 1 .23-.14.22.22 0 0 1 .07.01c.02.007.08.03.18.07.054.1.107.213.16.34a.76.76 0 0 1 .07.36c-.006.113-.076.217-.21.31Zm3.316 4.18c-.067 0-.137-.037-.21-.11a1.166 1.166 0 0 1-.18-.27.836.836 0 0 1-.07-.32c0-.1.023-.287.07-.56.053-.273.116-.55.19-.83.053-.173.07-.273.05-.3-.02-.027-.11.01-.27.11a1.722 1.722 0 0 0-.25.15.872.872 0 0 0-.19.16c-.034.027-.084.07-.15.13a2.71 2.71 0 0 1-.21.17c-.087.067-.197.16-.33.28l-.4.36c-.127.12-.224.213-.29.28a.213.213 0 0 1-.15.11.47.47 0 0 1-.32-.15.334.334 0 0 1-.09-.23c0-.067.026-.18.08-.34.053-.167.123-.367.21-.6.093-.233.2-.48.32-.74a.527.527 0 0 0 .05-.12c.013-.053.023-.11.03-.17a.807.807 0 0 0 .02-.17c0-.033.003-.067.01-.1.013-.04.026-.077.04-.11a.315.315 0 0 1 .05-.08c.026-.053.073-.067.14-.04.066.02.123.067.17.14.1.093.15.21.15.35.006.14-.027.313-.1.52a1.305 1.305 0 0 0-.11.25.408.408 0 0 0-.03.07.397.397 0 0 0-.01.02c.026 0 .086-.03.18-.09.093-.06.203-.127.33-.2.1-.073.186-.14.26-.2a1.77 1.77 0 0 1 .2-.15c.053-.04.086-.06.1-.06.026 0 .06-.01.1-.03a.385.385 0 0 0 .1-.07c.026-.027.046-.04.06-.04l.03-.01h.04a.182.182 0 0 0 .08-.05c.053-.04.123-.05.21-.03a.55.55 0 0 1 .24.1c.073.053.11.113.11.18 0 .027.006.05.02.07l.03.02c.053 0 .086.083.1.25.02.167.003.327-.05.48 0 .1-.02.22-.06.36-.034.14-.064.273-.09.4-.054.167-.09.313-.11.44a1.04 1.04 0 0 0-.01.32.538.538 0 0 0 .07.21c.026.047.026.1 0 .16-.027.053-.08.08-.16.08Zm4.833.06a.501.501 0 0 1-.21-.02 3.803 3.803 0 0 1-.2-.11 1.45 1.45 0 0 1-.33-.34.65.65 0 0 1-.09-.35.309.309 0 0 0 0-.16l-.01-.07c-.04-.033-.053-.053-.04-.06a.116.116 0 0 0 .03-.06c.054-.013.06-.05.02-.11-.02-.053-.01-.173.03-.36a3.27 3.27 0 0 1 .18-.54c.034-.073.08-.17.14-.29.067-.12.14-.24.22-.36.08-.127.154-.227.22-.3a2.4 2.4 0 0 1 .39-.37 1.64 1.64 0 0 1 .4-.21 1.34 1.34 0 0 1 .29-.09c.06-.007.144.033.25.12.16.047.28.113.36.2.087.08.154.207.2.38.054.193.07.423.05.69-.013.26-.126.597-.34 1.01-.126.26-.253.457-.38.59a4.46 4.46 0 0 1-.44.42 2.28 2.28 0 0 1-.35.25c-.106.06-.236.107-.39.14Zm.8-1.19a3.6 3.6 0 0 0 .31-.55c.08-.173.144-.39.19-.65a1.09 1.09 0 0 0 .01-.27 1.377 1.377 0 0 0-.05-.31c-.02-.093-.05-.143-.09-.15a.432.432 0 0 0-.29 0c-.106.027-.223.107-.35.24a2.882 2.882 0 0 0-.31.45 4.96 4.96 0 0 0-.24.55c-.073.2-.143.413-.21.64-.066.253-.063.447.01.58.08.133.21.167.39.1.18-.073.39-.283.63-.63Zm2.216 1.02c-.033.067-.083.087-.15.06a1.02 1.02 0 0 1-.15-.08.185.185 0 0 1-.12-.04.214.214 0 0 1-.07-.12.317.317 0 0 1-.01-.14c.007-.06.02-.127.04-.2a6.3 6.3 0 0 0 .08-.26c.053-.22.09-.38.11-.48.02-.1.04-.187.06-.26.02-.073.047-.18.08-.32.053-.133.097-.263.13-.39s.083-.253.15-.38c.047-.173.103-.337.17-.49a3.5 3.5 0 0 1 .21-.4.584.584 0 0 1 .07-.08c.04-.033.073-.05.1-.05.053-.053.1-.073.14-.06a.385.385 0 0 1 .17.09c.08.087.11.187.09.3-.013.113-.093.28-.24.5-.08.207-.153.387-.22.54a1.94 1.94 0 0 0-.14.42 2.01 2.01 0 0 1 .24-.29l.23-.23a3.17 3.17 0 0 1 .36-.32c.1-.067.217-.143.35-.23.08-.053.157-.1.23-.14a.756.756 0 0 1 .24-.1.757.757 0 0 1 .3 0 .175.175 0 0 1 .16.06.48.48 0 0 1 .11.19c.027.08.043.173.05.28a.702.702 0 0 0-.41.02c-.12.04-.223.09-.31.15-.08.06-.143.107-.19.14-.1.067-.227.157-.38.27a3.413 3.413 0 0 0-.46.39c-.12.133-.223.247-.31.34-.08.093-.147.177-.2.25-.047.073-.083.15-.11.23-.067.153-.137.32-.21.5-.073.18-.137.29-.19.33Zm5.885-.31a.561.561 0 0 1-.15 0 .47.47 0 0 1-.14-.07 1.34 1.34 0 0 1-.11-.12c-.02-.033-.026-.083-.02-.15.014-.067.037-.17.07-.31.034-.107.074-.253.12-.44a15.8 15.8 0 0 1 .15-.57 3.47 3.47 0 0 1 .08-.33c.04-.113.08-.217.12-.31l.09-.23c.054-.187.104-.35.15-.49.054-.14.117-.3.19-.48.074-.187.164-.433.27-.74.147-.4.257-.703.33-.91a30.974 30.974 0 0 0 .25-.69c0-.053.014-.093.04-.12a.189.189 0 0 1 .12-.04c.094 0 .167.047.22.14.06.087.097.193.11.32a.587.587 0 0 1-.06.34c-.106.24-.22.527-.34.86-.12.327-.236.65-.35.97-.113.313-.22.58-.32.8a1.093 1.093 0 0 1-.1.32 2.415 2.415 0 0 1-.08.15l-.03.07c0 .027-.01.077-.03.15-.02.073-.046.163-.08.27l-.1.31a3.539 3.539 0 0 0-.07.32c.034-.06.104-.15.21-.27a4.8 4.8 0 0 1 .3-.31c.107-.093.227-.197.36-.31.134-.113.24-.197.32-.25l.21-.14.1-.07c0-.027.01-.04.03-.04a.333.333 0 0 1 .08-.01c.027 0 .04-.003.04-.01.007-.007.01-.023.01-.05 0-.033.037-.063.11-.09.08-.027.17-.047.27-.06.107-.02.194-.03.26-.03a.32.32 0 0 1 .19.05.85.85 0 0 1 .18.22c.08.107.13.237.15.39.027.147.014.3-.04.46 0 .053-.01.13-.03.23-.013.093-.02.193-.02.3l-.06.32h.16c.054 0 .104.01.15.03l.07.02.08.08c.027.02.054.03.08.03.08 0 .11.033.09.1a.352.352 0 0 1-.15.17c-.16.107-.306.16-.44.16a.489.489 0 0 1-.35-.16.762.762 0 0 1-.2-.38 1.283 1.283 0 0 1 .04-.53c.027-.293.04-.507.04-.64.007-.14-.026-.21-.1-.21-.066 0-.183.047-.35.14a4.343 4.343 0 0 0-.56.36c-.206.153-.41.323-.61.51s-.366.38-.5.58c-.08.1-.156.19-.23.27a.363.363 0 0 1-.22.12Zm4.349.18a.305.305 0 0 0-.1-.12c-.04-.033-.06-.063-.06-.09a.313.313 0 0 0-.01-.08.123.123 0 0 0-.04-.09c-.033-.04-.03-.13.01-.27.04-.147.107-.323.2-.53.093-.213.203-.437.33-.67.053-.053.107-.123.16-.21.053-.087.093-.143.12-.17 0-.027.01-.05.03-.07.02-.027.043-.04.07-.04v-.06c0-.033.03-.09.09-.17.067-.08.147-.167.24-.26.093-.1.19-.193.29-.28a1.6 1.6 0 0 1 .25-.2c.14-.093.283-.15.43-.17a.492.492 0 0 1 .39.1l.1.1.16.16a4.5 4.5 0 0 1 .2.17l.37.33-.18.5c-.087.267-.11.5-.07.7.047.2.113.373.2.52.033.073.1.143.2.21a.788.788 0 0 0 .3.12.328.328 0 0 1 .15.06c.047.033.07.087.07.16a.28.28 0 0 1-.04.16c-.027.04-.073.067-.14.08a.875.875 0 0 1-.62-.16c-.187-.133-.36-.353-.52-.66a1.617 1.617 0 0 1-.18-.44 17.19 17.19 0 0 0-.15.19c-.073.087-.13.15-.17.19-.473.48-.883.803-1.23.97-.34.16-.623.167-.85.02Zm.36-.56c0 .047.07.047.21 0 .147-.053.303-.147.47-.28a9.98 9.98 0 0 0 .68-.64c.233-.233.42-.45.56-.65l.22-.36c-.067-.153-.14-.257-.22-.31-.073-.06-.137-.09-.19-.09-.087 0-.217.08-.39.24a4.73 4.73 0 0 0-.54.64c-.193.267-.377.56-.55.88a6.183 6.183 0 0 0-.25.57Zm4.715.62a.487.487 0 0 1-.24 0 .567.567 0 0 1-.2-.1 1.76 1.76 0 0 1-.16-.14c-.047-.053-.06-.1-.04-.14.02-.047.053-.07.1-.07.027 0 .043-.027.05-.08a2.86 2.86 0 0 0 .04-.32c.013-.093.03-.173.05-.24a.538.538 0 0 0 .04-.15.95.95 0 0 0 .02-.16c.013-.093.033-.173.06-.24a8.94 8.94 0 0 1 .12-.46c.053-.193.107-.38.16-.56l.14-.43c.013-.073.043-.167.09-.28a4.87 4.87 0 0 1 .12-.27c.067-.187.153-.41.26-.67l.34-.78c.113-.26.213-.48.3-.66.093-.187.153-.3.18-.34a.228.228 0 0 1 .19-.07.37.37 0 0 1 .23.12c.06.073.087.153.08.24a.48.48 0 0 1-.13.26 2.049 2.049 0 0 0-.09.18 1.275 1.275 0 0 1-.1.17c-.053.16-.12.317-.2.47-.073.153-.153.327-.24.52-.087.187-.18.42-.28.7-.06.127-.11.253-.15.38a.871.871 0 0 1-.1.23c-.04.147-.09.3-.15.46a2.36 2.36 0 0 0-.13.47l.1-.1c.073-.067.16-.15.26-.25.26-.28.52-.51.78-.69.267-.18.487-.273.66-.28a.58.58 0 0 1 .3.07c.113.053.217.12.31.2a.572.572 0 0 1 .19.24c.053.12.073.25.06.39a1.148 1.148 0 0 1-.12.43c-.067.147-.16.297-.28.45a2.23 2.23 0 0 1-.27.37c-.1.113-.187.197-.26.25l-.2.18c-.06.053-.11.097-.15.13-.087.06-.157.107-.21.14a2.053 2.053 0 0 1-.22.09c-.14.1-.333.173-.58.22-.247.047-.49.087-.73.12Zm.26-.51c.047 0 .13-.01.25-.03a.779.779 0 0 0 .35-.15c.313-.16.583-.357.81-.59.227-.24.397-.477.51-.71.12-.24.173-.437.16-.59-.013-.153-.13-.187-.35-.1-.22.087-.487.287-.8.6a5.024 5.024 0 0 0-.42.43l-.36.42-.12.19a.494.494 0 0 0-.05.16c-.053.247-.047.37.02.37Zm4.266.84a.902.902 0 0 1-.72-.33c-.187-.227-.277-.507-.27-.84.013-.24.06-.497.14-.77.087-.28.2-.547.34-.8.14-.26.293-.487.46-.68a1.518 1.518 0 0 1 .73-.49c.08-.02.16-.03.24-.03.073 0 .15.013.23.04a.96.96 0 0 1 .2.07c.113.047.2.103.26.17.06.067.113.17.16.31.02.127.03.217.03.27a.91.91 0 0 1-.05.24c-.08.24-.183.447-.31.62s-.297.32-.51.44a.71.71 0 0 1-.19.08 1.122 1.122 0 0 1-.6-.05.706.706 0 0 1-.29-.23l-.07-.08-.03.08c-.067.18-.12.347-.16.5-.033.153-.05.293-.05.42 0 .08.007.157.02.23a.72.72 0 0 0 .08.19c.027.04.07.07.13.09a1.1 1.1 0 0 0 .21.02h.14a.56.56 0 0 0 .15-.04c.113-.04.203-.083.27-.13.073-.047.147-.097.22-.15l.04-.02h-.01c.08-.04.15-.08.21-.12l.1-.06c.027 0 .053-.017.08-.05.053-.027.12-.017.2.03.087.047.13.107.13.18a.523.523 0 0 1-.09.16c-.053.067-.113.13-.18.19-.06.06-.11.093-.15.1a.402.402 0 0 1-.07.04.214.214 0 0 0-.08.04h.01c-.06.08-.12.12-.18.12h-.08c-.027.047-.113.1-.26.16-.147.053-.29.08-.43.08Zm.45-2.2c.12 0 .223-.033.31-.1.093-.073.173-.153.24-.24.133-.18.21-.353.23-.52.027-.173.007-.293-.06-.36a.25.25 0 0 0-.11-.03c-.027-.007-.083.003-.17.03a.71.71 0 0 0-.25.15 2.931 2.931 0 0 0-.55.56l-.13.21a.426.426 0 0 1 .15-.03c.053-.007.083-.003.09.01 0 .06.01.117.03.17a.39.39 0 0 0 .09.11c.04.027.083.04.13.04Zm2.322 1.73c-.027 0-.067-.017-.12-.05a1.694 1.694 0 0 1-.11-.1.383.383 0 0 1-.09-.16 3.732 3.732 0 0 1-.01-.36c0-.213.043-.443.13-.69.086-.253.233-.607.44-1.06l.33-.7a.769.769 0 0 1 .07-.12.834.834 0 0 0 .07-.08h.1c.053 0 .106.033.16.1.053.06.093.127.12.2 0 .087-.014.177-.04.27-.02.093-.1.233-.24.42-.047.073-.11.197-.19.37a2.42 2.42 0 0 0-.15.45.4.4 0 0 0-.04.09l-.07.16c-.02.06-.044.117-.07.17l-.05.22.67-.69c.313-.313.566-.537.76-.67.193-.133.346-.19.46-.17.113.02.21.11.29.27a.96.96 0 0 1 .1.2.616.616 0 0 1 .05.22c.006.093 0 .233-.02.42v.62c.1-.027.18-.05.24-.07.06-.027.123-.053.19-.08.06-.027.13-.05.21-.07.08-.027.18-.043.3-.05a.73.73 0 0 1-.09.28 1.52 1.52 0 0 1-.2.27c-.08.087-.17.157-.27.21a.563.563 0 0 1-.28.08c-.087 0-.184-.043-.29-.13a.768.768 0 0 1-.23-.29.864.864 0 0 1-.05-.24v-.85c0-.107-.034-.137-.1-.09-.06.04-.11.077-.15.11-.1.087-.207.187-.32.3l-.33.35a6.65 6.65 0 0 1-.77.71c-.2.153-.337.23-.41.23Z"/>
  </g>
  <defs>
    <clipPath id="a">
      <path fill="#fff" d="M0 0h202v53H0z"/>
    </clipPath>
    <clipPath id="b">
      <path fill="#fff" d="m12.701-5-20.7 8.363 8.363 20.7 20.7-8.363z"/>
    </clipPath>
  </defs>
</svg>
