<svg xmlns="http://www.w3.org/2000/svg" width="202" height="53" fill="none" viewBox="0 0 202 53">
  <g clip-path="url(#a)">
    <path fill="#DF00A6" fill-rule="evenodd" d="M56.317 11.234c1.358.06 2.438.641 3.517 1.294 3.541 2.146 4.726 5.476 2.3 8.748-3.774 5.073-12.562 8.394-19.377 6.861-1.509-.337-3.552-.635-5.05-2.284-1.393-1.534-1.335-3.357-.697-5.045.65-1.73 1.904-3.323 2.903-4.347 4.365-4.467 13.107-8.527 21.013-6.386.162.04.325-.03.371-.159.047-.128-.034-.266-.185-.308-8.139-2.202-17.16 1.945-21.652 6.542-1.242 1.276-2.867 3.407-3.332 5.612-.313 1.507-.093 3.048 1.115 4.388 1.59 1.757 3.761 2.1 5.363 2.46 7.036 1.583 16.126-1.834 20.015-7.074 2.612-3.517 1.358-7.099-2.45-9.405-1.16-.71-2.345-1.322-3.82-1.386-.162-.007-.301.097-.301.232-.012.135.116.25.267.257Z" clip-rule="evenodd"/>
    <path fill="#580DD9" fill-rule="evenodd" d="M188.131 12.26c1.843.246 3.255.958 4.659 1.74 4.606 2.564 5.888 5.94 2.262 8.757-5.637 4.365-17.926 6.34-27.049 3.909-2.02-.537-4.771-1.11-6.646-2.91-1.744-1.673-1.485-3.423-.448-4.962 1.056-1.578 2.92-2.939 4.38-3.787 6.383-3.697 18.682-6.39 29.229-3.222.218.063.446.017.522-.1.076-.118-.021-.263-.223-.323-10.857-3.262-23.544-.524-30.113 3.282-1.817 1.057-4.24 2.885-5.091 4.947-.575 1.41-.428 2.926 1.082 4.387 1.991 1.917 4.911 2.552 7.056 3.123 9.418 2.51 22.127.485 27.939-4.025 3.903-3.027 2.552-6.657-2.402-9.413-1.51-.846-3.061-1.603-5.061-1.87-.22-.03-.42.05-.434.181-.029.129.134.258.338.285Z" clip-rule="evenodd"/>
    <path fill="#DF00A6" d="M28.601 35.95a.501.501 0 0 1-.17-.12.913.913 0 0 1-.15-.23.578.578 0 0 1-.06-.24c.034-.073.077-.2.13-.38.054-.187.12-.4.2-.64a.775.775 0 0 0 .12-.26l.09-.27a9.389 9.389 0 0 0 .4-.93c.074-.18.137-.33.19-.45.087-.18.16-.343.22-.49.067-.153.13-.307.19-.46.067-.153.137-.32.21-.5.08-.187.16-.377.24-.57.087-.193.16-.367.22-.52a2.14 2.14 0 0 0 .12-.34.2.2 0 0 1 .03-.12c.027-.027.054-.04.08-.04.027-.027.054-.04.08-.04a.328.328 0 0 1 .08-.01c.027 0 .077.05.15.15.08.1.12.19.12.27 0 .107-.053.307-.16.6-.1.293-.243.627-.43 1-.226.493-.41.9-.55 1.22-.14.313-.236.55-.29.71-.053.153-.073.24-.06.26l.14-.06c.094-.047.194-.11.3-.19.074-.04.154-.09.24-.15.087-.06.17-.117.25-.17a.61.61 0 0 1 .2-.11 3.13 3.13 0 0 1 .25-.15.982.982 0 0 0 .17-.12c.114-.053.197-.07.25-.05a.4.4 0 0 1 .18.15c.074.087.087.163.04.23-.046.06-.156.143-.33.25-.14.087-.31.19-.51.31-.193.12-.366.227-.52.32-.146.093-.23.15-.25.17l.08.15c.054.1.107.19.16.27.054.107.11.207.17.3.067.087.1.147.1.18.074.207.184.357.33.45.147.093.3.103.46.03.134-.053.23-.07.29-.05.067.02.114.07.14.15.027.053.034.093.02.12a.715.715 0 0 1-.13.15.853.853 0 0 1-.39.24.484.484 0 0 1-.35-.03c-.1.007-.223-.057-.37-.19a7.286 7.286 0 0 1-.63-.74.246.246 0 0 0-.04-.11 1.032 1.032 0 0 0-.07-.15 1.588 1.588 0 0 0-.1-.17l-.06-.1a.18.18 0 0 0-.03-.09 1.849 1.849 0 0 0-.08-.12c-.106-.033-.183-.013-.23.06a8.73 8.73 0 0 1-.15.23 9.41 9.41 0 0 0-.13.37 6.541 6.541 0 0 0-.12.45c-.026.147-.033.247-.02.3 0 .107-.016.18-.05.22-.033.033-.103.05-.21.05Zm4.32-.1a.392.392 0 0 1-.21-.05 3.694 3.694 0 0 1-.18-.14 1.393 1.393 0 0 1-.27-.38.634.634 0 0 1-.05-.36.298.298 0 0 0 .02-.15v-.08c-.033-.033-.043-.053-.03-.06a.229.229 0 0 0 .04-.06c.04 0 .054-.037.04-.11-.013-.053.014-.17.08-.35.067-.18.15-.35.25-.51.04-.067.1-.153.18-.26.08-.113.167-.223.26-.33a2.6 2.6 0 0 1 .71-.58 1.67 1.67 0 0 1 .41-.15c.147-.033.247-.05.3-.05.06 0 .14.053.24.16a.771.771 0 0 1 .33.24c.074.093.12.23.14.41.02.2.004.43-.05.69-.046.253-.203.57-.47.95-.166.24-.32.42-.46.54-.14.113-.306.227-.5.34-.14.093-.266.163-.38.21a1.63 1.63 0 0 1-.4.08Zm.96-1.06a3.094 3.094 0 0 0 .66-1.12.971.971 0 0 0 .05-.27 1.547 1.547 0 0 0-.01-.31c-.006-.1-.03-.157-.07-.17a.416.416 0 0 0-.29-.04c-.113.013-.236.077-.37.19-.206.173-.386.39-.54.65a8.068 8.068 0 0 0-.45.87c-.1.24-.123.433-.07.58.06.14.184.19.37.15.194-.047.434-.223.72-.53Zm4.976 1.09c-.067 0-.137-.037-.21-.11a1.192 1.192 0 0 1-.18-.27.844.844 0 0 1-.07-.32c0-.1.023-.287.07-.56a13.5 13.5 0 0 1 .19-.83c.053-.173.07-.273.05-.3-.02-.027-.11.01-.27.11a1.783 1.783 0 0 0-.25.15.898.898 0 0 0-.19.16c-.033.027-.084.07-.15.13-.067.06-.137.117-.21.17-.087.067-.197.16-.33.28l-.4.36c-.127.12-.223.213-.29.28a.22.22 0 0 1-.15.11.477.477 0 0 1-.32-.15.334.334 0 0 1-.09-.23c0-.067.026-.18.08-.34.053-.167.123-.367.21-.6.093-.233.2-.48.32-.74a.497.497 0 0 0 .05-.12c.013-.053.023-.11.03-.17a.781.781 0 0 0 .02-.17c0-.033.003-.067.01-.1.013-.04.026-.077.04-.11a.337.337 0 0 1 .05-.08c.027-.053.073-.067.14-.04a.31.31 0 0 1 .17.14c.1.093.15.21.15.35a1.41 1.41 0 0 1-.1.52c-.027.047-.05.093-.07.14a1.913 1.913 0 0 1-.07.18l-.01.02c.026 0 .087-.03.18-.09a8.47 8.47 0 0 1 .33-.2c.1-.073.186-.14.26-.2a1.92 1.92 0 0 1 .2-.15c.053-.04.087-.06.1-.06.026 0 .06-.01.1-.03a.379.379 0 0 0 .1-.07c.026-.027.047-.04.06-.04l.03-.01h.04a.176.176 0 0 0 .08-.05c.053-.04.123-.05.21-.03a.543.543 0 0 1 .24.1c.073.053.11.113.11.18 0 .027.007.05.02.07l.03.02c.053 0 .087.083.1.25.02.167.003.327-.05.48 0 .1-.02.22-.06.36-.033.14-.063.273-.09.4a3.02 3.02 0 0 0-.11.44c-.02.127-.023.233-.01.32a.556.556 0 0 0 .07.21c.026.047.026.1 0 .16-.027.053-.08.08-.16.08Zm.732 1.98c-.1.087-.22.14-.36.16a.81.81 0 0 1-.78-.28c-.04-.093-.047-.17-.02-.23a.217.217 0 0 1 .14-.11.34.34 0 0 1 .22.04c.066.027.176.03.33.01a.476.476 0 0 0 .35-.19 1.51 1.51 0 0 0 .19-.31c.08-.147.16-.31.24-.49l.23-.5c.073-.16.13-.287.17-.38a5.97 5.97 0 0 0 .09-.25.653.653 0 0 0 .04-.16.579.579 0 0 0 .08-.17 4.36 4.36 0 0 0 .08-.28.326.326 0 0 0 .05-.04c.013-.02.006-.043-.02-.07l.21-.76c.04-.18.083-.333.13-.46a1.098 1.098 0 0 0 .09-.39.622.622 0 0 1 .08-.22c.007-.1.02-.187.04-.26a.653.653 0 0 0 .04-.16c.026-.02.073-.017.14.01a.36.36 0 0 1 .17.11c.047.06.077.11.09.15.02.04.02.117 0 .23-.014.107-.047.3-.1.58a2.98 2.98 0 0 1-.06.24c-.027.12-.063.257-.11.41l-.12.44c-.04.14-.077.253-.11.34-.027.1-.053.193-.08.28a1.425 1.425 0 0 0-.05.2 2.337 2.337 0 0 0-.11.24c-.04.107-.08.21-.12.31a1.84 1.84 0 0 1-.09.19.148.148 0 0 1-.04.07.178.178 0 0 0-.02.08l-.09.24a3.54 3.54 0 0 1-.25.52c-.034.08-.093.18-.18.3s-.177.23-.27.33c-.087.107-.16.183-.22.23Zm2.29-6.58a.687.687 0 0 1-.23-.02.563.563 0 0 1-.19-.08c-.114-.093-.16-.197-.14-.31a.554.554 0 0 1 .18-.31.69.69 0 0 1 .35-.17.275.275 0 0 1 .16.03c.053.027.1.067.14.12a.306.306 0 0 1 .08.2.425.425 0 0 1-.07.31.782.782 0 0 1-.28.23Zm2.77 4.7c-.046.027-.11.017-.19-.03a.915.915 0 0 1-.22-.21.877.877 0 0 1-.1-.26 2.928 2.928 0 0 1-.02-.39c.008-.133 0-.22-.02-.26-.012-.04-.05-.033-.11.02a4.12 4.12 0 0 0-.31.29 2.625 2.625 0 0 1-.48.39c-.146.093-.266.137-.36.13-.046 0-.1-.023-.16-.07a1.113 1.113 0 0 1-.15-.19 2.004 2.004 0 0 1-.12-.24 1.503 1.503 0 0 1-.02-.56c.034-.233.087-.477.16-.73.074-.253.157-.493.25-.72.1-.227.2-.41.3-.55.108-.14.2-.21.28-.21.054 0 .1.027.14.08a.922.922 0 0 1 .14.25c.028.047.038.087.03.12 0 .033-.026.073-.08.12-.06.08-.13.2-.21.36-.072.16-.146.333-.22.52-.066.187-.126.367-.18.54-.053.173-.09.317-.11.43-.02.107-.016.16.01.16a.686.686 0 0 0 .33-.11 2.2 2.2 0 0 0 .38-.29c.14-.14.264-.293.37-.46.114-.167.227-.343.34-.53a9.85 9.85 0 0 0 .27-.44 2.5 2.5 0 0 0 .19-.34c.094-.173.164-.29.21-.35a.319.319 0 0 1 .17-.13h.14c.04.007.087.037.14.09.054.027.084.053.09.08a.26.26 0 0 1 .01.08c-.026.067-.07.167-.13.3a76.651 76.651 0 0 1-.5 1.13 3.82 3.82 0 0 0-.26.84 1.724 1.724 0 0 0-.01.33c.014.12.034.207.06.26l.07.14c.034.047.07.087.11.12.06.04.07.083.03.13a.416.416 0 0 1-.26.16Zm4.892-.44a.62.62 0 0 1-.33-.08.68.68 0 0 1-.22-.29 3.074 3.074 0 0 1-.07-.31 2.99 2.99 0 0 1-.02-.33c0-.107.01-.177.03-.21.027-.027.037-.073.03-.14v-.23c-.007-.133-.04-.207-.1-.22-.053-.02-.133 0-.24.06-.12.073-.277.173-.47.3-.193.12-.397.253-.61.4a8.17 8.17 0 0 0-.59.46c-.147.16-.237.283-.27.37-.027.08-.067.12-.12.12-.053.027-.1.03-.14.01l-.15-.12a3.167 3.167 0 0 0-.14-.15.67.67 0 0 1-.09-.12c0-.033.01-.103.03-.21.02-.107.043-.213.07-.32.033-.107.057-.177.07-.21.033 0 .06-.033.08-.1.027-.067.067-.14.12-.22.013-.08.047-.187.1-.32l.16-.37c.093-.16.157-.293.19-.4a1.5 1.5 0 0 0 .08-.4.07.07 0 0 1 .02-.07c.02-.027.043-.04.07-.04a.168.168 0 0 1 .19-.04c.073.02.14.07.2.15.12.16.167.327.14.5-.02.167-.127.407-.32.72l-.11.25a.392.392 0 0 0-.03.13l.1-.07c.073-.047.153-.1.24-.16a4.52 4.52 0 0 1 .22-.15 2.39 2.39 0 0 1 .23-.18c.12-.087.247-.17.38-.25.14-.087.243-.137.31-.15.053-.027.11-.05.17-.07a.377.377 0 0 1 .13-.04c.053 0 .12.03.2.09a1.1 1.1 0 0 1 .24.2.458.458 0 0 1 .13.19v.08l.02.08c.027.087.04.203.04.35.007.147.003.28-.01.4-.013.12-.037.19-.07.21v.03c.007.013.023.02.05.02v.05c-.033 0-.047.03-.04.09a.566.566 0 0 0 .06.18c.04.067.08.12.12.16.08.08.113.157.1.23-.013.067-.073.113-.18.14Zm1.032.24a.78.78 0 0 1-.15-.13c-.033-.04-.047-.097-.04-.17.013-.1.033-.203.06-.31a2.71 2.71 0 0 1 .1-.33c.02-.12.043-.24.07-.36.033-.12.087-.233.16-.34.087-.247.177-.49.27-.73a6.88 6.88 0 0 0 .24-.77c.1-.24.19-.453.27-.64.087-.187.19-.427.31-.72.067-.153.123-.323.17-.51a1.57 1.57 0 0 1 .24-.51.96.96 0 0 0 .1-.15c.027-.047.053-.09.08-.13.013-.04.057-.053.13-.04.08.013.137.043.17.09.033-.007.073.037.12.13s.063.167.05.22a.465.465 0 0 1-.08.24.47.47 0 0 0-.08.12c-.027.047-.067.11-.12.19l-.08.26a1.978 1.978 0 0 1-.09.24c-.033.073-.07.147-.11.22a.943.943 0 0 0-.08.18c-.06.153-.127.303-.2.45a3.98 3.98 0 0 0-.18.45l-.17.49a2.219 2.219 0 0 1-.22.48.787.787 0 0 0-.11.27c-.027.113-.053.223-.08.33l-.13.33a.866.866 0 0 0-.05.19 3.555 3.555 0 0 0-.11.44c-.027.14-.07.263-.13.37-.007.1-.037.167-.09.2-.047.033-.127.017-.24-.05Zm2.39.16a.776.776 0 0 1-.24-.06 6.403 6.403 0 0 1-.3-.21 6.18 6.18 0 0 1-.33-.37 12.27 12.27 0 0 1-.77-1.02l.41-.55c.087.107.157.207.21.3a.985.985 0 0 0 .13.19c.153.227.273.41.36.55.093.14.177.253.25.34.073.087.15.163.23.23.087.067.193.137.32.21.02.013.04.033.06.06.02.027.027.067.02.12-.027.073-.057.12-.09.14a1.8 1.8 0 0 1-.26.07Zm-1.67-1.77a.389.389 0 0 1 .04-.34.67.67 0 0 1 .24-.25.218.218 0 0 1 .08-.09c.033-.02.053-.043.06-.07a.441.441 0 0 1 .1-.11c.06-.047.113-.09.16-.13a8.425 8.425 0 0 0 .76-.54c.127-.1.233-.187.32-.26.093-.073.15-.12.17-.14a.128.128 0 0 1 .08-.05c.04-.013.09-.007.15.02.08.02.133.053.16.1.027.04.04.12.04.24.02.073-.01.153-.09.24-.073.08-.187.17-.34.27a4.62 4.62 0 0 0-.22.15c-.087.067-.163.13-.23.19a2.806 2.806 0 0 0-.21.14c-.087.06-.163.12-.23.18a1.324 1.324 0 0 0-.21.18c-.087.08-.173.14-.26.18-.213.2-.353.307-.42.32-.067.013-.117-.063-.15-.23Zm3.762 2.33c-.22-.033-.37-.117-.45-.25-.073-.127-.09-.323-.05-.59.04-.127.064-.24.07-.34.014-.107.044-.173.09-.2l.01-.03c.014-.02.01-.04-.01-.06 0-.087.03-.207.09-.36.014-.04.03-.087.05-.14l.04-.09c-.033-.053-.033-.097 0-.13.034-.033.067-.063.1-.09.04-.033.044-.07.01-.11-.013-.027.004-.087.05-.18.047-.1.1-.203.16-.31.06-.107.1-.19.12-.25 0-.013.017-.06.05-.14a17.103 17.103 0 0 1 .25-.57c.047-.087.077-.143.09-.17.067-.033.04-.057-.08-.07a2.37 2.37 0 0 0-.38-.01 7.244 7.244 0 0 1-.5-.03.757.757 0 0 1-.3-.09c-.08-.093-.11-.16-.09-.2.027-.047.107-.073.24-.08a2.64 2.64 0 0 1 .2-.01c.054 0 .12-.003.2-.01.087-.013.22-.03.4-.05l.51-.04.03-.17a3.092 3.092 0 0 0 .23-.45c.027-.073.047-.15.06-.23l.09-.16a.974.974 0 0 0 .11-.35c.08-.133.15-.253.21-.36.06-.113.097-.183.11-.21.074-.06.124-.09.15-.09.034 0 .1.033.2.1.06.033.114.073.16.12a.325.325 0 0 1 .09.15c.014.047-.006.093-.06.14a1.637 1.637 0 0 0-.06.15 1.796 1.796 0 0 0-.06.17c-.04.047-.09.123-.15.23-.053.1-.09.203-.11.31a11.92 11.92 0 0 1-.15.31c-.046.087-.083.13-.11.13.014.067.054.1.12.1.067-.007.177-.013.33-.02.127-.013.214-.027.26-.04.054-.02.114-.013.18.02a.6.6 0 0 1 .08.16.3.3 0 0 1 .01.17.123.123 0 0 1-.08.1.803.803 0 0 0-.21.06 1.42 1.42 0 0 1-.38.06l-.53.05-.17.34a3.996 3.996 0 0 0-.12.24.614.614 0 0 1-.07.12c0 .04-.023.1-.07.18l-.13.26a1.84 1.84 0 0 1-.14.31l-.07.14c-.026 0-.04.02-.04.06.034.08.024.14-.03.18a.288.288 0 0 0-.09.09l-.03.05c.027.027.03.06.01.1a.744.744 0 0 1-.06.13c0 .053-.016.13-.05.23-.026.1-.056.193-.09.28.007.12.014.197.02.23.007.033.024.047.05.04a.203.203 0 0 0 .09 0 .327.327 0 0 1 .08-.01c.094-.04.044.193-.15.7-.106.167-.18.287-.22.36-.04.08-.076.12-.11.12Zm2.6-.99a.33.33 0 0 1-.1-.02l-.05-.03c0-.027-.01-.06-.03-.1a.33.33 0 0 1-.02-.1c-.046-.027-.072-.053-.08-.08a.34.34 0 0 1 .03-.16c.04-.067.094-.173.16-.32a22.529 22.529 0 0 0 .42-1.02c.068-.173.124-.32.17-.44.047-.127.074-.203.08-.23 0-.027.01-.06.03-.1a.383.383 0 0 1 .07-.1c.054-.047.11-.05.17-.01.06.033.11.093.15.18.047.08.07.17.07.27 0 .047-.032.167-.1.36-.066.187-.156.41-.27.67-.106.26-.226.523-.36.79a42.3 42.3 0 0 0-.19.37c-.026.047-.076.07-.15.07Zm1.47-3.79a.489.489 0 0 1-.26-.09 1.13 1.13 0 0 1-.23-.24c-.06-.1-.09-.2-.09-.3 0-.033.02-.08.06-.14l.12-.18a.36.36 0 0 0 .06-.11.53.53 0 0 1 .12.01c.034 0 .074.013.12.04.074.167.164.303.27.41.114.107.17.197.17.27 0 .147-.013.24-.04.28-.026.033-.126.05-.3.05Zm1.036 3.67c-.047-.04-.107-.16-.18-.36a9.553 9.553 0 0 1-.2-.7c-.06-.273-.11-.523-.15-.75a2.47 2.47 0 0 0-.09-.34 5.799 5.799 0 0 0-.07-.23.711.711 0 0 1-.03-.3.266.266 0 0 1 .14-.19.319.319 0 0 1 .12-.04.268.268 0 0 1 .12-.01c.08.027.153.15.22.37.067.213.127.497.18.85.027.207.06.383.1.53.04.147.06.233.06.26.027.053.057.107.09.16.04.047.087.043.14-.01a4.25 4.25 0 0 0 .16-.18c.087-.093.17-.193.25-.3.14-.187.25-.34.33-.46.087-.12.183-.247.29-.38.047-.067.1-.14.16-.22.06-.08.12-.153.18-.22a.4.4 0 0 1 .18-.13c.16-.027.247.007.26.1.013.093-.047.233-.18.42-.053.08-.097.157-.13.23a.431.431 0 0 1-.08.14 3.801 3.801 0 0 1-.25.41c-.113.16-.223.31-.33.45a4.06 4.06 0 0 1-.22.26 2.498 2.498 0 0 1-.18.15c-.087.073-.17.167-.25.28-.16.153-.287.247-.38.28-.093.033-.18.01-.26-.07Zm4.24.26a.88.88 0 0 1-.49.21c-.18.02-.356-.007-.53-.08-.173-.08-.316-.2-.43-.36a1.13 1.13 0 0 1-.22-.5 3.022 3.022 0 0 1-.01-.75c.02-.26.104-.52.25-.78.147-.267.324-.503.53-.71a1.93 1.93 0 0 1 .63-.43c.1-.067.184-.097.25-.09.074 0 .184.007.33.02.154.02.267.05.34.09.08.04.144.093.19.16a.787.787 0 0 1 .25.58c-.026.147-.126.327-.3.54a1.902 1.902 0 0 1-.66.51 1.395 1.395 0 0 1-.48.06.782.782 0 0 1-.43-.13c-.126-.053-.21-.043-.25.03-.04.067-.076.233-.11.5-.026.253-.006.44.06.56.067.113.157.18.27.2.134.027.237.047.31.06a.513.513 0 0 0 .29-.09 1.11 1.11 0 0 1 .2-.11.231.231 0 0 0 .06-.04l.13-.13c.047-.047.084-.08.11-.1a.124.124 0 0 1 .09-.04c.034 0 .064.017.09.05a.312.312 0 0 0 .08.06c.067 0 .08.04.04.12-.033.08-.103.177-.21.29a2.217 2.217 0 0 1-.38.3Zm-.01-2.12c.074-.033.15-.08.23-.14.08-.067.147-.137.2-.21.06-.08.09-.147.09-.2a.27.27 0 0 0-.13-.23c-.086-.067-.216-.077-.39-.03a.686.686 0 0 0-.25.15 2.359 2.359 0 0 0-.27.25c-.08.093-.146.177-.2.25-.046.073-.063.117-.05.13.02.033.077.06.17.08.094.013.197.017.31.01a.821.821 0 0 0 .29-.06Zm4.844 2.78c-.046-.073-.153-.12-.32-.14a3.338 3.338 0 0 0-.59-.01.613.613 0 0 1-.27-.02.425.425 0 0 1-.21-.11c-.046-.047-.063-.097-.05-.15.007-.08.074-.143.2-.19.134-.047.344-.073.63-.08l.53-.01.1-.2c.027-.073.06-.177.1-.31l.13-.43c.027-.093.067-.22.12-.38l.17-.51.16-.48c.047-.147.077-.25.09-.31.027-.06.064-.16.11-.3.047-.147.09-.293.13-.44a3.68 3.68 0 0 0 .09-.33c.174-.527.287-.9.34-1.12.054-.227.067-.343.04-.35a9.154 9.154 0 0 0-.54.04c-.12.007-.23.017-.33.03a.553.553 0 0 0-.17.04c-.033.047-.09.057-.17.03-.08-.027-.13-.073-.15-.14a1.374 1.374 0 0 1-.01-.14.12.12 0 0 1 .06-.08.917.917 0 0 1 .27-.13c.134-.053.284-.1.45-.14.174-.04.337-.07.49-.09.114-.013.227-.037.34-.07a.924.924 0 0 0 .27-.14c.06-.02.117-.037.17-.05a.546.546 0 0 1 .18-.01c.054.033.144.05.27.05.134 0 .274-.003.42-.01.374-.033.624-.043.75-.03.134.013.224.067.27.16.034.127.04.227.02.3-.02.067-.086.097-.2.09a2.91 2.91 0 0 1-.33.04l-.49.02c-.473.04-.726.087-.76.14a.759.759 0 0 0-.07.08.518.518 0 0 1-.06.09c.007.027-.01.113-.05.26a3.89 3.89 0 0 1-.13.43 45.065 45.065 0 0 1-.29.87c-.053.167-.103.32-.15.46-.046.133-.08.223-.1.27-.026.06-.05.127-.07.2a96.66 96.66 0 0 1-.03.15c-.093.327-.176.603-.25.83-.066.227-.13.427-.19.6-.053.167-.103.33-.15.49l-.15.51.15-.01c.107-.013.247-.027.42-.04.314-.033.537-.053.67-.06.14-.007.234.003.28.03.047.02.08.06.1.12.134.18.15.303.05.37-.1.067-.336.097-.71.09l-.8.03c-.18.013-.306.03-.38.05-.066.02-.106.053-.12.1 0 .053-.026.08-.08.08a.657.657 0 0 1-.2-.04Zm4.13.24c-.054-.067-.164-.107-.33-.12a3.595 3.595 0 0 0-.59.01.732.732 0 0 1-.27-.01.475.475 0 0 1-.21-.1c-.054-.047-.074-.1-.06-.16.006-.08.073-.143.2-.19.126-.053.333-.087.62-.1l.53-.03.1-.21c.02-.073.046-.177.08-.31a24.346 24.346 0 0 1 .24-.84l.19-.59.18-.56c.053-.167.083-.28.09-.34.026-.06.063-.17.11-.33l.14-.49c.046-.173.076-.293.09-.36.153-.533.253-.913.3-1.14.046-.227.056-.34.03-.34a4.517 4.517 0 0 0-.54.05c-.12.013-.23.03-.33.05-.094.013-.147.027-.16.04-.034.047-.09.06-.17.04a.243.243 0 0 1-.16-.14 1.374 1.374 0 0 1-.01-.14.128.128 0 0 1 .05-.08c.046-.04.133-.087.26-.14.133-.053.283-.103.45-.15.173-.047.336-.083.49-.11.113-.013.226-.04.34-.08a.922.922 0 0 0 .26-.15 1.04 1.04 0 0 1 .17-.06.546.546 0 0 1 .18-.01c.053.027.143.04.27.04.133-.007.273-.017.42-.03.373-.047.626-.063.76-.05.133.007.223.057.27.15.033.12.04.217.02.29-.014.073-.077.107-.19.1-.06.02-.17.037-.33.05a49.22 49.22 0 0 1-.49.04 4.51 4.51 0 0 0-.54.09c-.127.027-.197.053-.21.08a.759.759 0 0 0-.07.08.518.518 0 0 1-.06.09c.013.027.003.113-.03.26a7.35 7.35 0 0 1-.12.44l-.12.39-.17.53-.15.51c-.047.147-.08.243-.1.29-.02.06-.04.127-.06.2a.846.846 0 0 0-.02.15 21.58 21.58 0 0 1-.56 1.92c-.074.24-.14.483-.2.73l.15-.01c.106-.013.246-.033.42-.06a13.7 13.7 0 0 1 .55-.07c.133-.013.233-.017.3-.01.066 0 .11.013.13.04a.24.24 0 0 1 .07.1c.14.173.16.293.06.36-.094.067-.327.107-.7.12l-.8.06c-.18.02-.307.04-.38.06-.067.02-.104.053-.11.1 0 .033-.014.057-.04.07-.02.02-.054.027-.1.02a.772.772 0 0 1-.14-.04Zm-31.946 7c-.1 0-.193-.06-.28-.18a1.444 1.444 0 0 1-.18-.48 2.73 2.73 0 0 1-.03-.62c0-.213.01-.383.03-.51l.08-.39c.02-.04.03-.073.03-.1a1.1 1.1 0 0 0 .02-.13l.07-.3a2.55 2.55 0 0 1 .08-.28.43.43 0 0 1 .08-.15.195.195 0 0 1 .13-.07.264.264 0 0 1 .29.12c.04.033.06.11.06.23.007.113 0 .233-.02.36a.613.613 0 0 1-.09.26 1.57 1.57 0 0 0-.05.26c-.013.14-.03.287-.05.44-.013.153-.03.277-.05.37-.02.12-.01.217.03.29.047.073.13.077.25.01.127-.073.294-.26.5-.56.14-.2.247-.363.32-.49.074-.127.13-.243.17-.35.047-.113.094-.233.14-.36.034-.107.064-.193.09-.26a.383.383 0 0 1 .09-.14.224.224 0 0 1 .16-.04c.067.007.14.037.22.09.08.08.12.177.12.29 0 .107-.04.24-.12.4a2.937 2.937 0 0 0-.16.41 6.289 6.289 0 0 0-.12.51c-.026.167-.04.303-.04.41 0 .133.017.213.05.24.04.02.087.03.14.03.08 0 .177-.03.29-.09.114-.06.24-.163.38-.31.06-.06.134-.147.22-.26.087-.12.17-.243.25-.37a4.53 4.53 0 0 0 .21-.35c.06-.1.09-.163.09-.19 0-.04.03-.097.09-.17L45 41a.42.42 0 0 1 .14-.1c.054-.027.1-.03.14-.01a.32.32 0 0 1 .13.1c.034.027.05.067.05.12.007.053.01.12.01.2a3.08 3.08 0 0 1-.1.29c-.04.113-.086.223-.14.33a.979.979 0 0 1-.12.21 5.22 5.22 0 0 0-.14.15 1.54 1.54 0 0 0-.18.22c-.166.2-.286.33-.36.39a2.59 2.59 0 0 0-.19.17 1.59 1.59 0 0 1-.44.32c-.153.067-.3.1-.44.1a.57.57 0 0 1-.34-.1c-.206-.107-.31-.287-.31-.54a.31.31 0 0 0-.03-.14l-.02-.07a.43.43 0 0 0-.11.02c-.04.013-.083.06-.13.14a1.32 1.32 0 0 1-.29.35c-.126.113-.256.21-.39.29-.133.073-.24.11-.32.11Zm6.156.1a.88.88 0 0 1-.49.21c-.18.02-.356-.007-.53-.08a1.07 1.07 0 0 1-.43-.36 1.131 1.131 0 0 1-.22-.5 3.027 3.027 0 0 1-.01-.75c.02-.26.104-.52.25-.78.147-.267.324-.503.53-.71a1.94 1.94 0 0 1 .63-.43c.1-.067.184-.097.25-.09.074 0 .184.007.33.02.154.02.267.05.34.09.08.04.144.093.19.16a.787.787 0 0 1 .25.58c-.026.147-.126.327-.3.54a1.9 1.9 0 0 1-.66.51 1.394 1.394 0 0 1-.48.06.783.783 0 0 1-.43-.13c-.126-.053-.21-.043-.25.03-.04.067-.076.233-.11.5-.026.253-.006.44.06.56.067.113.157.18.27.2.134.027.237.047.31.06a.513.513 0 0 0 .29-.09c.107-.067.174-.103.2-.11a.231.231 0 0 0 .06-.04l.13-.13a1.15 1.15 0 0 1 .11-.1.124.124 0 0 1 .09-.04c.034 0 .064.017.09.05a.314.314 0 0 0 .08.06c.067 0 .08.04.04.12-.033.08-.103.177-.21.29a2.213 2.213 0 0 1-.38.3Zm-.01-2.12c.074-.033.15-.08.23-.14.08-.067.147-.137.2-.21.06-.08.09-.147.09-.2a.27.27 0 0 0-.13-.23c-.086-.067-.216-.077-.39-.03a.687.687 0 0 0-.25.15 2.359 2.359 0 0 0-.27.25c-.08.093-.146.177-.2.25-.046.073-.063.117-.05.13.02.033.077.06.17.08.094.013.197.017.31.01a.821.821 0 0 0 .29-.06Zm2.112 2.16c-.02.007-.053.003-.1-.01a1.162 1.162 0 0 1-.14-.05.324.324 0 0 1-.09-.05.464.464 0 0 1-.08-.12.438.438 0 0 1 0-.23c.02-.107.087-.243.2-.41.034-.067.074-.167.12-.3.047-.133.094-.273.14-.42.054-.153.1-.29.14-.41.047-.12.08-.203.1-.25.014-.113.007-.193-.02-.24-.02-.053-.076-.083-.17-.09a.521.521 0 0 1-.16-.02c-.033-.013-.05-.08-.05-.2.014-.093.037-.157.07-.19.04-.04.094-.083.16-.13a.752.752 0 0 1 .41-.08c.067.007.12.03.16.07.047.027.077.087.09.18.014.087.02.177.02.27.007.093.014.163.02.21.067-.053.157-.127.27-.22.12-.1.224-.193.31-.28.107-.073.234-.147.38-.22.147-.08.254-.12.32-.12.074 0 .147.02.22.06a.294.294 0 0 1 .15.13.529.529 0 0 1 .09.3.442.442 0 0 1-.11.27.515.515 0 0 1-.25.18.751.751 0 0 1-.18.05c-.04 0-.09-.03-.15-.09s-.093-.11-.1-.15c0-.02-.043 0-.13.06-.08.053-.17.123-.27.21-.1.08-.183.153-.25.22-.113.14-.233.33-.36.57-.126.24-.276.53-.45.87-.08.167-.136.31-.17.43-.033.113-.08.18-.14.2Zm5.224.28a.337.337 0 0 1-.16.03 2.11 2.11 0 0 1-.21-.15.759.759 0 0 1-.09-.21 4.084 4.084 0 0 1-.01-.35c.013-.1.04-.243.08-.43.047-.187.1-.383.16-.59l.16-.56c.053-.167.093-.28.12-.34.047-.16.057-.257.03-.29-.027-.04-.107-.067-.24-.08-.267-.033-.507.053-.72.26a4.517 4.517 0 0 0-.64.81c-.16.247-.257.46-.29.64-.027.173-.03.293-.01.36.02.053.067.083.14.09a.674.674 0 0 0 .24-.05c.093-.033.173-.067.24-.1.047-.027.103-.053.17-.08.073-.033.143-.063.21-.09.04 0 .067.013.08.04.02.02.03.063.03.13 0 .027.01.05.03.07.02.02.043.037.07.05.027.027-.013.087-.12.18-.1.093-.257.2-.47.32-.2.047-.363.07-.49.07a.57.57 0 0 1-.35-.13c-.187-.113-.293-.297-.32-.55-.02-.26.033-.577.16-.95.127-.3.267-.543.42-.73.153-.193.317-.38.49-.56a1.76 1.76 0 0 1 .55-.28c.167-.053.323-.087.47-.1a.56.56 0 0 1 .38.09c.12.027.197.023.23-.01.033-.04.09-.16.17-.36.133-.333.263-.67.39-1.01.127-.347.263-.697.41-1.05.067-.127.107-.223.12-.29a.348.348 0 0 1 .07-.15h.19c.027 0 .073.023.14.07.067.047.113.11.14.19 0 .06-.027.193-.08.4-.053.2-.14.44-.26.72-.107.247-.213.497-.32.75-.1.247-.197.51-.29.79-.073.207-.14.373-.2.5s-.1.237-.12.33c-.04.173-.09.33-.15.47l-.11.28c-.087.253-.157.46-.21.62a4.694 4.694 0 0 0-.12.39 1.58 1.58 0 0 0-.05.31c0 .1.01.22.03.36a.327.327 0 0 1-.01.08c-.007.027-.033.057-.08.09Zm2.656.06a.901.901 0 0 1-.72-.33c-.187-.227-.277-.507-.27-.84.013-.24.06-.497.14-.77.086-.28.2-.547.34-.8.14-.26.293-.487.46-.68a1.514 1.514 0 0 1 .73-.49c.08-.02.16-.03.24-.03.073 0 .15.013.23.04.08.02.146.043.2.07.113.047.2.103.26.17.06.067.113.17.16.31.02.127.03.217.03.27a.897.897 0 0 1-.05.24 2.25 2.25 0 0 1-.31.62c-.127.173-.297.32-.51.44a.711.711 0 0 1-.19.08 1.118 1.118 0 0 1-.6-.05.708.708 0 0 1-.29-.23l-.07-.08-.03.08c-.067.18-.12.347-.16.5-.034.153-.05.293-.05.42 0 .08.006.157.02.23.02.073.046.137.08.19.026.04.07.07.13.09.066.013.136.02.21.02h.14a.555.555 0 0 0 .15-.04c.113-.04.203-.083.27-.13a4.38 4.38 0 0 0 .22-.15l.04-.02h-.01c.08-.04.15-.08.21-.12l.1-.06c.026 0 .053-.017.08-.05.053-.027.12-.017.2.03.086.047.13.107.13.18a.51.51 0 0 1-.09.16 1.69 1.69 0 0 1-.18.19c-.06.06-.11.093-.15.1a.39.39 0 0 1-.07.04.217.217 0 0 0-.08.04h.01c-.06.08-.12.12-.18.12h-.08c-.027.047-.114.1-.26.16-.147.053-.29.08-.43.08Zm.45-2.2c.12 0 .223-.033.31-.1.093-.073.173-.153.24-.24.133-.18.21-.353.23-.52.026-.173.006-.293-.06-.36a.249.249 0 0 0-.11-.03c-.027-.007-.084.003-.17.03a.706.706 0 0 0-.25.15 2.98 2.98 0 0 0-.55.56l-.13.21a.428.428 0 0 1 .15-.03c.053-.007.083-.003.09.01 0 .06.01.117.03.17a.378.378 0 0 0 .09.11.23.23 0 0 0 .13.04Zm5.382 1.71a.62.62 0 0 1-.33-.08.682.682 0 0 1-.22-.29 3.101 3.101 0 0 1-.07-.31 2.85 2.85 0 0 1-.02-.33c0-.107.01-.177.03-.21.026-.027.036-.073.03-.14v-.23c-.007-.133-.04-.207-.1-.22-.054-.02-.134 0-.24.06-.12.073-.277.173-.47.3-.194.12-.397.253-.61.4-.207.147-.404.3-.59.46-.147.16-.237.283-.27.37-.027.08-.067.12-.12.12-.054.027-.1.03-.14.01l-.15-.12a3.066 3.066 0 0 0-.14-.15.68.68 0 0 1-.09-.12c0-.033.01-.103.03-.21.02-.107.043-.213.07-.32.033-.107.056-.177.07-.21.033 0 .06-.033.08-.1a1.23 1.23 0 0 1 .12-.22 1.66 1.66 0 0 1 .1-.32l.16-.37c.093-.16.156-.293.19-.4.04-.107.066-.24.08-.4a.07.07 0 0 1 .02-.07c.02-.027.043-.04.07-.04a.168.168 0 0 1 .19-.04c.073.02.14.07.2.15a.65.65 0 0 1 .14.5c-.02.167-.127.407-.32.72l-.11.25a.392.392 0 0 0-.03.13l.1-.07c.073-.047.153-.1.24-.16a4.62 4.62 0 0 1 .22-.15 2.39 2.39 0 0 1 .23-.18c.12-.087.246-.17.38-.25.14-.087.243-.137.31-.15.053-.027.11-.05.17-.07a.377.377 0 0 1 .13-.04c.053 0 .12.03.2.09.086.053.166.12.24.2a.456.456 0 0 1 .13.19v.08l.02.08c.026.087.04.203.04.35.006.147.003.28-.01.4-.014.12-.037.19-.07.21v.03c.006.013.023.02.05.02v.05c-.034 0-.047.03-.04.09a.572.572 0 0 0 .06.18c.04.067.08.12.12.16.08.08.113.157.1.23-.014.067-.074.113-.18.14Z"/>
    <path fill="#580DD9" d="M166.11 36.68a.51.51 0 0 1-.12-.2.724.724 0 0 1-.02-.24.55.55 0 0 1 .05-.2c0-.053.007-.093.02-.12.02-.033.027-.063.02-.09-.007-.027 0-.073.02-.14.02-.067.04-.13.06-.19a6.08 6.08 0 0 0 .15-.38 20.802 20.802 0 0 0 .27-.83c.033-.107.053-.173.06-.2 0-.08.053-.123.16-.13.08-.027.14-.027.18 0 .04.02.093.083.16.19.053.053.073.133.06.24-.013.107-.057.24-.13.4-.027.053-.06.13-.1.23-.033.1-.057.19-.07.27a3.067 3.067 0 0 0-.19.5.912.912 0 0 0-.04.15c-.013.06-.03.127-.05.2a.75.75 0 0 1-.08.18c-.06.273-.117.433-.17.48-.047.047-.127.007-.24-.12Zm.97-4.06a.474.474 0 0 1-.09-.14.74.74 0 0 1-.05-.18c-.007-.06 0-.09.02-.09.053-.007.117-.063.19-.17.073-.107.103-.2.09-.28 0-.027.01-.05.03-.07a.125.125 0 0 1 .07-.05c.08-.053.157-.06.23-.02a.5.5 0 0 1 .22.21c.06.127.077.233.05.32-.027.08-.1.193-.22.34-.1.133-.193.207-.28.22-.08.013-.167-.017-.26-.09Zm4.325 3.92a.622.622 0 0 1-.33-.08.686.686 0 0 1-.22-.29 3.278 3.278 0 0 1-.07-.31c-.013-.12-.02-.23-.02-.33 0-.107.01-.177.03-.21.027-.027.037-.073.03-.14v-.23c-.006-.133-.04-.207-.1-.22-.053-.02-.133 0-.24.06-.12.073-.276.173-.47.3-.193.12-.396.253-.61.4a8.51 8.51 0 0 0-.59.46c-.146.16-.236.283-.27.37-.026.08-.066.12-.12.12-.053.027-.1.03-.14.01a25.507 25.507 0 0 0-.15-.12 2.681 2.681 0 0 0-.14-.15.748.748 0 0 1-.09-.12c0-.033.01-.103.03-.21.02-.107.044-.213.07-.32.034-.107.057-.177.07-.21.034 0 .06-.033.08-.1.027-.067.067-.14.12-.22a1.72 1.72 0 0 1 .1-.32l.16-.37c.094-.16.157-.293.19-.4a1.5 1.5 0 0 0 .08-.4.07.07 0 0 1 .02-.07c.02-.027.044-.04.07-.04a.168.168 0 0 1 .19-.04c.074.02.14.07.2.15.12.16.167.327.14.5-.02.167-.126.407-.32.72l-.11.25a.392.392 0 0 0-.03.13l.1-.07c.074-.047.154-.1.24-.16.094-.067.167-.117.22-.15.034-.033.11-.093.23-.18.12-.087.247-.17.38-.25.14-.087.244-.137.31-.15.054-.027.11-.05.17-.07a.38.38 0 0 1 .13-.04c.054 0 .12.03.2.09a1.1 1.1 0 0 1 .24.2.448.448 0 0 1 .13.19v.08l.02.08c.027.087.04.203.04.35.007.147.004.28-.01.4-.013.12-.036.19-.07.21v.03c.007.013.024.02.05.02v.05c-.033 0-.046.03-.04.09a.587.587 0 0 0 .18.34c.08.08.114.157.1.23-.013.067-.073.113-.18.14Zm1.192 1.52c-.04.027-.086.02-.14-.02a2.613 2.613 0 0 1-.21-.22.398.398 0 0 1-.09-.17c-.013-.06-.01-.173.01-.34a.606.606 0 0 0 .04-.21c.007-.067.01-.113.01-.14 0-.04.01-.133.03-.28.027-.147.054-.3.08-.46.027-.167.05-.293.07-.38 0-.007.004-.023.01-.05l.02-.07c.014-.06.03-.14.05-.24.027-.1.05-.223.07-.37.054-.167.097-.33.13-.49.04-.167.06-.28.06-.34 0-.12.047-.207.14-.26a.717.717 0 0 1 .06-.15 2.82 2.82 0 0 1 .09-.18c.134-.38.244-.68.33-.9.087-.227.177-.423.27-.59.04-.113.084-.23.13-.35.054-.12.107-.213.16-.28.034-.087.11-.197.23-.33.12-.14.247-.273.38-.4a5.39 5.39 0 0 1 .32-.3c.147-.073.264-.123.35-.15.087-.027.2-.04.34-.04.127 0 .21.017.25.05.047.027.114.08.2.16.094.1.147.167.16.2.014.033.02.097.02.19a1.46 1.46 0 0 1-.08.25 3.2 3.2 0 0 1-.12.29 1.8 1.8 0 0 1-.14.24c-.04.067-.073.1-.1.1-.08.027-.14.02-.18-.02a.386.386 0 0 1-.05-.22.227.227 0 0 0-.04-.13l-.03-.07c0-.02.004-.053.01-.1a.643.643 0 0 1 .06-.15c.034-.067.04-.117.02-.15-.013-.033-.056-.04-.13-.02a6.649 6.649 0 0 0-.69.58c-.073.073-.11.12-.11.14l-.04.09a1.105 1.105 0 0 1-.15.21 3.77 3.77 0 0 0-.13.2.401.401 0 0 0-.05.11.438.438 0 0 1-.01.09c0 .027-.016.04-.05.04l-.03.09c-.02.06-.056.137-.11.23-.026.067-.06.137-.1.21a.757.757 0 0 1-.1.14h.01l-.05.13a7.85 7.85 0 0 1-.09.26.883.883 0 0 0-.05.15c0 .027.047.04.14.04.1 0 .217-.01.35-.03.134-.027.254-.053.36-.08a.87.87 0 0 1 .19-.04c.034 0 .1.013.2.04.08.047.127.127.14.24.014.107.007.177-.02.21-.006.027-.066.063-.18.11-.106.047-.23.083-.37.11-.12.027-.266.057-.44.09l-.46.09c-.126.027-.19.05-.19.07-.026 0-.05.017-.07.05-.02.027-.03.05-.03.07a.595.595 0 0 1-.01.12.312.312 0 0 1-.03.09c-.013.04-.036.12-.07.24l-.11.4-.09.4c-.02.12-.03.2-.03.24a.315.315 0 0 0-.07.18c-.006.067-.01.127-.01.18a.524.524 0 0 0-.05.15.718.718 0 0 0-.01.1v.04a.18.18 0 0 1-.01.06 6.7 6.7 0 0 1-.03.26c-.006.113-.01.223-.01.33l-.03.29c-.006.087-.016.16-.03.22a.28.28 0 0 1-.07.15Zm2.99-1.37c-.1-.013-.186-.083-.26-.21a1.173 1.173 0 0 1-.12-.36c.007-.053.014-.13.02-.23.014-.1.027-.203.04-.31.027-.127.064-.28.11-.46l.14-.56c.054-.187.1-.347.14-.48.04-.133.067-.213.08-.24.034-.053.087-.067.16-.04a.42.42 0 0 1 .18.12.36.36 0 0 1 .07.19.814.814 0 0 1-.03.32c-.026.14-.08.347-.16.62a7.266 7.266 0 0 1-.08.3c-.026.087-.05.167-.07.24a6.867 6.867 0 0 1-.04.21l-.02.2a1.227 1.227 0 0 0 0 .21 4.303 4.303 0 0 1-.06.42c-.013.047-.046.067-.1.06Zm.39-4.06a1.173 1.173 0 0 1 .01-.25.75.75 0 0 1 .11-.28.28.28 0 0 1 .23-.14.22.22 0 0 1 .07.01c.02.007.08.03.18.07.054.1.107.213.16.34a.76.76 0 0 1 .07.36c-.006.113-.076.217-.21.31a.13.13 0 0 1-.08.03.694.694 0 0 1-.11-.06.455.455 0 0 1-.18-.09 2.546 2.546 0 0 1-.18-.18.435.435 0 0 1-.07-.12Zm4.08 4.25c-.067 0-.137-.037-.21-.11a1.166 1.166 0 0 1-.18-.27.836.836 0 0 1-.07-.32c0-.1.023-.287.07-.56.053-.273.117-.55.19-.83.053-.173.07-.273.05-.3-.02-.027-.11.01-.27.11a1.777 1.777 0 0 0-.25.15.896.896 0 0 0-.19.16c-.033.027-.083.07-.15.13a2.71 2.71 0 0 1-.21.17c-.087.067-.197.16-.33.28l-.4.36c-.127.12-.223.213-.29.28a.192.192 0 0 1-.06.07.224.224 0 0 1-.09.04.48.48 0 0 1-.32-.15.334.334 0 0 1-.09-.23c0-.067.027-.18.08-.34.053-.167.123-.367.21-.6.093-.233.2-.48.32-.74a.486.486 0 0 0 .05-.12c.013-.053.023-.11.03-.17a.807.807 0 0 0 .02-.17c0-.033.003-.067.01-.1.013-.04.027-.077.04-.11a.347.347 0 0 1 .05-.08c.027-.053.073-.067.14-.04a.31.31 0 0 1 .17.14c.1.093.15.21.15.35.007.14-.027.313-.1.52-.027.047-.05.093-.07.14a1.992 1.992 0 0 1-.08.2c.027 0 .087-.03.18-.09s.203-.127.33-.2a5.8 5.8 0 0 0 .26-.2c.08-.067.147-.117.2-.15.053-.04.087-.06.1-.06.027 0 .06-.01.1-.03a.385.385 0 0 0 .1-.07c.027-.027.047-.04.06-.04l.03-.01h.04a.177.177 0 0 0 .08-.05c.053-.04.123-.05.21-.03a.54.54 0 0 1 .24.1c.073.053.11.113.11.18 0 .027.007.05.02.07l.03.02c.053 0 .087.083.1.25.02.167.003.327-.05.48 0 .1-.02.22-.06.36-.033.14-.063.273-.09.4-.053.167-.09.313-.11.44-.02.127-.023.233-.01.32a.555.555 0 0 0 .07.21c.027.047.027.1 0 .16-.027.053-.08.08-.16.08Zm1.902-.19c-.1-.013-.187-.083-.26-.21a1.121 1.121 0 0 1-.12-.36c.007-.053.013-.13.02-.23l.04-.31c.027-.127.063-.28.11-.46l.14-.56c.053-.187.1-.347.14-.48.04-.133.067-.213.08-.24.033-.053.087-.067.16-.04a.433.433 0 0 1 .18.12c.04.053.063.117.07.19a.854.854 0 0 1-.03.32c-.027.14-.08.347-.16.62-.073.267-.13.483-.17.65-.033.16-.047.33-.04.51a5.1 5.1 0 0 1-.06.42c-.013.047-.047.067-.1.06Zm1.15-3.99a.133.133 0 0 1-.08.03.652.652 0 0 1-.11-.06.443.443 0 0 1-.18-.09 2.182 2.182 0 0 1-.18-.18.407.407 0 0 1-.07-.12 1.11 1.11 0 0 1 .01-.25.75.75 0 0 1 .11-.28.278.278 0 0 1 .23-.14.22.22 0 0 1 .07.01c.02.007.08.03.18.07.053.1.107.213.16.34.053.12.077.24.07.36-.007.113-.077.217-.21.31Zm1.115 4.8c-.22-.033-.37-.117-.45-.25-.073-.127-.09-.323-.05-.59.04-.127.064-.24.07-.34.014-.107.044-.173.09-.2l.01-.03c.014-.02.01-.04-.01-.06 0-.087.03-.207.09-.36.014-.04.03-.087.05-.14l.04-.09c-.033-.053-.033-.097 0-.13.034-.033.067-.063.1-.09.04-.033.044-.07.01-.11-.013-.027.004-.087.05-.18.047-.1.1-.203.16-.31.06-.107.1-.19.12-.25 0-.013.017-.06.05-.14l.12-.28.13-.29c.047-.087.077-.143.09-.17.067-.033.04-.057-.08-.07a2.368 2.368 0 0 0-.38-.01 7.289 7.289 0 0 1-.5-.03.757.757 0 0 1-.3-.09c-.08-.093-.11-.16-.09-.2.027-.047.107-.073.24-.08a2.81 2.81 0 0 1 .2-.01c.054 0 .12-.003.2-.01.087-.013.22-.03.4-.05l.51-.04.03-.17c.054-.087.097-.163.13-.23a1.53 1.53 0 0 0 .1-.22c.027-.073.047-.15.06-.23l.09-.16a.966.966 0 0 0 .11-.35c.08-.133.15-.253.21-.36.06-.113.097-.183.11-.21.074-.06.124-.09.15-.09.034 0 .1.033.2.1a.7.7 0 0 1 .16.12.319.319 0 0 1 .09.15c.014.047-.006.093-.06.14a1.918 1.918 0 0 0-.06.15 2.305 2.305 0 0 0-.06.17c-.04.047-.09.123-.15.23-.053.1-.09.203-.11.31a11.92 11.92 0 0 1-.15.31c-.046.087-.083.13-.11.13.014.067.054.1.12.1.067-.007.177-.013.33-.02.127-.013.214-.027.26-.04.054-.02.114-.013.18.02.034.047.06.1.08.16.02.06.024.117.01.17-.006.047-.033.08-.08.1a.811.811 0 0 0-.21.06 1.44 1.44 0 0 1-.38.06l-.53.05-.17.34a5.052 5.052 0 0 0-.12.24.56.56 0 0 1-.07.12c0 .04-.023.1-.07.18l-.13.26a1.84 1.84 0 0 1-.14.31l-.07.14c-.026 0-.04.02-.04.06.034.08.024.14-.03.18a.296.296 0 0 0-.09.09l-.03.05c.027.027.03.06.01.1a.69.69 0 0 1-.06.13c0 .053-.016.13-.05.23-.026.1-.056.193-.09.28.007.12.014.197.02.23.007.033.024.047.05.04a.203.203 0 0 0 .09 0 .333.333 0 0 1 .08-.01c.094-.04.044.193-.15.7-.106.167-.18.287-.22.36-.04.08-.076.12-.11.12Zm2.601-.99a.328.328 0 0 1-.1-.02l-.05-.03c0-.027-.01-.06-.03-.1a.31.31 0 0 1-.02-.1c-.047-.027-.074-.053-.08-.08-.007-.033.003-.087.03-.16.04-.067.093-.173.16-.32l.21-.49c.073-.18.143-.357.21-.53l.17-.44c.046-.127.073-.203.08-.23a.374.374 0 0 1 .1-.2c.053-.047.11-.05.17-.01.06.033.11.093.15.18.046.08.07.17.07.27 0 .047-.034.167-.1.36-.067.187-.157.41-.27.67-.107.26-.227.523-.36.79-.1.193-.164.317-.19.37-.027.047-.077.07-.15.07Zm1.47-3.79a.487.487 0 0 1-.26-.09 1.103 1.103 0 0 1-.23-.24c-.06-.1-.09-.2-.09-.3 0-.033.02-.08.06-.14l.12-.18a.36.36 0 0 0 .06-.11c.053 0 .093.003.12.01.033 0 .073.013.12.04.073.167.163.303.27.41.113.107.17.197.17.27 0 .147-.014.24-.04.28-.027.033-.127.05-.3.05Zm1.035 3.67c-.047-.04-.107-.16-.18-.36a9.603 9.603 0 0 1-.2-.7c-.06-.273-.11-.523-.15-.75a2.558 2.558 0 0 0-.09-.34 6.353 6.353 0 0 0-.07-.23.724.724 0 0 1-.03-.3.265.265 0 0 1 .14-.19.315.315 0 0 1 .12-.04.267.267 0 0 1 .12-.01c.08.027.153.15.22.37.067.213.127.497.18.85.027.207.06.383.1.53.04.147.06.233.06.26.027.053.057.107.09.16.04.047.087.043.14-.01a3.88 3.88 0 0 0 .16-.18c.087-.093.17-.193.25-.3.14-.187.25-.34.33-.46.087-.12.183-.247.29-.38.047-.067.1-.14.16-.22.06-.08.12-.153.18-.22a.404.404 0 0 1 .18-.13c.16-.027.247.007.26.1.013.093-.047.233-.18.42-.053.08-.097.157-.13.23a.43.43 0 0 1-.08.14 3.785 3.785 0 0 1-.25.41c-.113.16-.223.31-.33.45a4.06 4.06 0 0 1-.22.26 2.649 2.649 0 0 1-.18.15c-.087.073-.17.167-.25.28-.16.153-.287.247-.38.28-.093.033-.18.01-.26-.07Z"/>
    <g clip-path="url(#b)">
      <path fill="#000" fill-rule="evenodd" d="M4.143-1.267C3.102.818 3.004 3.198 3.48 5.558c.718 3.564 2.742 7.082 4.83 9.49 1.313 1.514 2.707 2.099 4.308 3.288a.146.146 0 0 1-.174.234c-1.62-1.203-3.026-1.8-4.354-3.33-2.118-2.442-4.168-6.01-4.896-9.624-.489-2.425-.382-4.87.689-7.013a.146.146 0 1 1 .261.13Z" clip-rule="evenodd"/>
      <path fill="#000" fill-rule="evenodd" d="M12.742 18.893c-.006-.003-.045-.03-.08-.05a6.237 6.237 0 0 0-.76-.326c-1.16-.429-3.204-.975-4.544-.571a.146.146 0 0 1-.084-.28c1.393-.42 3.522.13 4.73.577.162.06.308.118.433.171a33.429 33.429 0 0 0-.708-1.023c-.697-.972-1.098-1.958-1.318-3.142a.146.146 0 1 1 .287-.053c.212 1.14.598 2.089 1.268 3.024.316.442.625.887.917 1.344.03.046.104.165.111.183a.141.141 0 0 1-.047.177.149.149 0 0 1-.205-.03Zm.217-.195.008.01-.008-.01Z" clip-rule="evenodd"/>
    </g>
    <path fill="#000" d="M21.9 23v-6.56h.83V23h-.83Zm4.477.12a2.3 2.3 0 0 1-1.17-.3 2.11 2.11 0 0 1-.82-.87c-.2-.38-.3-.837-.3-1.37 0-.547.107-1.01.32-1.39.22-.38.507-.67.86-.87.36-.2.747-.3 1.16-.3.32 0 .593.053.82.16.233.107.433.243.6.41l-.41.51a1.265 1.265 0 0 0-.43-.28 1.307 1.307 0 0 0-.55-.11c-.287 0-.547.08-.78.24-.227.153-.407.37-.54.65-.133.28-.2.607-.2.98 0 .367.063.69.19.97s.303.5.53.66c.227.153.49.23.79.23.227 0 .437-.043.63-.13.193-.087.36-.197.5-.33l.36.5c-.207.193-.44.35-.7.47a2.13 2.13 0 0 1-.86.17Zm2.63-.12v-7.12h.82v1.94l-.03 1a4.37 4.37 0 0 1 .73-.56c.26-.16.557-.24.89-.24.514 0 .887.163 1.12.49.24.32.36.79.36 1.41V23h-.82v-2.97c0-.46-.073-.79-.22-.99-.14-.207-.373-.31-.7-.31-.246 0-.47.063-.67.19a4.35 4.35 0 0 0-.66.56V23h-.82Zm8.212 0-1.35-4.86h.86l.71 2.81c.053.22.103.44.15.66.047.22.09.46.13.72h.04c.053-.26.103-.5.15-.72l.16-.66.72-2.81h.9l.73 2.81c.06.22.113.44.16.66.053.22.107.46.16.72h.04c.053-.26.103-.5.15-.72l.14-.66.71-2.81h.8L41.269 23h-1.07l-.65-2.6c-.053-.227-.107-.45-.16-.67a40.938 40.938 0 0 1-.15-.77h-.04c-.047.287-.097.543-.15.77-.047.227-.1.45-.16.67l-.65 2.6h-1.02Zm7.837.12c-.513 0-.89-.16-1.13-.48-.233-.327-.35-.8-.35-1.42v-3.08h.82v2.97c0 .453.07.783.21.99.147.2.38.3.7.3.247 0 .467-.063.66-.19.2-.133.417-.34.65-.62v-3.45h.82V23h-.68l-.07-.76h-.03c-.22.267-.46.48-.72.64a1.61 1.61 0 0 1-.88.24Zm-.49-5.99a.51.51 0 0 1-.36-.14.51.51 0 0 1-.14-.36c0-.14.047-.257.14-.35.1-.1.22-.15.36-.15.14 0 .257.05.35.15.094.093.14.21.14.35a.51.51 0 0 1-.14.36.475.475 0 0 1-.35.14Zm1.92 0a.475.475 0 0 1-.35-.14.51.51 0 0 1-.14-.36c0-.14.047-.257.14-.35a.46.46 0 0 1 .35-.15.47.47 0 0 1 .36.15c.094.093.14.21.14.35a.51.51 0 0 1-.14.36.487.487 0 0 1-.36.14Zm2.59 5.87v-4.86h.68l.07.88h.03c.16-.307.36-.55.6-.73.24-.18.5-.27.78-.27.107 0 .2.007.28.02.08.013.16.04.24.08l-.18.7a1.293 1.293 0 0 0-.21-.04c-.06-.013-.14-.02-.24-.02-.207 0-.423.083-.65.25-.22.167-.413.457-.58.87V23h-.82Zm5.029.12c-.613 0-1.103-.22-1.47-.66-.36-.447-.54-1.073-.54-1.88 0-.527.097-.98.29-1.36.2-.387.46-.683.78-.89a1.88 1.88 0 0 1 1.04-.31c.287 0 .53.05.73.15.207.093.417.23.63.41l-.04-.83v-1.87h.83V23h-.68l-.07-.57h-.03a2.93 2.93 0 0 1-.66.49c-.253.133-.523.2-.81.2Zm.18-.69c.227 0 .44-.057.64-.17.2-.113.4-.28.6-.5v-2.54a1.842 1.842 0 0 0-.59-.39 1.53 1.53 0 0 0-.59-.12c-.26 0-.497.08-.71.24-.207.153-.373.37-.5.65-.127.273-.19.597-.19.97 0 .58.117 1.037.35 1.37.233.327.563.49.99.49Zm5.677.69c-.434 0-.83-.1-1.19-.3a2.244 2.244 0 0 1-.84-.87c-.207-.38-.31-.84-.31-1.38 0-.527.106-.98.32-1.36.213-.38.486-.673.82-.88.333-.207.687-.31 1.06-.31.413 0 .763.097 1.05.29.293.187.513.45.66.79.147.34.22.74.22 1.2 0 .087-.004.17-.01.25 0 .08-.01.16-.03.24h-3.5v-.65h2.8c0-.467-.104-.823-.31-1.07-.2-.253-.49-.38-.87-.38-.22 0-.437.063-.65.19-.214.12-.39.317-.53.59-.133.273-.2.637-.2 1.09 0 .413.07.76.21 1.04.147.28.343.493.59.64.246.14.517.21.81.21a2.183 2.183 0 0 0 1.21-.37l.3.54a3.03 3.03 0 0 1-.72.36c-.26.093-.557.14-.89.14Zm6.633 2.12c-.394 0-.744-.053-1.05-.16-.3-.1-.537-.247-.71-.44a1.05 1.05 0 0 1-.25-.71c0-.207.063-.407.19-.6.126-.187.3-.353.52-.5v-.04a1.141 1.141 0 0 1-.31-.31.916.916 0 0 1-.12-.48c0-.207.056-.387.17-.54.12-.153.24-.273.36-.36v-.04a2.154 2.154 0 0 1-.43-.54 1.49 1.49 0 0 1-.2-.77c0-.353.083-.66.25-.92.173-.26.396-.46.67-.6a2.006 2.006 0 0 1 1.29-.17c.12.02.223.047.31.08h1.69v.63h-1.01v.04c.12.107.216.24.29.4.08.16.12.35.12.57 0 .347-.08.647-.24.9a1.68 1.68 0 0 1-.64.58 1.985 1.985 0 0 1-1.27.16 2.094 2.094 0 0 1-.36-.13 1.87 1.87 0 0 0-.22.24c-.06.087-.09.2-.09.34 0 .153.06.28.18.38.126.1.353.15.68.15h.94c.566 0 .99.093 1.27.28.286.18.43.473.43.88 0 .3-.1.577-.3.83-.2.253-.487.457-.86.61-.367.16-.8.24-1.3.24Zm0-4.33a.962.962 0 0 0 .51-.14c.16-.1.286-.237.38-.41.093-.173.14-.377.14-.61 0-.36-.1-.637-.3-.83-.2-.2-.444-.3-.73-.3-.287 0-.53.1-.73.3-.2.193-.3.47-.3.83 0 .233.046.437.14.61.093.173.216.31.37.41.16.093.333.14.52.14Zm.12 3.76c.306 0 .573-.047.8-.14.233-.093.413-.217.54-.37a.725.725 0 0 0 .2-.48c0-.227-.087-.383-.26-.47-.167-.087-.407-.13-.72-.13h-.84a2.678 2.678 0 0 1-.63-.08c-.18.127-.31.26-.39.4a.897.897 0 0 0-.11.42c0 .26.123.467.37.62.253.153.6.23 1.04.23Zm5.112-1.55c-.433 0-.83-.1-1.19-.3a2.245 2.245 0 0 1-.84-.87c-.207-.38-.31-.84-.31-1.38 0-.527.107-.98.32-1.36.213-.38.487-.673.82-.88.333-.207.687-.31 1.06-.31.413 0 .763.097 1.05.29.293.187.513.45.66.79.147.34.22.74.22 1.2 0 .087-.003.17-.01.25 0 .08-.01.16-.03.24h-3.5v-.65h2.8c0-.467-.103-.823-.31-1.07-.2-.253-.49-.38-.87-.38-.22 0-.437.063-.65.19-.213.12-.39.317-.53.59-.133.273-.2.637-.2 1.09 0 .413.07.76.21 1.04.147.28.343.493.59.64.247.14.517.21.81.21a2.181 2.181 0 0 0 1.21-.37l.3.54a3.027 3.027 0 0 1-.72.36c-.26.093-.557.14-.89.14Zm2.991-.12v-4.86h.68l.07.88h.03c.16-.307.36-.55.6-.73.24-.18.5-.27.78-.27.107 0 .2.007.28.02.08.013.16.04.24.08l-.18.7a1.289 1.289 0 0 0-.21-.04c-.06-.013-.14-.02-.24-.02-.207 0-.423.083-.65.25-.22.167-.413.457-.58.87V23h-.82Zm3.467 0v-4.86h.68l.07.7h.03c.233-.233.48-.427.74-.58.26-.16.556-.24.89-.24.513 0 .887.163 1.12.49.24.32.36.79.36 1.41V23h-.82v-2.97c0-.46-.074-.79-.22-.99-.14-.207-.374-.31-.7-.31-.247 0-.47.063-.67.19a4.35 4.35 0 0 0-.66.56V23h-.82Zm7.439.12c-.434 0-.83-.1-1.19-.3a2.245 2.245 0 0 1-.84-.87c-.207-.38-.31-.84-.31-1.38 0-.527.106-.98.32-1.36.213-.38.486-.673.82-.88.333-.207.686-.31 1.06-.31.413 0 .763.097 1.05.29.293.187.513.45.66.79.146.34.22.74.22 1.2 0 .087-.004.17-.01.25 0 .08-.01.16-.03.24h-3.5v-.65h2.8c0-.467-.104-.823-.31-1.07-.2-.253-.49-.38-.87-.38-.22 0-.437.063-.65.19-.214.12-.39.317-.53.59-.134.273-.2.637-.2 1.09 0 .413.07.76.21 1.04.146.28.343.493.59.64.246.14.516.21.81.21a2.181 2.181 0 0 0 1.21-.37l.3.54a3.027 3.027 0 0 1-.72.36c-.26.093-.557.14-.89.14Zm8.654 0c-.613 0-1.103-.22-1.47-.66-.36-.447-.54-1.073-.54-1.88 0-.527.097-.98.29-1.36.2-.387.46-.683.78-.89a1.88 1.88 0 0 1 1.04-.31c.287 0 .53.05.73.15.207.093.417.23.63.41l-.04-.83v-1.87h.83V23h-.68l-.07-.57h-.03a2.89 2.89 0 0 1-.66.49c-.253.133-.523.2-.81.2Zm.18-.69c.227 0 .44-.057.64-.17.2-.113.4-.28.6-.5v-2.54a1.84 1.84 0 0 0-.59-.39 1.53 1.53 0 0 0-.59-.12c-.26 0-.496.08-.71.24-.206.153-.373.37-.5.65a2.29 2.29 0 0 0-.19.97c0 .58.117 1.037.35 1.37.234.327.564.49.99.49Zm4.827.69a1.65 1.65 0 0 1-.73-.16 1.332 1.332 0 0 1-.51-.47 1.408 1.408 0 0 1-.19-.75c0-.547.24-.96.72-1.24s1.24-.477 2.28-.59c-.006-.2-.04-.393-.1-.58a.842.842 0 0 0-.3-.45c-.146-.113-.35-.17-.61-.17-.28 0-.543.053-.79.16-.246.1-.466.213-.66.34l-.32-.56c.147-.1.32-.197.52-.29.2-.1.417-.18.65-.24.234-.067.48-.1.74-.1.394 0 .714.083.96.25.254.16.437.39.55.69.12.3.18.653.18 1.06V23h-.68l-.07-.58h-.03c-.233.193-.483.36-.75.5-.266.133-.553.2-.86.2Zm.23-.68c.24 0 .464-.053.67-.16.214-.107.437-.263.67-.47V20.5c-.546.067-.98.153-1.3.26-.313.1-.54.227-.68.38a.788.788 0 0 0-.21.55c0 .267.084.46.25.58.167.113.367.17.6.17Zm4.959.68c-.353 0-.69-.06-1.01-.18-.313-.127-.58-.3-.8-.52l.38-.48c.214.173.434.307.66.4.234.093.5.14.8.14.32 0 .56-.073.72-.22a.724.724 0 0 0 .24-.54.536.536 0 0 0-.17-.41 1.229 1.229 0 0 0-.41-.28 4.668 4.668 0 0 0-.52-.22 5.835 5.835 0 0 1-.69-.3 1.78 1.78 0 0 1-.54-.44c-.133-.18-.2-.403-.2-.67 0-.393.147-.72.44-.98.3-.267.714-.4 1.24-.4.3 0 .58.053.84.16.26.1.484.23.67.39l-.38.47a2.385 2.385 0 0 0-.53-.28c-.18-.067-.38-.1-.6-.1-.306 0-.533.07-.68.21a.672.672 0 0 0-.21.49c0 .147.044.27.13.37.087.093.207.177.36.25.16.073.34.143.54.21.254.093.494.2.72.32.234.113.42.263.56.45.147.18.22.417.22.71 0 .267-.07.51-.21.73a1.443 1.443 0 0 1-.6.52c-.26.133-.583.2-.97.2Zm6.822 0c-.467 0-.894-.087-1.28-.26a3.441 3.441 0 0 1-1.02-.72l.47-.54a2.536 2.536 0 0 0 1.84.79c.433 0 .77-.097 1.01-.29.24-.2.36-.46.36-.78 0-.227-.05-.407-.15-.54a1.165 1.165 0 0 0-.39-.34 6.073 6.073 0 0 0-.55-.28l-.94-.41a3.88 3.88 0 0 1-.63-.35 1.81 1.81 0 0 1-.5-.53c-.134-.22-.2-.49-.2-.81 0-.333.086-.63.26-.89.18-.267.423-.473.73-.62.313-.153.67-.23 1.07-.23a2.703 2.703 0 0 1 1.94.79l-.45.54a2.621 2.621 0 0 0-.68-.43 1.92 1.92 0 0 0-.81-.17c-.367 0-.664.087-.89.26a.845.845 0 0 0-.33.7c0 .207.053.377.16.51.106.133.243.243.41.33.173.087.346.17.52.25l.93.4c.26.113.49.243.69.39.206.147.366.33.48.55.12.22.18.49.18.81 0 .347-.09.663-.27.95a1.82 1.82 0 0 1-.77.67c-.334.167-.73.25-1.19.25Zm3.442 1.93v-6.91h.68l.07.56h.03a3.6 3.6 0 0 1 .73-.48c.266-.133.54-.2.82-.2.413 0 .763.103 1.05.31.286.2.503.487.65.86.146.367.22.803.22 1.31 0 .547-.1 1.017-.3 1.41-.194.393-.45.693-.77.9-.32.207-.664.31-1.03.31-.22 0-.444-.05-.67-.15a3.329 3.329 0 0 1-.68-.41l.02.85v1.64h-.82Zm2.01-2.62c.266 0 .503-.077.71-.23a1.5 1.5 0 0 0 .5-.66c.12-.293.18-.64.18-1.04 0-.353-.044-.663-.13-.93a1.264 1.264 0 0 0-.41-.63c-.187-.153-.434-.23-.74-.23-.2 0-.407.057-.62.17-.214.107-.44.27-.68.49v2.55c.226.187.44.32.64.4.206.073.39.11.55.11Zm3.536.57v-4.86h.82V23h-.82Zm.41-5.86a.563.563 0 0 1-.4-.15c-.1-.1-.15-.23-.15-.39s.05-.29.15-.39c.107-.1.24-.15.4-.15.16 0 .29.05.39.15.107.1.16.23.16.39s-.053.29-.16.39c-.1.1-.23.15-.39.15Zm4.021 5.98c-.433 0-.83-.1-1.19-.3a2.25 2.25 0 0 1-.84-.87c-.206-.38-.31-.84-.31-1.38 0-.527.107-.98.32-1.36a2.39 2.39 0 0 1 .82-.88c.334-.207.687-.31 1.06-.31.414 0 .764.097 1.05.29.294.187.514.45.66.79.147.34.22.74.22 1.2 0 .087-.003.17-.01.25 0 .08-.01.16-.03.24h-3.5v-.65h2.8c0-.467-.103-.823-.31-1.07-.2-.253-.49-.38-.87-.38-.22 0-.436.063-.65.19-.213.12-.39.317-.53.59-.133.273-.2.637-.2 1.09 0 .413.07.76.21 1.04.147.28.344.493.59.64.247.14.517.21.81.21a2.165 2.165 0 0 0 1.21-.37l.3.54a3.016 3.016 0 0 1-.72.36 2.63 2.63 0 0 1-.89.14Zm3.861-.03a.928.928 0 0 1-.5-.12.758.758 0 0 1-.28-.37 1.777 1.777 0 0 1-.09-.6v-6.12h.82v6.18c0 .133.024.227.07.28.047.047.104.07.17.07h.07c.027-.007.06-.013.1-.02l.12.62c-.06.02-.13.037-.21.05-.073.02-.163.03-.27.03Zm3.681-.09v-4.86h.68l.07.7h.03c.213-.227.443-.42.69-.58.253-.16.527-.24.82-.24.373 0 .663.083.87.25.213.167.37.393.47.68.253-.28.51-.503.77-.67.26-.173.537-.26.83-.26.507 0 .88.163 1.12.49.24.32.36.79.36 1.41V23h-.82v-2.97c0-.46-.073-.79-.22-.99-.147-.207-.373-.31-.68-.31a1.1 1.1 0 0 0-.59.19c-.193.12-.403.307-.63.56V23h-.82v-2.97c0-.46-.073-.79-.22-.99-.147-.207-.377-.31-.69-.31-.367 0-.773.25-1.22.75V23h-.82Zm8.291 0v-4.86h.82V23h-.82Zm.41-5.86a.563.563 0 0 1-.4-.15c-.1-.1-.15-.23-.15-.39s.05-.29.15-.39c.107-.1.24-.15.4-.15.16 0 .29.05.39.15.107.1.16.23.16.39s-.053.29-.16.39c-.1.1-.23.15-.39.15Zm3.581 5.95c-.513 0-.873-.15-1.08-.45-.207-.3-.31-.69-.31-1.17v-2.66h-.72v-.62l.76-.05.1-1.56h.69v1.56h1.32v.67h-1.32v2.67c0 .293.053.523.16.69.113.167.31.25.59.25.087 0 .177-.007.27-.02.093-.02.187-.053.28-.1l.18.58c-.127.06-.27.11-.43.15-.16.04-.323.06-.49.06Zm5.511.03c-.613 0-1.103-.22-1.47-.66-.36-.447-.54-1.073-.54-1.88 0-.527.097-.98.29-1.36.2-.387.46-.683.78-.89.32-.207.667-.31 1.04-.31.287 0 .53.05.73.15.207.093.417.23.63.41l-.04-.83v-1.87h.83V23h-.68l-.07-.57h-.03c-.187.187-.407.35-.66.49-.253.133-.523.2-.81.2Zm.18-.69c.227 0 .44-.057.64-.17.2-.113.4-.28.6-.5v-2.54a1.845 1.845 0 0 0-.59-.39 1.53 1.53 0 0 0-.59-.12c-.26 0-.497.08-.71.24-.207.153-.373.37-.5.65-.127.273-.19.597-.19.97 0 .58.117 1.037.35 1.37.233.327.563.49.99.49Zm3.707.57v-4.86h.82V23h-.82Zm.41-5.86a.561.561 0 0 1-.4-.15c-.1-.1-.15-.23-.15-.39s.05-.29.15-.39c.106-.1.24-.15.4-.15a.528.528 0 0 1 .55.54.528.528 0 0 1-.55.54Zm2.051 5.86v-4.86h.68l.07.88h.03c.16-.307.36-.55.6-.73.24-.18.5-.27.78-.27.106 0 .2.007.28.02.08.013.16.04.24.08l-.18.7a1.317 1.317 0 0 0-.21-.04c-.06-.013-.14-.02-.24-.02-.207 0-.424.083-.65.25-.22.167-.414.457-.58.87V23h-.82Zm6.738.12c-.353 0-.69-.06-1.01-.18-.313-.127-.58-.3-.8-.52l.38-.48c.214.173.434.307.66.4.234.093.5.14.8.14.32 0 .56-.073.72-.22a.724.724 0 0 0 .24-.54.536.536 0 0 0-.17-.41 1.229 1.229 0 0 0-.41-.28 4.668 4.668 0 0 0-.52-.22 5.835 5.835 0 0 1-.69-.3 1.78 1.78 0 0 1-.54-.44c-.133-.18-.2-.403-.2-.67 0-.393.147-.72.44-.98.3-.267.714-.4 1.24-.4.3 0 .58.053.84.16.26.1.484.23.67.39l-.38.47a2.385 2.385 0 0 0-.53-.28c-.18-.067-.38-.1-.6-.1-.306 0-.533.07-.68.21a.672.672 0 0 0-.21.49c0 .147.044.27.13.37.087.093.207.177.36.25.16.073.34.143.54.21.254.093.494.2.72.32.234.113.42.263.56.45.147.18.22.417.22.71 0 .267-.07.51-.21.73a1.443 1.443 0 0 1-.6.52c-.26.133-.583.2-.97.2Zm2.92 1.93v-6.91h.68l.07.56h.03a3.6 3.6 0 0 1 .73-.48c.267-.133.54-.2.82-.2.413 0 .763.103 1.05.31.287.2.503.487.65.86.147.367.22.803.22 1.31 0 .547-.1 1.017-.3 1.41-.193.393-.45.693-.77.9a1.86 1.86 0 0 1-1.03.31c-.22 0-.443-.05-.67-.15a3.356 3.356 0 0 1-.68-.41l.02.85v1.64h-.82Zm2.01-2.62c.267 0 .503-.077.71-.23a1.5 1.5 0 0 0 .5-.66c.12-.293.18-.64.18-1.04 0-.353-.043-.663-.13-.93a1.26 1.26 0 0 0-.41-.63c-.187-.153-.433-.23-.74-.23-.2 0-.407.057-.62.17a3.07 3.07 0 0 0-.68.49v2.55c.227.187.44.32.64.4.207.073.39.11.55.11Zm3.537.57v-4.86h.82V23h-.82Zm.41-5.86a.561.561 0 0 1-.4-.15c-.1-.1-.15-.23-.15-.39s.05-.29.15-.39c.106-.1.24-.15.4-.15a.528.528 0 0 1 .55.54.528.528 0 0 1-.55.54Zm4.021 5.98c-.434 0-.83-.1-1.19-.3a2.235 2.235 0 0 1-.84-.87c-.207-.38-.31-.84-.31-1.38 0-.527.106-.98.32-1.36a2.37 2.37 0 0 1 .82-.88c.333-.207.686-.31 1.06-.31.413 0 .763.097 1.05.29.293.187.513.45.66.79.146.34.22.74.22 1.2 0 .087-.004.17-.01.25 0 .08-.01.16-.03.24h-3.5v-.65h2.8c0-.467-.104-.823-.31-1.07-.2-.253-.49-.38-.87-.38-.22 0-.437.063-.65.19-.214.12-.39.317-.53.59-.134.273-.2.637-.2 1.09 0 .413.07.76.21 1.04.146.28.343.493.59.64.246.14.516.21.81.21.233 0 .45-.033.65-.1.206-.067.393-.157.56-.27l.3.54a3.053 3.053 0 0 1-.72.36c-.26.093-.557.14-.89.14Zm3.861-.03c-.207 0-.374-.04-.5-.12a.753.753 0 0 1-.28-.37 1.777 1.777 0 0 1-.09-.6v-6.12h.82v6.18c0 .133.023.227.07.28a.23.23 0 0 0 .17.07h.07a1.25 1.25 0 0 1 .1-.02l.12.62c-.06.02-.13.037-.21.05-.074.02-.164.03-.27.03Zm3.649.03c-.434 0-.83-.1-1.19-.3a2.235 2.235 0 0 1-.84-.87c-.207-.38-.31-.84-.31-1.38 0-.527.106-.98.32-1.36a2.37 2.37 0 0 1 .82-.88c.333-.207.686-.31 1.06-.31.413 0 .763.097 1.05.29.293.187.513.45.66.79.146.34.22.74.22 1.2 0 .087-.004.17-.01.25 0 .08-.01.16-.03.24h-3.5v-.65h2.8c0-.467-.104-.823-.31-1.07-.2-.253-.49-.38-.87-.38-.22 0-.437.063-.65.19-.214.12-.39.317-.53.59-.134.273-.2.637-.2 1.09 0 .413.07.76.21 1.04.146.28.343.493.59.64.246.14.516.21.81.21.233 0 .45-.033.65-.1.206-.067.393-.157.56-.27l.3.54a3.053 3.053 0 0 1-.72.36c-.26.093-.557.14-.89.14Zm2.99-.12v-4.86h.68l.07.7h.03c.234-.233.48-.427.74-.58.26-.16.557-.24.89-.24.514 0 .887.163 1.12.49.24.32.36.79.36 1.41V23h-.82v-2.97c0-.46-.073-.79-.22-.99-.14-.207-.373-.31-.7-.31-.246 0-.47.063-.67.19a4.38 4.38 0 0 0-.66.56V23h-.82Zm5.899.12c-.16 0-.3-.057-.42-.17a.61.61 0 0 1-.18-.45c0-.193.06-.347.18-.46.12-.12.26-.18.42-.18.167 0 .307.06.42.18.114.113.17.267.17.46 0 .18-.056.33-.17.45a.57.57 0 0 1-.42.17Z"/>
  </g>
  <defs>
    <clipPath id="a">
      <path fill="#fff" d="M0 0h202v53H0z"/>
    </clipPath>
    <clipPath id="b">
      <path fill="#fff" d="m12.701-5-20.7 8.363 8.363 20.7 20.7-8.363z"/>
    </clipPath>
  </defs>
</svg>
