<svg xmlns="http://www.w3.org/2000/svg" width="168" height="40" fill="none" viewBox="0 0 168 40">
  <g clip-path="url(#a)">
    <path fill="#000" d="M22.08 23v-7.873h1.968c1.216 0 2.14.34 2.772 1.02.632.672.948 1.632.948 2.88 0 1.256-.316 2.232-.948 2.928-.624.696-1.532 1.044-2.724 1.044H22.08Zm.996-.817h.9c.92 0 1.608-.276 2.064-.828.464-.56.696-1.336.696-2.328 0-.992-.232-1.752-.696-2.28-.456-.536-1.144-.804-2.064-.804h-.9v6.24Zm7.995.96c-.616 0-1.068-.192-1.356-.576-.288-.392-.432-.96-.432-1.704v-3.696h.996v3.564c0 .544.084.94.252 1.188.176.248.456.372.84.372.304 0 .572-.076.804-.228.24-.16.496-.412.768-.756v-4.14h.984V23h-.816l-.084-.912h-.036c-.272.32-.56.576-.864.768a1.935 1.935 0 0 1-1.056.288ZM38.297 23v-8.544h.984v2.328l-.036 1.2c.28-.264.572-.488.876-.672a1.996 1.996 0 0 1 1.067-.288c.616 0 1.064.196 1.344.588.289.384.433.948.433 1.692V23h-.985v-3.564c0-.544-.087-.94-.263-1.188-.176-.248-.456-.372-.84-.372-.297 0-.565.076-.805.228a5.216 5.216 0 0 0-.791.672V23h-.984Zm7.87.144c-.487 0-.895-.144-1.223-.432-.32-.296-.48-.704-.48-1.224 0-.64.284-1.128.852-1.464.576-.344 1.484-.584 2.724-.72a2.3 2.3 0 0 0-.108-.708 1.015 1.015 0 0 0-.36-.54c-.168-.144-.412-.216-.732-.216-.336 0-.652.064-.948.192-.296.128-.56.272-.792.432l-.384-.684c.272-.176.604-.344.996-.504.4-.168.832-.252 1.296-.252.712 0 1.228.22 1.548.66.32.432.48 1.012.48 1.74V23h-.816l-.084-.696H48.1c-.272.224-.572.42-.9.588-.32.168-.664.252-1.032.252Zm.289-.792c.28 0 .544-.068.792-.204.248-.136.512-.328.792-.576v-1.62c-.968.12-1.648.3-2.04.54-.384.24-.576.548-.576.924 0 .328.1.568.3.72.2.144.444.216.732.216Zm5.939.792a3.14 3.14 0 0 1-1.188-.228 4.192 4.192 0 0 1-.984-.576l.492-.66c.256.2.52.368.792.504.272.128.58.192.924.192.384 0 .672-.088.864-.264a.87.87 0 0 0 .288-.648c0-.2-.068-.368-.204-.504a1.463 1.463 0 0 0-.504-.336 7.3 7.3 0 0 0-.624-.264c-.272-.104-.54-.22-.804-.348a1.99 1.99 0 0 1-.648-.516c-.168-.216-.252-.488-.252-.816 0-.472.176-.864.528-1.176.36-.32.856-.48 1.488-.48.36 0 .696.064 1.008.192.312.128.58.284.804.468l-.48.624a3.135 3.135 0 0 0-.624-.372 1.724 1.724 0 0 0-.708-.144c-.368 0-.64.084-.816.252a.806.806 0 0 0-.252.588c0 .184.06.336.18.456.12.112.276.212.468.3l.612.252c.28.104.556.224.828.36.272.128.496.304.672.528.184.216.276.508.276.876 0 .312-.084.6-.252.864-.16.264-.4.476-.72.636-.312.16-.7.24-1.164.24Zm5.105 0c-.624 0-1.06-.18-1.308-.54-.24-.36-.36-.828-.36-1.404v-3.228h-.864v-.744l.912-.06.12-1.632h.828v1.632H58.4v.804h-1.572v3.24c0 .36.064.64.192.84.136.192.372.288.708.288.104 0 .216-.016.336-.048l.324-.108.192.744c-.16.056-.336.104-.528.144a2.179 2.179 0 0 1-.552.072Zm4.02 2.46a2.55 2.55 0 0 1-.864-.156l.205-.744c.072.024.156.044.252.06.096.024.196.036.3.036.288 0 .48-.104.576-.312.096-.2.144-.476.144-.828v-6.492h.984v6.492c0 .592-.12 1.064-.36 1.416-.24.352-.652.528-1.236.528Zm1.093-9.636a.703.703 0 0 1-.48-.168.649.649 0 0 1-.18-.48c0-.192.06-.348.18-.468a.675.675 0 0 1 .48-.18c.192 0 .348.06.468.18.128.12.192.276.192.468 0 .2-.064.36-.192.48a.658.658 0 0 1-.468.168Zm4.837 7.176c-.52 0-.992-.12-1.416-.36-.424-.248-.76-.6-1.008-1.056-.248-.456-.372-1-.372-1.632 0-.64.124-1.188.372-1.644.256-.456.584-.808.984-1.056s.82-.372 1.26-.372c.744 0 1.316.248 1.716.744.408.496.612 1.16.612 1.992 0 .104-.004.208-.012.312 0 .096-.008.18-.024.252h-3.936c.04.616.232 1.108.576 1.476.352.368.808.552 1.368.552.28 0 .536-.04.768-.12.24-.088.468-.2.684-.336l.348.648c-.248.16-.532.3-.852.42a2.96 2.96 0 0 1-1.068.18Zm-1.836-3.528h3.12c0-.592-.128-1.04-.384-1.344-.248-.312-.6-.468-1.056-.468-.408 0-.776.16-1.104.48-.32.312-.512.756-.576 1.332Zm7.417 3.528c-.728 0-1.312-.264-1.752-.792-.44-.536-.66-1.288-.66-2.256 0-.632.116-1.176.348-1.632.24-.464.552-.82.936-1.068a2.295 2.295 0 0 1 1.248-.372c.336 0 .628.06.876.18s.5.284.756.492l-.048-.996v-2.244h.996V23h-.816l-.084-.684h-.036c-.224.224-.488.42-.792.588-.304.16-.628.24-.972.24Zm.216-.828c.512 0 1.008-.268 1.488-.804v-3.048a2.34 2.34 0 0 0-.72-.468 1.75 1.75 0 0 0-.696-.144c-.312 0-.596.096-.852.288a1.94 1.94 0 0 0-.6.78c-.152.328-.228.716-.228 1.164 0 .696.14 1.244.42 1.644.28.392.676.588 1.188.588Zm6.812.828c-.52 0-.992-.12-1.416-.36-.424-.248-.76-.6-1.008-1.056-.248-.456-.372-1-.372-1.632 0-.64.124-1.188.372-1.644.256-.456.584-.808.984-1.056s.82-.372 1.26-.372c.744 0 1.316.248 1.716.744.408.496.612 1.16.612 1.992 0 .104-.004.208-.012.312 0 .096-.008.18-.024.252h-3.936c.04.616.232 1.108.576 1.476.352.368.808.552 1.368.552.28 0 .536-.04.768-.12.24-.088.468-.2.684-.336l.348.648c-.248.16-.532.3-.852.42a2.96 2.96 0 0 1-1.068.18Zm-1.836-3.528h3.12c0-.592-.128-1.04-.384-1.344-.248-.312-.6-.468-1.056-.468-.408 0-.776.16-1.104.48-.32.312-.512.756-.576 1.332ZM83.648 23v-5.832h.816l.084.84h.036c.28-.28.576-.512.888-.696a1.996 1.996 0 0 1 1.068-.288c.616 0 1.064.196 1.344.588.288.384.432.948.432 1.692V23h-.984v-3.564c0-.544-.088-.94-.264-1.188-.176-.248-.456-.372-.84-.372-.296 0-.564.076-.804.228a5.216 5.216 0 0 0-.792.672V23h-.984Zm10.693 0v-7.032h-2.376v-.84h5.76v.84h-2.376V23H94.34Zm5.17.144c-.487 0-.895-.144-1.223-.432-.32-.296-.48-.704-.48-1.224 0-.64.284-1.128.852-1.464.576-.344 1.484-.584 2.724-.72a2.3 2.3 0 0 0-.108-.708 1.015 1.015 0 0 0-.36-.54c-.168-.144-.412-.216-.732-.216-.336 0-.652.064-.948.192-.296.128-.56.272-.792.432l-.384-.684c.272-.176.604-.344.996-.504.4-.168.832-.252 1.296-.252.712 0 1.228.22 1.548.66.32.432.48 1.012.48 1.74V23h-.816l-.084-.696h-.036c-.272.224-.572.42-.9.588-.32.168-.664.252-1.032.252Zm.289-.792c.28 0 .544-.068.792-.204.248-.136.512-.328.792-.576v-1.62c-.968.12-1.648.3-2.04.54-.384.24-.576.548-.576.924 0 .328.1.568.3.72.2.144.444.216.732.216Zm6.382 3.336c-.712 0-1.292-.136-1.74-.408-.448-.272-.672-.66-.672-1.164 0-.248.076-.488.228-.72.152-.224.36-.424.624-.6v-.048a1.179 1.179 0 0 1-.372-.372 1.1 1.1 0 0 1-.144-.576c0-.248.068-.464.204-.648a1.84 1.84 0 0 1 .432-.432v-.048a2.447 2.447 0 0 1-.528-.648 1.861 1.861 0 0 1-.228-.924c0-.424.1-.792.3-1.104.2-.312.468-.552.804-.72a2.408 2.408 0 0 1 1.548-.204c.144.024.268.056.372.096h2.028v.756h-1.2c.136.128.248.3.336.516.096.208.144.436.144.684 0 .416-.096.776-.288 1.08-.192.304-.448.54-.768.708-.32.16-.68.24-1.08.24-.312 0-.604-.068-.876-.204a1.342 1.342 0 0 0-.264.3.68.68 0 0 0-.108.396c0 .184.072.336.216.456.152.12.424.18.816.18h1.128c.68 0 1.188.112 1.524.336.344.216.516.568.516 1.056 0 .36-.12.692-.36.996-.24.304-.58.548-1.02.732-.44.192-.964.288-1.572.288Zm0-5.196c.336 0 .624-.124.864-.372.248-.256.372-.596.372-1.02 0-.424-.12-.756-.36-.996s-.532-.36-.876-.36-.636.12-.876.36-.36.572-.36.996c0 .424.12.764.36 1.02.248.248.54.372.876.372Zm.144 4.512c.56 0 1.008-.124 1.344-.372.336-.24.504-.512.504-.816 0-.272-.104-.46-.312-.564-.2-.104-.488-.156-.864-.156h-1.008a3.206 3.206 0 0 1-.756-.096c-.208.152-.36.312-.456.48a1.008 1.008 0 0 0-.144.504c0 .312.148.56.444.744.304.184.72.276 1.248.276Zm8.306.684c-.712 0-1.292-.136-1.74-.408-.448-.272-.672-.66-.672-1.164 0-.248.076-.488.228-.72.152-.224.36-.424.624-.6v-.048a1.179 1.179 0 0 1-.372-.372 1.1 1.1 0 0 1-.144-.576c0-.248.068-.464.204-.648a1.84 1.84 0 0 1 .432-.432v-.048a2.447 2.447 0 0 1-.528-.648 1.861 1.861 0 0 1-.228-.924c0-.424.1-.792.3-1.104.2-.312.468-.552.804-.72a2.408 2.408 0 0 1 1.548-.204c.144.024.268.056.372.096h2.028v.756h-1.2c.136.128.248.3.336.516.096.208.144.436.144.684 0 .416-.096.776-.288 1.08-.192.304-.448.54-.768.708-.32.16-.68.24-1.08.24-.312 0-.604-.068-.876-.204a1.342 1.342 0 0 0-.264.3.68.68 0 0 0-.108.396c0 .184.072.336.216.456.152.12.424.18.816.18h1.128c.68 0 1.188.112 1.524.336.344.216.516.568.516 1.056 0 .36-.12.692-.36.996-.24.304-.58.548-1.02.732-.44.192-.964.288-1.572.288Zm0-5.196c.336 0 .624-.124.864-.372.248-.256.372-.596.372-1.02 0-.424-.12-.756-.36-.996s-.532-.36-.876-.36-.636.12-.876.36-.36.572-.36.996c0 .424.12.764.36 1.02.248.248.54.372.876.372Zm.144 4.512c.56 0 1.008-.124 1.344-.372.336-.24.504-.512.504-.816 0-.272-.104-.46-.312-.564-.2-.104-.488-.156-.864-.156h-1.008a3.206 3.206 0 0 1-.756-.096c-.208.152-.36.312-.456.48a1.008 1.008 0 0 0-.144.504c0 .312.148.56.444.744.304.184.72.276 1.248.276Zm6.135-1.86c-.52 0-.992-.12-1.416-.36-.424-.248-.76-.6-1.008-1.056-.248-.456-.372-1-.372-1.632 0-.64.124-1.188.372-1.644.256-.456.584-.808.984-1.056s.82-.372 1.259-.372c.745 0 1.317.248 1.717.744.408.496.612 1.16.612 1.992 0 .104-.004.208-.012.312 0 .096-.008.18-.024.252h-3.936c.04.616.232 1.108.576 1.476.352.368.808.552 1.368.552.28 0 .536-.04.768-.12.24-.088.468-.2.684-.336l.348.648c-.248.16-.532.3-.852.42a2.96 2.96 0 0 1-1.068.18Zm-1.836-3.528h3.12c0-.592-.128-1.04-.384-1.344-.248-.312-.6-.468-1.056-.468-.408 0-.776.16-1.104.48-.32.312-.512.756-.576 1.332Zm6.949 3.528a3.14 3.14 0 0 1-1.188-.228 4.192 4.192 0 0 1-.984-.576l.492-.66c.256.2.52.368.792.504.272.128.58.192.924.192.384 0 .672-.088.864-.264a.87.87 0 0 0 .288-.648c0-.2-.068-.368-.204-.504a1.463 1.463 0 0 0-.504-.336 7.3 7.3 0 0 0-.624-.264c-.272-.104-.54-.22-.804-.348a1.99 1.99 0 0 1-.648-.516c-.168-.216-.252-.488-.252-.816 0-.472.176-.864.528-1.176.36-.32.856-.48 1.488-.48.36 0 .696.064 1.008.192.312.128.58.284.804.468l-.48.624a3.135 3.135 0 0 0-.624-.372 1.724 1.724 0 0 0-.708-.144c-.368 0-.64.084-.816.252a.806.806 0 0 0-.252.588c0 .184.06.336.18.456.12.112.276.212.468.3l.612.252c.28.104.556.224.828.36.272.128.496.304.672.528.184.216.276.508.276.876 0 .312-.084.6-.252.864-.16.264-.4.476-.72.636-.312.16-.7.24-1.164.24Zm3.503 2.316v-8.292h.816l.084.672h.036c.264-.224.552-.416.864-.576a2.2 2.2 0 0 1 .996-.24c.752 0 1.324.272 1.716.816.392.536.588 1.256.588 2.16 0 .656-.12 1.22-.36 1.692-.232.472-.54.832-.924 1.08a2.2 2.2 0 0 1-1.236.372c-.272 0-.544-.06-.816-.18a4.184 4.184 0 0 1-.804-.492l.024 1.02v1.968h-.984Zm2.412-3.144c.48 0 .876-.204 1.188-.612.32-.416.48-.984.48-1.704 0-.64-.12-1.156-.36-1.548-.232-.4-.624-.6-1.176-.6-.248 0-.5.068-.756.204a4.502 4.502 0 0 0-.804.588v3.06c.264.224.52.384.768.48.248.088.468.132.66.132Zm4.244.684v-5.832h.984V23h-.984Zm.504-7.032a.703.703 0 0 1-.48-.168.649.649 0 0 1-.18-.48c0-.192.06-.348.18-.468a.675.675 0 0 1 .48-.18c.192 0 .348.06.468.18.128.12.192.276.192.468 0 .2-.064.36-.192.48a.658.658 0 0 1-.468.168Zm4.813 7.176c-.52 0-.992-.12-1.416-.36-.424-.248-.76-.6-1.008-1.056-.248-.456-.372-1-.372-1.632 0-.64.124-1.188.372-1.644.256-.456.584-.808.984-1.056s.82-.372 1.26-.372c.744 0 1.316.248 1.716.744.408.496.612 1.16.612 1.992 0 .104-.004.208-.012.312 0 .096-.008.18-.024.252h-3.936c.04.616.232 1.108.576 1.476.352.368.808.552 1.368.552.28 0 .536-.04.768-.12.24-.088.468-.2.684-.336l.348.648c-.248.16-.532.3-.852.42a2.96 2.96 0 0 1-1.068.18Zm-1.836-3.528h3.12c0-.592-.128-1.04-.384-1.344-.248-.312-.6-.468-1.056-.468-.408 0-.776.16-1.104.48-.32.312-.512.756-.576 1.332Zm6.469 3.528c-.368 0-.636-.112-.804-.336-.16-.232-.24-.56-.24-.984v-7.368h.984v7.44c0 .152.028.264.084.336a.25.25 0 0 0 .192.096h.084c.032-.008.076-.016.132-.024l.132.744a.849.849 0 0 1-.228.072c-.088.016-.2.024-.336.024Zm3.851 0c-.624 0-1.06-.18-1.308-.54-.24-.36-.36-.828-.36-1.404v-3.228h-.864v-.744l.912-.06.12-1.632h.828v1.632h1.572v.804h-1.572v3.24c0 .36.064.64.192.84.136.192.372.288.708.288.104 0 .216-.016.336-.048l.324-.108.192.744c-.16.056-.336.104-.528.144a2.179 2.179 0 0 1-.552.072Z"/>
    <path fill="#DF00A6" fill-rule="evenodd" d="M53.591 11.01c1.31.053 2.351.577 3.392 1.165 3.415 1.931 4.557 4.928 2.217 7.872-3.638 4.567-12.113 7.555-18.684 6.176-1.456-.304-3.426-.572-4.87-2.056-1.343-1.38-1.287-3.021-.672-4.54.627-1.558 1.836-2.991 2.8-3.913 4.208-4.02 12.638-7.674 20.262-5.748.156.038.313-.026.358-.142.045-.116-.034-.24-.18-.277-7.847-1.983-16.545 1.75-20.877 5.887-1.198 1.149-2.766 3.067-3.213 5.051-.303 1.357-.09 2.743 1.074 3.95 1.534 1.58 3.627 1.89 5.172 2.214 6.784 1.424 15.55-1.652 19.3-6.368 2.519-3.165 1.31-6.388-2.362-8.464-1.12-.638-2.261-1.19-3.683-1.247-.157-.006-.291.087-.291.209-.011.121.112.225.257.231Z" clip-rule="evenodd"/>
    <path fill="#580DD9" fill-rule="evenodd" d="M144.362 23.692c2.143-.624 3.723-1.585 5.287-2.608 5.127-3.359 6.239-6.754 1.631-8.578-7.162-2.824-21.884-2.01-32.351 2.194-2.319.93-5.495 2.05-7.492 4.116-1.858 1.92-1.345 3.482.058 4.681 1.432 1.232 3.791 2.089 5.612 2.559 7.963 2.047 22.781 1.895 34.841-3.297.249-.105.523-.112.627-.02.103.093.006.247-.224.347-12.415 5.345-27.696 5.538-35.891 3.432-2.267-.588-5.34-1.757-6.586-3.48-.845-1.178-.851-2.611.757-4.285 2.12-2.199 5.488-3.413 7.949-4.4 10.806-4.342 26.029-5.198 33.414-2.278 4.96 1.958 3.796 5.602-1.719 9.213-1.68 1.106-3.419 2.138-5.745 2.814-.256.075-.502.043-.533-.074-.049-.113.127-.267.365-.336Z" clip-rule="evenodd"/>
    <path fill="#DF00A6" d="M29.963 35.675a.272.272 0 0 0-.09-.107c-.036-.03-.054-.057-.054-.081a.296.296 0 0 0-.009-.073.112.112 0 0 0-.036-.08c-.03-.037-.027-.117.009-.244a3.37 3.37 0 0 1 .18-.477c.084-.191.183-.392.297-.602.048-.049.096-.111.144-.19a.961.961 0 0 1 .108-.152c0-.024.009-.045.027-.063.018-.025.039-.037.063-.037v-.053c0-.03.027-.081.081-.154.06-.072.132-.15.216-.233a3.43 3.43 0 0 1 .261-.252 1.34 1.34 0 0 1 .225-.18.919.919 0 0 1 .387-.154.442.442 0 0 1 .351.09l.09.09.144.145c.06.047.12.099.18.152l.333.297-.162.45c-.078.24-.099.45-.063.63.042.18.102.337.18.468a.48.48 0 0 0 .18.19c.096.06.186.096.27.108a.292.292 0 0 1 .135.054c.042.03.063.078.063.144 0 .06-.012.108-.036.144-.024.035-.066.06-.126.072a.788.788 0 0 1-.558-.145c-.168-.12-.324-.318-.468-.593a1.458 1.458 0 0 1-.162-.396l-.135.17a3.021 3.021 0 0 1-.153.172c-.426.432-.795.723-1.107.873-.306.143-.561.15-.765.017Zm.324-.503c0 .042.063.042.189 0a1.56 1.56 0 0 0 .423-.252 9.26 9.26 0 0 0 .612-.577c.21-.21.378-.405.504-.585l.198-.324c-.06-.137-.126-.23-.198-.278-.066-.054-.123-.081-.171-.081-.078 0-.195.072-.351.215a4.32 4.32 0 0 0-.486.577c-.174.24-.339.504-.495.791a5.68 5.68 0 0 0-.162.352l-.063.162Zm5.657.81c-.042.023-.1.014-.171-.027a.823.823 0 0 1-.198-.19.79.79 0 0 1-.09-.233 2.63 2.63 0 0 1-.018-.351c.006-.12 0-.198-.018-.234-.012-.037-.045-.03-.1.017a3.703 3.703 0 0 0-.278.261c-.15.15-.294.267-.432.352-.132.084-.24.123-.324.117-.042 0-.09-.022-.144-.064a1 1 0 0 1-.135-.17 1.813 1.813 0 0 1-.108-.217 1.353 1.353 0 0 1-.018-.504c.03-.21.078-.428.144-.656.066-.228.14-.444.225-.648.09-.205.18-.37.27-.495.096-.127.18-.19.252-.19.048 0 .09.025.126.072a.83.83 0 0 1 .126.225c.024.043.033.079.027.109 0 .03-.024.066-.072.108a2.22 2.22 0 0 0-.19.323c-.065.144-.131.3-.197.468-.06.169-.114.33-.162.486a3.352 3.352 0 0 0-.1.388c-.017.096-.014.143.01.143a.617.617 0 0 0 .297-.099 1.98 1.98 0 0 0 .342-.26c.126-.127.237-.264.333-.415.102-.15.204-.309.306-.477a9.66 9.66 0 0 0 .243-.395 2.34 2.34 0 0 0 .17-.306 2.6 2.6 0 0 1 .19-.316.287.287 0 0 1 .153-.117h.126a.27.27 0 0 1 .126.082c.048.023.075.047.08.072a.234.234 0 0 1 .01.072c-.024.06-.063.15-.117.27l-.108.252a95.27 95.27 0 0 1-.342.764 3.441 3.441 0 0 0-.234.757 1.552 1.552 0 0 0-.01.296.74.74 0 0 0 .055.234l.063.127c.03.041.063.078.099.108.054.036.063.075.027.117a.375.375 0 0 1-.234.143Zm3.835-.01a.744.744 0 0 1-.1-.008.161.161 0 0 1-.09-.045 1.013 1.013 0 0 1-.288-.09 1.307 1.307 0 0 1-.242-.145 5.655 5.655 0 0 1-.306-.252 3.583 3.583 0 0 1-.261-.252c-.066-.078-.1-.135-.1-.17 0-.03-.014-.045-.044-.045l-.027-.028a.12.12 0 0 1-.027-.072c0-.06-.03-.09-.09-.09l-.153.127a4.742 4.742 0 0 0-.333.306c-.168.168-.294.29-.378.369-.078.072-.141.108-.19.108a.323.323 0 0 1-.161-.055.837.837 0 0 1-.162-.126.254.254 0 0 1-.063-.152l.18-.207c.126-.139.273-.28.44-.424l.577-.566-.1-.343a11.904 11.904 0 0 0-.134-.296 6.051 6.051 0 0 1-.1-.27.97.97 0 0 1-.116-.19c0-.03.024-.08.072-.152a.403.403 0 0 1 .117-.09c.036-.019.09-.004.162.044.036 0 .084.052.144.154.06.096.114.203.162.324a.688.688 0 0 1 .08.242c0 .096.037.136.109.117.072-.017.18-.075.324-.17.072-.066.129-.12.17-.163l.064-.072a1.85 1.85 0 0 1 .162-.117c.09-.066.183-.132.279-.198.096-.066.159-.105.189-.117.048-.035.102-.035.162 0 .06.03.11.079.153.145.042.06.063.123.063.188a.254.254 0 0 1-.054.171.922.922 0 0 1-.234.163l-.288.206c-.078.06-.162.127-.252.198a9.51 9.51 0 0 0-.324.27l-.234.19.144.242.099.18a.439.439 0 0 0 .135.154c.036.047.105.113.207.197s.2.163.297.235a.894.894 0 0 0 .17.099.16.16 0 0 1 .082.026c.03.019.066.04.108.064a.314.314 0 0 1 .09.162.249.249 0 0 1 0 .162c-.012.042-.042.063-.09.063Zm.637-.413a.296.296 0 0 1-.09-.018l-.045-.027a.212.212 0 0 0-.027-.09.296.296 0 0 1-.018-.09c-.042-.025-.066-.049-.072-.073a.304.304 0 0 1 .027-.144c.036-.06.084-.155.144-.287l.189-.441c.066-.163.129-.322.189-.478.06-.156.11-.288.153-.395.042-.114.066-.183.072-.207 0-.024.009-.054.027-.09a.343.343 0 0 1 .063-.09c.048-.042.099-.045.153-.01.054.03.099.084.135.163a.473.473 0 0 1 .063.243c0 .041-.03.15-.09.324-.06.168-.141.369-.243.603-.096.233-.204.47-.324.71l-.171.334c-.024.041-.07.063-.135.063Zm1.323-3.411a.44.44 0 0 1-.234-.082 1.013 1.013 0 0 1-.207-.216.521.521 0 0 1-.081-.27c0-.03.018-.071.054-.125l.108-.162a.324.324 0 0 0 .054-.1.48.48 0 0 1 .108.01c.03 0 .066.012.108.035.066.15.147.274.243.37.102.095.153.177.153.242 0 .133-.012.216-.036.252-.024.03-.114.046-.27.046Zm.328 3.428a.53.53 0 0 1-.135-.108.233.233 0 0 1-.045-.153c0-.09.012-.182.036-.279l.072-.297c.012-.107.027-.215.045-.323a.964.964 0 0 1 .126-.316c.066-.227.135-.453.207-.675a8.88 8.88 0 0 0 .19-.701c.077-.222.146-.417.206-.585a52.5 52.5 0 0 0 .243-.658 3.69 3.69 0 0 0 .135-.477c.042-.174.105-.33.19-.468a1.32 1.32 0 0 0 .08-.135 2 2 0 0 1 .072-.116c.006-.024.024-.04.054-.046a.265.265 0 0 1 .117.01.19.19 0 0 1 .1.063c.017-.007.038.011.062.053a.65.65 0 0 1 .081.127.21.21 0 0 1 .027.125.386.386 0 0 1-.018.1.28.28 0 0 1-.045.117.419.419 0 0 0-.072.108 2.452 2.452 0 0 1-.09.18 2.873 2.873 0 0 0-.063.242 1.14 1.14 0 0 1-.072.216 1.27 1.27 0 0 1-.09.208c-.03.066-.05.12-.063.162a3.299 3.299 0 0 1-.153.405 3.88 3.88 0 0 0-.144.423 22.49 22.49 0 0 0-.126.45 1.91 1.91 0 0 1-.18.431.69.69 0 0 0-.09.252l-.054.306c-.036.108-.069.21-.099.306a.94.94 0 0 0-.036.171 3.091 3.091 0 0 0-.08.396.938.938 0 0 1-.09.333.42.42 0 0 1-.037.145.112.112 0 0 1-.09.063.417.417 0 0 1-.17-.054Zm1.476.136a.452.452 0 0 1-.108-.18.66.66 0 0 1-.018-.216.494.494 0 0 1 .045-.18.25.25 0 0 1 .018-.108c.018-.03.024-.057.018-.081a.278.278 0 0 1 .018-.127 5.93 5.93 0 0 1 .054-.17 5.87 5.87 0 0 0 .135-.343c.048-.138.093-.273.135-.404a70.743 70.743 0 0 0 .162-.523c0-.072.048-.11.144-.117.072-.023.126-.023.162 0a.514.514 0 0 1 .144.172c.048.047.066.12.054.215a1.295 1.295 0 0 1-.117.36 2.898 2.898 0 0 0-.09.208c-.03.09-.051.17-.063.242a2.898 2.898 0 0 0-.207.585 3.932 3.932 0 0 1-.045.18.664.664 0 0 1-.072.163c-.054.245-.105.39-.153.431-.042.042-.114.006-.216-.108Zm.873-3.655a.415.415 0 0 1-.081-.126.666.666 0 0 1-.045-.162c-.006-.053 0-.08.018-.08.048-.006.105-.058.17-.154.067-.096.094-.18.082-.252 0-.024.009-.045.027-.063a.113.113 0 0 1 .063-.044c.072-.048.14-.054.207-.018.072.03.138.092.198.188.054.114.069.21.045.288a1.13 1.13 0 0 1-.198.306c-.09.12-.174.186-.252.198-.072.013-.15-.014-.234-.08Zm1.472 3.681a.805.805 0 0 1-.19.019 1.75 1.75 0 0 1-.206-.027c-.054-.018-.081-.036-.081-.054 0-.03-.015-.046-.045-.046l-.045-.036a.395.395 0 0 0-.117-.072.49.49 0 0 1-.081-.27c0-.102.027-.26.08-.477.019-.15.076-.323.172-.521a5.266 5.266 0 0 1 .819-1.188 2.2 2.2 0 0 1 .44-.37.45.45 0 0 1 .307-.134.627.627 0 0 1 .342.08c.06.03.12.078.18.144a2.049 2.049 0 0 1 .306.45.69.69 0 0 1 .027.18.893.893 0 0 1 0 .18c0 .073-.01.18-.027.325-.03.108-.057.24-.081.395a3.601 3.601 0 0 0-.027.405c-.012.115 0 .196.036.244.042.047.102.05.18.008a.383.383 0 0 1 .207-.044c.066 0 .117.017.153.053.042.037.063.09.063.163 0 .072-.036.146-.108.224a.924.924 0 0 1-.252.19.622.622 0 0 1-.28.072c-.065 0-.128-.04-.188-.117a1.534 1.534 0 0 1-.162-.297c-.042-.12-.081-.234-.117-.343l-.054-.207-.387.37a4.302 4.302 0 0 1-.234.233.832.832 0 0 0-.135.144.497.497 0 0 1-.171.163 1.615 1.615 0 0 1-.324.162Zm.027-.53a2.49 2.49 0 0 0 .35-.261 4.743 4.743 0 0 0 .702-.783c.103-.138.18-.267.235-.387.054-.12.093-.235.117-.343a.815.815 0 0 0-.117-.206c-.054-.078-.102-.12-.144-.127-.132 0-.273.084-.423.252a6.57 6.57 0 0 0-.648.864l-.072.108a1.693 1.693 0 0 0-.108.207c-.048.109-.096.22-.144.334a.707.707 0 0 0-.072.215.83.83 0 0 0 .009.117c.012.042.042.07.09.081.048.012.123-.012.225-.072Zm3.27.584c-.03.06-.075.078-.135.054a.917.917 0 0 1-.135-.071.168.168 0 0 1-.108-.036.193.193 0 0 1-.063-.108.285.285 0 0 1-.009-.127c.006-.053.018-.113.036-.18.024-.072.048-.15.072-.233.048-.199.081-.343.099-.433a3.36 3.36 0 0 1 .054-.233c.018-.066.042-.162.072-.288a2.96 2.96 0 0 0 .117-.352 1.62 1.62 0 0 1 .135-.341c.042-.157.093-.303.153-.442.066-.144.129-.264.189-.36a.527.527 0 0 1 .063-.072c.036-.03.066-.044.09-.044.048-.049.09-.067.126-.055a.345.345 0 0 1 .153.082.302.302 0 0 1 .081.27c-.012.102-.084.252-.216.45-.072.185-.138.347-.198.485-.06.133-.102.258-.126.378a1.85 1.85 0 0 1 .216-.26l.207-.207c.132-.133.24-.228.324-.288.09-.06.195-.13.315-.208.072-.047.141-.09.207-.126a.687.687 0 0 1 .216-.09.681.681 0 0 1 .27 0 .158.158 0 0 1 .144.054.43.43 0 0 1 .099.171.996.996 0 0 1 .045.252.632.632 0 0 0-.369.019 1.097 1.097 0 0 0-.279.134 9.678 9.678 0 0 1-.171.127 9 9 0 0 0-.342.242 3.067 3.067 0 0 0-.414.351c-.108.12-.201.222-.279.306a3.672 3.672 0 0 0-.18.226.936.936 0 0 0-.099.206c-.06.139-.123.288-.189.45-.066.163-.123.262-.171.297Zm2.604 1.998a1.051 1.051 0 0 1-.477.019 1.132 1.132 0 0 1-.44-.153c-.133-.078-.208-.166-.226-.261-.006-.037.006-.076.036-.117a.205.205 0 0 1 .1-.09c.035-.013.068 0 .098.035.048.03.135.066.261.108a.764.764 0 0 0 .423.027.834.834 0 0 0 .405-.242c.138-.133.25-.255.333-.37a14.04 14.04 0 0 0 .594-.998c.126-.228.231-.438.315-.63.018-.049.04-.105.063-.172a.52.52 0 0 1 .09-.161 2.64 2.64 0 0 0 .09-.198.991.991 0 0 0 .054-.136.881.881 0 0 1 .081-.18c.048-.09.093-.18.135-.27l.135-.395c.06-.175.12-.316.18-.424.072-.138.13-.248.171-.333.048-.09.1-.143.153-.161.054-.043.09-.064.108-.064a.37.37 0 0 1 .135.054.478.478 0 0 1 .135.217.433.433 0 0 1-.027.252c-.03.096-.09.227-.18.395a3.023 3.023 0 0 1-.288.621c-.03.073-.066.154-.108.244l-.099.234c-.108.24-.2.434-.279.584-.078.15-.147.288-.207.414a6.93 6.93 0 0 0-.189.441c-.138.223-.273.433-.405.63a5.049 5.049 0 0 1-.405.568c-.06.053-.135.117-.225.189s-.183.138-.279.197a.942.942 0 0 1-.26.127Zm1.215-2.16a.468.468 0 0 1-.27-.162 1.212 1.212 0 0 1-.198-.306c-.048-.108-.066-.185-.054-.233v-.099c-.036 0-.069-.045-.099-.136a2.073 2.073 0 0 1-.054-.35 9.994 9.994 0 0 1-.027-.46c0-.162.006-.315.018-.459.024-.101.036-.212.036-.332 0-.127.003-.226.01-.298-.007-.096.002-.159.026-.189a.327.327 0 0 1 .072-.08c.168-.073.28-.028.333.134.06.157.075.45.045.883-.012.24-.012.48 0 .72s.045.45.1.63c.06.18.14.303.242.368.042.024.063.057.063.1a.303.303 0 0 1-.135.242.147.147 0 0 1-.108.027Zm5.14.081c-.06.043-.103.064-.127.064a.443.443 0 0 1-.135-.108c-.114-.108-.195-.313-.243-.613a10.058 10.058 0 0 1-.063-1.287c.024-.245.036-.456.036-.63l.01-.297c.017-.024.053-.036.107-.036.06 0 .111.012.153.036.06.03.1.075.117.135.024.06.04.169.045.325.006.15.01.38.01.693-.019.24-.028.45-.028.63 0 .174.01.273.027.297.024.041.051.053.081.035.036-.023.1-.08.19-.17a8.091 8.091 0 0 0 .35-.531c.066-.084.126-.165.18-.243.06-.079.102-.13.126-.154a.662.662 0 0 1 .09-.135.82.82 0 0 0 .09-.126c.066-.113.135-.206.207-.278.072-.078.12-.117.144-.117.024.017.045.023.063.017a.16.16 0 0 1 .072-.018c.042-.042.1-.042.171 0a.313.313 0 0 1 .063.063.086.086 0 0 1 .027.064c0 .03-.024.093-.072.189a1.811 1.811 0 0 1-.153.279.529.529 0 0 1-.126.152l-.027.027-.063.064a1.157 1.157 0 0 1-.117.225 7.963 7.963 0 0 1-.243.35c-.096.133-.195.264-.297.397l-.27.35a1.23 1.23 0 0 1-.207.226c-.078.06-.14.102-.189.126Zm2.69.072c-.233-.096-.386-.227-.458-.395-.066-.174-.078-.441-.036-.801a7.27 7.27 0 0 0 .018-.37c0-.06-.033-.12-.1-.18a.746.746 0 0 0-.098-.099c-.042-.041-.06-.078-.054-.108a.35.35 0 0 1 .009-.134c.012-.054.03-.081.054-.081a.16.16 0 0 0 .072-.019.095.095 0 0 1 .08 0c.025 0 .052.004.082.01.03.005.045.02.045.044.024.043.063.049.117.019.054-.036.11-.114.17-.234.06-.096.139-.193.235-.288.102-.096.2-.183.297-.261a1.59 1.59 0 0 1 .252-.18 1.734 1.734 0 0 1 .324-.09.642.642 0 0 1 .18-.01.484.484 0 0 1 .27.09c.078.055.15.117.216.19a.334.334 0 0 1 .144.215.838.838 0 0 1-.063.567.576.576 0 0 1-.153.216c-.084.084-.18.166-.288.243a1.424 1.424 0 0 1-.297.171 3.443 3.443 0 0 1-.648.063.609.609 0 0 1-.207-.036c-.042-.024-.075.01-.1.1-.023.09-.041.219-.053.387a1.116 1.116 0 0 0 0 .288.53.53 0 0 0 .036.125c.042.042.099.096.17.163.079.06.187.069.325.026a.683.683 0 0 0 .333-.233 2.83 2.83 0 0 1 .315-.306.144.144 0 0 1 .117-.072.407.407 0 0 1 .189.009c.066.041.093.093.08.153a.92.92 0 0 1-.09.252.592.592 0 0 1-.125.162c-.06.06-.13.123-.207.189a1.178 1.178 0 0 1-.702.297c-.156 0-.306-.028-.45-.082Zm.532-1.827c.132-.03.237-.05.315-.063a.5.5 0 0 0 .225-.099c.072-.06.162-.17.27-.332a.374.374 0 0 0 .018-.199c-.006-.066-.021-.11-.045-.134a.177.177 0 0 0-.198-.054.597.597 0 0 0-.207.098.883.883 0 0 0-.19.136 2.151 2.151 0 0 0-.233.233 1.903 1.903 0 0 0-.19.234c-.047.072-.06.114-.035.127-.012.023.02.038.099.044.084.006.14.01.17.01Zm2.215 1.836c-.03.06-.075.078-.135.054a.917.917 0 0 1-.135-.071.168.168 0 0 1-.108-.036.193.193 0 0 1-.063-.108.285.285 0 0 1-.009-.127c.006-.053.018-.113.036-.18.024-.072.048-.15.072-.233.048-.199.081-.343.1-.433.017-.09.035-.168.053-.233.018-.066.042-.162.072-.288a2.96 2.96 0 0 0 .117-.352 1.62 1.62 0 0 1 .135-.341c.042-.157.093-.303.153-.442.066-.144.13-.264.19-.36a.527.527 0 0 1 .062-.072c.036-.03.066-.044.09-.044.048-.049.09-.067.126-.055a.345.345 0 0 1 .153.082.302.302 0 0 1 .081.27c-.012.102-.084.252-.216.45-.072.185-.138.347-.198.485-.06.133-.102.258-.126.378a1.85 1.85 0 0 1 .216-.26l.207-.207c.132-.133.24-.228.324-.288.09-.06.195-.13.315-.208.072-.047.141-.09.207-.126a.687.687 0 0 1 .216-.09.681.681 0 0 1 .27 0 .158.158 0 0 1 .144.054.43.43 0 0 1 .1.171.996.996 0 0 1 .044.252.632.632 0 0 0-.369.019 1.097 1.097 0 0 0-.279.134 9.678 9.678 0 0 1-.17.127 9 9 0 0 0-.343.242 3.067 3.067 0 0 0-.414.351c-.108.12-.2.222-.279.306a3.672 3.672 0 0 0-.18.226.936.936 0 0 0-.099.206c-.06.139-.123.288-.189.45-.066.163-.123.262-.17.297Zm3.793.054a.69.69 0 0 1-.225-.044.42.42 0 0 1-.09-.145.504.504 0 0 1-.09-.125.184.184 0 0 1 0-.081h.08c.025-.007.04-.019.046-.037 0-.017.009-.03.027-.035a.146.146 0 0 1 .072 0c.114.006.258-.03.432-.108a3.81 3.81 0 0 0 .576-.343c.21-.15.414-.314.612-.494.156-.204.27-.363.342-.477a.905.905 0 0 0 .126-.288.304.304 0 0 0-.027-.198c-.024-.048-.111-.066-.261-.054-.15.005-.318.069-.504.188a4.815 4.815 0 0 0-.621.45c-.156.139-.3.294-.432.468-.048.06-.096.133-.144.216l-.108.217-.045.09c0 .023-.036.053-.108.09a.371.371 0 0 1-.171.053.811.811 0 0 1-.1-.063.269.269 0 0 1-.071-.134.766.766 0 0 1-.09-.072.134.134 0 0 1-.036-.064.42.42 0 0 1 .027-.17c.024-.078.057-.202.099-.37.036-.156.075-.318.117-.486.048-.167.093-.311.135-.431.042-.12.072-.187.09-.199l.036-.08a.462.462 0 0 0 .036-.19.782.782 0 0 1 .054-.188.291.291 0 0 0 .045-.117c.024-.019.06-.09.108-.217.048-.126.108-.29.18-.495 0-.018.02-.075.063-.17a29.982 29.982 0 0 0 .333-.774c.066-.15.12-.283.162-.396.072-.102.126-.195.162-.28.042-.09.084-.143.126-.162a.232.232 0 0 1 .108.01.36.36 0 0 1 .135.045.306.306 0 0 1 .153.189c.006.023-.003.069-.027.134a46.206 46.206 0 0 1-.441.945 14.997 14.997 0 0 0-.684 1.71 13.27 13.27 0 0 1-.198.558l-.045.198.225-.215c.09-.066.189-.148.297-.243.108-.097.204-.18.288-.253.048-.036.11-.072.189-.108.084-.041.165-.078.243-.108.078-.03.135-.047.17-.053a1.617 1.617 0 0 1 .396-.045c.133 0 .238.03.316.09.084.06.165.156.243.288.066.125.093.27.08.431a.983.983 0 0 1-.143.441.492.492 0 0 0-.09.1c-.03.036-.045.066-.045.09-.006.041-.06.129-.162.26a9.574 9.574 0 0 1-.306.36 2.91 2.91 0 0 1-.396.343 6.74 6.74 0 0 1-.468.296c-.15.084-.28.145-.387.18a3.105 3.105 0 0 0-.207.036c-.09.012-.16.024-.207.036Z"/>
    <path fill="#580DD9" d="M114.549 38.016h-.09c-.036.006-.069-.018-.099-.072a.256.256 0 0 1-.045-.136c0-.06.015-.167.045-.324.03-.102.054-.203.072-.306a1.29 1.29 0 0 0 .027-.215c0-.025.006-.072.018-.145a.624.624 0 0 0 .027-.143.625.625 0 0 0 .072-.198c.018-.084.027-.16.027-.225 0-.073.036-.139.108-.199 0-.047.009-.107.027-.18a.59.59 0 0 0 .036-.143 7.98 7.98 0 0 1 .117-.441c.066-.217.144-.46.234-.73l.279-.791c.09-.258.171-.477.243-.657a2.26 2.26 0 0 0 .144-.432 1.35 1.35 0 0 0 .045-.28c0-.023.006-.041.018-.053.012-.018.039-.051.081-.1.06-.06.111-.078.153-.053.048.024.105.06.171.108a1 1 0 0 1 .099.197c.024.055.024.148 0 .28 0 .09-.015.168-.045.233-.03.066-.057.117-.081.153-.024.03-.03.042-.018.036.246-.114.462-.174.648-.18a.794.794 0 0 1 .477.1.697.697 0 0 1 .297.306c.066.131.099.285.099.459a.951.951 0 0 1-.045.26 1.36 1.36 0 0 1-.234.441c-.024 0-.048.022-.072.064a1.177 1.177 0 0 0-.072.126 1.22 1.22 0 0 1-.234.206 2.033 2.033 0 0 1-.306.18c-.102.043-.177.055-.225.037l-.027.009c-.012 0-.018.014-.018.044 0 .012-.048.04-.144.081a4.4 4.4 0 0 1-.333.108 1.46 1.46 0 0 1-.333.045c-.126 0-.216-.023-.27-.072a.526.526 0 0 0-.045.054.145.145 0 0 0-.018.063.92.92 0 0 1-.045.208 2.162 2.162 0 0 1-.09.279c-.036.09-.069.135-.099.135l-.018.026c-.012.018-.006.042.018.072l-.009.1a.334.334 0 0 1-.045.18c0 .047-.009.12-.027.215a.863.863 0 0 1-.063.216.601.601 0 0 1-.036.207c-.018.073-.039.109-.063.109-.024.005-.039.041-.045.108a2.128 2.128 0 0 0-.009.152.7.7 0 0 1-.09.352c-.054.084-.117.126-.189.126Zm1.089-3.006c.048 0 .147-.021.297-.063a5.5 5.5 0 0 0 .459-.154c.162-.066.282-.132.36-.197.156-.138.276-.294.36-.468a.492.492 0 0 0-.018-.514c-.048-.083-.135-.116-.261-.098a1.07 1.07 0 0 0-.414.144c-.15.084-.291.189-.423.315a1.347 1.347 0 0 0-.198.288 2.85 2.85 0 0 0-.153.342 1.33 1.33 0 0 0-.063.288c-.006.078.012.117.054.117Zm2.726.666a.272.272 0 0 0-.09-.108c-.036-.03-.054-.057-.054-.081a.296.296 0 0 0-.009-.073.112.112 0 0 0-.036-.08c-.03-.037-.027-.117.009-.244a3.37 3.37 0 0 1 .18-.477c.084-.191.183-.392.297-.602.048-.049.096-.111.144-.19a.961.961 0 0 1 .108-.152c0-.024.009-.045.027-.063.018-.025.039-.037.063-.037v-.053c0-.03.027-.081.081-.154.06-.072.132-.15.216-.233a3.43 3.43 0 0 1 .261-.252 1.34 1.34 0 0 1 .225-.18.919.919 0 0 1 .387-.154.442.442 0 0 1 .351.09l.09.09.144.145c.06.047.12.099.18.152l.333.297-.162.45c-.078.24-.099.45-.063.63.042.18.102.337.18.468a.48.48 0 0 0 .18.19c.096.06.186.096.27.108a.292.292 0 0 1 .135.054c.042.03.063.078.063.144 0 .06-.012.108-.036.144-.024.035-.066.06-.126.072a.788.788 0 0 1-.558-.145c-.168-.12-.324-.318-.468-.593a1.458 1.458 0 0 1-.162-.396l-.135.17a3.021 3.021 0 0 1-.153.172c-.426.432-.795.723-1.107.873-.306.143-.561.15-.765.017Zm.324-.505c0 .043.063.043.189 0a1.51 1.51 0 0 0 .423-.252c.204-.173.408-.365.612-.575.21-.21.378-.406.504-.586l.198-.324c-.06-.137-.126-.23-.198-.278-.066-.054-.123-.081-.171-.081-.078 0-.195.072-.351.215a4.32 4.32 0 0 0-.486.577c-.174.24-.339.504-.495.791a5.68 5.68 0 0 0-.162.352l-.063.162Zm4.091.55c-.018.006-.048.003-.09-.01a1.057 1.057 0 0 1-.126-.044.292.292 0 0 1-.081-.046.419.419 0 0 1-.072-.108.395.395 0 0 1 0-.206c.018-.096.078-.22.18-.37.03-.06.066-.15.108-.27.042-.12.084-.245.126-.378.048-.138.09-.26.126-.369a8.37 8.37 0 0 1 .09-.224c.012-.102.006-.174-.018-.216-.018-.048-.069-.075-.153-.081a.468.468 0 0 1-.144-.019c-.03-.012-.045-.072-.045-.18.012-.084.033-.14.063-.17.036-.037.084-.075.144-.117a.677.677 0 0 1 .369-.072c.06.005.108.026.144.063.042.023.069.077.081.161.012.079.018.16.018.244.006.084.012.147.018.189l.243-.198c.108-.09.201-.174.279-.252a2.88 2.88 0 0 1 .342-.199c.132-.071.228-.107.288-.107a.41.41 0 0 1 .198.053.27.27 0 0 1 .135.117c.06.102.087.193.081.27a.398.398 0 0 1-.099.243.464.464 0 0 1-.225.163.673.673 0 0 1-.162.044c-.036 0-.081-.026-.135-.08-.054-.054-.084-.1-.09-.136 0-.017-.039 0-.117.055a2.488 2.488 0 0 0-.243.189c-.09.072-.165.138-.225.198a3.21 3.21 0 0 0-.324.513c-.114.215-.249.476-.405.782-.072.15-.123.28-.153.388-.03.102-.072.162-.126.18Zm3.504.729c-.198-.03-.333-.106-.405-.226-.066-.113-.081-.29-.045-.53.036-.114.057-.217.063-.306.012-.096.039-.157.081-.18l.009-.027c.012-.018.009-.036-.009-.054 0-.079.027-.187.081-.325l.045-.126.036-.08c-.03-.048-.03-.087 0-.117.03-.03.06-.057.09-.081.036-.03.039-.064.009-.1-.012-.023.003-.078.045-.162.042-.09.09-.183.144-.279a1.42 1.42 0 0 0 .108-.224c0-.013.015-.055.045-.127a15.817 15.817 0 0 1 .225-.513l.081-.153c.06-.03.036-.05-.072-.063a2.133 2.133 0 0 0-.342-.008 6.485 6.485 0 0 1-.45-.027.682.682 0 0 1-.27-.081c-.072-.084-.099-.145-.081-.18.024-.043.096-.067.216-.073.078-.005.138-.008.18-.008.048 0 .108-.003.18-.01a9.53 9.53 0 0 1 .36-.044l.459-.036.027-.154a2.75 2.75 0 0 0 .207-.404c.024-.066.042-.136.054-.207l.081-.145a.876.876 0 0 0 .099-.314c.072-.12.135-.228.189-.324l.099-.19c.066-.053.111-.08.135-.08.03 0 .09.03.18.09.054.03.102.066.144.107a.291.291 0 0 1 .081.136c.012.041-.006.084-.054.126-.012.023-.03.069-.054.134-.024.06-.042.111-.054.153a1.375 1.375 0 0 0-.135.207.97.97 0 0 0-.099.28l-.135.279c-.042.078-.075.117-.099.117.012.06.048.09.108.09.06-.006.159-.012.297-.018.114-.012.192-.024.234-.036.048-.018.102-.012.162.018a.54.54 0 0 1 .072.144.27.27 0 0 1 .009.152.11.11 0 0 1-.072.09.724.724 0 0 0-.189.054c-.09.03-.204.048-.342.054l-.477.046-.153.305c-.042.078-.078.15-.108.216a.55.55 0 0 1-.063.108c0 .036-.021.09-.063.163l-.117.233a1.705 1.705 0 0 1-.126.28l-.063.125c-.024 0-.036.018-.036.054.03.073.021.127-.027.163a.26.26 0 0 0-.081.08l-.027.045c.024.024.027.054.009.09a.66.66 0 0 1-.054.117.717.717 0 0 1-.045.207c-.024.09-.051.174-.081.252.006.108.012.178.018.208.006.03.021.042.045.036.03.006.057.006.081 0a.296.296 0 0 1 .072-.01c.084-.035.039.175-.135.63-.096.15-.162.258-.198.325-.036.072-.069.108-.099.108Zm2.62-.73c-.09-.011-.168-.075-.234-.188a1.025 1.025 0 0 1-.108-.324c.006-.048.012-.117.018-.207l.036-.28c.024-.113.057-.252.099-.413l.126-.505.126-.431c.036-.12.06-.193.072-.216.03-.048.078-.06.144-.036.066.024.12.06.162.108a.328.328 0 0 1 .063.17.756.756 0 0 1-.027.288 6.529 6.529 0 0 1-.144.559c-.066.24-.117.434-.153.585a1.9 1.9 0 0 0-.036.459c-.024.203-.042.33-.054.377-.012.043-.042.06-.09.055Zm1.035-3.59a.12.12 0 0 1-.072.026.594.594 0 0 1-.099-.053.402.402 0 0 1-.162-.081 2.062 2.062 0 0 1-.162-.162.373.373 0 0 1-.063-.108 1 1 0 0 1 .009-.226.672.672 0 0 1 .099-.252.25.25 0 0 1 .207-.126.2.2 0 0 1 .063.01c.018.005.072.026.162.063.048.09.096.192.144.305a.695.695 0 0 1 .063.325c-.006.102-.069.194-.189.279Zm.553 3.617c-.228.03-.399.051-.513.063a.642.642 0 0 1-.261-.027.708.708 0 0 1-.18-.126.175.175 0 0 1-.063-.17c.018-.067.12-.196.306-.388.114-.137.231-.266.351-.386a3.31 3.31 0 0 1 .324-.306c.042-.036.09-.072.144-.108.054-.042.141-.105.261-.19.12-.084.297-.203.531-.36a9.166 9.166 0 0 1 .432-.324l.144-.107a6.29 6.29 0 0 0-.279-.027 2.082 2.082 0 0 0-.387 0h-.324a1.214 1.214 0 0 1-.144-.027h-.135a.669.669 0 0 1-.162-.037 1.21 1.21 0 0 1-.216-.107c-.066-.042-.102-.084-.108-.127l.054-.026a.59.59 0 0 0 .09-.072c.048-.03.084-.055.108-.073.03-.018.057-.015.081.01h.171c.114-.007.243-.013.387-.019.348.006.603.018.765.036.168.013.291.037.369.073a.86.86 0 0 1 .243.162c.096.095.135.188.117.278a.5.5 0 0 1-.126.243.982.982 0 0 0-.072.082c-.018.024-.036.035-.054.035l-.126.081-.306.199c-.114.078-.228.15-.342.215a.916.916 0 0 0-.198.145 2.055 2.055 0 0 0-.153.099.696.696 0 0 0-.126.09c-.018.023-.06.066-.126.125-.06.06-.126.114-.198.163-.054.047-.12.108-.198.18l-.189.189-.081.08.18-.017c.12-.019.27-.034.45-.046a3.15 3.15 0 0 1 .531-.008c.282-.006.504-.012.666-.018.168-.012.294-.015.378-.01a.49.49 0 0 1 .207.036.216.216 0 0 1 .108.072.27.27 0 0 1 .072.117c.018.036.021.063.009.081-.024 0-.117.01-.279.028-.162.011-.348.023-.558.035a15.54 15.54 0 0 0-.801.09c-.258.036-.516.07-.774.1Zm2.65-.188a.296.296 0 0 1-.09-.018l-.045-.027a.212.212 0 0 0-.027-.09.296.296 0 0 1-.018-.09c-.042-.025-.066-.049-.072-.073a.304.304 0 0 1 .027-.144c.036-.06.084-.155.144-.287l.189-.441c.066-.163.129-.322.189-.478l.153-.395c.042-.114.066-.183.072-.207 0-.024.009-.054.027-.09a.343.343 0 0 1 .063-.09c.048-.042.099-.045.153-.01.054.03.099.084.135.163a.473.473 0 0 1 .063.243c0 .041-.03.15-.09.324-.06.168-.141.369-.243.603-.096.233-.204.47-.324.71l-.171.334c-.024.041-.069.063-.135.063Zm1.323-3.411a.44.44 0 0 1-.234-.082 1.013 1.013 0 0 1-.207-.216.521.521 0 0 1-.081-.27c0-.03.018-.071.054-.125l.108-.162a.324.324 0 0 0 .054-.1.48.48 0 0 1 .108.01c.03 0 .066.012.108.035.066.15.147.274.243.37.102.095.153.177.153.242 0 .133-.012.216-.036.252-.024.03-.114.046-.27.046Zm.221 5.426c-.072.049-.147.046-.225-.008a.484.484 0 0 1-.162-.244.517.517 0 0 1 .009-.342c.012-.035.03-.095.054-.18.024-.078.039-.146.045-.206.006-.043.024-.114.054-.217a5.45 5.45 0 0 1 .099-.288c.042-.096.075-.164.099-.206a.565.565 0 0 0 .072-.208.867.867 0 0 0 .027-.18c.012-.041.027-.09.045-.143a.585.585 0 0 1 .072-.127.942.942 0 0 1 .054-.153.728.728 0 0 1 .081-.153.886.886 0 0 0 .027-.152c.012-.06.03-.094.054-.1a.296.296 0 0 0 .009-.072.706.706 0 0 1 .036-.099 2.3 2.3 0 0 1 .081-.288c.042-.125.093-.264.153-.413.066-.175.096-.34.09-.495 0-.162-.045-.261-.135-.297a.16.16 0 0 1-.09-.1.203.203 0 0 1 .018-.143.194.194 0 0 1 .108-.1.333.333 0 0 1 .171-.026.659.659 0 0 1 .171.035c.048.013.069.025.063.037 0 .03.015.047.045.053.012-.017.036.004.072.063.042.054.081.117.117.19a.419.419 0 0 1 .054.152.158.158 0 0 0-.018.045h.036l.099-.045c.066-.035.135-.075.207-.117a.961.961 0 0 0 .153-.107l.045-.018a.343.343 0 0 0 .09-.063.649.649 0 0 1 .387-.028c.144.03.258.084.342.162.12.15.18.294.18.432.006.139-.033.313-.117.523a1.4 1.4 0 0 1-.081.152 5.305 5.305 0 0 1-.108.19l-.054.08a2.08 2.08 0 0 1-.486.54c-.186.145-.375.27-.567.379a.814.814 0 0 1-.189.099.898.898 0 0 1-.162.035.205.205 0 0 1-.099-.017c-.066-.048-.126-.15-.18-.306l-.09.233c-.024.073-.039.12-.045.145a2.013 2.013 0 0 1-.018.108.113.113 0 0 1-.045.063l-.009.035a.362.362 0 0 1-.063.108c-.06.175-.114.325-.162.45-.048.133-.087.244-.117.334-.03.096-.054.18-.072.252a1.876 1.876 0 0 1-.099.476c-.054.163-.096.252-.126.27Zm1.071-2.564a1.59 1.59 0 0 0 .153-.1c.084-.06.177-.128.279-.206.102-.084.195-.163.279-.235a1.398 1.398 0 0 0 .315-.333.885.885 0 0 0 .099-.216l.063-.162a3.11 3.11 0 0 0 .063-.17.248.248 0 0 0 .027-.145.183.183 0 0 0-.054-.134c-.024-.006-.096.012-.216.053-.12.036-.252.1-.396.19-.144.084-.27.194-.378.333-.126.162-.219.33-.279.504a1.313 1.313 0 0 0-.072.44c.012.12.051.18.117.18Zm5.302 1.269c-.042-.067-.138-.109-.288-.127a3.002 3.002 0 0 0-.531-.008.551.551 0 0 1-.243-.018.382.382 0 0 1-.189-.1c-.042-.042-.057-.087-.045-.135.006-.072.066-.128.18-.17.12-.042.309-.066.567-.072l.477-.01.09-.18c.024-.066.054-.159.09-.279l.117-.386c.024-.084.06-.198.108-.342l.153-.46.144-.431a3.8 3.8 0 0 0 .081-.28c.024-.053.057-.143.099-.27.042-.132.081-.264.117-.396a3.6 3.6 0 0 0 .081-.297c.156-.473.258-.81.306-1.007.048-.204.06-.31.036-.316a8.105 8.105 0 0 0-.486.036 3.892 3.892 0 0 0-.297.027.497.497 0 0 0-.153.037c-.03.042-.081.05-.153.027-.072-.024-.117-.067-.135-.127a1.22 1.22 0 0 1-.009-.126.107.107 0 0 1 .054-.072.824.824 0 0 1 .243-.117c.12-.047.255-.09.405-.125a4.08 4.08 0 0 1 .441-.081c.102-.012.204-.034.306-.064a.832.832 0 0 0 .243-.125c.054-.018.105-.034.153-.046a.492.492 0 0 1 .162-.009.48.48 0 0 0 .243.046c.12 0 .246-.003.378-.01.336-.03.561-.038.675-.026.12.012.201.06.243.144.03.113.036.203.018.27-.018.06-.078.087-.18.08a2.619 2.619 0 0 1-.297.036l-.441.018c-.426.037-.654.078-.684.127a.676.676 0 0 0-.063.072.472.472 0 0 1-.054.08c.006.024-.009.102-.045.235-.03.125-.069.255-.117.387a41.407 41.407 0 0 1-.261.783c-.048.15-.093.288-.135.413a4.76 4.76 0 0 1-.09.244 1.26 1.26 0 0 0-.063.18l-.027.135c-.084.293-.159.542-.225.746-.06.205-.117.385-.171.54-.048.15-.093.298-.135.442-.042.138-.087.29-.135.459l.135-.01c.096-.012.222-.024.378-.035.282-.03.483-.048.603-.054.126-.006.21.003.252.027.042.018.072.053.09.108.12.161.135.273.045.332-.09.06-.303.087-.639.081l-.72.028a2.06 2.06 0 0 0-.342.045c-.06.017-.096.047-.108.09 0 .047-.024.072-.072.072a.592.592 0 0 1-.18-.036Zm3.716.215c-.048-.06-.147-.096-.297-.108a3.232 3.232 0 0 0-.531.01.658.658 0 0 1-.243-.01.428.428 0 0 1-.189-.09c-.048-.041-.066-.09-.054-.143.006-.072.066-.13.18-.172.114-.047.3-.078.558-.09l.477-.026.09-.19c.018-.066.042-.158.072-.278.036-.12.072-.25.108-.387l.108-.37a535.471 535.471 0 0 1 .333-1.035 1.96 1.96 0 0 0 .081-.305c.024-.054.057-.153.099-.297l.126-.441c.042-.156.069-.264.081-.325.138-.48.228-.822.27-1.026.042-.203.051-.305.027-.305a4.11 4.11 0 0 0-.486.045 3.481 3.481 0 0 0-.297.044c-.084.012-.132.024-.144.037-.03.041-.081.053-.153.035a.218.218 0 0 1-.144-.125 1.22 1.22 0 0 1-.009-.127.115.115 0 0 1 .045-.072.966.966 0 0 1 .234-.125 4.682 4.682 0 0 1 .846-.235c.102-.011.204-.035.306-.072a.83.83 0 0 0 .234-.134.942.942 0 0 1 .153-.055.492.492 0 0 1 .162-.009.587.587 0 0 0 .243.037c.12-.006.246-.015.378-.027.336-.043.564-.058.684-.046.12.006.201.051.243.135a.51.51 0 0 1 .018.262c-.012.066-.069.096-.171.09a1.478 1.478 0 0 1-.297.044 44.52 44.52 0 0 1-.441.037 4.042 4.042 0 0 0-.486.08c-.114.024-.177.048-.189.072a.676.676 0 0 0-.063.072.472.472 0 0 1-.054.082c.012.023.003.101-.027.233-.03.127-.066.258-.108.396l-.108.352-.153.476a25.71 25.71 0 0 1-.135.46 3.579 3.579 0 0 1-.09.26 3.407 3.407 0 0 0-.054.18.758.758 0 0 0-.018.136 19.529 19.529 0 0 1-.504 1.727c-.066.217-.126.435-.18.657l.135-.009c.096-.012.222-.03.378-.053.21-.03.375-.051.495-.063.12-.013.21-.016.27-.01.06 0 .099.013.117.037a.216.216 0 0 1 .063.09c.126.155.144.264.054.324-.084.06-.294.096-.63.108l-.72.053a2.56 2.56 0 0 0-.342.054c-.06.018-.093.048-.099.09 0 .03-.012.052-.036.064-.018.018-.048.023-.09.018a.691.691 0 0 1-.126-.036Z"/>
    <g clip-path="url(#b)">
      <path fill="#000" fill-rule="evenodd" d="M4.143-1.267C3.102.818 3.004 3.198 3.48 5.558c.717 3.564 2.741 7.082 4.83 9.49 1.313 1.514 2.707 2.099 4.307 3.288a.146.146 0 0 1-.174.234c-1.62-1.203-3.026-1.8-4.354-3.33-2.118-2.442-4.168-6.01-4.896-9.624-.488-2.425-.382-4.87.689-7.013a.146.146 0 1 1 .261.13Z" clip-rule="evenodd"/>
      <path fill="#000" fill-rule="evenodd" d="M12.742 18.893c-.006-.003-.045-.03-.08-.05a6.237 6.237 0 0 0-.76-.326c-1.16-.429-3.204-.975-4.544-.571a.146.146 0 0 1-.084-.28c1.393-.42 3.522.13 4.73.577.162.06.308.118.433.171a33.429 33.429 0 0 0-.708-1.023c-.697-.972-1.098-1.958-1.318-3.142a.146.146 0 1 1 .287-.053c.212 1.14.598 2.089 1.268 3.024.316.442.625.887.917 1.344.03.046.104.165.111.183a.141.141 0 0 1-.047.177.149.149 0 0 1-.205-.03Zm.217-.195.008.01-.008-.01Z" clip-rule="evenodd"/>
    </g>
  </g>
  <defs>
    <clipPath id="a">
      <path fill="#fff" d="M0 0h168v40H0z"/>
    </clipPath>
    <clipPath id="b">
      <path fill="#fff" d="m12.701-5-20.7 8.363 8.363 20.7 20.7-8.363z"/>
    </clipPath>
  </defs>
</svg>
