<svg xmlns="http://www.w3.org/2000/svg" width="159" height="64" fill="none" viewBox="0 0 159 64">
  <g clip-path="url(#a)">
    <path fill="#580DD9" fillRule="evenodd" d="M145.227 48.993c2.343-.677 4.083-1.68 5.806-2.746 5.651-3.497 6.938-6.939 1.971-8.668-7.72-2.676-23.74-1.517-35.214 2.954-2.542.99-6.02 2.189-8.238 4.313-2.064 1.976-1.543 3.535-.045 4.71 1.528 1.206 4.072 2.014 6.041 2.444 8.607 1.876 24.717 1.382 37.946-4.12.272-.112.571-.125.681-.034.111.09.001.248-.251.353-13.617 5.664-30.231 6.21-39.09 4.28-2.451-.538-5.764-1.643-7.079-3.347-.892-1.167-.864-2.608.922-4.33 2.355-2.261 6.044-3.56 8.742-4.61 11.845-4.618 28.412-5.83 36.371-3.063 5.346 1.856 3.996 5.55-2.08 9.31-1.852 1.15-3.766 2.229-6.31 2.963-.281.081-.546.055-.578-.062-.051-.113.144-.272.405-.347Z" clip-rule="evenodd"/>
    <path fill="#DF00A6" fillRule="evenodd" d="M45.75 36.01c1.989.054 3.57.578 5.15 1.166 5.185 1.93 6.92 4.927 3.367 7.872-5.525 4.566-18.394 7.555-28.373 6.176-2.21-.304-5.201-.572-7.394-2.057-2.04-1.38-1.955-3.02-1.02-4.54.952-1.557 2.788-2.99 4.25-3.912 6.391-4.02 19.192-7.674 30.769-5.748.238.037.476-.026.544-.142.068-.116-.051-.24-.273-.278-11.916-1.982-25.125 1.75-31.704 5.888-1.818 1.149-4.198 3.067-4.878 5.051-.46 1.356-.136 2.743 1.632 3.949 2.329 1.581 5.508 1.89 7.854 2.215 10.301 1.424 23.612-1.652 29.306-6.368 3.825-3.165 1.99-6.389-3.586-8.464-1.7-.639-3.434-1.19-5.593-1.247-.238-.007-.442.087-.442.208-.017.122.17.225.39.232Z" clip-rule="evenodd"/>
    <path fill="#DF00A6" d="M18.431 60.793a1.46 1.46 0 0 1-.108-.063 17.574 17.574 0 0 1-.135-.117.63.63 0 0 1-.09-.126c-.018-.03-.018-.084 0-.162.024-.078.048-.117.072-.117.018.012.048-.009.09-.063.042-.054.084-.111.126-.171a.445.445 0 0 0 .063-.117.08.08 0 0 1 .045-.054.948.948 0 0 0 .081-.054.822.822 0 0 1 .117-.144 2.13 2.13 0 0 0 .126-.135c.048-.06.135-.15.261-.27a10.7 10.7 0 0 0 .369-.369c.126-.138.237-.258.333-.36.096-.108.147-.183.153-.225l.027-.027a.418.418 0 0 1 .081-.063.885.885 0 0 0 .117-.09 1.46 1.46 0 0 0 .135-.117.743.743 0 0 1 .099-.198c.06-.09.12-.165.18-.225.048-.072.093-.15.135-.234.042-.09.069-.156.081-.198.018-.066.018-.105 0-.117a.858.858 0 0 0-.225-.09 1.23 1.23 0 0 0-.477-.054c-.168.006-.357.084-.567.234a1.334 1.334 0 0 0-.234.072.325.325 0 0 1-.171.036.254.254 0 0 1-.081-.081.928.928 0 0 0-.099-.117l-.09-.189.279-.153a2.79 2.79 0 0 1 .666-.324.934.934 0 0 1 .558-.009c.066 0 .126.009.18.027l.081.018c.048-.006.108.021.18.081.072.054.141.123.207.207a.991.991 0 0 1 .162.252.573.573 0 0 1 .09.459c-.03.156-.12.345-.27.567a43.855 43.855 0 0 1-.549.612c-.126.138-.243.261-.351.369l-.198.207a.907.907 0 0 0-.216.189 23.81 23.81 0 0 0-.315.342 8.58 8.58 0 0 0-.279.324c-.072.09-.102.135-.09.135-.006.024.003.036.027.036.024-.006.063-.018.117-.036.09-.03.207-.06.351-.09.15-.03.303-.054.459-.072.156-.024.291-.039.405-.045.12-.006.189 0 .207.018.012.03.021.042.027.036l.018-.018c.012-.042.087-.054.225-.036.144.018.273.045.387.081.066.018.117.033.153.045.042.012.063.03.063.054l.018.045c.018.024.045.057.081.099.096.078.108.129.036.153-.072.024-.228.015-.468-.027a2.29 2.29 0 0 0-.387.027.41.41 0 0 1-.153.018c-.078 0-.153.003-.225.009a.983.983 0 0 0-.324.018 2.832 2.832 0 0 0-.387.099 3.683 3.683 0 0 1-.981.27.703.703 0 0 1-.198.018Zm6.707-.207a.558.558 0 0 1-.297-.072.613.613 0 0 1-.198-.261 2.775 2.775 0 0 1-.063-.279 2.706 2.706 0 0 1-.018-.297c0-.096.009-.159.027-.189.024-.024.033-.066.027-.126v-.207c-.006-.12-.036-.186-.09-.198-.048-.018-.12 0-.216.054-.108.066-.25.156-.423.27-.174.108-.357.228-.55.36-.185.132-.362.27-.53.414-.132.144-.213.255-.243.333-.024.072-.06.108-.108.108-.048.024-.09.027-.126.009l-.135-.108a2.776 2.776 0 0 0-.126-.135.608.608 0 0 1-.081-.108c0-.03.009-.093.027-.189.018-.096.039-.192.063-.288.03-.096.05-.159.063-.189.03 0 .054-.03.072-.09.024-.06.06-.126.108-.198.012-.072.042-.168.09-.288l.144-.333c.084-.144.14-.264.17-.36a1.36 1.36 0 0 0 .073-.36.063.063 0 0 1 .018-.063c.018-.024.039-.036.063-.036a.151.151 0 0 1 .17-.036.342.342 0 0 1 .18.135c.109.144.15.294.127.45-.018.15-.114.366-.288.648l-.1.225a.352.352 0 0 0-.026.117l.09-.063c.066-.042.138-.09.216-.144.084-.06.15-.105.198-.135.03-.03.099-.084.207-.162.108-.078.222-.153.342-.225.126-.078.219-.123.279-.135.048-.024.099-.045.153-.063a.34.34 0 0 1 .117-.036c.048 0 .108.027.18.081.078.048.15.108.216.18a.412.412 0 0 1 .117.171v.072l.018.072c.024.078.036.183.036.315.006.132.003.252-.01.36-.011.108-.032.171-.062.189v.027c.006.012.02.018.045.018v.045c-.03 0-.042.027-.036.081a.512.512 0 0 0 .054.162c.036.06.072.108.108.144.072.072.102.141.09.207-.012.06-.066.102-.162.126Zm3.17.324a.955.955 0 0 1-.108-.009.2.2 0 0 1-.108-.081.918.918 0 0 1-.171-.27.745.745 0 0 1-.01-.315c.012-.09.018-.168.018-.234l.019-.18c-.024-.024-.07-.006-.136.054a4.4 4.4 0 0 1-.252.207 4.123 4.123 0 0 1-.548.54 1.5 1.5 0 0 1-.424.243.943.943 0 0 1-.36.036.357.357 0 0 1-.243-.126.632.632 0 0 1-.116-.297 2.082 2.082 0 0 1 0-.387c.023-.198.066-.387.125-.567a3.16 3.16 0 0 1 .316-.603 1.71 1.71 0 0 1 .26-.351 2.28 2.28 0 0 1 .37-.315c.137-.096.27-.165.395-.207.139-.054.28-.084.424-.09a.998.998 0 0 1 .386.036.417.417 0 0 0 .172.054c.047 0 .084-.03.107-.09.03-.048.06-.12.09-.216.03-.102.067-.189.108-.261l.198-.585c.067-.162.139-.333.216-.513.078-.18.171-.399.28-.657.102-.192.186-.303.252-.333.066-.036.14-.012.224.072.066.078.09.168.072.27a2.724 2.724 0 0 1-.162.468 3.827 3.827 0 0 0-.234.45c-.078.186-.15.354-.215.504a8.967 8.967 0 0 0-.207.495 4.599 4.599 0 0 1-.1.333c-.036.126-.066.24-.09.342a2.99 2.99 0 0 1-.063.27c-.017.078-.038.117-.063.117a.804.804 0 0 0-.134.288 4.17 4.17 0 0 0-.108.414c-.024.144-.046.264-.064.36a2.584 2.584 0 0 0-.026.279 6.338 6.338 0 0 0-.01.333v.216c0 .132-.003.216-.009.252-.006.036-.03.054-.072.054Zm-1.918-.567c.127 0 .258-.054.396-.162.144-.108.288-.228.432-.36a2.45 2.45 0 0 0 .288-.333c.108-.138.21-.276.306-.414.102-.138.183-.258.243-.36a.702.702 0 0 0 .09-.198c0-.03-.026-.051-.08-.063a.879.879 0 0 0-.19-.018.453.453 0 0 0-.162.009c-.132.03-.264.09-.396.18-.125.09-.264.225-.413.405-.157.192-.285.39-.387.594a2.116 2.116 0 0 0-.18.513c-.024.138-.006.207.053.207Zm4.93 2.664a.527.527 0 0 1-.135-.09.537.537 0 0 1-.117-.144.248.248 0 0 1-.045-.126c0-.036.015-.132.045-.288.03-.15.07-.336.117-.558.054-.216.111-.438.171-.666a8.587 8.587 0 0 1 .315-.891c.072-.174.141-.384.207-.63.048-.156.111-.333.19-.531.077-.198.158-.396.242-.594.084-.204.153-.384.207-.54.054-.156.1-.282.135-.378.042-.102.066-.165.072-.189a.226.226 0 0 1 .054-.09c.03-.03.06-.054.09-.072a.263.263 0 0 1 .072-.045c.108-.03.201.015.28.135.03.054.035.117.017.189a1.728 1.728 0 0 1-.099.27l-.063.18.324-.072c.054 0 .12.003.198.009h.243c.078 0 .135.006.171.018.144.006.243.033.297.081.06.048.111.111.153.189.03.03.066.072.108.126a.273.273 0 0 1 .072.144.778.778 0 0 1 0 .333 1.255 1.255 0 0 1-.108.342 1.258 1.258 0 0 1-.45.54 1.02 1.02 0 0 0-.162.081l-.072.036c-.006.03-.072.078-.198.144-.126.06-.27.117-.432.171a2.58 2.58 0 0 1-.423.108 2.979 2.979 0 0 1-.18.018.317.317 0 0 1-.18-.027.92.92 0 0 0-.135-.018c-.024 0-.036.012-.036.036a15.774 15.774 0 0 0-.369 1.215c-.114.348-.207.624-.279.828a9.05 9.05 0 0 1-.17.468 2.142 2.142 0 0 1-.082.207.292.292 0 0 1-.045.081Zm1.125-3.321c.018.036.075.048.171.036a1.94 1.94 0 0 0 .36-.108c.144-.06.285-.126.423-.198.138-.078.252-.156.342-.234.132-.15.24-.288.324-.414.084-.132.096-.219.036-.261-.066-.096-.189-.141-.369-.135-.18.006-.402.081-.666.225a.557.557 0 0 0-.234.144.76.76 0 0 0-.126.207 19.09 19.09 0 0 1-.135.306c-.054.132-.09.231-.108.297a.322.322 0 0 0-.018.135Zm3.294 1.179a.353.353 0 0 1-.19-.045 3.285 3.285 0 0 1-.161-.126 1.252 1.252 0 0 1-.243-.342.57.57 0 0 1-.045-.324.273.273 0 0 0 .018-.135v-.072c-.03-.03-.04-.048-.027-.054a.21.21 0 0 0 .036-.054c.036 0 .048-.033.036-.099-.012-.048.012-.153.072-.315s.135-.315.225-.459c.036-.06.09-.138.162-.234a3.63 3.63 0 0 1 .234-.297 2.335 2.335 0 0 1 .639-.522c.114-.06.237-.105.369-.135.132-.03.222-.045.27-.045.054 0 .126.048.216.144.138.06.237.132.297.216a.722.722 0 0 1 .126.369c.018.18.003.387-.045.621-.042.228-.183.513-.423.855a2.6 2.6 0 0 1-.414.486 3.651 3.651 0 0 1-.45.306c-.126.084-.24.147-.342.189-.102.036-.222.06-.36.072Zm.864-.954a2.79 2.79 0 0 0 .594-1.008.878.878 0 0 0 .045-.243 1.4 1.4 0 0 0-.01-.279c-.005-.09-.026-.141-.062-.153a.375.375 0 0 0-.261-.036.656.656 0 0 0-.333.171 2.237 2.237 0 0 0-.486.585 7.256 7.256 0 0 0-.405.783c-.09.216-.111.39-.063.522.054.126.165.171.333.135.174-.042.39-.201.648-.477Zm2.237 1.125a1.473 1.473 0 0 1-.324-.189.85.85 0 0 1-.198-.207c0-.054.009-.09.027-.108.018-.024.069-.033.153-.027.09 0 .234.012.432.036a2.524 2.524 0 0 0 .567-.072c.096-.024.15-.054.162-.09.03 0 .036-.009.018-.027a.676.676 0 0 0-.063-.072.161.161 0 0 1-.081-.027c-.03-.024-.057-.036-.081-.036 0-.03-.03-.063-.09-.099a.704.704 0 0 0-.171-.099 13.723 13.723 0 0 1-.342-.288c-.096-.09-.132-.15-.108-.18v-.045c-.042 0-.09-.06-.144-.18a.884.884 0 0 1-.072-.324c0-.072.02-.162.063-.27a2.09 2.09 0 0 1 .17-.351c.073-.12.148-.219.226-.297.108-.102.243-.21.405-.324.162-.12.32-.225.477-.315.162-.096.297-.159.405-.189a.826.826 0 0 1 .297-.063c.096 0 .18.021.252.063.06.03.114.075.162.135a.89.89 0 0 1 .135.171.447.447 0 0 1 .08.144c0 .072-.005.153-.017.243-.012.084-.03.159-.054.225-.018.066-.048.099-.09.099l-.027.009c-.012 0-.018.015-.018.045 0 .06-.045.129-.135.207a.883.883 0 0 1-.297.144c-.084.012-.135-.021-.153-.099a.234.234 0 0 1-.036-.063c-.006-.018-.021-.027-.045-.027l-.027-.027c-.018-.018-.027-.048-.027-.09 0-.024.009-.045.027-.063l.027-.036c.03 0 .069-.033.117-.099.048-.072.09-.147.126-.225a.5.5 0 0 0 .063-.171c0-.036-.006-.057-.018-.063-.006-.006-.033-.009-.081-.009a8.906 8.906 0 0 0-.648.324.96.96 0 0 0-.225.153 2.26 2.26 0 0 0-.045.081c-.006.006-.021.009-.045.009 0-.024-.021-.012-.063.036a4.633 4.633 0 0 0-.144.18l-.162.234-.108.162a.324.324 0 0 0-.045.108.706.706 0 0 0-.018.153c-.024.072-.021.123.009.153l.198.162c.21.156.375.285.495.387.12.102.21.186.27.252a.42.42 0 0 1 .108.18c.108.18.14.318.099.414-.042.096-.144.18-.306.252a1.01 1.01 0 0 1-.297.072 3.268 3.268 0 0 1-.423.027 1.963 1.963 0 0 1-.342-.009Zm2.968-.315c-.09-.012-.168-.075-.234-.189a1.025 1.025 0 0 1-.108-.324c.006-.048.012-.117.018-.207l.036-.279c.024-.114.057-.252.099-.414l.126-.504.126-.432c.036-.12.06-.192.072-.216.03-.048.078-.06.144-.036.066.024.12.06.162.108a.328.328 0 0 1 .063.171.756.756 0 0 1-.027.288 6.529 6.529 0 0 1-.144.558c-.066.24-.117.435-.153.585a1.9 1.9 0 0 0-.036.459c-.024.204-.042.33-.054.378-.012.042-.042.06-.09.054Zm1.035-3.591a.12.12 0 0 1-.072.027.594.594 0 0 1-.099-.054.402.402 0 0 1-.162-.081 2.062 2.062 0 0 1-.162-.162.373.373 0 0 1-.063-.108 1 1 0 0 1 .009-.225.672.672 0 0 1 .099-.252.25.25 0 0 1 .207-.126.2.2 0 0 1 .063.009l.162.063c.048.09.096.192.144.306a.695.695 0 0 1 .063.324c-.006.102-.069.195-.189.279Zm1.319 3.852a.993.993 0 0 1-.207-.081 2.34 2.34 0 0 1-.216-.171 1.796 1.796 0 0 1-.171-.27 1.013 1.013 0 0 1-.072-.288 4.258 4.258 0 0 1-.018-.432c0-.072.012-.18.036-.324.03-.144.063-.294.099-.45.042-.162.078-.306.108-.432.036-.126.057-.207.063-.243.018-.078-.012-.123-.09-.135a1.222 1.222 0 0 0-.261-.009.397.397 0 0 1-.18-.027c-.024-.006-.036-.015-.036-.027v-.027c0-.024-.003-.039-.01-.045a.15.15 0 0 0-.026-.063c-.012-.024-.006-.057.018-.099a.203.203 0 0 1 .144-.09c.054-.012.126-.021.216-.027a1.65 1.65 0 0 0 .288-.063.548.548 0 0 0 .234-.162c.054-.132.117-.279.189-.441.072-.162.14-.306.207-.432.072-.132.12-.213.144-.243.102-.054.177-.075.225-.063.048.006.102.057.162.153.03.042.05.075.063.099.018.024.02.06.009.108a1.16 1.16 0 0 1-.1.225 9.602 9.602 0 0 1-.224.441l-.081.162-.036.063a.48.48 0 0 0 .108.009c.048 0 .108-.003.18-.009.066-.012.15-.021.252-.027a.811.811 0 0 1 .243 0c.138 0 .24.027.306.081.066.048.102.132.108.252.012.066-.003.105-.045.117a1.36 1.36 0 0 1-.297.018c-.054 0-.138.003-.252.009l-.36.018c-.12.006-.225.015-.315.027-.084.006-.126.015-.126.027-.018.012-.048.069-.09.171a11.98 11.98 0 0 0-.117.351l-.1.342a7.213 7.213 0 0 0-.098.612 3.22 3.22 0 0 0-.01.531c.013.15.046.255.1.315.054.054.159.066.315.036a.919.919 0 0 0 .378-.171c.108-.09.195-.135.26-.135.073 0 .112.033.118.099.012.06-.021.147-.1.261a1.225 1.225 0 0 1-.27.288 1.143 1.143 0 0 1-.341.171.594.594 0 0 1-.324 0Zm2.025-.423a.296.296 0 0 1-.09-.018l-.045-.027a.212.212 0 0 0-.027-.09.296.296 0 0 1-.018-.09c-.042-.024-.066-.048-.072-.072a.304.304 0 0 1 .027-.144c.036-.06.084-.156.144-.288l.19-.441c.065-.162.128-.321.188-.477l.153-.396c.042-.114.066-.183.072-.207 0-.024.01-.054.027-.09a.343.343 0 0 1 .063-.09c.048-.042.1-.045.153-.009.054.03.1.084.135.162a.473.473 0 0 1 .063.243c0 .042-.03.15-.09.324a9.19 9.19 0 0 1-.243.603c-.096.234-.204.471-.324.711-.09.174-.147.285-.17.333-.025.042-.07.063-.136.063Zm1.323-3.411a.44.44 0 0 1-.234-.081 1.013 1.013 0 0 1-.207-.216.521.521 0 0 1-.08-.27c0-.03.017-.072.053-.126l.108-.162a.324.324 0 0 0 .054-.099.48.48 0 0 1 .108.009c.03 0 .066.012.108.036.066.15.147.273.243.369.102.096.153.177.153.243 0 .132-.012.216-.036.252-.024.03-.114.045-.27.045Zm.806 3.717a.353.353 0 0 1-.19-.045 3.285 3.285 0 0 1-.161-.126 1.252 1.252 0 0 1-.243-.342.57.57 0 0 1-.045-.324.273.273 0 0 0 .018-.135v-.072c-.03-.03-.04-.048-.027-.054a.21.21 0 0 0 .036-.054c.036 0 .048-.033.036-.099-.012-.048.012-.153.072-.315s.135-.315.225-.459c.036-.06.09-.138.162-.234a3.63 3.63 0 0 1 .234-.297 2.335 2.335 0 0 1 .639-.522c.114-.06.237-.105.369-.135.132-.03.222-.045.27-.045.054 0 .126.048.216.144.138.06.237.132.297.216a.722.722 0 0 1 .126.369c.018.18.003.387-.045.621-.042.228-.183.513-.423.855a2.6 2.6 0 0 1-.414.486 3.651 3.651 0 0 1-.45.306c-.126.084-.24.147-.342.189-.102.036-.222.06-.36.072Zm.864-.954a2.79 2.79 0 0 0 .594-1.008.878.878 0 0 0 .045-.243 1.4 1.4 0 0 0-.01-.279c-.005-.09-.026-.141-.062-.153a.375.375 0 0 0-.261-.036.656.656 0 0 0-.333.171 2.237 2.237 0 0 0-.486.585 7.256 7.256 0 0 0-.405.783c-.09.216-.111.39-.063.522.054.126.165.171.333.135.174-.042.39-.201.648-.477Zm2.12.693c-.024 0-.06-.015-.108-.045a1.822 1.822 0 0 1-.1-.09.351.351 0 0 1-.08-.144 3.467 3.467 0 0 1-.01-.324c0-.192.04-.399.118-.621.078-.228.21-.546.396-.954l.297-.63a.74.74 0 0 1 .063-.108.676.676 0 0 0 .063-.072h.09c.048 0 .096.03.144.09a.554.554 0 0 1 .108.18.883.883 0 0 1-.036.243c-.018.084-.09.21-.216.378a3.127 3.127 0 0 0-.171.333 2.272 2.272 0 0 0-.135.405 11.936 11.936 0 0 1-.099.225 1.166 1.166 0 0 1-.063.153l-.045.198.603-.621a5.41 5.41 0 0 1 .684-.603c.174-.12.312-.171.414-.153.102.018.189.099.26.243a.836.836 0 0 1 .09.18.536.536 0 0 1 .046.198c.006.084 0 .21-.018.378v.558a3.85 3.85 0 0 0 .216-.063c.054-.024.11-.048.17-.072a1.16 1.16 0 0 1 .19-.063c.072-.024.162-.039.27-.045a.647.647 0 0 1-.081.252 1.337 1.337 0 0 1-.18.243.916.916 0 0 1-.243.189.504.504 0 0 1-.252.072c-.078 0-.165-.039-.261-.117a.7.7 0 0 1-.207-.261.812.812 0 0 1-.045-.216v-.765c0-.096-.03-.123-.09-.081a1.6 1.6 0 0 0-.135.099c-.09.078-.186.168-.288.27a250.4 250.4 0 0 1-.297.315 5.914 5.914 0 0 1-.693.639c-.18.138-.303.207-.37.207Z"/>
    <path fill="#000" d="M1.08 47.999v-7.872h1.968c1.216 0 2.14.34 2.772 1.02.632.672.948 1.632.948 2.88 0 1.256-.316 2.232-.948 2.928-.624.696-1.532 1.044-2.724 1.044H1.08Zm.996-.816h.9c.92 0 1.608-.276 2.064-.828.464-.56.696-1.336.696-2.328 0-.992-.232-1.752-.696-2.28-.456-.536-1.144-.804-2.064-.804h-.9v6.24Zm7.995.96c-.616 0-1.068-.192-1.356-.576-.288-.392-.432-.96-.432-1.704v-3.696h.996v3.564c0 .544.084.94.252 1.188.176.248.456.372.84.372.304 0 .572-.076.804-.228.24-.16.496-.412.768-.756v-4.14h.984v5.832h-.816l-.084-.912h-.036c-.272.32-.56.576-.864.768a1.935 1.935 0 0 1-1.056.288Zm9.628-.144v-8.544h.984v2.328l-.036 1.2c.28-.264.572-.488.876-.672a1.996 1.996 0 0 1 1.068-.288c.616 0 1.064.196 1.344.588.288.384.432.948.432 1.692v3.696h-.984v-3.564c0-.544-.088-.94-.264-1.188-.176-.248-.456-.372-.84-.372-.296 0-.564.076-.804.228a5.216 5.216 0 0 0-.792.672v4.224h-.984Zm7.871.144c-.488 0-.896-.144-1.224-.432-.32-.296-.48-.704-.48-1.224 0-.64.284-1.128.852-1.464.576-.344 1.484-.584 2.724-.72a2.3 2.3 0 0 0-.108-.708 1.015 1.015 0 0 0-.36-.54c-.168-.144-.412-.216-.732-.216-.336 0-.652.064-.948.192-.296.128-.56.272-.792.432l-.384-.684c.272-.176.604-.344.996-.504.4-.168.832-.252 1.296-.252.712 0 1.228.22 1.548.66.32.432.48 1.012.48 1.74v3.576h-.816l-.084-.696h-.036c-.272.224-.572.42-.9.588-.32.168-.664.252-1.032.252Zm.288-.792c.28 0 .544-.068.792-.204.248-.136.512-.328.792-.576v-1.62c-.968.12-1.648.3-2.04.54-.384.24-.576.548-.576.924 0 .328.1.568.3.72.2.144.444.216.732.216Zm6.087.792c-.624 0-1.06-.18-1.308-.54-.24-.36-.36-.828-.36-1.404v-3.228h-.864v-.744l.912-.06.12-1.632h.828v1.632h1.572v.804h-1.572v3.24c0 .36.064.64.192.84.136.192.372.288.708.288.104 0 .216-.016.336-.048l.324-.108.192.744c-.16.056-.336.104-.528.144a2.179 2.179 0 0 1-.552.072Zm3.82 0c-.624 0-1.06-.18-1.308-.54-.24-.36-.36-.828-.36-1.404v-3.228h-.864v-.744l.912-.06.12-1.632h.828v1.632h1.572v.804h-1.572v3.24c0 .36.064.64.192.84.136.192.372.288.708.288.104 0 .216-.016.336-.048l.324-.108.192.744c-.16.056-.336.104-.528.144a2.179 2.179 0 0 1-.552.072Zm4.419 0c-.52 0-.992-.12-1.416-.36-.424-.248-.76-.6-1.008-1.056-.248-.456-.372-1-.372-1.632 0-.64.124-1.188.372-1.644.256-.456.584-.808.984-1.056s.82-.372 1.26-.372c.744 0 1.316.248 1.716.744.408.496.612 1.16.612 1.992 0 .104-.004.208-.012.312 0 .096-.008.18-.024.252H40.36c.04.616.232 1.108.576 1.476.352.368.808.552 1.368.552.28 0 .536-.04.768-.12.24-.088.468-.2.684-.336l.348.648c-.248.16-.532.3-.852.42a2.96 2.96 0 0 1-1.068.18Zm-1.836-3.528h3.12c0-.592-.128-1.04-.384-1.344-.248-.312-.6-.468-1.056-.468-.408 0-.776.16-1.104.48-.32.312-.512.756-.576 1.332Zm6.95 3.528a3.14 3.14 0 0 1-1.189-.228 4.192 4.192 0 0 1-.984-.576l.492-.66c.256.2.52.368.792.504.272.128.58.192.924.192.384 0 .672-.088.864-.264a.87.87 0 0 0 .288-.648c0-.2-.068-.368-.204-.504a1.463 1.463 0 0 0-.504-.336 7.3 7.3 0 0 0-.624-.264c-.272-.104-.54-.22-.804-.348a1.99 1.99 0 0 1-.648-.516c-.168-.216-.252-.488-.252-.816 0-.472.176-.864.528-1.176.36-.32.856-.48 1.488-.48.36 0 .696.064 1.008.192.312.128.58.284.804.468l-.48.624a3.135 3.135 0 0 0-.624-.372 1.724 1.724 0 0 0-.708-.144c-.368 0-.64.084-.816.252a.806.806 0 0 0-.252.588c0 .184.06.336.18.456.12.112.276.212.468.3l.612.252c.28.104.556.224.828.36.272.128.496.304.672.528.184.216.276.508.276.876 0 .312-.084.6-.252.864-.16.264-.4.476-.72.636-.312.16-.7.24-1.164.24Zm5.104 0c-.624 0-1.06-.18-1.308-.54-.24-.36-.36-.828-.36-1.404v-3.228h-.864v-.744l.912-.06.12-1.632h.828v1.632h1.572v.804H51.73v3.24c0 .36.064.64.192.84.136.192.372.288.708.288.104 0 .216-.016.336-.048l.324-.108.192.744c-.16.056-.336.104-.528.144a2.179 2.179 0 0 1-.552.072Zm6.423 2.46a2.55 2.55 0 0 1-.864-.156l.204-.744c.072.024.156.044.252.06.096.024.196.036.3.036.288 0 .48-.104.576-.312.096-.2.144-.476.144-.828v-6.492h.984v6.492c0 .592-.12 1.064-.36 1.416-.24.352-.652.528-1.236.528Zm1.092-9.636a.703.703 0 0 1-.48-.168.649.649 0 0 1-.18-.48c0-.192.06-.348.18-.468a.675.675 0 0 1 .48-.18c.192 0 .348.06.468.18.128.12.192.276.192.468 0 .2-.064.36-.192.48a.658.658 0 0 1-.468.168Zm4.837 7.176c-.52 0-.992-.12-1.416-.36-.424-.248-.76-.6-1.008-1.056-.248-.456-.372-1-.372-1.632 0-.64.124-1.188.372-1.644.256-.456.584-.808.984-1.056s.82-.372 1.26-.372c.744 0 1.316.248 1.716.744.408.496.612 1.16.612 1.992 0 .104-.004.208-.012.312 0 .096-.008.18-.024.252H62.93c.04.616.232 1.108.576 1.476.352.368.808.552 1.368.552.28 0 .536-.04.768-.12.24-.088.468-.2.684-.336l.348.648c-.248.16-.532.3-.852.42a2.96 2.96 0 0 1-1.068.18Zm-1.836-3.528h3.12c0-.592-.128-1.04-.384-1.344-.248-.312-.6-.468-1.056-.468-.408 0-.776.16-1.104.48-.32.312-.512.756-.576 1.332Zm7.417 3.528c-.728 0-1.312-.264-1.752-.792-.44-.536-.66-1.288-.66-2.256 0-.632.116-1.176.348-1.632.24-.464.552-.82.936-1.068a2.295 2.295 0 0 1 1.248-.372c.336 0 .628.06.876.18s.5.284.756.492l-.048-.996v-2.244h.996v8.544h-.816l-.084-.684H72.1c-.224.224-.488.42-.792.588-.304.16-.628.24-.972.24Zm.216-.828c.512 0 1.008-.268 1.488-.804v-3.048a2.34 2.34 0 0 0-.72-.468 1.75 1.75 0 0 0-.696-.144c-.312 0-.596.096-.852.288a1.94 1.94 0 0 0-.6.78c-.152.328-.228.716-.228 1.164 0 .696.14 1.244.42 1.644.28.392.676.588 1.188.588Zm6.813.828c-.52 0-.992-.12-1.416-.36-.424-.248-.76-.6-1.008-1.056-.248-.456-.372-1-.372-1.632 0-.64.124-1.188.372-1.644.256-.456.584-.808.984-1.056s.82-.372 1.26-.372c.744 0 1.316.248 1.716.744.408.496.612 1.16.612 1.992 0 .104-.004.208-.012.312 0 .096-.008.18-.024.252H75.54c.04.616.232 1.108.576 1.476.352.368.808.552 1.368.552.28 0 .536-.04.768-.12.24-.088.468-.2.684-.336l.348.648c-.248.16-.532.3-.852.42a2.96 2.96 0 0 1-1.068.18Zm-1.836-3.528h3.12c0-.592-.128-1.04-.384-1.344-.248-.312-.6-.468-1.056-.468-.408 0-.776.16-1.104.48-.32.312-.512.756-.576 1.332Zm5.425 3.384v-5.832h.816l.084.84h.036c.28-.28.576-.512.888-.696a1.996 1.996 0 0 1 1.068-.288c.616 0 1.064.196 1.344.588.288.384.432.948.432 1.692v3.696h-.984v-3.564c0-.544-.088-.94-.264-1.188-.176-.248-.456-.372-.84-.372-.296 0-.564.076-.804.228a5.216 5.216 0 0 0-.792.672v4.224h-.984Zm10.693 0v-7.032H89.27v-.84h5.76v.84h-2.376v7.032h-1.008Zm5.17.144c-.488 0-.896-.144-1.224-.432-.32-.296-.48-.704-.48-1.224 0-.64.284-1.128.852-1.464.576-.344 1.484-.584 2.724-.72a2.3 2.3 0 0 0-.108-.708 1.015 1.015 0 0 0-.36-.54c-.168-.144-.412-.216-.732-.216-.336 0-.652.064-.948.192-.296.128-.56.272-.792.432l-.384-.684c.272-.176.604-.344.996-.504.4-.168.832-.252 1.296-.252.712 0 1.228.22 1.548.66.32.432.48 1.012.48 1.74v3.576h-.816l-.084-.696h-.036c-.272.224-.572.42-.9.588-.32.168-.664.252-1.032.252Zm.288-.792c.28 0 .544-.068.792-.204.248-.136.512-.328.792-.576v-1.62c-.968.12-1.648.3-2.04.54-.384.24-.576.548-.576.924 0 .328.1.568.3.72.2.144.444.216.732.216Zm6.383 3.336c-.712 0-1.292-.136-1.74-.408-.448-.272-.672-.66-.672-1.164 0-.248.076-.488.228-.72.152-.224.36-.424.624-.6v-.048a1.179 1.179 0 0 1-.372-.372 1.1 1.1 0 0 1-.144-.576c0-.248.068-.464.204-.648a1.84 1.84 0 0 1 .432-.432v-.048a2.447 2.447 0 0 1-.528-.648 1.861 1.861 0 0 1-.228-.924c0-.424.1-.792.3-1.104.2-.312.468-.552.804-.72a2.408 2.408 0 0 1 1.548-.204c.144.024.268.056.372.096h2.028v.756h-1.2c.136.128.248.3.336.516.096.208.144.436.144.684 0 .416-.096.776-.288 1.08-.192.304-.448.54-.768.708-.32.16-.68.24-1.08.24-.312 0-.604-.068-.876-.204a1.342 1.342 0 0 0-.264.3.68.68 0 0 0-.108.396c0 .184.072.336.216.456.152.12.424.18.816.18h1.128c.68 0 1.188.112 1.524.336.344.216.516.568.516 1.056 0 .36-.12.692-.36.996-.24.304-.58.548-1.02.732-.44.192-.964.288-1.572.288Zm0-5.196c.336 0 .624-.124.864-.372.248-.256.372-.596.372-1.02 0-.424-.12-.756-.36-.996s-.532-.36-.876-.36-.636.12-.876.36-.36.572-.36.996c0 .424.12.764.36 1.02.248.248.54.372.876.372Zm.144 4.512c.56 0 1.008-.124 1.344-.372.336-.24.504-.512.504-.816 0-.272-.104-.46-.312-.564-.2-.104-.488-.156-.864-.156h-1.008a3.206 3.206 0 0 1-.756-.096c-.208.152-.36.312-.456.48a1.008 1.008 0 0 0-.144.504c0 .312.148.56.444.744.304.184.72.276 1.248.276Zm10.708.684c-.712 0-1.292-.136-1.74-.408-.448-.272-.672-.66-.672-1.164 0-.248.076-.488.228-.72.152-.224.36-.424.624-.6v-.048a1.179 1.179 0 0 1-.372-.372 1.1 1.1 0 0 1-.144-.576c0-.248.068-.464.204-.648a1.84 1.84 0 0 1 .432-.432v-.048a2.447 2.447 0 0 1-.528-.648 1.861 1.861 0 0 1-.228-.924c0-.424.1-.792.3-1.104.2-.312.468-.552.804-.72a2.408 2.408 0 0 1 1.548-.204c.144.024.268.056.372.096h2.028v.756h-1.2c.136.128.248.3.336.516.096.208.144.436.144.684 0 .416-.096.776-.288 1.08-.192.304-.448.54-.768.708-.32.16-.68.24-1.08.24-.312 0-.604-.068-.876-.204a1.342 1.342 0 0 0-.264.3.68.68 0 0 0-.108.396c0 .184.072.336.216.456.152.12.424.18.816.18h1.128c.68 0 1.188.112 1.524.336.344.216.516.568.516 1.056 0 .36-.12.692-.36.996-.24.304-.58.548-1.02.732-.44.192-.964.288-1.572.288Zm0-5.196c.336 0 .624-.124.864-.372.248-.256.372-.596.372-1.02 0-.424-.12-.756-.36-.996s-.532-.36-.876-.36-.636.12-.876.36-.36.572-.36.996c0 .424.12.764.36 1.02.248.248.54.372.876.372Zm.144 4.512c.56 0 1.008-.124 1.344-.372.336-.24.504-.512.504-.816 0-.272-.104-.46-.312-.564-.2-.104-.488-.156-.864-.156h-1.008a3.206 3.206 0 0 1-.756-.096c-.208.152-.36.312-.456.48a1.008 1.008 0 0 0-.144.504c0 .312.148.56.444.744.304.184.72.276 1.248.276Zm6.135-1.86c-.52 0-.992-.12-1.416-.36-.424-.248-.76-.6-1.008-1.056-.248-.456-.372-1-.372-1.632 0-.64.124-1.188.372-1.644.256-.456.584-.808.984-1.056s.82-.372 1.26-.372c.744 0 1.316.248 1.716.744.408.496.612 1.16.612 1.992 0 .104-.004.208-.012.312 0 .096-.008.18-.024.252h-3.936c.04.616.232 1.108.576 1.476.352.368.808.552 1.368.552.28 0 .536-.04.768-.12.24-.088.468-.2.684-.336l.348.648c-.248.16-.532.3-.852.42a2.96 2.96 0 0 1-1.068.18Zm-1.836-3.528h3.12c0-.592-.128-1.04-.384-1.344-.248-.312-.6-.468-1.056-.468-.408 0-.776.16-1.104.48-.32.312-.512.756-.576 1.332Zm6.949 3.528a3.14 3.14 0 0 1-1.188-.228 4.192 4.192 0 0 1-.984-.576l.492-.66c.256.2.52.368.792.504.272.128.58.192.924.192.384 0 .672-.088.864-.264a.87.87 0 0 0 .288-.648c0-.2-.068-.368-.204-.504a1.463 1.463 0 0 0-.504-.336 7.3 7.3 0 0 0-.624-.264c-.272-.104-.54-.22-.804-.348a1.99 1.99 0 0 1-.648-.516c-.168-.216-.252-.488-.252-.816 0-.472.176-.864.528-1.176.36-.32.856-.48 1.488-.48.36 0 .696.064 1.008.192.312.128.58.284.804.468l-.48.624a3.135 3.135 0 0 0-.624-.372 1.724 1.724 0 0 0-.708-.144c-.368 0-.64.084-.816.252a.806.806 0 0 0-.252.588c0 .184.06.336.18.456.12.112.276.212.468.3l.612.252c.28.104.556.224.828.36.272.128.496.304.672.528.184.216.276.508.276.876 0 .312-.084.6-.252.864-.16.264-.4.476-.72.636-.312.16-.7.24-1.164.24Zm3.503 2.316v-8.292h.816l.084.672h.036c.264-.224.552-.416.864-.576a2.2 2.2 0 0 1 .996-.24c.752 0 1.324.272 1.716.816.392.536.588 1.256.588 2.16 0 .656-.12 1.22-.36 1.692-.232.472-.54.832-.924 1.08a2.2 2.2 0 0 1-1.236.372c-.272 0-.544-.06-.816-.18a4.184 4.184 0 0 1-.804-.492l.024 1.02v1.968h-.984Zm2.412-3.144c.48 0 .876-.204 1.188-.612.32-.416.48-.984.48-1.704 0-.64-.12-1.156-.36-1.548-.232-.4-.624-.6-1.176-.6-.248 0-.5.068-.756.204a4.502 4.502 0 0 0-.804.588v3.06c.264.224.52.384.768.48.248.088.468.132.66.132Zm4.244.684v-5.832h.984v5.832h-.984Zm.504-7.032a.703.703 0 0 1-.48-.168.649.649 0 0 1-.18-.48c0-.192.06-.348.18-.468a.675.675 0 0 1 .48-.18c.192 0 .348.06.468.18.128.12.192.276.192.468 0 .2-.064.36-.192.48a.658.658 0 0 1-.468.168Zm4.813 7.176c-.52 0-.992-.12-1.416-.36-.424-.248-.76-.6-1.008-1.056-.248-.456-.372-1-.372-1.632 0-.64.124-1.188.372-1.644.256-.456.584-.808.984-1.056s.82-.372 1.26-.372c.744 0 1.316.248 1.716.744.408.496.612 1.16.612 1.992 0 .104-.004.208-.012.312 0 .096-.008.18-.024.252h-3.936c.04.616.232 1.108.576 1.476.352.368.808.552 1.368.552.28 0 .536-.04.768-.12.24-.088.468-.2.684-.336l.348.648c-.248.16-.532.3-.852.42a2.96 2.96 0 0 1-1.068.18Zm-1.836-3.528h3.12c0-.592-.128-1.04-.384-1.344-.248-.312-.6-.468-1.056-.468-.408 0-.776.16-1.104.48-.32.312-.512.756-.576 1.332Zm6.47 3.528c-.368 0-.636-.112-.804-.336-.16-.232-.24-.56-.24-.984v-7.368h.984v7.44c0 .152.028.264.084.336a.25.25 0 0 0 .192.096h.084c.032-.008.076-.016.132-.024l.132.744a.849.849 0 0 1-.228.072c-.088.016-.2.024-.336.024Zm3.85 0c-.624 0-1.06-.18-1.308-.54-.24-.36-.36-.828-.36-1.404v-3.228h-.864v-.744l.912-.06.12-1.632h.828v1.632h1.572v.804h-1.572v3.24c0 .36.064.64.192.84.136.192.372.288.708.288.104 0 .216-.016.336-.048l.324-.108.192.744c-.16.056-.336.104-.528.144a2.179 2.179 0 0 1-.552.072Z"/>
    <path fill="#580DD9" d="M128.484 60.685a.792.792 0 0 1-.441.189.94.94 0 0 1-.477-.072.962.962 0 0 1-.387-.324 1.017 1.017 0 0 1-.198-.45 2.72 2.72 0 0 1-.009-.675c.018-.234.093-.468.225-.702.132-.24.291-.453.477-.639.192-.186.381-.315.567-.387.09-.06.165-.087.225-.081.066 0 .165.006.297.018.138.018.24.045.306.081a.449.449 0 0 1 .171.144.708.708 0 0 1 .225.522c-.024.132-.114.294-.27.486-.15.186-.348.339-.594.459-.132.042-.276.06-.432.054a.704.704 0 0 1-.387-.117c-.114-.048-.189-.039-.225.027-.036.06-.069.21-.099.45-.024.228-.006.396.054.504.06.102.141.162.243.18l.279.054a.462.462 0 0 0 .261-.081 1 1 0 0 1 .18-.099.21.21 0 0 0 .054-.036l.117-.117c.042-.042.075-.072.099-.09a.112.112 0 0 1 .081-.036c.03 0 .057.015.081.045a.282.282 0 0 0 .072.054c.06 0 .072.036.036.108a.951.951 0 0 1-.189.261c-.096.096-.21.186-.342.27Zm-.009-1.908c.066-.03.135-.072.207-.126.072-.06.132-.123.18-.189.054-.072.081-.132.081-.18 0-.084-.039-.153-.117-.207-.078-.06-.195-.069-.351-.027a.617.617 0 0 0-.225.135 2.118 2.118 0 0 0-.423.45c-.042.066-.057.105-.045.117.018.03.069.054.153.072a1.4 1.4 0 0 0 .279.009.738.738 0 0 0 .261-.054Zm4.538 1.809a.558.558 0 0 1-.297-.072.613.613 0 0 1-.198-.261 2.775 2.775 0 0 1-.063-.279 2.706 2.706 0 0 1-.018-.297c0-.096.009-.159.027-.189.024-.024.033-.066.027-.126v-.207c-.006-.12-.036-.186-.09-.198-.048-.018-.12 0-.216.054-.108.066-.249.156-.423.27-.174.108-.357.228-.549.36-.186.132-.363.27-.531.414-.132.144-.213.255-.243.333-.024.072-.06.108-.108.108-.048.024-.09.027-.126.009l-.135-.108a2.776 2.776 0 0 0-.126-.135.608.608 0 0 1-.081-.108c0-.03.009-.093.027-.189.018-.096.039-.192.063-.288.03-.096.051-.159.063-.189.03 0 .054-.03.072-.09.024-.06.06-.126.108-.198.012-.072.042-.168.09-.288l.144-.333c.084-.144.141-.264.171-.36a1.36 1.36 0 0 0 .072-.36.063.063 0 0 1 .018-.063c.018-.024.039-.036.063-.036a.151.151 0 0 1 .171-.036.342.342 0 0 1 .18.135c.108.144.15.294.126.45-.018.15-.114.366-.288.648l-.099.225a.352.352 0 0 0-.027.117l.09-.063c.066-.042.138-.09.216-.144.084-.06.15-.105.198-.135.03-.03.099-.084.207-.162.108-.078.222-.153.342-.225.126-.078.219-.123.279-.135.048-.024.099-.045.153-.063a.34.34 0 0 1 .117-.036c.048 0 .108.027.18.081.078.048.15.108.216.18a.412.412 0 0 1 .117.171v.072l.018.072c.024.078.036.183.036.315.006.132.003.252-.009.36-.012.108-.033.171-.063.189v.027c.006.012.021.018.045.018v.045c-.03 0-.042.027-.036.081a.512.512 0 0 0 .054.162c.036.06.072.108.108.144.072.072.102.141.09.207-.012.06-.066.102-.162.126Zm3.17.324a.955.955 0 0 1-.108-.009.2.2 0 0 1-.108-.081.918.918 0 0 1-.171-.27.745.745 0 0 1-.009-.315c.012-.09.018-.168.018-.234.006-.072.012-.132.018-.18-.024-.024-.069-.006-.135.054-.06.054-.144.123-.252.207a4.123 4.123 0 0 1-.549.54 1.5 1.5 0 0 1-.423.243.945.945 0 0 1-.36.036.357.357 0 0 1-.243-.126.632.632 0 0 1-.117-.297 2.082 2.082 0 0 1 0-.387c.024-.198.066-.387.126-.567.066-.18.171-.381.315-.603.066-.12.153-.237.261-.351a2.28 2.28 0 0 1 .369-.315c.138-.096.27-.165.396-.207.138-.054.279-.084.423-.09.144-.012.273 0 .387.036a.417.417 0 0 0 .171.054c.048 0 .084-.03.108-.09.03-.048.06-.12.09-.216.03-.102.066-.189.108-.261l.198-.585c.066-.162.138-.333.216-.513.078-.18.171-.399.279-.657.102-.192.186-.303.252-.333.066-.036.141-.012.225.072.066.078.09.168.072.27a2.724 2.724 0 0 1-.162.468 3.827 3.827 0 0 0-.234.45c-.078.186-.15.354-.216.504a8.967 8.967 0 0 0-.207.495 4.599 4.599 0 0 1-.099.333c-.036.126-.066.24-.09.342a2.99 2.99 0 0 1-.063.27c-.018.078-.039.117-.063.117a.804.804 0 0 0-.135.288 4.17 4.17 0 0 0-.108.414c-.024.144-.045.264-.063.36a2.584 2.584 0 0 0-.027.279 6.338 6.338 0 0 0-.009.333v.216c0 .132-.003.216-.009.252-.006.036-.03.054-.072.054Zm-1.917-.567c.126 0 .258-.054.396-.162.144-.108.288-.228.432-.36a2.45 2.45 0 0 0 .288-.333c.108-.138.21-.276.306-.414.102-.138.183-.258.243-.36a.702.702 0 0 0 .09-.198c0-.03-.027-.051-.081-.063a.879.879 0 0 0-.189-.018.453.453 0 0 0-.162.009c-.132.03-.264.09-.396.18-.126.09-.264.225-.414.405-.156.192-.285.39-.387.594a2.116 2.116 0 0 0-.18.513c-.024.138-.006.207.054.207Z"/>
    <path fill="#000" d="M53.738 16V9.592h.738v1.746l-.027.9c.21-.198.429-.366.657-.504.234-.144.501-.216.801-.216.462 0 .798.147 1.008.441.216.288.324.711.324 1.269V16h-.738v-2.673c0-.408-.066-.705-.198-.891-.132-.186-.342-.279-.63-.279-.222 0-.423.057-.603.171a3.912 3.912 0 0 0-.594.504V16h-.738Zm5.904.108c-.367 0-.673-.108-.919-.324-.24-.222-.36-.528-.36-.918 0-.48.214-.846.64-1.098.431-.258 1.112-.438 2.042-.54 0-.186-.026-.363-.08-.531a.761.761 0 0 0-.27-.405c-.127-.108-.31-.162-.55-.162-.252 0-.489.048-.71.144-.223.096-.42.204-.595.324l-.288-.513a4.54 4.54 0 0 1 .748-.378c.3-.126.623-.189.972-.189.534 0 .92.165 1.16.495.24.324.36.759.36 1.305V16h-.611l-.063-.522h-.028a3.738 3.738 0 0 1-.675.441 1.64 1.64 0 0 1-.773.189Zm.215-.594c.21 0 .409-.051.595-.153.186-.102.384-.246.593-.432v-1.215c-.726.09-1.236.225-1.53.405-.288.18-.431.411-.431.693 0 .246.074.426.224.54.15.108.334.162.55.162Zm4.566.594c-.468 0-.795-.135-.981-.405-.18-.27-.27-.621-.27-1.053v-2.421h-.648v-.558l.684-.045.09-1.224h.62v1.224h1.18v.603h-1.18v2.43c0 .27.049.48.145.63.102.144.279.216.53.216a.981.981 0 0 0 .253-.036l.243-.081.144.558c-.12.042-.252.078-.396.108a1.634 1.634 0 0 1-.414.054Zm2.865 0c-.468 0-.795-.135-.981-.405-.18-.27-.27-.621-.27-1.053v-2.421h-.648v-.558l.684-.045.09-1.224h.62v1.224h1.18v.603h-1.18v2.43c0 .27.049.48.145.63.102.144.279.216.53.216a.981.981 0 0 0 .253-.036l.243-.081.144.558c-.12.042-.252.078-.396.108a1.634 1.634 0 0 1-.414.054Zm3.314 0c-.39 0-.744-.09-1.062-.27a2.004 2.004 0 0 1-.756-.792c-.186-.342-.28-.75-.28-1.224 0-.48.094-.891.28-1.233a2.14 2.14 0 0 1 .738-.792c.3-.186.615-.279.945-.279.558 0 .987.186 1.287.558.306.372.459.87.459 1.494 0 .078-.003.156-.01.234a.879.879 0 0 1-.017.189h-2.952c.03.462.174.831.432 1.107.264.276.606.414 1.026.414.21 0 .402-.03.576-.09.18-.066.35-.15.513-.252l.26.486c-.185.12-.398.225-.638.315a2.22 2.22 0 0 1-.801.135Zm-1.377-2.646h2.34c0-.444-.096-.78-.288-1.008-.186-.234-.45-.351-.792-.351-.306 0-.582.12-.828.36-.24.234-.384.567-.432.999Zm5.212 2.646c-.312 0-.61-.057-.891-.171a3.144 3.144 0 0 1-.738-.432l.369-.495c.192.15.39.276.594.378.204.096.435.144.693.144.288 0 .504-.066.648-.198a.652.652 0 0 0 .216-.486.514.514 0 0 0-.153-.378 1.097 1.097 0 0 0-.378-.252 5.476 5.476 0 0 0-.468-.198 7.617 7.617 0 0 1-.603-.261 1.492 1.492 0 0 1-.486-.387.967.967 0 0 1-.19-.612c0-.354.133-.648.397-.882.27-.24.642-.36 1.116-.36.27 0 .522.048.756.144.234.096.435.213.603.351l-.36.468a2.351 2.351 0 0 0-.468-.279 1.293 1.293 0 0 0-.531-.108c-.276 0-.48.063-.612.189a.604.604 0 0 0-.19.441c0 .138.046.252.136.342.09.084.207.159.35.225l.46.189c.21.078.417.168.62.27.205.096.373.228.505.396.138.162.207.381.207.657 0 .234-.063.45-.19.648-.12.198-.3.357-.54.477-.233.12-.524.18-.872.18Zm3.828 0c-.468 0-.795-.135-.98-.405-.18-.27-.27-.621-.27-1.053v-2.421h-.649v-.558l.684-.045.09-1.224h.621v1.224h1.18v.603h-1.18v2.43c0 .27.048.48.144.63.102.144.28.216.531.216a.981.981 0 0 0 .252-.036l.243-.081.144.558c-.12.042-.252.078-.396.108a1.634 1.634 0 0 1-.414.054Zm8.546 1.908c-.534 0-.97-.102-1.305-.306-.336-.204-.504-.495-.504-.873a.98.98 0 0 1 .17-.54c.115-.168.27-.318.469-.45v-.036a.884.884 0 0 1-.28-.279.824.824 0 0 1-.107-.432c0-.186.05-.348.153-.486a1.38 1.38 0 0 1 .324-.324v-.036a1.835 1.835 0 0 1-.396-.486 1.396 1.396 0 0 1-.171-.693 1.5 1.5 0 0 1 .225-.828c.15-.234.35-.414.603-.54a1.806 1.806 0 0 1 1.16-.153c.109.018.202.042.28.072h1.52v.567h-.9c.103.096.187.225.253.387.072.156.108.327.108.513 0 .312-.072.582-.216.81a1.487 1.487 0 0 1-.576.531c-.24.12-.51.18-.81.18-.234 0-.453-.051-.657-.153a1.007 1.007 0 0 0-.198.225.51.51 0 0 0-.081.297c0 .138.054.252.162.342.114.09.318.135.612.135h.846c.51 0 .89.084 1.143.252.258.162.387.426.387.792 0 .27-.09.519-.27.747-.18.228-.435.411-.765.549-.33.144-.723.216-1.18.216Zm0-3.897a.87.87 0 0 0 .648-.279c.186-.192.279-.447.279-.765s-.09-.567-.27-.747a.894.894 0 0 0-.657-.27.894.894 0 0 0-.657.27c-.18.18-.27.429-.27.747s.09.573.27.765a.899.899 0 0 0 .657.279Zm.108 3.384c.42 0 .756-.093 1.008-.279.252-.18.378-.384.378-.612 0-.204-.078-.345-.234-.423-.15-.078-.366-.117-.648-.117h-.756A2.405 2.405 0 0 1 86.1 16c-.156.114-.27.234-.342.36a.756.756 0 0 0-.108.378c0 .234.11.42.333.558.228.138.54.207.936.207Zm4.6-1.395c-.39 0-.743-.09-1.061-.27a2.004 2.004 0 0 1-.756-.792c-.186-.342-.28-.75-.28-1.224 0-.48.094-.891.28-1.233a2.14 2.14 0 0 1 .738-.792c.3-.186.615-.279.945-.279.558 0 .987.186 1.287.558.306.372.459.87.459 1.494 0 .078-.003.156-.01.234a.879.879 0 0 1-.017.189h-2.952c.03.462.174.831.432 1.107.264.276.606.414 1.026.414.21 0 .402-.03.576-.09.18-.066.35-.15.513-.252l.26.486c-.185.12-.398.225-.638.315a2.22 2.22 0 0 1-.801.135Zm-1.376-2.646h2.34c0-.444-.096-.78-.288-1.008-.186-.234-.45-.351-.792-.351-.306 0-.582.12-.828.36-.24.234-.384.567-.432.999Zm5.212 2.646c-.312 0-.61-.057-.891-.171a3.144 3.144 0 0 1-.738-.432l.369-.495c.192.15.39.276.594.378.204.096.435.144.693.144.288 0 .504-.066.648-.198a.652.652 0 0 0 .216-.486.514.514 0 0 0-.153-.378 1.097 1.097 0 0 0-.378-.252 5.476 5.476 0 0 0-.468-.198 7.617 7.617 0 0 1-.603-.261 1.492 1.492 0 0 1-.486-.387.967.967 0 0 1-.19-.612c0-.354.133-.648.397-.882.27-.24.642-.36 1.116-.36.27 0 .522.048.756.144.234.096.435.213.603.351l-.36.468a2.351 2.351 0 0 0-.468-.279 1.293 1.293 0 0 0-.531-.108c-.276 0-.48.063-.612.189a.604.604 0 0 0-.19.441c0 .138.046.252.136.342.09.084.207.159.35.225l.46.189c.21.078.417.168.62.27.205.096.373.228.505.396.138.162.207.381.207.657 0 .234-.063.45-.19.648-.12.198-.3.357-.54.477-.233.12-.524.18-.872.18Zm2.627 1.737v-6.219h.612l.063.504h.027c.198-.168.414-.312.648-.432.24-.12.49-.18.747-.18.564 0 .993.204 1.287.612.294.402.441.942.441 1.62 0 .492-.09.915-.27 1.269a1.968 1.968 0 0 1-.693.81 1.65 1.65 0 0 1-.927.279c-.204 0-.408-.045-.612-.135a3.138 3.138 0 0 1-.603-.369l.018.765v1.476h-.738Zm1.81-2.358c.359 0 .656-.153.89-.459.24-.312.36-.738.36-1.278 0-.48-.09-.867-.27-1.161-.174-.3-.468-.45-.882-.45-.186 0-.375.051-.567.153a3.376 3.376 0 0 0-.603.441v2.295c.198.168.39.288.576.36.186.066.351.099.495.099Zm3.182.513v-4.374h.738V16h-.738Zm.378-5.274a.527.527 0 0 1-.36-.126.487.487 0 0 1-.135-.36c0-.144.045-.261.135-.351a.506.506 0 0 1 .36-.135.475.475 0 0 1 .495.486.47.47 0 0 1-.144.36.494.494 0 0 1-.351.126Zm3.61 5.382c-.39 0-.744-.09-1.062-.27a2.004 2.004 0 0 1-.756-.792c-.186-.342-.279-.75-.279-1.224 0-.48.093-.891.279-1.233a2.14 2.14 0 0 1 .738-.792c.3-.186.615-.279.945-.279.558 0 .987.186 1.287.558.306.372.459.87.459 1.494 0 .078-.003.156-.009.234a.879.879 0 0 1-.018.189h-2.952c.03.462.174.831.432 1.107.264.276.606.414 1.026.414.21 0 .402-.03.576-.09.18-.066.351-.15.513-.252l.261.486c-.186.12-.399.225-.639.315a2.22 2.22 0 0 1-.801.135Zm-1.377-2.646h2.34c0-.444-.096-.78-.288-1.008-.186-.234-.45-.351-.792-.351-.306 0-.582.12-.828.36-.24.234-.384.567-.432.999Zm4.852 2.646c-.276 0-.477-.084-.603-.252-.12-.174-.18-.42-.18-.738V9.592h.738v5.58c0 .114.021.198.063.252.042.048.09.072.144.072h.063a1.03 1.03 0 0 1 .099-.018l.099.558a.637.637 0 0 1-.171.054 1.45 1.45 0 0 1-.252.018Zm2.888 0c-.468 0-.795-.135-.981-.405-.18-.27-.27-.621-.27-1.053v-2.421h-.648v-.558l.684-.045.09-1.224h.621v1.224H114v.603h-1.179v2.43c0 .27.048.48.144.63.102.144.279.216.531.216a.981.981 0 0 0 .252-.036l.243-.081.144.558c-.12.042-.252.078-.396.108a1.634 1.634 0 0 1-.414.054Z"/>
    <path fill="#625C5C" d="M109.827 31.593a.15.15 0 0 0 .178-.115l.287-1.319a.15.15 0 0 0-.115-.178.15.15 0 0 0-.178.114l-.255 1.173-1.173-.255a.15.15 0 0 0-.178.115.15.15 0 0 0 .114.178l1.32.287Zm-7.453-11.512 7.358 11.447.253-.163-7.359-11.446-.252.162ZM55.353 30.528a.15.15 0 0 0 .175.12l1.326-.252a.15.15 0 1 0-.055-.294l-1.18.223-.223-1.18a.15.15 0 1 0-.294.056l.25 1.327Zm7.523-11.112-7.5 11 .248.168 7.5-11-.248-.168Z"/>
  </g>
  <defs>
    <clipPath id="a">
      <path fill="#fff" d="M0 0h159v64H0z"/>
    </clipPath>
  </defs>
</svg>
