<?xml version="1.0" encoding="utf-8" ?>
<svg xmlns="http://www.w3.org/2000/svg" xmlns:xlink="http://www.w3.org/1999/xlink" width="1024" height="1024">
	<path fill="#DAC2F2" d="M0 0L1024 0L1024 1024L1014.87 1024C1014.32 1010.61 1014.61 997.077 1014.58 983.676L1014.54 907.911L1014.63 687.702L1014.9 9.06654L9.03842 9.1711L8.57978 689.087L8.56313 871.65Q8.57368 894.184 8.30116 916.717C8.17488 924.182 7.06535 936.359 8.15503 943.402L9.00895 943.469C7.95571 947.832 2.5002 955.314 0 959.392L0 0Z"/>
	<path fill="#2F1560" d="M289.023 164.894C314.647 112.216 356.325 75.0867 411.864 55.9509C468.038 36.5963 536.943 36.2939 591.052 62.5178C599.153 66.4441 607.736 74.6996 615.372 77.1991C621.196 79.1056 627.68 78.78 633.724 79.5783C651.916 81.9812 666.624 91.4471 672.695 109.269C675.78 118.323 675.434 127.623 676.633 136.967C676.823 137.032 677.011 137.098 677.201 137.16C685.081 139.736 693.299 140.379 701.203 143.244C736.363 155.988 773.539 182.593 790.907 216.326C798.344 230.769 805.069 252.486 799.981 268.687C796.656 279.277 787.226 283.364 783.404 292.306C779.715 300.939 778.108 312.638 775.717 321.922C770.903 340.613 764.697 357.927 756.137 375.217C762.823 398.032 769.955 428.566 764.754 452.192C762.678 461.623 758.547 470.469 753.937 478.906C744.238 496.655 724.532 527.467 704.696 533.316C700.426 534.575 696.453 534.509 692.096 533.949C687.771 552.78 685.319 572.224 680.356 590.854C677.609 601.168 671.698 610.489 669.716 620.989C667.899 630.615 666.722 640.396 665.191 650.075L657.255 698.947C655.235 711.584 653.837 725.035 650.126 737.307C659.45 747.004 668.164 758.036 675.426 769.362L781.567 807.581C822.114 822.089 870.313 836.384 905.143 862.036Q907.088 863.445 908.987 864.916Q910.886 866.388 912.736 867.92Q914.586 869.452 916.385 871.043Q918.184 872.635 919.931 874.283Q921.678 875.932 923.37 877.637Q925.062 879.342 926.698 881.1Q928.334 882.859 929.913 884.67Q931.491 886.48 933.01 888.341Q934.528 890.203 935.986 892.112Q937.443 894.021 938.838 895.977Q940.233 897.932 941.563 899.932Q942.894 901.932 944.159 903.974Q945.424 906.016 946.622 908.097Q947.82 910.179 948.95 912.299Q950.08 914.418 951.141 916.573Q952.202 918.729 953.192 920.917C967.841 952.463 977.502 989.705 982.863 1024L974.089 1024L961.76 1024L942.502 1024L933.604 1024L923.612 1024L912.537 1024L204.148 1024L190.088 1024L157.456 1024L142.88 1024L140.737 1024L75.8567 1024L68.4817 1024L3.94828 1024L0 1024L0 978.155L0 959.392C2.5002 955.314 7.95571 947.832 9.00895 943.469C19.7052 927.183 35.3188 907.866 50.1211 895.422C63.5098 884.167 79.8717 875.373 95.0037 866.642C143.511 838.654 194.786 815.819 245.447 792.099Q260.299 785.19 275.241 778.477C280.107 776.284 285.182 774.297 289.91 771.836C296.292 768.516 299.284 760.888 304.004 755.78C322.173 736.117 348.607 725.963 374.076 719.926C381.725 694.241 387.705 667.66 388.045 640.732C382.369 635.758 376.292 631.097 371.167 625.541C353.925 606.848 352.864 582.28 350.909 558.262C339.378 556.379 331.649 548.014 325.102 538.954C320.272 532.27 316.117 525.076 311.949 517.969C306.209 508.18 300.703 498.212 297.168 487.379C290.751 467.717 291.499 443.26 294.867 422.907C296.047 415.776 298.193 408.318 304.298 403.84C307.662 401.372 311.564 399.828 315.555 398.702C310.718 387.168 306.089 375.439 300.663 364.169C295.716 353.892 288.371 343.629 285.623 332.518C284.355 327.391 285.089 321.9 285.904 316.757C280.005 315.99 269.937 314.279 266.069 309.315C265.209 308.211 264.755 306.779 265.133 305.393C265.478 304.122 266.682 303.012 267.643 302.16C254.425 294.782 242.291 286.181 235.054 272.463C233.875 270.229 232.393 267.473 231.825 265.019C231.519 263.694 231.83 263.24 232.601 262.203C236.896 260.063 242.135 260.481 246.736 259.268C255.701 256.905 264.428 252.967 272.709 248.855C263.474 241.161 256.19 232.138 251.762 220.889C250.846 218.562 249.736 215.955 249.546 213.447C249.448 212.159 249.594 210.801 250.497 209.797C253.219 206.773 273.705 202.364 279.528 199.724C265.396 194.04 253.789 185.644 247.02 171.642C266.579 172.976 270.539 171.606 289.023 164.894Z"/>
	<path fill="#FEFEFE" d="M303.206 418.088C303.334 416.878 303.843 415.705 304.48 414.673C307.656 409.53 313.309 406.662 318.978 405.197C317.842 410.102 312.92 413.445 308.841 415.98C306.865 417.209 305.533 417.847 303.206 418.088Z"/>
	<path fill="#FEFEFE" d="M536.012 199.371C541.265 200.234 561.118 202.97 563.619 206.297L562.124 206.672C552.342 206.875 542.473 206.078 532.763 204.944L536.012 199.371Z"/>
	<path fill="#FEFEFE" d="M477.522 236.145C474.569 240.503 471.723 245.013 468.463 249.146C457.487 251.508 441.634 272.369 428.399 271.671C434.428 266.99 441.638 263.326 447.985 258.976C458.243 251.947 467.926 244.037 477.522 236.145Z"/>
	<path fill="#695980" d="M339.862 747.958L343.734 744.36C344.499 759.271 354.638 765.478 364.161 775.08C362.769 776.241 361.39 777.42 359.98 778.557L359.693 778.524C355.35 771.904 348.135 767.225 344.314 760.191C342.298 756.479 341.708 752.639 340.205 748.809L339.862 747.958Z"/>
	<path fill="#695980" d="M366.266 777.032C374.327 782.187 382.308 787.339 389.94 793.123L385.704 797.912C379.155 791.408 370.233 786.109 362.841 780.49L366.266 777.032Z"/>
	<path fill="#DAC2F2" d="M306.355 421.095C310.587 425.939 314.778 430.79 319.348 435.322C313.977 440.709 312.186 446.121 309.967 453.161C307.642 448.307 306.504 427.458 306.355 421.095Z"/>
	<path fill="#FEFEFE" d="M574.662 174.961C584.344 174.841 596.477 180.711 603.394 187.31C609.912 193.53 614.36 202.224 614.602 211.287C610.746 208.743 607.341 200.312 604.336 196.296C596.567 185.914 585.903 180.737 574.662 174.961Z"/>
	<defs>
		<linearGradient id="gradient_0" gradientUnits="userSpaceOnUse" x1="551.20343" y1="205.06189" x2="570.80975" y2="191.24722">
			<stop offset="0" stop-color="#E9D3EC"/>
			<stop offset="1" stop-color="white"/>
		</linearGradient>
	</defs>
	<path fill="url(#gradient_0)" d="M545.726 186.849C557.572 189.19 569.533 194.817 579.108 202.163C580.488 203.221 582.154 204.356 582.385 206.151L582.106 206.477C580.881 207.053 579.637 206.959 578.315 206.972C573.701 205.593 570.167 202.675 566.311 199.922C558.448 194.309 549.809 193.669 540.507 193.04C542.091 190.81 543.873 188.854 545.726 186.849Z"/>
	<path fill="#FEFEFE" d="M559.477 179.536C575.306 181.086 587.083 190.576 597.314 202.093C598.607 203.549 601.57 206.396 601.448 208.358L599.875 208.338C591.535 207.595 590.005 200.419 584.361 195.509C576.67 188.819 565.844 183.521 555.888 181.333C555.717 181.295 555.54 181.299 555.366 181.283C556.582 180.328 558.022 180.017 559.477 179.536Z"/>
	<path fill="#695980" d="M323.947 779.449C330.816 787.722 334.789 791.585 343.889 797.256C341.454 800.148 339.032 803.023 336.8 806.076C333.959 802.748 330.473 800.204 327.184 797.355C324.03 794.623 320.222 791.25 320.076 786.763C319.971 783.512 321.874 781.654 323.947 779.449Z"/>
	<path fill="#695980" d="M390.491 793.877C398.588 797.501 406.223 803.847 413.26 809.228C411.626 812.791 409.781 816.097 407.669 819.398C400.857 812.663 393.842 806.201 387.157 799.326L390.491 793.877Z"/>
	<path fill="#FEFEFE" d="M301.662 783.029C301.254 779.268 301.749 776.515 303.421 773.082C310.887 757.748 334.019 744.28 349.431 738.795L343.734 744.36L339.862 747.958C329.945 753.993 320.604 760.498 312.873 769.273C308.964 773.71 305.545 778.569 301.662 783.029Z"/>
	<path fill="#DAC2F2" d="M258.288 215.881C267.333 219.489 276.497 224.549 284.678 229.817C287.372 231.552 289.909 233.751 292.607 235.397C289.322 238.091 285.657 240.385 282.144 242.773C270.989 237.24 262.885 227.31 258.288 215.881Z"/>
	<path fill="#DAC2F2" d="M601.898 216.386C615.025 216.72 621.225 219.367 630.183 228.799C642.647 241.922 652.827 258.121 662.658 273.268C662.381 276.358 662.102 279.436 661.666 282.508C661.667 282.206 661.681 281.903 661.669 281.6C661.328 272.915 626.26 229.355 617.763 223.139C613.048 219.69 606.762 220.886 602.246 216.717C602.128 216.609 602.014 216.496 601.898 216.386Z"/>
	<path fill="#695980" d="M345.551 799.009C353.421 804.938 361.701 811.431 370.409 816.087Q366.97 821.036 363.586 826.023C354.928 820.53 346.617 814.721 338.963 807.868C340.685 804.717 343.261 801.766 345.551 799.009Z"/>
	<path fill="#695980" d="M415.429 810.472Q426.14 816.913 436.969 823.153C435.597 828.46 434.699 833.898 433.246 839.173C424.959 833.545 417.791 827.065 409.973 820.892C411.509 817.234 413.336 813.842 415.429 810.472Z"/>
	<path fill="#695980" d="M372.583 817.568C380.772 824.104 390.063 828.498 398.512 834.495C396.732 837.985 394.552 841.23 392.422 844.511C382.897 839.967 374.394 834.363 365.835 828.252C367.395 824.167 369.887 820.949 372.583 817.568Z"/>
	<path fill="#DAC2F2" d="M342.692 460.74C344.144 461.919 344.665 463.146 345.045 464.926C346.123 469.984 345.992 475.704 346.285 480.878C346.777 489.579 347.368 498.165 348.7 506.785L343.955 502.852C339.624 498.827 335.812 493.876 334.505 488.001C332.308 478.124 337.72 468.81 342.692 460.74Z"/>
	<path fill="#695980" d="M401.455 835.667C410.791 840.362 420.441 843.342 429.939 847.48C427.856 852.218 425.851 856.941 423.228 861.412C413.681 858.479 404.141 851.502 395.609 846.283L401.455 835.667Z"/>
	<defs>
		<linearGradient id="gradient_1" gradientUnits="userSpaceOnUse" x1="438.47763" y1="276.34021" x2="431.28064" y2="265.05365">
			<stop offset="0" stop-color="#DCBCEA"/>
			<stop offset="1" stop-color="#F2DCF0"/>
		</linearGradient>
	</defs>
	<path fill="url(#gradient_1)" d="M428.399 271.671C441.634 272.369 457.487 251.508 468.463 249.146C459.554 265.412 444.364 276.454 426.732 281.586C415.318 284.908 402.744 286.29 390.928 287.333C397.844 285.198 404.796 282.914 411.384 279.893C417.115 277.264 422.524 273.989 428.399 271.671Z"/>
	<path fill="#FEFEFE" d="M645.724 762.648C647.21 757.426 647.825 751.94 648.745 746.594C662.145 765.9 680.023 790.864 675.804 815.642C673.881 813.759 667.669 796.699 665.387 792.248C659.835 781.421 652.903 772.35 645.724 762.648Z"/>
	<path fill="#FEFEFE" d="M620.599 85.5705C626.008 85.2845 632.726 87.0014 637.928 88.4853C648.238 91.4261 657.243 97.0067 662.461 106.636C670.169 120.857 668.541 139.465 664.106 154.418L662.457 157.881C662.614 151.626 662.457 145.609 661.082 139.474C655.85 116.118 640.362 98.1338 620.599 85.5705Z"/>
	<path fill="#FEFEFE" d="M350.2 546.578C350.116 547.285 349.965 547.995 349.84 548.697L348.77 549.219C344.891 548.783 340.071 542.934 337.565 540.112C330.348 531.986 324.728 522.436 319.216 513.112C301.987 483.97 298.648 471.551 300.77 437.76C301.03 433.614 300.847 422.665 303.925 419.945C305.273 420.055 305.323 420.192 306.355 421.095C306.504 427.458 307.642 448.307 309.967 453.161C309.144 457.676 308.385 461.933 308.491 466.543C308.691 486.158 328.384 525.894 342.115 539.285C344.359 541.473 346.628 543.541 349.103 545.461C349.85 546.04 349.552 545.771 350.2 546.578Z"/>
	<path fill="#DAC2F2" d="M318.978 405.197C327.917 405.643 334.916 408.122 343.049 411.707C343.378 426.065 343.651 440.367 344.933 454.679C336.509 443.172 318.969 420.738 304.502 418.276Q303.856 418.168 303.206 418.088C305.533 417.847 306.865 417.209 308.841 415.98C312.92 413.445 317.842 410.102 318.978 405.197Z"/>
	<path fill="#695980" d="M638.575 808.652C651.156 814.759 660.949 826.481 670.295 836.589C667.516 844.013 664.207 850.997 660.062 857.762L657.082 862.438Q656.658 861.259 656.183 860.099Q655.707 858.94 655.181 857.803Q654.655 856.665 654.079 855.553Q653.502 854.44 652.877 853.354Q652.253 852.268 651.58 851.21Q650.908 850.153 650.189 849.126Q649.471 848.1 648.707 847.106Q647.944 846.112 647.137 845.153Q646.331 844.194 645.482 843.272Q644.634 842.35 643.746 841.466Q642.857 840.582 641.931 839.739Q641.004 838.895 640.041 838.093Q639.078 837.292 638.08 836.533Q637.083 835.775 636.052 835.062Q635.022 834.348 633.961 833.681Q632.9 833.014 631.811 832.395C634.929 824.576 636.78 816.84 638.575 808.652Z"/>
	<path fill="#695980" d="M631.031 834.789C641.902 842.958 649.519 852.231 655.242 864.587C649.129 872.217 642.776 879.577 635.489 886.126C631.571 876.031 626.375 860.675 616.411 854.948C623.209 849.303 627.192 842.641 631.031 834.789Z"/>
	<path fill="#FEFEFE" d="M396.129 645.926C399.138 648.144 402.043 650.469 404.944 652.824C401.689 678.904 399.507 718.059 386.999 741.45Q385.908 743.484 384.616 745.397Q383.323 747.31 381.842 749.08Q380.361 750.851 378.707 752.461Q377.053 754.071 375.243 755.504C371.711 758.273 367.934 760.293 363.724 761.819C361.977 760.389 360.438 758.717 358.86 757.106C362.779 754.948 366.663 752.534 370.103 749.663C373.603 746.742 376.167 743.271 378.156 739.185C381.812 731.675 383.605 723.17 385.486 715.072C390.816 692.12 393.98 669.381 396.129 645.926Z"/>
	<path fill="#695980" d="M588.37 868.22C588.556 868.406 588.768 868.57 588.928 868.779C589.887 870.044 590.594 872.222 591.261 873.688C596.077 884.282 597.658 894.654 596.067 906.143C587.072 908.05 578.354 909.316 569.125 909.244C568.105 909.191 567.291 909.031 566.315 908.731C566.154 904.959 566.8 901.198 567.072 897.439C567.774 887.708 565.417 879.093 560.997 870.504C570.378 870.651 579.156 869.898 588.37 868.22Z"/>
	<path fill="#695980" d="M590.121 867.676C599.395 864.696 608.922 861.414 616.411 854.948C617.914 858.576 620.485 862.178 622.446 865.628C626.802 873.291 630.141 880.78 632.589 889.27C624.077 896.018 615.716 900.037 605.507 903.524L599.756 905.254L599.867 904.551C601.989 890.588 598.351 878.932 590.121 867.676Z"/>
	<path fill="#695980" d="M638.803 806.918C642.488 792.412 641.614 777.171 645.724 762.648C652.903 772.35 659.835 781.421 665.387 792.248C667.669 796.699 673.881 813.759 675.804 815.642C674.902 822.298 673.137 828.668 670.98 835.013C661.777 822.741 652.941 813.307 638.803 806.918Z"/>
	<path fill="#695980" d="M527.295 865.672C533.017 865.948 538.636 867.544 544.257 868.577C549.588 869.556 555.028 870.035 560.422 870.531C560.622 875.087 561.964 879.553 562.773 884.03C564.207 891.962 564.029 900.74 562.632 908.663C551.112 908.243 539.719 907.209 528.436 904.774C532.37 891.527 532.698 878.6 527.295 865.672Z"/>
	<path fill="#695980" d="M305.818 816.648C308.107 817.808 310.278 819.117 312.466 820.454C294.976 824.789 278.085 831.112 261.189 837.319C207.515 857.039 141.979 885.783 95.071 918.161C93.6981 917.245 92.3325 916.225 90.9043 915.405C99.1719 907.782 109.907 902.356 119.575 896.726C156.635 875.143 195.274 857.138 234.961 840.977C258.057 831.571 281.502 822.386 305.818 816.648Z"/>
	<path fill="#DAC2F2" d="M240.308 267.196C244.065 266.774 247.755 266.271 251.467 265.553C254.201 273.667 263.876 279.217 271.08 282.823C286.359 290.473 306.608 295.817 323.41 289.9C324.658 289.46 325.806 289.152 326.277 287.848C326.298 287.792 326.284 287.729 326.287 287.67C330.74 288.343 335.486 288.273 339.989 288.485Q351.422 288.992 362.824 289.985C356.764 293.259 350.785 296.6 344.397 299.213C322.335 308.239 295.713 311.752 272.2 307.471C282.458 306.135 291.43 303.706 299.735 297.331C295.115 298.23 290.899 298.858 286.18 298.372C266.237 296.318 252.312 281.849 240.308 267.196Z"/>
	<path fill="#DAC2F2" d="M308.491 466.543C314.649 458.078 315.209 448.526 323.785 438.668C329.288 444.425 335.654 450.369 338.329 458.057C338.249 458.245 338.171 458.434 338.089 458.621C332.79 470.661 324.329 478.42 329.912 493.005C333.1 501.335 340.14 508.157 347.387 513.077C348.496 523.651 348.536 536.526 350.2 546.578C349.552 545.771 349.85 546.04 349.103 545.461C346.628 543.541 344.359 541.473 342.115 539.285C328.384 525.894 308.691 486.158 308.491 466.543Z"/>
	<path fill="#FEFEFE" d="M292.403 781.379C293.258 783.597 294.237 785.775 295.17 787.962C279.619 796.499 263.207 803.516 247.236 811.235Q205.35 831.541 163.73 852.386C134.329 867.07 98.9011 883.668 75.4732 906.911C69.441 904.767 63.1671 903.741 56.8732 902.711C68.9472 891.368 85.7736 883.194 100.153 875.121Q139.957 853.094 181.022 833.515Q236.285 806.534 292.403 781.379Z"/>
	<path fill="#FEFEFE" d="M354.192 325.603C358.23 324.017 361.329 320.699 365.585 319.304L366.357 319.849C362.444 330.623 355.985 353.403 358.86 364.662C360.452 366.025 361.298 367.028 361.485 369.216C362.217 377.758 361.449 386.896 361.456 395.5C361.469 412.271 361.772 429.101 362.072 445.873C362.452 467.15 364.878 488.471 366.624 509.675C368.517 532.661 369.704 555.697 373.412 578.492C377.268 602.192 379.388 609.94 395.681 628.266Q401.093 634.368 406.83 640.165C408.713 642.04 411.155 643.91 412.798 645.952C413.47 646.787 413.771 646.972 413.331 647.906C402.278 641.568 378.238 622.053 371.553 612.008C367.156 605.4 365.138 597.542 363.769 589.807C359 562.857 358.026 534.973 356.538 507.673Q352.6 444.01 352.515 380.226C352.472 363.119 350.919 342.089 354.192 325.603Z"/>
	<path fill="#695980" d="M438.7 824.055C456.293 835.293 473.975 847.242 493.518 854.866C504.088 858.989 515.322 861.236 525.849 865.296C527.212 877.4 529.663 892.549 525.261 904.283C513.992 902.373 502.767 899.783 492.343 894.999Q492.848 893.838 493.322 892.663C498.223 880.475 499.215 869.145 494 856.957C494.233 870.25 493.067 881.31 488.536 893.875C484.5 891.529 479.728 889.81 475.444 887.865C469.013 884.944 462.783 881.804 456.574 878.435C461.291 869.701 465.831 852.848 464.014 842.896C463.779 841.613 463.46 841.277 462.419 840.549C460.858 842.258 460.881 853.36 460.306 856.449C458.982 863.567 455.902 870.014 452.921 876.55C443.819 872.476 434.897 867.958 425.933 863.589C428.046 858.313 430.411 853.258 433.037 848.222C439.338 851.128 445.635 852.474 452.502 853.248C447.75 848.464 441.841 844.245 435.939 841C437.668 835.66 438.36 829.637 438.7 824.055Z"/>
	<path fill="#DAC2F2" d="M525.038 218.54C541.618 214.521 560.114 212.6 577.058 214.392C563.081 216.112 546.857 221.39 538.001 232.929C534.143 237.956 531.24 243.67 527.429 248.75C511.067 270.558 490.113 292.63 465.089 304.333C459.435 306.977 453.377 307.385 447.776 309.735C444.783 307.781 441.965 306.18 438.447 305.289C426.905 302.368 408.154 305.15 396.158 307.673C388.638 309.255 370.774 312.997 366.577 319.427C366.49 319.56 366.43 319.708 366.357 319.849L365.585 319.304C361.329 320.699 358.23 324.017 354.192 325.603C358.167 313.588 361.221 303.298 369.103 293.068C380.694 294.125 393.038 294.149 404.614 292.915C413.002 292.022 421.333 290.445 429.732 289.689C435.376 289.181 441.07 289.951 446.716 289.411C473.346 286.866 495.759 264.547 509.585 243.257C514.893 235.083 518.762 226.074 525.038 218.54Z"/>
	<path fill="#FEFEFE" d="M562.704 145.671C574.164 143.863 587.028 148.424 597.03 153.592C607.379 158.939 621.22 167.011 624.737 179.013C627.512 188.48 625.35 198.898 620.849 207.446C620.691 205.589 620.543 203.715 620.228 201.877C618.465 191.587 613.198 183.455 604.632 177.526C593.864 170.074 579.413 166.218 566.438 168.722C544.01 173.048 533.823 190.746 522.836 208.739Q514.495 222.672 505.55 236.225C490.792 257.657 473.737 275.03 447.801 281.866C475.265 261.522 484.605 233.859 498.227 204.206C502.48 194.948 506.876 185.554 513.057 177.402C525.038 161.6 542.736 148.465 562.704 145.671Z"/>
	<path fill="#FEFEFE" d="M883.496 858.77C891.08 863.021 898.458 868.755 905.15 874.311C940.259 903.464 951.249 936.97 963.088 978.99C967.286 993.888 970.675 1008.91 974.089 1024L961.76 1024L942.502 1024L933.604 1024C930.4 989.863 925.399 954.998 914.998 922.247C912.593 914.672 909.622 907.193 906.517 899.882C904.727 895.667 902.475 891.355 901.234 886.948C901.195 886.812 901.161 886.675 901.124 886.538C896.063 876.639 890.04 867.722 883.496 858.77Z"/>
	<path fill="#2F1560" d="M946.699 968.057L947.785 969.203C948.845 968.389 948.918 967.583 949.116 966.309C949.541 963.569 949.483 960.543 949.599 957.77C957.123 979.062 959.822 1001.59 961.76 1024L942.502 1024C945.78 1010.53 944.939 995.463 945.329 981.651C945.435 977.898 945.181 973.644 945.788 969.952C945.911 969.207 946.276 968.66 946.699 968.057Z"/>
	<path fill="#695980" d="M901.124 886.538C906.922 891.234 913.146 895.74 918.554 900.871C932.127 913.75 937.475 931.527 941.87 949.164C943.255 954.724 946.143 961.04 946.71 966.634C946.783 967.355 946.753 967.434 946.699 968.057C946.276 968.66 945.911 969.207 945.788 969.952C945.181 973.644 945.435 977.898 945.329 981.651C944.939 995.463 945.78 1010.53 942.502 1024L933.604 1024C930.4 989.863 925.399 954.998 914.998 922.247C912.593 914.672 909.622 907.193 906.517 899.882C904.727 895.667 902.475 891.355 901.234 886.948C901.195 886.812 901.161 886.675 901.124 886.538Z"/>
	<path fill="#FEFEFE" d="M678.506 779.795L783.932 819.198L820.974 832.748C835.161 837.84 851.932 841.853 864.039 851.044C878.619 862.111 887.861 879.621 895.44 895.93C908.844 924.771 915.46 961.127 920.006 992.401C921.511 1002.76 923.112 1013.54 923.612 1024L912.537 1024C912.721 1013.57 910.409 1002.35 908.93 992.031C904.418 960.564 895.418 903.784 875.588 878.119C871.599 872.956 865.961 870.026 860.231 867.185C842.771 858.531 824.186 851.629 805.936 844.811Q765.865 829.989 725.448 816.134C712.6 811.671 699.025 804.516 685.582 802.771C684.2 794.61 681.886 787.345 678.506 779.795Z"/>
	<path fill="#FEFEFE" d="M557.277 78.7112C576.545 77.8868 594.63 80.3629 611.833 89.5675C632.069 100.395 648.459 119.615 655.063 141.75C658.165 152.151 657.725 164.545 652.501 174.229C652.44 152.826 647.119 134.685 632.591 118.7C639.611 137.369 650.159 154.805 646.732 175.584L645.731 175.822L646.219 176.131C646.016 171.536 646.27 166.784 645.656 162.235C643.588 146.91 635.109 130.135 624.251 119.186C607.626 102.42 582.274 94.4582 559.043 94.5145C506.865 94.6408 463.107 127.975 428.056 163.355C417.714 173.137 408.087 183.929 398.84 194.741C382.896 213.384 346.822 259.678 327.376 269.804C313.689 276.932 303.195 277.98 288.624 273.426C299.731 270.932 310.245 266.927 319.477 260.137C335.238 248.546 351.325 225.608 363.57 209.812Q378.45 190.35 394.379 171.737C437.334 121.833 490.005 83.7122 557.277 78.7112Z"/>
	<path fill="#695980" d="M623.075 216.077C632.946 215.652 638.368 220.358 645.285 226.71C658.164 238.536 668.112 253.184 680.882 265.048C692.935 276.245 707.536 284.184 719.172 295.911C721.086 297.84 723.147 299.82 724.827 301.96C727.845 305.804 731.002 314.071 735.143 316.37C736.99 315.464 737.849 314.4 738.53 312.459C742.246 301.881 738 290.299 737.111 279.678L737.576 280.378C740.958 285.51 743.498 295.992 747.971 299.402C748.666 299.5 748.938 299.733 749.53 299.249C755.062 294.729 756.695 281.952 756.948 275.267C757.47 261.459 753.068 248.444 748.6 235.593C754.986 238.028 762.839 241.246 767.311 246.688C767.081 250.509 778.899 261.891 780.774 267.937C781.712 270.961 780.629 275.188 779.886 278.213C777.941 286.129 774.314 293.632 772.048 301.482C767.746 316.386 764.769 331.701 759.763 346.398C757.597 352.755 754.864 358.766 751.902 364.776C750.197 363.837 748.436 362.782 746.603 362.119C739.945 359.711 732.287 361.325 725.997 364.08C711.618 370.38 698.882 381.787 693.111 396.54C692.786 375.92 692.186 355.265 682.603 336.536C677.59 326.736 671.018 317.576 668.905 306.567C666.582 294.458 669.533 281.879 669.561 269.667C657.306 249.275 643.703 228.846 623.075 216.077Z"/>
	<path fill="#2F1560" d="M49.6159 911.445C66.7783 911.822 79.2026 918.619 90.9932 930.878C108.828 949.421 120.513 973.541 131.215 996.636C135.385 1005.64 139.657 1014.61 142.88 1024L140.737 1024L75.8567 1024L68.4817 1024L3.94828 1024L0 1024L0 978.155C13.1951 955.432 27.2797 926.818 49.6159 911.445Z"/>
	<path fill="#695980" d="M71.7346 941.639C73.3727 942.371 76.2306 943.3 76.9753 945.053C78.5199 948.688 75.5248 970.919 75.2371 976.481C74.4145 992.38 74.3802 1008.14 75.8567 1024L68.4817 1024C66.7729 996.706 69.5967 968.818 71.7346 941.639Z"/>
	<path fill="#FEFEFE" d="M49.6159 911.445C66.7783 911.822 79.2026 918.619 90.9932 930.878C108.828 949.421 120.513 973.541 131.215 996.636C135.385 1005.64 139.657 1014.61 142.88 1024L140.737 1024Q138.296 1018.15 135.758 1012.34C125.327 988.726 106.962 951.803 88.2225 933.958C82.2445 928.265 74.7692 923.481 66.9984 920.659C64.3799 919.708 61.4588 919.222 58.8636 920.512C53.4078 923.224 49.0542 931.083 45.7481 936.024C24.8887 967.2 16.4525 989.133 3.94828 1024L0 1024L0 978.155C13.1951 955.432 27.2797 926.818 49.6159 911.445Z"/>
	<path fill="#FEFEFE" d="M674.636 144.978C707.4 148.316 748.723 175.234 769.457 200.538C782.165 216.048 793.65 239.486 792.239 260.117C792.194 260.772 792.048 261.252 791.751 261.832C790.091 260.499 789.537 255.759 788.642 253.632C782.827 239.81 770.604 228.541 756.754 223.13C773.545 237.887 783.186 249.346 789.069 271.326L783.251 280.276C785.073 272.81 784.003 266.859 779.965 260.292C776.789 255.129 772.177 250.278 767.311 246.688C762.839 241.246 754.986 238.028 748.6 235.593L744.757 231.575C752.958 253.225 757.566 275.49 749.027 297.759C741.067 281.057 732.033 259.137 717.168 247.599C721.089 253.423 724.728 259.57 727.717 265.923C734.843 281.07 740.66 297.961 734.677 314.372C732.389 308.5 729.162 303.268 725.214 298.36C712.503 282.555 694.106 273.071 679.459 259.35C666.303 247.026 656.224 231.436 641.733 220.55C635.902 216.17 630.964 214.009 623.625 213.23C626.719 210.255 629.931 208.305 634.244 207.67C668.718 202.587 681.876 246.198 703.092 261.428L703.733 261.884C697.782 248.113 678.215 221.465 666.749 211.857C656.855 203.566 646.967 201.248 634.28 202.414C638.573 198.521 642.614 194.301 647.382 190.971C661.353 181.215 681.233 177.833 697.958 179.167C703.834 179.636 709.674 180.893 715.471 181.935C709.625 177.096 703.752 175.203 696.662 173.004C686.176 168.924 680.39 167.859 669.2 170.09C666.984 170.531 664.846 171.319 662.63 171.699L661.799 171.833C667.194 163.271 670.035 153.891 674.636 144.978Z"/>
	<path fill="#FEFEFE" d="M557.791 99.2097C574.305 98.1614 592.502 103.969 606.453 112.551C623.485 123.029 633.83 139.581 638.394 158.822C641.915 173.667 641.62 185.549 633.525 198.697C633.543 195.234 633.613 191.738 633.413 188.28C632.762 177.051 629.085 168.055 620.564 160.544C606.551 148.192 583.86 139.597 565.113 140.833C552.397 141.671 541.048 146.556 530.641 153.737C507.586 169.645 500.852 184.628 489.45 208.929C486.485 215.25 483.835 222.255 479.119 227.505C470.743 236.83 458.9 244.398 448.415 251.175C411.215 275.222 392.217 282.84 347.162 285.064C349.509 284.147 351.936 283.4 354.324 282.598C373.903 277.802 404.236 256.569 418.837 242.421C410.57 246.42 402.899 251.91 395.153 256.833C383.388 264.311 371.026 271.439 358.085 276.681C344.826 282.052 323.286 286.363 309.546 280.614C321 278.274 330.504 273.537 339.782 266.429C356.27 253.799 369.633 236.967 383.132 221.321C419.191 179.527 464.508 125.074 518.197 106.675C530.989 102.291 544.356 100.265 557.791 99.2097Z"/>
	<path fill="#FEFEFE" d="M649.407 634.642C653.067 631.835 656.817 629.098 660.36 626.146Q649.373 693.018 637.687 759.772C634.26 780.119 632.13 807.476 625.644 826.272C622.296 835.976 617.431 844.6 608.947 850.673C590.378 863.966 565.869 863.604 544.395 859.9C528.879 857.224 499.252 851.913 486.798 842.545C487.782 838.759 487.994 834.565 488.454 830.675C490.658 812.049 490.659 793.635 490.479 774.93C496.523 774.058 502.652 773.311 508.552 771.697C523.892 767.502 538.548 758.449 551.601 749.502Q565.622 739.935 578.098 728.427C595.748 711.89 645.075 657.791 649.407 634.642Z"/>
	<path fill="#FEFEFE" d="M299.306 161.953C302.852 154.796 307.264 148.095 311.803 141.534Q312.99 139.825 314.21 138.141Q315.43 136.457 316.684 134.797Q317.938 133.137 319.225 131.503Q320.512 129.869 321.832 128.261Q323.151 126.653 324.503 125.072Q325.854 123.491 327.237 121.937Q328.62 120.383 330.034 118.857Q331.448 117.331 332.892 115.834Q334.336 114.337 335.809 112.869Q337.283 111.401 338.786 109.963Q340.289 108.525 341.82 107.117Q343.352 105.71 344.911 104.333Q346.47 102.956 348.057 101.611Q349.643 100.266 351.257 98.9527Q352.87 97.6395 354.509 96.359Q356.148 95.0785 357.813 93.8311Q359.477 92.5836 361.167 91.3698Q362.856 90.156 364.569 88.9763Q366.282 87.7966 368.019 86.6515Q369.755 85.5064 371.514 84.3963Q373.273 83.2862 375.054 82.2115Q376.835 81.1369 378.638 80.0982Q380.44 79.0595 382.262 78.0571Q384.085 77.0547 385.927 76.0891Q387.77 75.1234 389.631 74.1949Q391.492 73.2664 393.372 72.3753Q395.252 71.4843 397.149 70.6311Q399.046 69.7779 400.959 68.9629Q402.873 68.1479 404.803 67.3714Q406.733 66.595 408.678 65.8573Q410.623 65.1197 412.582 64.4211Q414.541 63.7226 416.514 63.0635C470.176 44.9775 535.968 45.0748 587.408 70.4092C590.475 71.9199 593.568 73.5143 596.479 75.3057C590.41 73.9484 584.35 72.5046 578.161 71.8138C535.863 67.0929 495.998 82.2107 460.894 104.51C421.399 129.598 389.49 167.62 361.416 204.47C348.798 221.032 335.713 241.045 319.561 254.236C308.411 263.344 292.754 270.802 278.1 269.237C291.03 281.902 308.878 285.684 326.287 287.67C326.284 287.729 326.298 287.792 326.277 287.848C325.806 289.152 324.658 289.46 323.41 289.9C306.608 295.817 286.359 290.473 271.08 282.823C263.876 279.217 254.201 273.667 251.467 265.553Q256.53 264.173 261.477 262.421C284.784 254.031 305.41 236.489 315.939 213.95C308.023 221.143 301.318 228.994 292.607 235.397C289.909 233.751 287.372 231.552 284.678 229.817C276.497 224.549 267.333 219.489 258.288 215.881L258.164 215.434C260.004 213.56 271.633 211.713 275.1 210.438C281.714 208.004 288.774 204.005 294.668 200.235C303.608 194.516 317.613 179.86 326.239 172.066C336.976 162.365 348.61 153.806 358.433 143.119C335.936 154.39 317.561 172.375 299.119 189.154C297.622 190.68 295.807 191.85 294.073 193.089C287.198 192.026 278.068 191.08 272.293 186.845C267.617 184.569 263.587 182.019 259.628 178.645C278.493 180.575 297.598 170.257 311.799 158.681C321.974 150.387 331.09 140.837 341.015 132.247C366.07 110.562 395.729 91.6235 427.145 80.7225Q439.993 76.3577 453.277 73.5908C460.704 72.011 468.486 70.9397 475.589 68.1917C419.484 67.6449 366.107 98.5929 327.007 136.88C318.231 145.474 309.654 155.217 299.306 161.953Z"/>
	<path fill="#DAC2F2" d="M272.293 186.845C271.928 184.4 270.603 184.53 270.081 182.516C272.138 182.204 276.285 184.913 278.596 185.565C285.241 187.438 292.777 186.508 299.119 189.154C297.622 190.68 295.807 191.85 294.073 193.089C287.198 192.026 278.068 191.08 272.293 186.845Z"/>
	<path fill="#DAC2F2" d="M649.407 634.642C645.075 657.791 595.748 711.89 578.098 728.427Q565.622 739.935 551.601 749.502C538.548 758.449 523.892 767.502 508.552 771.697C502.652 773.311 496.523 774.058 490.479 774.93C490.659 793.635 490.658 812.049 488.454 830.675C487.994 834.565 487.782 838.759 486.798 842.545C471.709 835.701 457.295 826.185 443.244 817.421C415.712 800.25 388.479 782.897 363.724 761.819C367.934 760.293 371.711 758.273 375.243 755.504Q377.053 754.071 378.707 752.461Q380.361 750.851 381.842 749.08Q383.323 747.31 384.616 745.397Q385.909 743.484 386.999 741.45C399.507 718.059 401.689 678.904 404.944 652.824C422.457 664.151 443.063 686.579 463.33 691.299C480.678 695.34 528.883 693.317 545.92 688.195C558.415 684.439 569.951 677.953 581.548 672.097C604.674 660.42 627.413 648.363 649.407 634.642Z"/>
	<path fill="#695980" d="M685.582 802.771C699.025 804.516 712.6 811.671 725.448 816.134Q765.865 829.989 805.936 844.811C824.186 851.629 842.771 858.531 860.231 867.185C865.961 870.026 871.599 872.956 875.588 878.119C895.418 903.784 904.418 960.564 908.93 992.031C910.409 1002.35 912.721 1013.57 912.537 1024L204.148 1024L190.088 1024L157.456 1024C153.349 1015.47 150.496 1006.04 146.733 997.302C134.953 969.962 119.655 942.744 98.6619 921.379Q118.085 909.399 138.094 898.424Q158.102 887.449 178.644 877.508Q199.186 867.566 220.207 858.684Q241.228 849.802 262.675 842.002C280.528 835.481 298.714 829.859 316.822 824.101C329.468 836.747 345.177 847.439 360.044 857.273C406.322 887.879 455.702 912.646 510.859 921.957C549.565 928.49 592.357 928.208 625.556 904.46C653.723 884.312 674.603 855.327 682.768 821.532C684.234 815.464 684.465 809.4 685.492 803.287L685.582 802.771Z"/>
	<path fill="#2F1560" d="M190.088 1024C189.335 1012.81 184.6 969.672 187.663 962.413L188.571 961.893C190.753 962.868 191.949 966.245 192.761 968.36C198.823 984.143 202.111 1007.19 204.148 1024L190.088 1024Z"/>
	<path fill="#FEFEFE" d="M577.058 214.392C585.573 214.136 593.555 214.564 601.898 216.386C602.014 216.496 602.128 216.609 602.246 216.717C606.762 220.886 613.048 219.69 617.763 223.139C626.26 229.355 661.328 272.915 661.669 281.6C661.681 281.903 661.667 282.206 661.666 282.508C661.135 290.839 660.48 299.43 661.918 307.699C665.018 325.531 679.661 340.568 683.699 359.707C685.428 367.901 686.19 376.372 686.769 384.711C687.237 391.441 686.74 404.035 689.219 410.042L690.155 410.706C692.266 410.329 693.577 408.369 694.74 406.716C697.328 403.036 699.106 398.855 701.672 395.127C708.696 384.921 721.991 371.397 734.648 368.847C737.661 368.239 740.6 368.642 743.152 370.413C751.516 376.213 753.643 393.454 755.066 402.889Q757.008 415.969 757.647 429.177C758.999 457.619 751.556 471.067 735.073 493.362C727.825 503.166 717.496 517.181 707.046 523.359C703.941 525.195 700.819 526.151 697.364 527.053C694.578 525.262 691.923 523.425 688.753 522.381L688.372 522.968C682.277 532.549 680.688 551.3 678.275 562.917C674.959 578.874 671.541 597.988 662.291 611.63C648.614 631.8 579.808 663.741 555.979 674.261C551.691 677.261 546.953 678.991 541.883 680.201C528.41 683.417 485.293 685.741 472.393 683.169C472.266 683.144 472.141 683.107 472.015 683.075C460.426 682.99 453.369 676.994 444.659 670.296C433.492 665.057 422.86 655.678 413.331 647.906C413.771 646.972 413.47 646.787 412.798 645.952C411.155 643.91 408.713 642.04 406.83 640.165Q401.092 634.368 395.681 628.266C379.388 609.94 377.268 602.192 373.412 578.492C369.704 555.697 368.517 532.661 366.624 509.675C364.878 488.471 362.452 467.15 362.072 445.873C361.772 429.101 361.469 412.271 361.456 395.5C361.449 386.896 362.217 377.758 361.485 369.216C361.298 367.028 360.452 366.025 358.86 364.662C355.985 353.403 362.444 330.623 366.357 319.849C366.43 319.708 366.49 319.56 366.577 319.427C370.774 312.997 388.638 309.255 396.158 307.673C408.154 305.15 426.905 302.368 438.447 305.289C441.965 306.18 444.783 307.781 447.776 309.735C453.377 307.385 459.435 306.977 465.089 304.333C490.113 292.63 511.067 270.558 527.429 248.75C531.24 243.67 534.143 237.956 538.001 232.929C546.857 221.39 563.081 216.112 577.058 214.392Z"/>
	<path fill="#2F1560" d="M606.884 399.206C607.697 399.215 608.319 399.337 609.108 399.511L608.938 400.052C599.713 404.364 583.222 404.768 573.422 402.299C572.127 401.709 571.284 401.128 570.203 400.199L570.27 399.458C574.665 399.395 579.083 400.062 583.488 400.179C591.355 400.389 599.059 399.887 606.884 399.206Z"/>
	<path fill="#2F1560" d="M441.256 399.232L441.295 399.71C441.132 399.857 440.974 400.01 440.806 400.153C436.15 404.107 414.718 408.516 408.43 409.234C405.068 409.618 401.827 409.596 398.455 409.396C398.234 408.757 398.249 408.451 398.279 407.79C402.191 405.205 434.375 400.033 441.256 399.232Z"/>
	<path fill="#2F1560" d="M545.804 484.821C548.475 483.689 551.296 482.626 552.509 479.742C553.866 476.514 552.776 472.348 552.238 469.016C554.977 472.558 558.374 476.62 557.624 481.438C557.157 484.441 555.023 486.695 552.568 488.306C548.678 490.86 544.121 492.104 539.711 493.422Q539.082 493.303 538.455 493.176C536.532 492.788 533.462 492.419 532.325 490.701C533.733 488.077 542.695 486.062 545.804 484.821Z"/>
	<path fill="#2F1560" d="M471.933 580.424C484.3 581.604 496.02 583.712 508.536 583.778Q516.189 583.841 523.824 583.316C527.446 583.05 531.416 582.352 535.021 582.557C536.323 582.632 537.044 582.698 537.892 583.742C537.091 585.019 536.095 585.337 534.791 586.058C523.813 590.874 511.391 592.761 499.465 591.856C489.21 591.078 478.911 588.467 471.933 580.424Z"/>
	<path fill="#DAC2F2" d="M472.015 683.075C469.474 680.742 465.34 681.093 463.583 677.693C463.726 676.572 463.834 676.094 464.791 675.319C465.002 675.149 465.248 675.024 465.49 674.9C468.138 673.544 483.777 674.805 487.875 674.882C504.904 675.2 522.178 675.542 539.194 675.353C544.789 675.29 550.405 674.105 555.979 674.261C551.691 677.261 546.953 678.991 541.883 680.201C528.41 683.417 485.293 685.741 472.393 683.169C472.266 683.144 472.141 683.107 472.015 683.075Z"/>
	<path fill="#2F1560" d="M486.308 394.174C487 392.902 487.718 390.983 488.915 390.221C489.677 391.376 489.651 392.452 489.726 393.784C485.548 411.819 479.949 428.151 471.804 444.791C484.535 438.289 495.523 436.366 509.384 440.826Q511.28 441.417 513.142 442.109Q515.004 442.801 516.826 443.592Q518.647 444.383 520.424 445.272Q522.201 446.16 523.927 447.142Q525.653 448.125 527.324 449.199Q528.995 450.273 530.605 451.436Q532.216 452.598 533.761 453.846Q535.307 455.093 536.783 456.422C519.555 448.947 499.981 439.078 481.1 446.38C469.072 451.031 461.405 461.405 456.513 472.991C455.168 476.176 454.434 479.202 454.932 482.658C459.372 489.564 466.609 491.669 473.834 494.698L464.585 495.91C462.795 495.338 460.989 494.77 459.238 494.085C455.313 492.551 450.554 489.851 448.978 485.735C447.606 482.155 448.595 478.334 449.851 474.887C453.207 465.672 459.36 457.966 463.505 449.131C466.97 441.748 469.808 434.049 472.884 426.497L486.308 394.174Z"/>
	<path fill="#2F1560" d="M580.042 530.572C583.998 530.773 588.917 530.583 592.29 532.958C593.566 533.856 594.586 535.195 594.666 536.814C594.735 538.235 594.054 539.612 593.142 540.656C589.211 545.154 580.888 546.138 575.26 546.661C566.735 547.452 558.064 546.756 549.538 546.275C535.381 545.477 521.198 544.285 507.01 544.576C488.026 544.965 469.472 549.906 450.527 550.475C441.488 550.747 435.967 550.887 429.094 544.461C429.593 542.39 430.672 541.117 432.339 539.843C434.834 537.936 439.501 535.492 442.746 536.012C443.745 536.173 443.36 536.016 444.006 536.97C443.364 540.049 439.919 542.054 437.549 543.817C459.117 543.639 480.006 537.547 501.504 536.576C529.583 535.309 558.754 543.625 586.51 537.492C583.955 535.533 580.666 534.004 580.042 530.572Z"/>
	<path fill="#2F1560" d="M551.332 366.529C551.84 365.324 552.357 364.117 552.971 362.962C557.107 355.168 566.048 350.185 574.204 347.648C585.004 344.288 597.786 344.199 607.922 349.651C617.049 354.561 630.228 367.913 632.693 378.048C632.963 379.159 633.043 379.808 632.384 380.774C627.307 381.325 618.617 369.882 614.04 367.026C608.124 363.335 602.211 361.001 595.542 359.039C596.417 370.05 597.067 380.825 589.341 389.799C586.378 393.241 582.45 395.57 577.866 395.901C574.255 396.162 570.903 395.142 568.208 392.699C562.184 387.239 560.537 377.555 560.372 369.828Q560.316 365.641 560.396 361.455C557.449 363.424 554.54 365.021 551.332 366.529Z"/>
	<path fill="#DAC2F2" d="M454.932 482.658C463.793 470.952 470.129 460.408 486.095 458.234C501.771 456.1 520.103 461.122 532.59 470.769C537.795 474.79 541.951 479.521 545.804 484.821C542.695 486.062 533.733 488.077 532.325 490.701C533.462 492.419 536.532 492.788 538.455 493.176Q539.082 493.303 539.711 493.422C539.57 493.435 539.429 493.444 539.289 493.461C535.343 493.919 531.101 496.016 527.364 497.431C515.461 501.94 503.721 505.093 490.862 503.826C480.369 502.791 472.094 496.436 464.585 495.91L473.834 494.698C466.609 491.669 459.372 489.564 454.932 482.658Z"/>
	<path fill="#2F1560" d="M519.437 473.473C520.638 473.468 521.84 473.48 523.024 473.707C529.519 474.949 533.001 479.397 536.515 484.52C531.879 482.289 527.257 480.181 522.393 478.49C517.836 479.541 513.57 485.059 509.174 484.888L508.579 484.161C508.612 483.548 508.628 482.94 508.806 482.347C510.222 477.627 515.421 475.457 519.437 473.473Z"/>
	<path fill="#2F1560" d="M471.182 476.025C478.827 475.703 486.089 481.787 491.516 486.604C493.432 488.305 495.75 490.295 495.885 492.96C494.593 493.667 494.038 493.335 492.616 493.095C487.484 490.465 483.26 486.53 478.234 483.767C477.99 483.633 477.741 483.508 477.496 483.377C474.164 481.592 469.871 481.941 466.209 481.023L466.328 480.011C467.739 478.31 469.372 477.248 471.182 476.025Z"/>
	<path fill="#2F1560" d="M690.466 487.529C697.37 478.887 706.685 468.553 705.137 456.603C703.314 442.53 688.584 437.274 699.86 421.87C704.953 414.914 726.954 391.763 734.707 390.762C736.411 390.542 738.061 391.094 739.38 392.172C746.974 398.379 749.188 418.274 749.769 427.525Q749.938 430.122 750.056 432.722C750.205 437.748 748.682 443.442 747.609 448.358C742.432 440.612 740.102 431.969 733.244 425.191C728.077 420.084 723.483 418.71 716.468 418.788C726.885 430.674 736.409 444.81 735.206 461.356C734.664 468.815 732.151 476.84 726.316 481.85C718.046 488.952 712.006 485.372 704.377 488.079C700.15 489.579 697.014 493.261 692.808 494.566C692.01 494.459 691.646 494.622 691.125 493.923C689.875 492.248 690.355 489.485 690.466 487.529Z"/>
	<path fill="#DAC2F2" d="M734.25 397.049C738.618 404.367 742.581 411.983 745.382 420.055C746.622 423.626 746.669 431.597 749.216 433.975C749.496 433.57 749.826 433.156 750.056 432.722C750.205 437.748 748.682 443.442 747.609 448.358C742.432 440.612 740.102 431.969 733.244 425.191C728.077 420.084 723.483 418.71 716.468 418.788L712.691 415.399C719.653 409.244 726.625 402.349 734.25 397.049Z"/>
	<path fill="#DAC2F2" d="M709.067 419.833C709.302 419.984 709.542 420.126 709.771 420.284C715.996 424.593 727.659 445.353 729.04 453.02C730.214 459.535 729.251 467.123 725.367 472.626C721.567 478.009 716.693 479.526 710.56 480.616C707.774 481.003 705.049 481.848 702.333 482.571C704.81 479.285 707.236 475.777 708.996 472.048C716.613 455.904 706.246 446.7 701.181 432.384C701.116 432.2 701.055 432.014 700.993 431.829C703.287 427.531 705.982 423.598 709.067 419.833Z"/>
	<path fill="#2F1560" d="M598.404 290.704C598.898 290.651 599.391 290.593 599.887 290.557C613.062 289.598 625.309 291.44 635.561 300.228C641.194 305.057 656.941 324.845 657.035 332.153C657.046 333.047 657.105 332.707 656.454 333.451C651.155 333.612 633.935 325.398 626.852 323.67C615.266 320.844 603.656 321.562 591.875 322.175C573.432 322.97 554.763 325.994 536.353 324.177C531.602 320.366 525.618 313.298 523.779 307.427C523.346 306.043 523.324 305.016 524.03 303.758C524.603 303.893 525.165 304.045 525.762 303.965C528.317 303.62 531.654 301.845 534.177 301.013C538.165 299.698 542.267 298.703 546.369 297.81C563.469 294.087 580.987 292.186 598.404 290.704Z"/>
	<path fill="#DAC2F2" d="M366.357 319.849C366.43 319.708 366.49 319.56 366.577 319.427C370.774 312.997 388.638 309.255 396.158 307.673C408.154 305.15 426.905 302.368 438.447 305.289C441.965 306.18 444.783 307.781 447.776 309.735C454.69 316.122 460.532 322.821 465.148 331.065C470.877 336.639 475.883 342.967 481.71 348.436C489.658 355.896 498.334 362.619 506.083 370.293C502.654 375.961 499.292 381.651 495.376 387.001C493.713 389.272 491.137 391.497 489.726 393.784C489.651 392.452 489.677 391.376 488.915 390.221C487.718 390.983 487 392.902 486.308 394.174C479.378 394.703 472.526 395.208 465.577 395.321C462.535 392.767 459.896 389.646 457.058 386.854C449.81 385.763 443.241 380.081 436.507 377.218C433.8 376.067 430.864 375.553 427.992 374.978C427.431 382.496 427.102 391.696 421.048 397.093C416.693 400.976 410.98 401.114 405.472 400.905C397.651 395.192 394.929 388.443 392.131 379.482C386.494 382.54 380.377 385.571 375.629 389.94C375.297 401.675 376.087 413.286 376.355 425.004C376.65 437.866 376.332 450.648 377.789 463.462C379.706 480.324 383.66 496.919 387.377 513.454C395.887 551.302 405.632 588.818 419.878 624.973C423.23 633.479 427.149 641.983 431.934 649.78C435.871 656.193 442.283 663.188 444.659 670.296C433.492 665.057 422.86 655.678 413.331 647.906C413.771 646.972 413.47 646.787 412.798 645.952C411.155 643.91 408.713 642.04 406.83 640.165Q401.092 634.368 395.681 628.266C379.388 609.94 377.268 602.192 373.412 578.492C369.704 555.697 368.517 532.661 366.624 509.675C364.878 488.471 362.452 467.15 362.072 445.873C361.772 429.101 361.469 412.271 361.456 395.5C361.449 386.896 362.217 377.758 361.485 369.216C361.298 367.028 360.452 366.025 358.86 364.662C355.985 353.403 362.444 330.623 366.357 319.849Z"/>
	<path fill="#2F1560" d="M389.885 361.596C401.974 355.286 415.06 352.375 428.413 356.481C442.616 360.848 456.254 373.634 463.072 386.639C464.527 389.414 465.445 392.186 465.577 395.321C462.535 392.767 459.896 389.646 457.058 386.854C449.81 385.763 443.241 380.081 436.507 377.218C433.8 376.067 430.864 375.553 427.992 374.978C427.431 382.496 427.102 391.696 421.048 397.093C416.693 400.976 410.98 401.114 405.472 400.905C397.651 395.192 394.929 388.443 392.131 379.482Q391.393 376.201 390.54 372.949C388.471 375.372 385.959 378.971 382.723 379.789L382.17 379.151C382.672 373.419 387.736 367.037 389.885 361.596Z"/>
	<path fill="#DAC2F2" d="M427.315 364.247C437.853 369.067 450.48 377.03 457.058 386.854C449.81 385.763 443.241 380.081 436.507 377.218C433.8 376.067 430.864 375.553 427.992 374.978Q427.689 369.61 427.315 364.247Z"/>
	<path fill="#2F1560" d="M366.357 319.849C366.43 319.708 366.49 319.56 366.577 319.427C370.774 312.997 388.638 309.255 396.158 307.673C408.154 305.15 426.905 302.368 438.447 305.289C441.965 306.18 444.783 307.781 447.776 309.735C454.69 316.122 460.532 322.821 465.148 331.065C460.549 336.39 449.563 336.447 442.99 336.927C425.782 338.184 393.688 336.351 379.119 343.281C375.39 345.055 372.38 347.914 369.708 351.008C366.14 355.139 363.013 361.242 358.86 364.662C355.985 353.403 362.444 330.623 366.357 319.849Z"/>
</svg>
