<?xml version="1.0" encoding="utf-8" ?>
<svg xmlns="http://www.w3.org/2000/svg" xmlns:xlink="http://www.w3.org/1999/xlink" width="1024" height="1024">
	<path fill="#210B51" d="M287.551 161.705C270.986 158.312 260.91 152.683 251.454 138.342C250.123 136.323 249.397 134.635 249.815 132.175C250.651 131.219 251.505 131.15 252.739 131.058C260.621 130.476 265.488 132.007 273.947 130.231C305.37 123.634 326.62 100.471 351.106 81.8239Q360.148 74.9878 369.785 69.0189Q379.422 63.0501 389.571 57.9997C460.9 22.6596 566.295 27.4093 633.493 70.5866C641.359 75.6411 649.12 81.0096 655.954 87.4177C665.149 96.0396 672.968 106.508 675.902 118.925C710.93 124.872 750.415 142.113 771.506 171.942C777.514 180.44 781.092 189.616 783.816 199.599C775.737 193.505 767.957 188.469 758.878 183.93C776.924 203.112 783.09 230.394 782.281 256.093C781.726 273.683 778.604 291.949 767.183 305.894C767.508 298.737 767.446 291.763 766.866 284.611C759.746 299.944 757.791 317.142 754.195 333.537C750.995 348.126 746.717 362.922 741.354 376.864C750.427 378.984 757.186 382.316 762.239 390.479C773.261 408.287 771.649 435.507 766.888 454.989C760.276 482.039 742.149 516.597 717.946 531.32C711.421 535.289 703.419 538.013 695.752 536.163C694.048 535.752 692.377 535.015 690.775 534.31C688.283 554.357 683.23 574.768 677.904 594.233C675.981 601.262 673.172 608.101 671.592 615.209C668.623 628.564 668.292 642.713 666.586 656.292Q662.775 684.715 659.67 713.224C658.688 722.602 657.461 732.122 657.319 741.552C671.965 746.79 685.755 754.179 699.076 762.159C709.552 768.434 717.203 773.903 728.838 778.583L833.61 820.864L879.77 839.637C916.544 854.544 953.022 870.136 982.249 897.795Q986.973 902.311 991.406 907.114Q995.838 911.917 999.961 916.987Q1004.08 922.057 1007.88 927.376Q1011.68 932.694 1015.14 938.24C1018.26 943.228 1020.74 948.753 1024 953.598L1024 979.946L1024 1004.68L1024 1024L989.787 1024L974.886 1024L966.465 1024L141.449 1024L126.804 1024L100.323 1024L88.4464 1024L0 1024L0 996.3L0 966.92L0 942.482C11.4778 928.641 22.827 915.537 36.9098 904.253C62.8292 883.485 93.0322 868.615 122.977 854.644C166.69 834.251 211.64 816.649 256.383 798.673C272.45 792.218 288.782 786.212 304.641 779.272C315.673 774.444 325.425 766.529 335.745 760.337C349.228 752.249 363.053 745.703 377.356 739.228C380.576 711.879 383.748 683.91 380.865 656.404C362.24 645.17 351.64 626.809 346.498 606.102C340.939 583.716 339.212 560.148 336.243 537.294C324.817 534.769 317.33 525.19 311.371 515.763C293.017 486.726 280.542 441.029 288.285 407.319C289.807 400.691 292.53 394.684 298.62 391.096C302.578 388.764 307.145 387.646 311.548 386.486C307.431 374.152 305.449 360.332 304.108 347.423C294.854 338.097 292.198 326.889 287.182 315.161C286.766 318.11 286.711 322.938 283.892 324.721C282.91 325.343 281.779 325.296 280.726 324.912C275.035 322.84 269.119 310.649 267.056 305.282C264.832 299.495 263.993 293.021 263.268 286.891C262.05 288.811 261.079 290.801 258.677 291.315C257.9 291.481 257.215 291.329 256.535 290.893C252.121 288.065 251.024 275.175 250.72 270.414C249.944 258.286 251.677 248.189 256.298 236.946C252.808 238.649 248.028 241.851 244.115 241.189C242.793 240.185 242.239 239.454 242.071 237.755C240.016 216.886 257.837 193.78 270.91 179.114Q278.946 170.138 287.551 161.705Z"/>
	<path fill="#584973" d="M695.591 821.533L697.31 822.737C697.479 823.897 697.447 824.832 696.849 825.889C696.279 826.894 695.339 827.6 694.271 827.881L693.118 827.489C694.202 825.608 694.858 823.568 695.591 821.533Z"/>
	<path fill="#584973" d="M550.85 871.575C552.989 871.421 555.267 870.961 557.254 871.908C558.375 873.078 558.501 873.93 558.741 875.457C556.453 875.518 554.417 875.593 552.202 876.27C551.808 874.563 550.351 873.323 550.85 871.575Z"/>
	<path fill="#584973" d="M572.908 868.697C574.726 868.355 576.744 867.745 578.576 868.15C579.852 869.489 579.872 870.719 580.289 872.498C578.302 872.831 575.62 872.934 574.125 874.42L572.908 868.697Z"/>
	<path fill="#E5C9E6" d="M355.559 261.341C360.43 260.341 365.551 260.027 370.495 259.481L372.24 261.732C370.378 262.406 368.061 262.38 366.463 263.458C362.796 263.053 359.162 262.126 355.559 261.341Z"/>
	<path fill="#584973" d="M569.325 869.762L570.112 874.575C567.669 874.998 565.328 875.278 563.101 876.43C562.734 874.512 561.772 872.522 561.089 870.682Q565.203 870.182 569.325 869.762Z"/>
	<path fill="#584973" d="M486.143 902.084C488.246 899.996 491.384 896.13 494.16 895.155C493.912 898.339 493.597 901.532 493.421 904.72C491.087 904.469 488.475 904.451 486.331 903.45C486.005 902.341 485.956 902.798 486.143 902.084Z"/>
	<path fill="#584973" d="M590.645 864.503L592.008 869.642C589.616 870.475 586.814 871.157 584.617 872.398L582.884 866.481L590.645 864.503Z"/>
	<path fill="#584973" d="M520.764 872.368L526.989 872.504L526.951 884.589C526.74 882.825 526.692 881.016 525.727 879.477C524.223 878.549 522.195 878.865 520.476 878.916C520.193 876.544 520.161 874.698 520.764 872.368Z"/>
	<path fill="#584973" d="M547.616 871.747C548.684 873.645 548.495 876.32 548.484 878.472C546.401 878.48 543.706 878.168 541.758 878.91C541.253 876.75 541.262 874.25 541.064 872.027C543.237 871.972 545.457 872.009 547.616 871.747Z"/>
	<path fill="#584973" d="M535.358 872.278C536.799 872.511 537.056 872.34 537.948 873.464C538.169 875.114 538.052 876.671 537.941 878.328C535.913 878.579 533.787 878.565 532.139 879.877C531.383 881.144 531.396 882.101 531.374 883.522C530.958 879.887 531.035 876.177 530.992 872.521L535.358 872.278Z"/>
	<path fill="#7B6896" d="M671.747 795.442C674.373 797.292 677.115 799.005 679.802 800.766C679.739 802.727 679.445 804.354 678.879 806.231C675.884 804.641 672.996 802.655 670.104 800.874L671.747 795.442Z"/>
	<path fill="#413164" d="M341.33 832.451C350.143 829.683 357.802 821.479 365.418 816.347C361.515 821.52 356.651 824.965 351.978 829.327C349.574 831.256 347.077 833.829 344.056 834.611C342.728 834.291 342.494 834.174 341.659 833.012C341.533 832.836 341.44 832.638 341.33 832.451Z"/>
	<path fill="#E5C9E6" d="M323.177 399.545C327.945 404.35 329.292 409.047 329.275 415.725C329.268 418.792 329.284 421.951 329.012 425.001C326.429 422.258 323.302 403.988 323.177 399.545Z"/>
	<path fill="#584973" d="M682.744 825.68Q688.043 828.95 693.386 832.148L688.74 838.1C685.611 835.9 682.26 833.777 679.733 830.868Q681.19 828.246 682.744 825.68Z"/>
	<path fill="#584973" d="M667.912 759.897C669.376 760.412 670.812 761.057 672.202 761.747C675.777 763.521 692.516 771.561 693.493 774.437C692.918 774.706 692.366 774.807 691.749 774.945C682.708 772.737 673.621 767.249 667.912 759.897Z"/>
	<path fill="#584973" d="M510.209 878.413C512.631 876.609 515.018 874.713 517.644 873.215C517.362 876.722 517.4 880.72 516.578 884.12C516.587 882.21 516.653 880.959 515.613 879.314L514.845 879.119C513.064 880.465 512.564 884.035 512.281 886.156C511.775 889.943 510.926 903.04 512.708 905.966L514.054 906.684C512.436 906.412 510.657 906.321 509.276 905.376C507.669 897.037 510.389 887.445 510.224 878.912L510.209 878.413Z"/>
	<path fill="#413164" d="M500.076 870.862Q503.966 871.245 507.86 871.581L506.029 881.817C503.176 884.381 500.57 887.132 497.952 889.932C498.92 883.59 499.866 877.282 500.076 870.862Z"/>
	<path fill="#7B6896" d="M514.054 906.684L512.708 905.966C510.926 903.04 511.775 889.943 512.281 886.156C512.564 884.035 513.064 880.465 514.845 879.119L515.613 879.314C516.653 880.959 516.587 882.21 516.578 884.12C516.477 891.542 516.547 899.023 515.987 906.425L514.054 906.684Z"/>
	<path fill="#7B6896" d="M679.733 830.868C674.316 826.92 667.423 822.491 662.997 817.531C662.999 817.082 662.973 816.517 663.117 816.09C663.508 814.925 663.861 814.523 664.952 814.091C671.102 817.118 676.975 821.903 682.744 825.68Q681.19 828.246 679.733 830.868Z"/>
	<path fill="#413164" d="M357.65 789.911L358.815 789.218C360.52 790.299 361.316 793.055 362.128 794.885C357.801 797.104 332.696 811.541 330.636 811.782L330.638 811.068C331.552 810.164 332.251 809.669 333.391 809.078C336.473 807.481 338.754 804.775 341.803 803.048C347.542 799.971 352.938 794.401 357.65 789.911Z"/>
	<path fill="#584973" d="M673.036 770.808C677.312 772.567 698.693 782.255 700.743 784.295C701.913 785.459 701.872 786.098 701.943 787.708C697.23 787.535 679.256 777.839 673.786 775.306C672.819 773.924 673.028 772.42 673.036 770.808Z"/>
	<defs>
		<linearGradient id="gradient_0" gradientUnits="userSpaceOnUse" x1="284.07538" y1="148.73044" x2="282.50665" y2="139.26447">
			<stop offset="0" stop-color="#DEB7EC"/>
			<stop offset="1" stop-color="#F2D6F4"/>
		</linearGradient>
	</defs>
	<path fill="url(#gradient_0)" d="M263.338 142.502C265.391 141.207 266.449 141.415 268.759 141.938C276.736 143.746 281.472 145.895 290.017 145.452C295.135 145.187 301.686 143.078 306.642 143.897C302.739 146.075 298.246 147.438 293.863 148.251C282.771 150.307 272.732 148.875 263.338 142.502Z"/>
	<path fill="#584973" d="M679.802 800.766C687.233 805.265 694.442 810.077 702.095 814.203L699.799 819.504C692.97 815.549 684.629 811.645 678.879 806.231C679.445 804.354 679.739 802.727 679.802 800.766Z"/>
	<path fill="#7B6896" d="M497.952 889.932C500.57 887.132 503.176 884.381 506.029 881.817C505.473 889.751 505.046 897.744 504.029 905.635C501.645 905.458 499.273 905.344 496.932 904.837C496.916 899.854 496.645 894.786 497.952 889.932Z"/>
	<path fill="#584973" d="M674.012 779.352C681.835 782.806 696.732 789.234 703.256 793.796C704.318 795.605 704.329 797.614 704.534 799.66C698.575 797.607 677.396 787.883 674.343 783.04C673.422 781.579 673.754 780.921 674.012 779.352Z"/>
	<path fill="#413164" d="M381.643 822.853C383.171 823.268 384.395 824.581 385.588 825.58C382.621 829.107 379.177 832.354 376.03 835.736Q368.54 843.83 361.336 852.179L360.855 852.347C359.329 852.129 358.161 850.712 357.052 849.717C364.618 840.308 373.797 832.086 381.643 822.853Z"/>
	<defs>
		<linearGradient id="gradient_1" gradientUnits="userSpaceOnUse" x1="704.23901" y1="805.90405" x2="672.29138" y2="791.11005">
			<stop offset="0" stop-color="#5E3387"/>
			<stop offset="1" stop-color="#745E99"/>
		</linearGradient>
	</defs>
	<path fill="url(#gradient_1)" d="M673.354 786.965C678.264 790.121 702.538 802.446 704.489 805.211C704.826 807.123 704.285 808.82 703.844 810.675C694.236 803.153 682.439 799.091 672.842 791.882C672.261 790.254 672.948 788.579 673.354 786.965Z"/>
	<path fill="#413164" d="M366.613 804.934C367.599 806.227 368.495 807.595 369.413 808.937C360.282 816.875 349.727 822.845 340.248 830.261C339.269 829.05 338.398 827.733 337.498 826.461C347.193 819.229 357.177 812.536 366.613 804.934Z"/>
	<path fill="#413164" d="M394.325 833.694C395.855 834.279 396.886 834.833 397.62 836.296C397.079 837.507 378.647 862.931 376.517 865.508L371.959 861.953Q383.347 847.985 394.325 833.694Z"/>
	<path fill="#413164" d="M417.376 847.87L422.225 850.178C415.943 859.732 410.226 869.654 404.431 879.508C403.837 879.925 403.265 879.882 402.559 879.965C401.578 879.395 401.055 879.188 400.851 877.935C400.069 873.134 414.185 852.856 417.376 847.87Z"/>
	<path fill="#7B6896" d="M520.476 878.916C522.195 878.865 524.223 878.549 525.727 879.477C526.692 881.016 526.74 882.825 526.951 884.589C527.37 891.769 528.339 899.471 526.947 906.577L520.51 906.593Q520.364 892.755 520.476 878.916Z"/>
	<path fill="#413164" d="M433.444 854.714L438.629 856.316C433.179 866.933 428.68 877.992 423.209 888.61C421.628 887.765 419.688 887.229 418.001 886.591C423.139 875.9 429.03 865.762 433.444 854.714Z"/>
	<defs>
		<linearGradient id="gradient_2" gradientUnits="userSpaceOnUse" x1="694.6925" y1="823.17963" x2="667.19165" y2="809.04572">
			<stop offset="0" stop-color="#63438F"/>
			<stop offset="1" stop-color="#9189AF"/>
		</linearGradient>
	</defs>
	<path fill="url(#gradient_2)" d="M668.828 804.736C677.414 810.778 686.321 816.594 695.591 821.533C694.858 823.568 694.202 825.608 693.118 827.489C683.709 822.357 674.99 815.869 666.225 809.72L668.828 804.736Z"/>
	<path fill="#413164" d="M401.224 838.707C402.813 839.341 404.27 840.334 405.741 841.208C398.622 851.145 391.804 861.12 385.82 871.79C384.204 870.565 382.442 869.472 380.765 868.328C387.812 858.638 394.294 848.494 401.224 838.707Z"/>
	<path fill="#413164" d="M408.983 843.276L413.856 846.113C406.941 855.52 401.136 866.014 394.88 875.883C393.191 875.58 391.549 874.495 390.023 873.713C396.418 863.61 402.49 853.321 408.983 843.276Z"/>
	<path fill="#413164" d="M387.528 827.474C389.078 828.655 390.561 829.953 392.068 831.189C383.988 840.336 375.959 849.4 368.444 859.028C366.777 858.044 365.296 856.704 363.786 855.493C372.396 846.776 380.009 837.123 387.528 827.474Z"/>
	<path fill="#7B6896" d="M541.758 878.91C543.706 878.168 546.401 878.48 548.484 878.472C549.647 887.625 550.47 896.914 552.223 905.972L547.893 906.364C546.884 906.294 546.371 906.21 545.521 905.65C542.366 899.312 542.391 886.151 541.758 878.91Z"/>
	<path fill="#413164" d="M490.182 869.187L497.097 870.357C496.164 875.891 495.269 881.447 494.703 887.032C494.428 889.736 494.584 892.478 494.16 895.155C491.384 896.13 488.246 899.996 486.143 902.084C487.153 891.077 488.713 880.139 490.182 869.187Z"/>
	<path fill="#7B6896" d="M580.289 872.498L587.967 900.712C585.48 901.203 582.961 901.633 580.496 902.227C578.539 892.978 576.868 883.468 574.125 874.42C575.62 872.934 578.302 872.831 580.289 872.498Z"/>
	<path fill="#7B6896" d="M531.374 883.522C531.396 882.101 531.383 881.144 532.139 879.877C533.787 878.565 535.913 878.579 537.941 878.328L540.022 906.408L533.881 906.736C533.29 906.662 532.922 906.482 532.384 906.237C531.034 901.67 531.576 889.094 531.374 883.522Z"/>
	<path fill="#7B6896" d="M563.101 876.43C565.328 875.278 567.669 874.998 570.112 874.575C571.843 884.22 574.026 893.74 575.956 903.34L568.727 904.207C567.116 894.955 565.716 885.465 563.101 876.43Z"/>
	<path fill="#7B6896" d="M552.202 876.27C554.417 875.593 556.453 875.518 558.741 875.457C560.793 885.253 561.937 895.195 564.25 904.949C561.804 905.215 559.36 905.518 556.901 905.625C555.318 895.826 554.017 886.044 552.202 876.27Z"/>
	<defs>
		<linearGradient id="gradient_3" gradientUnits="userSpaceOnUse" x1="667.54578" y1="860.18884" x2="647.81683" y2="834.75427">
			<stop offset="0" stop-color="#6E5F94"/>
			<stop offset="1" stop-color="#8578A1"/>
		</linearGradient>
	</defs>
	<path fill="url(#gradient_3)" d="M647.658 833.784C650.582 834.715 667.551 854.604 671.082 858.453L667.315 861.961C666.503 862.566 666.963 862.341 665.919 862.602C660.754 858.95 649.172 842.827 645.106 836.963C645.28 835.629 646.705 834.72 647.658 833.784Z"/>
	<path fill="#413164" d="M362.43 797.695C363.746 798.731 364.663 800.639 365.552 802.068C355.357 808.824 345.783 816.686 335.787 823.764C334.67 822.172 333.793 820.335 332.847 818.633C343.089 812.166 352.208 804.117 362.43 797.695Z"/>
	<path fill="#413164" d="M425.272 851.178L430.268 853.44C425.016 864.043 419.128 874.237 414.017 884.95C412.102 883.95 410.171 883.221 408.148 882.484Q416.465 866.697 425.272 851.178Z"/>
	<path fill="#413164" d="M441.252 857.378C443.493 858.248 445.633 859.085 447.995 859.583C443.815 868.93 436.507 881.934 434.75 891.8C432.355 890.965 429.852 890.368 427.407 889.692C433.805 880.544 438.694 868.183 441.252 857.378Z"/>
	<path fill="#7B6896" d="M584.617 872.398C586.814 871.157 589.616 870.475 592.008 869.642Q595.532 883.684 599.366 897.644L591.791 899.681C589.94 890.578 588.28 880.983 584.617 872.398Z"/>
	<path fill="#413164" d="M451.904 860.636C453.825 861.397 455.726 862.119 457.709 862.703Q453.971 871.996 450.545 881.408C448.953 885.873 447.595 890.591 445.719 894.926L439.682 892.845C442.442 881.833 448.425 871.516 451.904 860.636Z"/>
	<defs>
		<linearGradient id="gradient_4" gradientUnits="userSpaceOnUse" x1="682.89185" y1="843.20612" x2="658.89697" y2="822.53906">
			<stop offset="0" stop-color="#6E5B96"/>
			<stop offset="1" stop-color="#9189A9"/>
		</linearGradient>
	</defs>
	<path fill="url(#gradient_4)" d="M659.361 820.751C666.748 824.173 678.562 835.676 686.341 841.127L682.524 845.712C682.044 846.119 682.371 845.903 681.445 846.177C675.78 842.959 661.142 829.815 657.359 824.542C657.345 823.126 658.573 821.864 659.361 820.751Z"/>
	<path fill="#413164" d="M460.797 863.503C462.736 864.101 464.818 864.395 466.81 864.785C465.445 868.778 457.54 897.063 456.81 897.911L450.267 895.815C454.296 885.276 457.476 874.285 460.797 863.503Z"/>
	<defs>
		<linearGradient id="gradient_5" gradientUnits="userSpaceOnUse" x1="676.54968" y1="851.16077" x2="651.64264" y2="830.76862">
			<stop offset="0" stop-color="#6F6194"/>
			<stop offset="1" stop-color="#8679A1"/>
		</linearGradient>
	</defs>
	<path fill="url(#gradient_5)" d="M653.879 827.346C662.913 833.838 670.89 842.77 679.374 850.062L675.344 854.382L674.53 854.754C669.016 852.231 655.57 836.12 650.648 830.786L653.879 827.346Z"/>
	<path fill="#7B6896" d="M634.53 844C639.683 848.753 648.763 866.154 652.915 873.177L648.682 876.111C648.189 876.364 647.693 876.355 647.148 876.416C642.774 872.453 634.004 853.13 630.632 846.618L634.53 844Z"/>
	<defs>
		<linearGradient id="gradient_6" gradientUnits="userSpaceOnUse" x1="614.78802" y1="855.84308" x2="630.53644" y2="884.7525">
			<stop offset="0" stop-color="#6F5C8E"/>
			<stop offset="1" stop-color="#8B7BA4"/>
		</linearGradient>
	</defs>
	<path fill="url(#gradient_6)" d="M613.318 855.683C615.228 854.952 617.164 854.261 619.041 853.45C624.301 863.581 628.52 874.384 633.193 884.804C631.086 885.81 628.571 886.725 626.727 888.152C622.677 877.055 618.432 866.339 613.318 855.683Z"/>
	<path fill="#7B6896" d="M641.493 838.998C648.886 845.499 656.748 858.163 662.736 866.279L658.238 869.601C657.26 870.272 657.804 870.111 656.602 870.07C651.278 864.894 642.173 849.033 638.303 841.954C638.817 840.577 640.321 839.867 641.493 838.998Z"/>
	<path fill="#7B6896" d="M627.543 848.546C631.942 853.757 639.957 872.557 643.297 879.402L638.111 882.557L637.256 882.281C634.934 878.922 633.384 874.77 631.665 871.07L622.533 851.476C624.179 850.464 625.874 849.52 627.543 848.546Z"/>
	<path fill="#413164" d="M469.319 865.497C471.843 866.068 474.491 866.33 477.054 866.709C473.649 877.773 471.302 889.054 468.833 900.352C466.832 900.666 463.906 899.639 461.882 899.222C463.987 891.247 470.095 872.65 469.319 865.497Z"/>
	<defs>
		<linearGradient id="gradient_7" gradientUnits="userSpaceOnUse" x1="598.18744" y1="862.71448" x2="606.59796" y2="894.57819">
			<stop offset="0" stop-color="#705B8B"/>
			<stop offset="1" stop-color="#8471A1"/>
		</linearGradient>
	</defs>
	<path fill="url(#gradient_7)" d="M600.189 861.26C603.94 872.361 607.116 883.664 610.992 894.718C608.63 895.102 606.272 895.804 603.947 896.375C600.816 885.37 597.509 874.436 594.521 863.388C596.452 862.765 598.311 862.027 600.189 861.26Z"/>
	<path fill="#413164" d="M480.244 867.331L487.587 868.736C484.654 880.025 482.48 891.3 480.8 902.837C478.169 902.385 475.569 901.785 472.962 901.211C475.776 890.009 477.951 878.649 480.244 867.331Z"/>
	<path fill="#7B6896" d="M610.098 857.223C614.186 867.898 618.218 879.414 622.753 889.825C620.357 890.825 617.821 891.741 615.503 892.9C613.912 889.196 612.844 885.015 611.56 881.176C609.128 873.901 606.557 866.837 603.406 859.838C605.906 859.397 607.891 858.409 610.098 857.223Z"/>
	<path fill="#AF87F8" d="M256.195 213.072C263.513 211.59 268.647 205.136 276.318 203.536C268.786 214.266 261.552 227.953 248.906 233.114C250.364 226.865 251.864 218.03 256.195 213.072Z"/>
	<path fill="#AF87F8" d="M303.67 433.709C303.749 433.524 303.83 433.339 303.906 433.152C306.38 427.144 306.54 420.608 311.36 415.795C316.047 420.168 319.55 423.954 321.76 430.107C320.607 433.851 318.542 437.105 317.285 440.733C312.481 438.812 308.088 436.386 303.67 433.709Z"/>
	<path fill="#413164" d="M374.256 814.787L380.713 821.246C371.209 829.211 362.666 837.964 354.281 847.086L350.49 843.055C358.315 836.268 368.228 829.356 373.836 820.582L373.819 819.713C372.455 819.274 370.993 819.835 369.762 820.456C361.799 824.474 356.027 837.33 347.148 838.675L346.564 838.14C347.468 834.767 351.1 832.353 353.671 830.229C360.315 827.926 363.752 819.14 370.167 816.759C371.472 816.275 372.576 815.755 373.786 815.061L374.256 814.787Z"/>
	<path fill="#FEFEFE" d="M966.465 1024C966.584 1015.3 967.473 1006.64 967.536 997.91C967.592 990.067 967.64 982.196 967.275 974.359C967.031 969.125 966.279 963.667 966.53 958.443C966.598 957.03 966.755 956.153 967.445 954.923C971.151 977.903 972.995 1000.83 974.886 1024L966.465 1024Z"/>
	<path fill="#FEFEFE" d="M324.271 436.331C324.91 436.887 324.686 436.637 325.309 437.527C326.765 439.609 327.582 442.33 328.051 444.802C329.556 452.749 329.139 461.073 329.838 469.121C330.283 474.24 332.548 479.923 331.614 485.037L330.96 485.265L330.1 484.308C327.427 480.555 324.854 476.782 322.991 472.549C317.887 460.952 319.873 447.822 324.271 436.331Z"/>
	<path fill="#FEFEFE" d="M354.919 761.357C354.34 765.086 354.286 768.77 354.856 772.5C344.712 779.361 334.043 785.512 323.526 791.784C322.995 788.858 322.609 785.954 322.287 782.998C331.851 775.165 344.427 768.333 354.919 761.357Z"/>
	<path fill="#413164" d="M324.471 799.166C331.95 793.865 348.27 781.659 356.948 780.691L356.167 781.163C355.224 781.727 354.272 782.144 353.259 782.569L353.361 782.812L353.989 782.863C355.434 782.991 356.527 782.988 357.719 783.913C358.634 785.232 358.653 785.866 358.689 787.408C358.194 788.326 357.811 788.897 357.009 789.569C353.593 791.971 343.469 797.141 341.398 800.006C336.344 802.865 332.082 806.133 327.701 809.948C326.844 806.572 326.244 802.13 324.471 799.166Z"/>
	<path fill="#FEFEFE" d="M639.831 87.9243C639.99 87.9694 640.152 88.0031 640.308 88.0595C647.111 90.5305 656.866 102.916 660.26 109.291C667.833 123.52 665.209 139.093 660.65 153.801L657.975 159.297C661.268 130.965 656.008 111.32 639.831 87.9243Z"/>
	<path fill="#AF87F8" d="M303.592 202.1C300.036 205.751 296.69 209.393 292.258 212.017C288.042 212.888 284.485 218.972 282.25 222.353C274.309 234.364 267.002 248.64 263.813 262.754C262.221 269.802 261.612 277.295 259.454 284.18C258.184 276.708 256.8 269.602 257.538 261.99C260.207 257.99 260.221 250.756 261.658 246.043C267.869 225.675 285.528 211.799 303.592 202.1Z"/>
	<path fill="#E5C9E6" d="M304.553 241.939C308.038 245.435 311.307 249.325 313.694 253.666C302.314 274.074 297.975 291.381 297.265 314.667C290.711 287.778 294.036 267.198 304.553 241.939Z"/>
	<path fill="#AF87F8" d="M372.24 261.732C383.704 260.634 395.305 261.402 406.778 259.875C436.927 255.863 464.509 237.925 486.785 218.09C494.167 211.518 500.794 201.238 509.832 197.059C505.885 202.981 500.806 208.237 495.93 213.399C474.582 236.002 447.156 256.608 416.192 262.938C400.309 266.185 382.326 266.626 366.463 263.458C368.061 262.38 370.378 262.406 372.24 261.732Z"/>
	<path fill="#E5C9E6" d="M307.984 224.979C310.098 223.824 311.534 223.783 313.858 224.427C319.421 225.97 324.583 229.975 329.589 232.779C333.739 235.103 338.438 236.964 343.039 238.164C356.746 241.741 370.572 243.991 384.767 243.96C390.966 243.946 398.066 242.437 404.14 243.442C394.63 248.406 383.585 251.873 372.906 253.002C348.168 255.617 326.242 239.629 307.984 224.979Z"/>
	<path fill="#FEFEFE" d="M335.189 526.488C335.179 527.817 335.47 528.453 334.531 529.472C332.929 528.964 331.519 527.699 330.235 526.632C316.862 515.519 303.575 481.226 298.841 464.015Q297.1 457.743 295.925 451.341Q294.75 444.939 294.15 438.458C293.081 426.656 291.397 408.263 299.674 398.762C302.47 395.553 306.477 393.021 310.828 392.871C316.049 392.693 319.627 396.271 323.177 399.545C323.302 403.988 326.429 422.258 329.012 425.001L328.753 432.224C324.713 422.668 320.472 415.363 313.056 407.974C313.405 406.45 313.601 406.193 313.005 404.777C311.368 403.644 309.834 403.894 307.98 404.226C306.556 404.481 305.145 404.772 303.756 405.183C296.903 412.955 294.815 422.419 295.489 432.614Q295.834 437.408 296.679 442.138Q297.525 446.869 298.863 451.485C302.957 465.796 321.639 515.89 331.065 524.231C332.259 525.287 333.731 525.891 335.189 526.488Z"/>
	<path fill="#AF87F8" d="M297.401 223.716Q309.044 234.235 320.818 244.606L313.694 253.666C311.307 249.325 308.038 245.435 304.553 241.939L305.012 240.334C301.114 241.641 296.916 250.15 295.129 253.743C286.386 271.323 282.374 297.351 281.27 316.867C274.703 305.229 271.019 293.547 271.077 280.126C273.748 276.768 276.376 259.979 278.848 254.174C283.516 243.209 291.117 233.766 297.401 223.716Z"/>
	<path fill="#E5C9E6" d="M303.756 405.183C305.145 404.772 306.556 404.481 307.98 404.226C309.834 403.894 311.368 403.644 313.005 404.777C313.601 406.193 313.405 406.45 313.056 407.974C310.989 407.95 309.322 407.83 307.751 409.405C303.675 413.491 301.913 422.182 302.15 427.851C302.232 429.815 302.627 432.018 303.67 433.709C308.088 436.386 312.481 438.812 317.285 440.733C313.511 453.814 312.931 466.322 319.661 478.564C322.459 483.654 326.458 487.661 329.528 492.496C335.044 501.182 334.467 516.316 335.189 526.488C333.731 525.891 332.259 525.287 331.065 524.231C321.639 515.89 302.957 465.796 298.863 451.485Q297.525 446.869 296.679 442.138Q295.834 437.408 295.489 432.614C294.815 422.419 296.903 412.955 303.756 405.183Z"/>
	<path fill="#FEFEFE" d="M316.759 256.888C316.928 262.84 314.763 268.977 313.591 274.783C311.334 285.954 309.676 306.865 313.073 317.438C320.523 322.583 326.482 328.438 331.459 336.025C333.344 338.9 334.964 342.02 336.983 344.791C338.38 354.207 333.075 363.833 331.352 372.926C329.798 381.133 329.51 389.889 329.504 398.23C328.2 396.879 326.508 395.465 325.41 393.969L317.785 388.522Q314.691 379.255 312.406 369.756C304.909 338.18 299.149 285.454 316.759 256.888Z"/>
	<path fill="#E5C9E6" d="M313.073 317.438C320.523 322.583 326.482 328.438 331.459 336.025C333.344 338.9 334.964 342.02 336.983 344.791C338.38 354.207 333.075 363.833 331.352 372.926C329.798 381.133 329.51 389.889 329.504 398.23C328.2 396.879 326.508 395.465 325.41 393.969C326.759 391.342 325.795 385.959 325.547 383.029C324.792 374.107 323.871 365.117 322.095 356.335C319.456 343.287 315.603 330.532 313.073 317.438Z"/>
	<path fill="#AF87F8" d="M322.475 246.759C327.2 250.489 331.908 253.882 337.154 256.866C339.14 257.996 344.098 260.027 345.388 261.596C345.504 261.739 345.781 262.591 345.797 262.691C345.859 263.057 345.83 263.786 345.822 264.175L344.446 263.812C343.591 262.933 343.668 262.646 342.389 262.554C341.982 263.086 341.742 263.531 341.631 264.2C340.624 270.279 341.147 276.98 340.672 283.171C339.093 303.747 337.371 324.143 336.983 344.791C334.964 342.02 333.344 338.9 331.459 336.025C326.482 328.438 320.523 322.583 313.073 317.438C309.676 306.865 311.334 285.954 313.591 274.783C314.763 268.977 316.928 262.84 316.759 256.888C318.533 253.404 320.376 250.057 322.475 246.759Z"/>
	<path fill="#FEFEFE" d="M714.128 787.04C725.677 791.057 736.934 796.029 748.293 800.565L812.498 826.174Q847.729 840.068 882.708 854.588C898.265 861.093 913.974 867.566 928.925 875.385C934.619 878.362 946.744 884.533 950.677 889.011C951.795 890.284 952.249 892.194 952.743 893.776C947.086 892.293 940.232 887.708 934.59 885.382L880.45 863.453C825.862 841.183 770.79 820 715.934 798.395C715.496 794.574 714.832 790.82 714.128 787.04Z"/>
	<path fill="#FEFEFE" d="M50.1569 910.809C65.6353 898.25 83.1468 889.139 100.813 880.067C140.873 859.494 182.584 842.476 224.281 825.568Q268.445 807.917 311.989 788.789L312.645 797.566C290.341 806.901 268.343 816.992 246.079 826.436C200.405 845.809 154.568 864.608 110.308 887.113C94.6836 895.058 73.7425 904.801 61.3823 917.357C58.2365 914.504 53.9365 912.703 50.1569 910.809Z"/>
	<path fill="#FEFEFE" d="M344.462 340.838C345.919 342.944 345.949 345.189 346.058 347.674C346.416 355.78 345.444 364.167 345.068 372.283Q344.081 392.076 344.591 411.887C345.529 442.818 348.538 473.401 351.376 504.199C354.26 535.487 356.49 567.199 364.201 597.759C366.321 606.161 370.218 620.407 375.09 627.325C385.851 642.606 404.612 652.859 419.653 663.495C427.535 669.069 435.263 675.217 443.646 680.011C449.183 683.177 455.05 685.416 460.961 687.737C462.537 688.355 464.575 688.653 464.926 690.573Q462.803 690.389 460.712 689.979Q456.195 689.162 451.826 687.756Q447.457 686.349 443.312 684.377C425.884 676.168 376.377 644.278 366.239 628.638C344.086 594.464 333.683 422.067 336.68 376.881C337.491 364.642 341.652 352.731 344.462 340.838Z"/>
	<path fill="#413164" d="M312.645 797.566C314.325 804.351 315.902 811.177 318.596 817.65Q268.623 832.949 219.526 850.859Q170.429 868.769 122.343 889.241C110.571 894.162 99.2812 899.221 88.0304 905.27C80.8855 909.111 73.6328 914.111 66.2052 917.247C64.4599 917.984 63.1346 918.169 61.3823 917.357C73.7425 904.801 94.6836 895.058 110.308 887.113C154.568 864.608 200.405 845.809 246.079 826.436C268.343 816.992 290.341 806.901 312.645 797.566Z"/>
	<path fill="#584973" d="M960.692 895.265C981.968 912.059 998.143 931.34 1011.1 955.127C1015.56 963.312 1019.32 971.882 1024 979.946L1024 1004.68L1024 1024L989.787 1024C987.98 1016.6 987.269 1008.85 986.059 1001.32Q982.816 981.167 978.724 961.169C974.776 942.127 968.199 923.732 964.687 904.584C962.868 901.534 961.67 898.695 960.692 895.265Z"/>
	<path fill="#FEFEFE" d="M960.692 895.265C981.968 912.059 998.143 931.34 1011.1 955.127C1015.56 963.312 1019.32 971.882 1024 979.946L1024 1004.68C1020.29 999.108 1017.84 985.461 1015.06 978.479C1003.39 949.186 986.883 926.693 964.687 904.584C962.868 901.534 961.67 898.695 960.692 895.265Z"/>
	<path fill="#FEFEFE" d="M518.357 102.727C527.614 102.439 537.009 103.576 546.228 104.37C523.745 108.761 502.742 114.925 482.951 126.8C437.137 154.289 419.373 193.287 358.252 192.965C348.344 191.701 339.309 189.043 330.439 184.434C340.191 185.299 349.46 184.053 358.652 180.634C374.358 174.793 388.103 163.897 401.374 153.908C416.121 142.809 430.835 131.272 447.125 122.481C469.49 110.411 493.06 104.326 518.357 102.727Z"/>
	<path fill="#AF87F8" d="M736.357 287.916L736.805 288.384C735.122 294.243 729.659 300.096 727.397 306.55C736.302 304.507 744.597 300.902 752.902 297.197C746.846 324.631 739.657 351.241 731.599 378.152Q727.868 379.446 724.279 381.095C704.165 390.468 693.601 410.11 686.156 429.956L685.905 423.608Q685.989 403.563 685.675 383.52C685.536 372.787 686.192 361.815 683.561 351.319C680.795 340.288 675.389 330.08 669.871 320.214C675.38 316.699 680.08 312.649 684.801 308.168C683.549 311.176 682.149 314.13 680.8 317.096C695.324 312.191 703.963 301.817 712.522 289.609C711.188 293.111 708.869 297.788 709.14 301.583C709.598 302.142 709.68 302.529 710.452 302.627C716.93 303.449 731.271 291.8 736.357 287.916Z"/>
	<path fill="#FEFEFE" d="M370.495 259.481C405.989 253.002 436.455 234.425 461.431 208.8C474.987 194.892 487.634 180.089 502.352 167.359C512.977 158.169 524.758 149.647 537.979 144.656C557.483 137.293 577.549 138.995 596.344 147.53C615.947 156.432 628.813 169.296 636.359 189.442C630.525 198.734 623.331 206.17 615.503 213.751Q615.552 211.512 615.564 209.272C615.632 196.038 613.291 182.212 603.537 172.488C595.179 164.156 583.427 160.499 571.805 160.507C555.336 160.518 539.256 168.135 527.262 179.123C521.149 184.724 515.696 191.174 509.832 197.059C500.794 201.238 494.167 211.518 486.785 218.09C464.509 237.925 436.927 255.863 406.778 259.875C395.305 261.402 383.704 260.634 372.24 261.732L370.495 259.481Z"/>
	<path fill="#413164" d="M43.825 916.187C47.4074 918.142 50.797 920.433 54.2149 922.658C84.5573 942.982 106.103 968.827 119.638 1002.86C122.313 1009.58 125.341 1016.91 126.804 1024L100.323 1024L88.4464 1024L0 1024L0 996.3L0 966.92C11.6335 946.743 25.994 930.945 43.825 916.187Z"/>
	<path fill="#210B51" d="M71.2025 965.742C85.6182 981.431 94.8953 1003.53 100.323 1024L88.4464 1024C83.44 1004.22 78.2999 984.884 71.2025 965.742Z"/>
	<path fill="#FEFEFE" d="M43.825 916.187C47.4074 918.142 50.797 920.433 54.2149 922.658Q50.7495 925.413 47.4321 928.344Q44.1147 931.276 40.9542 934.376Q37.7938 937.476 34.7989 940.736Q31.8041 943.996 28.9828 947.408Q26.1616 950.819 23.5217 954.373Q20.8817 957.927 18.4302 961.613Q15.9787 965.299 13.7223 969.108Q11.4659 972.917 9.41069 976.838C6.05594 983.104 3.72166 990.346 0 996.3L0 966.92C11.6335 946.743 25.994 930.945 43.825 916.187Z"/>
	<path fill="#FEFEFE" d="M674.737 128.812C709.254 135.649 741.731 150.468 764.02 178.636C754.24 174.013 744.201 169.513 733.711 166.769C742.247 173.756 750.06 180.266 755.933 189.77C767.635 208.705 775.402 236.705 769.934 258.81C765.606 276.307 750.052 289.735 735.238 298.737C748.372 280.995 757.036 262.888 757.548 240.495C747.192 265.469 736.52 279.637 715.6 296.861C723.621 276.365 727.474 257.07 719.24 235.932C717.362 268.796 711.648 286.034 687.66 309.02C689.569 304.647 691.474 300.242 692.941 295.699C698.782 277.607 696.274 259.682 687.68 242.912C690.37 262.172 689.841 275.926 682.67 294.139C679.617 300.93 675.969 307.354 672.137 313.727C672.694 309.515 673.15 305.29 673.158 301.035C673.213 271.09 650.382 238.535 629.894 218.118C645.177 224.194 656.524 233.408 665.424 247.286C668.627 252.281 671.459 257.844 675.222 262.426C675.34 262.57 675.462 262.71 675.582 262.852C674.265 257.541 672.2 252.3 669.687 247.445C659.861 228.467 644.447 217.899 624.473 211.572C629.825 207.463 635.165 203.108 641.141 199.942C653.733 199.896 664.665 202.678 676.256 207.421C666.582 198.361 657.31 194.735 644.162 193.805Q650.029 185.843 655.48 177.591C660.749 177.398 665.999 176.639 671.287 176.474C684.846 176.052 696.513 179.667 709.115 184.264C694.089 174.041 677.196 170.048 659.127 171.909Q663.099 165.583 666.818 159.104C683.214 156.972 697.202 160.276 712.938 164.146C697.401 155.763 686.387 153.59 668.857 154.569C669.528 151.768 670.304 149.253 671.46 146.609C687.882 144.624 702.591 146.336 718.897 147.703C703.888 141.498 687.971 139.892 672.154 143.429Q673.292 136.093 674.737 128.812Z"/>
	<path fill="#FEFEFE" d="M657.129 644.877C655.605 657.546 653.685 670.161 652.16 682.827Q649.293 708.664 646.792 734.54C645.332 749.628 643.809 764.816 643.34 779.974C647.516 771.588 648.96 763.256 650.552 754.114C656.384 757.868 660.077 761.998 661.697 768.946C664.925 782.789 658.443 800.137 650.983 811.615C633.95 837.82 601.882 851.375 572.21 857.485C549.335 862.196 517.504 864.548 494.667 859.369C489.69 852.919 483.793 847.34 479.212 840.544C467.412 823.035 461.401 797.553 458.763 776.717C464.506 777.25 470.216 778.17 475.969 778.62C535.481 783.271 601.524 711.411 637.604 670.872C640.853 667.221 644.234 663.482 647.069 659.497C650.185 655.119 652.726 648.483 656.803 645.131C656.909 645.043 657.021 644.962 657.129 644.877Z"/>
	<path fill="#E5C9E6" d="M401.676 670.585C422.509 683.047 438.563 697.265 463.752 700.753C486.992 703.97 512.92 703.746 535.747 697.898C565.503 690.274 614.819 660.514 639.9 642.77C647.173 637.624 653.798 631.579 660.9 626.19Q658.916 635.514 657.129 644.877C657.021 644.962 656.909 645.043 656.803 645.131C652.726 648.483 650.185 655.119 647.069 659.497C644.234 663.482 640.853 667.221 637.604 670.872C601.524 711.411 535.481 783.271 475.969 778.62C470.216 778.17 464.506 777.25 458.763 776.717C461.401 797.553 467.412 823.035 479.212 840.544C483.793 847.34 489.69 852.919 494.667 859.369C458.183 854.947 418.878 841.679 391.424 816.585C376.52 802.962 365.208 786.147 364.295 765.51C367.933 761.659 371.941 758.293 376.016 754.926C375.912 766.718 376.432 777.159 381.305 788.076Q382.03 779.981 383.243 771.944C383.934 755.345 386.868 738.881 388.382 722.346C390.163 702.901 390.515 683.637 391.418 664.169Q396.583 667.319 401.676 670.585Z"/>
	<path fill="#FEFEFE" d="M391.418 664.169Q396.583 667.319 401.676 670.585C398.975 685.127 398.543 699.604 397.216 714.296C396.07 726.974 394.208 739.611 392.671 752.246C391.507 761.816 391.024 771.567 388.053 780.805C386.551 777.922 385.161 774.547 383.243 771.944C383.934 755.345 386.868 738.881 388.382 722.346C390.163 702.901 390.515 683.637 391.418 664.169Z"/>
	<path fill="#413164" d="M320.27 821.675C326.222 830.094 331.871 838.759 338.644 846.558C368.403 880.824 408.249 898.522 451.189 910.45C459.236 912.686 467.6 913.562 475.635 915.824C443.077 932.184 405.878 938.136 370.502 945.511C321.77 955.67 273.088 963.504 223.786 970.269C204.22 972.953 184.641 976.191 164.98 978.073C151.255 979.386 137.344 979.432 123.571 980.162C120.09 976.787 116.651 968.183 113.341 963.684C101.179 947.153 86.6629 934.019 70.0774 922.088C81.7925 914.37 95.5395 908.768 108.205 902.674C153.784 880.742 201.186 863.718 248.845 846.961L320.27 821.675Z"/>
	<path fill="#FEFEFE" d="M257.101 136.888C305.522 141.024 335.525 100.741 372.639 77.4226C430.917 40.8071 505.347 35.5644 570.637 54.4678C589.673 59.9794 623.871 71.3432 636.601 86.4353C649.898 102.199 656.643 133.988 654.694 154.183C654.04 160.954 652.147 166.976 649.439 173.18C646.052 141.036 634.472 114.801 608.933 94.1888C575.038 66.8319 532.092 57.0751 489.305 61.8231C449.634 66.2255 395.996 89.6328 370.926 121.221L370.337 121.967C420.878 83.3081 470.059 58.2913 535.563 66.9637C569.42 71.4461 602.657 87.9681 623.628 115.405C636.173 131.819 643.2 151.064 643.627 171.763C641.23 165.657 638.841 159.639 635.563 153.934C623.814 133.489 603.689 119.323 582.392 110.072C544.598 93.6566 503.282 94.503 465.281 109.634C447.282 116.8 431.018 126.76 415.164 137.802C391.729 154.125 362.809 181.471 332.663 179.838C326.957 179.529 321.646 177.887 316.344 175.854C326.295 188.307 339.566 195.611 355.439 197.375C385.748 200.746 413.525 187.525 436.56 168.909C445.068 162.034 453.21 154.694 461.797 147.918C481.832 132.11 504.124 119.528 528.806 112.686C538.354 110.038 548.771 107.788 558.732 108.82C584.538 111.494 613.331 130.984 629.299 150.99C637.91 161.779 640.966 172.931 641.003 186.595C633.809 166.357 619.941 152.928 600.676 143.713Q599.745 143.256 598.802 142.823Q597.86 142.389 596.907 141.979Q595.954 141.57 594.991 141.184Q594.028 140.799 593.055 140.437Q592.083 140.076 591.102 139.739Q590.121 139.402 589.131 139.09Q588.142 138.778 587.145 138.49Q586.148 138.203 585.145 137.941Q584.141 137.679 583.131 137.442Q582.121 137.205 581.106 136.993Q580.09 136.782 579.07 136.596Q578.049 136.41 577.024 136.249Q575.999 136.089 574.971 135.954Q573.942 135.82 572.91 135.711Q571.879 135.602 570.845 135.519Q569.811 135.437 568.775 135.38Q567.739 135.323 566.702 135.292Q565.665 135.261 564.628 135.256Q563.591 135.251 562.553 135.272Q561.516 135.293 560.48 135.34Q559.444 135.388 558.409 135.461Q557.374 135.534 556.342 135.633Q555.309 135.732 554.279 135.857Q553.249 135.981 552.223 136.132Q551.197 136.283 550.174 136.459Q549.152 136.635 548.135 136.837Q547.117 137.039 546.105 137.267Q545.093 137.494 544.087 137.747Q543.081 137.999 542.081 138.277Q541.082 138.555 540.089 138.858Q539.097 139.161 538.113 139.488Q537.129 139.816 536.153 140.168C489.062 157.024 463.598 209.986 420.785 235.343C415.641 238.39 409.946 241.887 404.14 243.442C398.066 242.437 390.966 243.946 384.767 243.96C370.572 243.991 356.746 241.741 343.039 238.164C338.438 236.964 333.739 235.103 329.589 232.779C324.583 229.975 319.421 225.97 313.858 224.427C311.534 223.783 310.098 223.824 307.984 224.979C302.365 220.666 297.207 216.517 290.778 213.403C292.586 217.329 294.47 220.518 297.401 223.716C291.117 233.766 283.516 243.209 278.848 254.174C276.376 259.979 273.748 276.768 271.077 280.126C270.35 262.172 275.787 244.524 283.72 228.598C286.493 223.031 289.721 217.699 292.258 212.017C296.69 209.393 300.036 205.751 303.592 202.1C285.528 211.799 267.869 225.675 261.658 246.043C260.221 250.756 260.207 257.99 257.538 261.99C257.508 259.816 257.63 257.707 257.923 255.553C262.188 224.108 284.622 198.267 309.023 179.692C295.444 184.938 286.403 193.357 276.318 203.536C268.647 205.136 263.513 211.59 256.195 213.072C259.102 206.405 263.915 200.217 268.352 194.474Q275.25 185.426 283.026 177.121Q290.803 168.817 299.379 161.34C313.133 149.217 327.298 138.774 339.073 124.536C328.971 131.943 318.908 140.454 306.642 143.897C301.686 143.078 295.135 145.187 290.017 145.452C281.472 145.895 276.736 143.746 268.759 141.938C266.449 141.415 265.391 141.207 263.338 142.502C261.113 140.737 259.105 138.897 257.101 136.888Z"/>
	<path fill="#210B51" d="M317.167 190.654C341.14 201.779 367.282 212.119 394.207 208.792C389.76 211.986 384.191 214.05 379.102 216.016C362.096 222.585 344.801 227.205 326.465 224.208C318.925 222.976 311.992 220.474 305.379 216.667C302.821 215.872 300.349 213.628 298.272 211.996C303.969 212.117 309.947 212.577 315.602 211.812C322.348 210.899 326.187 207.85 330.161 202.633C325.257 198.974 321.134 195.314 317.167 190.654Z"/>
	<path fill="#FEFEFE" d="M319.565 217.404C323.674 214.841 339.747 216.294 345.458 215.66C348.513 215.321 350.996 214.2 353.869 213.29C354.033 213.238 354.199 213.191 354.364 213.141C357.527 213.951 360.738 214.689 363.862 215.636C349.632 217.617 333.812 219.655 319.565 217.404Z"/>
	<path fill="#AF87F8" d="M330.161 202.633C337.912 207.171 345.693 210.746 354.364 213.141C354.199 213.191 354.033 213.238 353.869 213.29C350.996 214.2 348.513 215.321 345.458 215.66C339.747 216.294 323.674 214.841 319.565 217.404C314.859 217.69 309.964 215.765 305.379 216.667C302.821 215.872 300.349 213.628 298.272 211.996C303.969 212.117 309.947 212.577 315.602 211.812C322.348 210.899 326.187 207.85 330.161 202.633Z"/>
	<path fill="#584973" d="M715.748 804.346C733.85 811.153 751.637 818.832 769.589 826.029L872.612 867.139Q893.575 875.572 914.626 883.783C928.654 889.169 944.564 893.914 957.028 902.456C960.266 914.548 968.012 942.722 967.445 954.923C966.755 956.153 966.598 957.03 966.53 958.443C966.279 963.667 967.031 969.125 967.275 974.359C967.64 982.196 967.592 990.067 967.536 997.91C967.473 1006.64 966.584 1015.3 966.465 1024L141.449 1024C139.111 1018.52 137.432 1012.61 135.318 1007.02Q130.055 993.324 123.571 980.162C137.344 979.432 151.255 979.386 164.98 978.073C184.641 976.191 204.22 972.953 223.786 970.269C273.088 963.504 321.77 955.67 370.502 945.511C405.878 938.136 443.077 932.184 475.635 915.824C490.309 917.64 504.821 919.387 519.619 919.797C569.952 921.19 624.17 910.964 664.683 879.432C688.763 860.69 709.853 834.855 715.748 804.346Z"/>
	<path fill="#FEFEFE" d="M521.286 199.657C547.041 196.546 568.152 200.491 592.402 208.7C598.677 210.825 605.587 212.822 611.076 216.616C612.651 217.286 613.334 217.357 615.025 216.991C619.094 216.111 621.773 216.679 625.677 217.854C636.99 230.602 660.179 265.668 662.746 282.05C664.848 295.466 663.253 308.603 663.568 322.032C670.25 331.995 676.294 342.828 678.616 354.733C681.58 369.932 677.613 422.864 682.9 430.739C684.276 432.789 686.947 433.563 689.207 434.207C699.227 416.182 710.138 394.119 731.625 387.86C736.743 386.369 742.387 386.249 747.174 388.871C752.834 391.973 755.603 398.036 757.213 404.003C764.799 432.114 756.581 464.634 742.224 489.203C732.997 504.994 719.821 523.433 701.15 528.171C698.9 528.742 696.201 529.352 694.006 528.239C692.24 527.343 691.488 525.609 691.12 523.777C689.859 517.5 691.121 510.603 690.169 504.104C683.431 516.207 681.812 532.871 679.027 546.499C676.074 560.953 673.13 575.51 668.66 589.584C658.491 621.603 641.319 630.019 614.113 646.194C599.113 655.111 584.12 665 568.032 671.844C543.974 686.677 515.991 691.592 488.143 692.021C480.618 692.136 472.716 692.343 465.341 690.672C465.202 690.641 465.064 690.606 464.926 690.573C464.575 688.653 462.537 688.355 460.961 687.737C455.05 685.416 449.183 683.177 443.646 680.011C435.263 675.217 427.535 669.069 419.653 663.495C404.612 652.859 385.851 642.606 375.09 627.325C370.218 620.407 366.321 606.161 364.201 597.759C356.49 567.199 354.26 535.487 351.376 504.199C348.538 473.401 345.529 442.818 344.591 411.887Q344.081 392.076 345.068 372.283C345.444 364.167 346.416 355.78 346.058 347.674C345.949 345.189 345.919 342.944 344.462 340.838C344.315 331.841 345.827 322.831 346.3 313.843Q346.897 301.318 346.432 288.788Q345.968 276.258 344.446 263.812L345.822 264.175C365.988 272.065 386.074 275.981 407.806 274.528C456.011 271.303 491.49 233.765 521.286 199.657Z"/>
	<path fill="#210B51" d="M550.698 456.394C551.168 456.774 551.612 457.207 552.02 457.654C555.937 461.944 558.103 468.575 557.754 474.339C557.388 480.369 554.447 484.082 550.181 487.946C549.237 488.634 548.208 489.224 547.217 489.845C547.342 487.736 549.55 485.259 550.444 483.293C554.484 474.405 552.247 465.523 550.698 456.394Z"/>
	<path fill="#210B51" d="M476.349 588.071C482.483 588.123 488.622 588.409 494.753 588.376C501.741 588.338 517.676 586.354 523.784 589.329L523.66 590.389C522.504 591.874 520.768 592.633 519.145 593.514Q516.829 594.421 514.482 595.247C505.038 598.515 491.59 599.216 482.498 594.453C479.596 592.933 477.315 591.264 476.349 588.071Z"/>
	<path fill="#210B51" d="M463.422 491.969C461.66 491.242 460.038 490.433 458.562 489.206C454.615 485.926 452.641 481.635 452.309 476.545C452.049 472.545 452.84 468.728 454.343 465.035C458.59 454.59 475.353 433.259 483.225 424.445C480.423 439.788 470.626 448.522 462.856 461.29C459.138 467.399 457.54 472.849 459.31 479.963C460.282 484.056 463.136 487.838 463.422 491.969Z"/>
	<path fill="#E5C9E6" d="M541.809 337.795L543.315 338.346C543.554 338.105 543.79 337.861 544.034 337.624C544.241 337.424 544.456 337.232 544.666 337.035C563.891 342.646 580.937 340.67 600.366 338.101C608.773 336.989 618.842 335.832 627.206 337.448C624.492 337.535 621.636 337.244 618.969 337.737C609.431 339.501 577.542 349.555 571.45 356.202C570.836 356.872 570.859 357.145 570.642 357.986C570.87 358.4 571.106 358.947 571.406 359.307C562.263 362.315 553.999 365.892 549.324 374.963Q547.67 378.159 546.587 381.59C540.873 375.312 536.657 370.872 535.476 361.937C534.275 352.851 536.277 345.089 541.809 337.795Z"/>
	<path fill="#210B51" d="M582.353 518.793C584.148 518.976 585.812 519.262 587.502 519.921C593.651 522.32 602.593 530.12 604.931 536.403C605.32 537.45 605.248 537.62 604.821 538.581C601.827 540.075 597.991 540.035 594.741 540.887C584.775 543.501 575.092 546.64 564.88 548.254C547.208 551.047 529.37 551.429 511.551 552.542C482.096 554.382 448.162 558.593 419.079 552.981L419.037 552.715C419.007 552.536 418.974 552.359 418.946 552.18C418.409 548.771 419.356 546.116 421.433 543.377C423.083 541.203 426.782 537.794 429.743 537.821C431.113 537.834 431.214 538.113 432.034 539.086C432.535 542.674 430.301 545.184 428.446 548.038C444.72 552.239 487.488 546.069 506.425 544.568C527.532 542.896 548.783 542.116 569.782 539.282C577.448 538.247 584.869 536.428 592.354 534.53C589.426 532.558 585.913 530.461 583.835 527.568C581.771 524.695 581.756 522.162 582.353 518.793Z"/>
	<path fill="#210B51" d="M571.406 359.307C589.687 356.45 608.174 358.092 623.486 369.376C630.295 374.394 634.362 379.988 636.232 388.351C628.519 381.25 621.461 374.591 611.396 370.951C615.007 380.681 617.954 390.267 613.386 400.371C611.445 404.664 608.019 408.159 603.504 409.68C599.251 411.113 594.718 410.508 590.777 408.451C584.746 405.304 580.627 399.153 578.789 392.717C576.319 384.066 578.209 375.778 581.924 367.819C569.761 369.296 561.28 372.245 551.831 380.213C549.607 382.089 549.307 383.552 546.587 381.59Q547.67 378.159 549.324 374.963C553.999 365.892 562.263 362.315 571.406 359.307Z"/>
	<path fill="#FEFEFE" d="M608.793 378.647C609.452 378.817 610.493 379.126 611.031 379.525C611.777 380.079 612.262 380.608 612.477 381.508C613.002 383.715 611.968 385.073 610.817 386.841C610.637 386.748 610.451 386.666 610.277 386.562C608.916 385.755 607.274 384.394 607.053 382.738C606.827 381.049 607.849 379.903 608.793 378.647Z"/>
	<path fill="#210B51" d="M738.374 402.57L745.12 402.498C745.959 403.214 746.813 403.939 747.569 404.744C752.681 410.194 752.278 418.48 752.291 425.41C750.781 421.696 749.565 417.46 747.41 414.079C746.143 412.091 744.415 410.306 742.004 409.872C738.259 409.198 735.108 411.643 732.194 413.607C733.489 414.514 734.72 415.452 735.838 416.576C741.835 422.613 743.685 431.689 743.533 439.929C743.227 456.503 736.12 470.96 724.316 482.329C720.283 485.461 715.994 487.986 711.31 490.032C708.548 491.239 701.198 494.321 698.407 492.917C697.808 492.616 697.813 492.211 697.588 491.635C699.175 488.279 705.448 483.17 708.07 480.083C710.668 477.024 712.663 473.632 714.675 470.172C710.76 454.815 707.216 437.888 714.642 422.985C719.686 412.863 727.75 406.177 738.374 402.57Z"/>
	<path fill="#E5C9E6" d="M726.376 418.794C728.892 419.404 731.073 420.588 732.872 422.469C736.959 426.743 737.671 432.97 737.524 438.63C737.143 453.267 730.843 468.321 720.224 478.412C718.226 480.069 716.055 481.44 713.884 482.854C720.912 471.139 717.174 460.572 716.524 447.98C715.929 436.458 718.702 427.418 726.376 418.794Z"/>
	<path fill="#210B51" d="M386.158 402.525C383.799 400.689 381.707 398.013 380.169 395.448C377.688 391.312 376.493 386.704 377.796 381.96C379.574 375.483 385.073 370.539 390.786 367.39C405.123 359.487 425.486 358.412 441.025 362.934C451.232 365.904 461.988 373.297 466.934 382.973C467.474 384.029 467.705 384.203 467.335 385.374C458.142 379.848 450.318 373.333 439.568 370.989C442.712 373.609 445.409 376.117 447.831 379.455C445.845 379.438 443.628 379.189 441.756 379.924C440.924 380.929 441.036 381.324 440.922 382.644C444.11 388.998 451.829 382.834 447.386 396.389C445.417 402.396 441.419 407.658 435.598 410.347C431.121 412.415 426.362 412.455 421.781 410.677C416.724 408.714 413.205 404.696 411.147 399.754Q410.875 399.091 410.637 398.414Q410.398 397.738 410.194 397.051Q409.99 396.364 409.82 395.667Q409.65 394.971 409.515 394.267Q409.38 393.563 409.28 392.853Q409.18 392.143 409.116 391.429Q409.051 390.715 409.023 389.998Q408.994 389.282 409.001 388.565Q409.008 387.848 409.05 387.133Q409.093 386.417 409.171 385.704Q409.25 384.992 409.363 384.284Q409.477 383.576 409.625 382.874Q409.774 382.173 409.958 381.48Q410.141 380.787 410.359 380.104Q410.577 379.421 410.828 378.749Q411.079 378.078 411.364 377.42C412.395 375.007 413.811 372.749 415.222 370.544C407.277 372.238 396.606 374.127 391.657 381.297C387.28 387.637 390.829 396.681 386.158 402.525Z"/>
	<path fill="#E5C9E6" d="M459.31 479.963C459.475 479.786 459.642 479.611 459.806 479.433C462.177 476.839 463.447 473.544 466.171 471.163C471.477 466.525 488.393 463.547 495.477 463.084C508.877 462.208 532.143 464.757 542.558 474.065C544.207 475.539 545.379 477.455 546.568 479.298Q544.965 482.663 543.314 486.005L544.84 489.563C545.024 491.291 545.093 491.817 544.01 493.211C537.903 501.065 511.965 515.216 502.386 515.827C489.208 516.669 473.835 498.702 463.422 491.969C463.136 487.838 460.282 484.056 459.31 479.963Z"/>
	<path fill="#210B51" d="M469.364 480.514C474.153 480.335 478.404 481.025 482.773 482.992C485.666 484.294 490.479 486.967 491.474 490.224C491.71 490.997 491.422 491.113 491.052 491.745C489.624 492.206 488.264 491.598 486.879 491.199C483.239 489.96 478.502 487.859 474.72 487.605C471.222 487.37 466.582 489.636 463.485 487.747L463.424 486.781C464.92 483.871 466.663 482.335 469.364 480.514Z"/>
	<path fill="#210B51" d="M505.933 490.597C506.982 489.484 508.039 488.318 509.198 487.317C514.943 482.354 523.803 479.348 531.367 479.895C536.412 480.26 540.108 482.156 543.314 486.005L544.84 489.563C540.959 490.987 533.752 486.99 529.468 486.673C521.741 486.101 513.362 488.791 505.933 490.597Z"/>
	<path fill="#210B51" d="M538.553 327.233C539.63 322.031 540.128 316.612 544.992 313.494C549.655 310.505 555.99 309.426 561.352 308.213C580.559 303.872 601.205 300.433 620.664 305.209C632.775 308.181 643.258 314.293 649.76 325.18C653.569 331.557 655.657 338.562 657.814 345.611C648.577 341.493 637.501 337.219 627.206 337.448C618.842 335.832 608.773 336.989 600.366 338.101C580.937 340.67 563.891 342.646 544.666 337.035C544.456 337.232 544.241 337.424 544.034 337.624C543.79 337.861 543.554 338.105 543.315 338.346L541.809 337.795C537.867 333.821 534.165 329.809 534.242 323.818C534.309 318.643 537.222 314.086 540.25 310.104C539.008 315.969 538.415 321.24 538.553 327.233Z"/>
	<path fill="#E5C9E6" d="M521.286 199.657C547.041 196.546 568.152 200.491 592.402 208.7C598.677 210.825 605.587 212.822 611.076 216.616C610.754 216.636 610.432 216.66 610.11 216.675C605.449 216.894 600.235 215.855 595.636 215.066C580.483 212.468 565.198 208.239 549.741 210.864C529.853 214.24 516.354 231.438 502.371 244.429C492.421 253.673 481.629 263.201 469.996 270.283C453.142 280.543 436.365 288.899 417.93 295.933C409.391 299.19 400.265 301.611 391.928 305.25C393.548 306.261 394.143 306.184 396.053 306.005C401.176 305.596 406.077 305.556 411.186 306.176C421.81 307.465 446.003 313.735 454.13 320.917C460.034 326.134 463.121 335.13 465.25 342.485C471.599 345.052 476.54 350.708 479.105 357.009C482.075 364.303 481.918 372.909 478.813 380.163C477.789 382.553 476.158 385.029 473.581 385.913C471.531 386.617 469.249 386.323 467.335 385.374C467.705 384.203 467.474 384.029 466.934 382.973C461.988 373.297 451.232 365.904 441.025 362.934C425.486 358.412 405.123 359.487 390.786 367.39C385.073 370.539 379.574 375.483 377.796 381.96C376.493 386.704 377.688 391.312 380.169 395.448C381.707 398.013 383.799 400.689 386.158 402.525C382.056 404.489 375.13 424.303 373.356 429.313C370.275 438.01 368.082 447.021 367.829 456.278C366.603 501.095 394.61 581.945 413.872 622.208Q417.088 628.829 420.74 635.221Q424.392 641.612 428.463 647.745Q432.534 653.878 437.007 659.724Q441.479 665.571 446.333 671.105C474.14 680.695 511.883 678.87 540.762 675.231C549.208 674.167 559.623 670.654 568.032 671.844C543.974 686.677 515.991 691.592 488.143 692.021C480.618 692.136 472.716 692.343 465.341 690.672C465.202 690.641 465.064 690.606 464.926 690.573C464.575 688.653 462.537 688.355 460.961 687.737C455.05 685.416 449.183 683.177 443.646 680.011C435.263 675.217 427.535 669.069 419.653 663.495C404.612 652.859 385.851 642.606 375.09 627.325C370.218 620.407 366.321 606.161 364.201 597.759C356.49 567.199 354.26 535.487 351.376 504.199C348.538 473.401 345.529 442.818 344.591 411.887Q344.081 392.076 345.068 372.283C345.444 364.167 346.416 355.78 346.058 347.674C345.949 345.189 345.919 342.944 344.462 340.838C344.315 331.841 345.827 322.831 346.3 313.843Q346.897 301.318 346.432 288.788Q345.968 276.258 344.446 263.812L345.822 264.175C365.988 272.065 386.074 275.981 407.806 274.528C456.011 271.303 491.49 233.765 521.286 199.657Z"/>
	<path fill="#F7EDFA" d="M357.192 323.731C366.323 313.763 379.396 309.298 391.928 305.25C393.548 306.261 394.143 306.184 396.053 306.005C388.487 307.722 382.552 310.403 376.098 314.708L375.859 314.184L376.044 313.61C370.701 312.788 361.587 320.897 357.192 323.731Z"/>
	<path fill="#210B51" d="M396.053 306.005C401.176 305.596 406.077 305.556 411.186 306.176C421.81 307.465 446.003 313.735 454.13 320.917C460.034 326.134 463.121 335.13 465.25 342.485L464.261 342.823C460.683 341.05 457.789 335.413 455.551 332.096L458.74 341.599C448.447 343.627 437.668 343.481 427.249 342.646C410.856 341.331 393.209 337.107 377.577 344.242C373.154 346.26 368.856 349.095 365.281 352.391C362.597 354.864 360.088 357.984 356.861 359.722L356.193 359.461C355.69 358.016 355.713 356.722 355.779 355.197C356.47 339.101 364.427 325.278 376.098 314.708C382.552 310.403 388.487 307.722 396.053 306.005Z"/>
</svg>
